solid PARTassembly
   facet normal -1.0000 0.0000 0.0000
      outer loop
         vertex 0.0000 4.9272 -0.0000
         vertex 0.0000 4.7593 -1.2753
         vertex 0.0000 4.7593 1.2753
      endloop
   endfacet
   facet normal -1.0000 0.0000 0.0000
      outer loop
         vertex 0.0000 4.7593 1.2753
         vertex 0.0000 4.7593 -1.2753
         vertex 0.0000 4.2671 -2.4636
      endloop
   endfacet
   facet normal -1.0000 0.0000 0.0000
      outer loop
         vertex 0.0000 4.7593 1.2753
         vertex 0.0000 4.2671 -2.4636
         vertex 0.0000 4.2671 2.4636
      endloop
   endfacet
   facet normal -1.0000 0.0000 0.0000
      outer loop
         vertex 0.0000 4.2671 2.4636
         vertex 0.0000 4.2671 -2.4636
         vertex 0.0000 4.1000 -0.0000
      endloop
   endfacet
   facet normal -1.0000 0.0000 0.0000
      outer loop
         vertex 0.0000 4.2671 2.4636
         vertex 0.0000 4.1000 -0.0000
         vertex 0.0000 3.9603 1.0612
      endloop
   endfacet
   facet normal -1.0000 0.0000 0.0000
      outer loop
         vertex 0.0000 -1.0612 -3.9603
         vertex 0.0000 -0.0000 -4.1000
         vertex 0.0000 -0.0000 -4.9272
      endloop
   endfacet
   facet normal -1.0000 0.0000 0.0000
      outer loop
         vertex 0.0000 -0.0000 -4.9272
         vertex 0.0000 -0.0000 -4.1000
         vertex 0.0000 1.0612 -3.9603
      endloop
   endfacet
   facet normal -1.0000 0.0000 0.0000
      outer loop
         vertex 0.0000 -0.0000 -4.9272
         vertex 0.0000 1.0612 -3.9603
         vertex 0.0000 1.2753 -4.7593
      endloop
   endfacet
   facet normal -1.0000 0.0000 0.0000
      outer loop
         vertex 0.0000 1.2753 -4.7593
         vertex 0.0000 1.0612 -3.9603
         vertex 0.0000 2.0500 -3.5507
      endloop
   endfacet
   facet normal -1.0000 0.0000 0.0000
      outer loop
         vertex 0.0000 1.2753 -4.7593
         vertex 0.0000 2.0500 -3.5507
         vertex 0.0000 2.4636 -4.2671
      endloop
   endfacet
   facet normal -1.0000 0.0000 0.0000
      outer loop
         vertex 0.0000 2.4636 -4.2671
         vertex 0.0000 2.0500 -3.5507
         vertex 0.0000 2.8991 -2.8991
      endloop
   endfacet
   facet normal -1.0000 0.0000 0.0000
      outer loop
         vertex 0.0000 2.4636 -4.2671
         vertex 0.0000 2.8991 -2.8991
         vertex 0.0000 3.4841 -3.4841
      endloop
   endfacet
   facet normal -1.0000 0.0000 0.0000
      outer loop
         vertex 0.0000 3.4841 -3.4841
         vertex 0.0000 2.8991 -2.8991
         vertex 0.0000 3.5507 -2.0500
      endloop
   endfacet
   facet normal -1.0000 0.0000 0.0000
      outer loop
         vertex 0.0000 3.4841 -3.4841
         vertex 0.0000 3.5507 -2.0500
         vertex 0.0000 4.2671 -2.4636
      endloop
   endfacet
   facet normal -1.0000 0.0000 0.0000
      outer loop
         vertex 0.0000 4.2671 -2.4636
         vertex 0.0000 3.5507 -2.0500
         vertex 0.0000 3.9603 -1.0612
      endloop
   endfacet
   facet normal -1.0000 0.0000 0.0000
      outer loop
         vertex 0.0000 4.2671 -2.4636
         vertex 0.0000 3.9603 -1.0612
         vertex 0.0000 4.1000 -0.0000
      endloop
   endfacet
   facet normal -1.0000 0.0000 0.0000
      outer loop
         vertex 0.0000 -3.9603 -1.0612
         vertex 0.0000 -3.5507 -2.0500
         vertex 0.0000 -3.4841 -3.4841
      endloop
   endfacet
   facet normal -1.0000 0.0000 0.0000
      outer loop
         vertex 0.0000 -3.4841 -3.4841
         vertex 0.0000 -3.5507 -2.0500
         vertex 0.0000 -2.8991 -2.8991
      endloop
   endfacet
   facet normal -1.0000 0.0000 0.0000
      outer loop
         vertex 0.0000 -3.4841 -3.4841
         vertex 0.0000 -2.8991 -2.8991
         vertex 0.0000 -2.4636 -4.2671
      endloop
   endfacet
   facet normal -1.0000 0.0000 0.0000
      outer loop
         vertex 0.0000 -2.4636 -4.2671
         vertex 0.0000 -2.8991 -2.8991
         vertex 0.0000 -2.0500 -3.5507
      endloop
   endfacet
   facet normal -1.0000 0.0000 0.0000
      outer loop
         vertex 0.0000 -2.4636 -4.2671
         vertex 0.0000 -2.0500 -3.5507
         vertex 0.0000 -1.2753 -4.7593
      endloop
   endfacet
   facet normal -1.0000 0.0000 0.0000
      outer loop
         vertex 0.0000 -1.2753 -4.7593
         vertex 0.0000 -2.0500 -3.5507
         vertex 0.0000 -1.0612 -3.9603
      endloop
   endfacet
   facet normal -1.0000 0.0000 0.0000
      outer loop
         vertex 0.0000 -1.2753 -4.7593
         vertex 0.0000 -1.0612 -3.9603
         vertex 0.0000 -0.0000 -4.9272
      endloop
   endfacet
   facet normal -1.0000 0.0000 0.0000
      outer loop
         vertex 0.0000 -2.8991 2.8991
         vertex 0.0000 -3.5507 2.0500
         vertex 0.0000 -3.4841 3.4841
      endloop
   endfacet
   facet normal -1.0000 0.0000 0.0000
      outer loop
         vertex 0.0000 -3.4841 3.4841
         vertex 0.0000 -3.5507 2.0500
         vertex 0.0000 -3.9603 1.0612
      endloop
   endfacet
   facet normal -1.0000 0.0000 0.0000
      outer loop
         vertex 0.0000 -3.4841 3.4841
         vertex 0.0000 -3.9603 1.0612
         vertex 0.0000 -4.2671 2.4636
      endloop
   endfacet
   facet normal -1.0000 0.0000 0.0000
      outer loop
         vertex 0.0000 -4.2671 2.4636
         vertex 0.0000 -3.9603 1.0612
         vertex 0.0000 -4.1000 0.0000
      endloop
   endfacet
   facet normal -1.0000 0.0000 0.0000
      outer loop
         vertex 0.0000 -4.2671 2.4636
         vertex 0.0000 -4.1000 0.0000
         vertex 0.0000 -4.2671 -2.4636
      endloop
   endfacet
   facet normal -1.0000 0.0000 0.0000
      outer loop
         vertex 0.0000 -4.2671 -2.4636
         vertex 0.0000 -4.1000 0.0000
         vertex 0.0000 -3.9603 -1.0612
      endloop
   endfacet
   facet normal -1.0000 0.0000 0.0000
      outer loop
         vertex 0.0000 -4.2671 -2.4636
         vertex 0.0000 -3.9603 -1.0612
         vertex 0.0000 -3.4841 -3.4841
      endloop
   endfacet
   facet normal -1.0000 0.0000 0.0000
      outer loop
         vertex 0.0000 3.5507 2.0500
         vertex 0.0000 2.9493 2.8481
         vertex 0.0000 3.5443 3.4227
      endloop
   endfacet
   facet normal -1.0000 0.0000 0.0000
      outer loop
         vertex 0.0000 3.5507 2.0500
         vertex 0.0000 3.5443 3.4227
         vertex 0.0000 4.2671 2.4636
      endloop
   endfacet
   facet normal -1.0000 0.0000 0.0000
      outer loop
         vertex 0.0000 3.5507 2.0500
         vertex 0.0000 4.2671 2.4636
         vertex 0.0000 3.9603 1.0612
      endloop
   endfacet
   facet normal -1.0000 0.0000 0.0000
      outer loop
         vertex 0.0000 3.4841 3.4841
         vertex 0.0000 2.8991 2.8991
         vertex 0.0000 2.4636 4.2671
      endloop
   endfacet
   facet normal -1.0000 0.0000 0.0000
      outer loop
         vertex 0.0000 2.4636 4.2671
         vertex 0.0000 2.8991 2.8991
         vertex 0.0000 2.0500 3.5507
      endloop
   endfacet
   facet normal -1.0000 0.0000 0.0000
      outer loop
         vertex 0.0000 2.4636 4.2671
         vertex 0.0000 2.0500 3.5507
         vertex 0.0000 1.2753 4.7593
      endloop
   endfacet
   facet normal -1.0000 0.0000 0.0000
      outer loop
         vertex 0.0000 1.2753 4.7593
         vertex 0.0000 2.0500 3.5507
         vertex 0.0000 1.0612 3.9603
      endloop
   endfacet
   facet normal -1.0000 0.0000 0.0000
      outer loop
         vertex 0.0000 1.2753 4.7593
         vertex 0.0000 1.0612 3.9603
         vertex 0.0000 0.0000 4.1000
      endloop
   endfacet
   facet normal -1.0000 0.0000 0.0000
      outer loop
         vertex 0.0000 1.2753 4.7593
         vertex 0.0000 0.0000 4.1000
         vertex 0.0000 0.0000 4.9272
      endloop
   endfacet
   facet normal -1.0000 0.0000 0.0000
      outer loop
         vertex 0.0000 0.0000 4.9272
         vertex 0.0000 0.0000 4.1000
         vertex 0.0000 -1.0612 3.9603
      endloop
   endfacet
   facet normal -1.0000 0.0000 0.0000
      outer loop
         vertex 0.0000 0.0000 4.9272
         vertex 0.0000 -1.0612 3.9603
         vertex 0.0000 -1.2753 4.7593
      endloop
   endfacet
   facet normal -1.0000 0.0000 0.0000
      outer loop
         vertex 0.0000 -1.2753 4.7593
         vertex 0.0000 -1.0612 3.9603
         vertex 0.0000 -2.0500 3.5507
      endloop
   endfacet
   facet normal -1.0000 0.0000 0.0000
      outer loop
         vertex 0.0000 -1.2753 4.7593
         vertex 0.0000 -2.0500 3.5507
         vertex 0.0000 -2.4636 4.2671
      endloop
   endfacet
   facet normal -1.0000 0.0000 0.0000
      outer loop
         vertex 0.0000 -2.4636 4.2671
         vertex 0.0000 -2.0500 3.5507
         vertex 0.0000 -2.8991 2.8991
      endloop
   endfacet
   facet normal -1.0000 0.0000 0.0000
      outer loop
         vertex 0.0000 -2.4636 4.2671
         vertex 0.0000 -2.8991 2.8991
         vertex 0.0000 -3.4841 3.4841
      endloop
   endfacet
   facet normal -1.0000 0.0000 0.0000
      outer loop
         vertex 0.0000 -4.7593 -1.2753
         vertex 0.0000 -4.9272 0.0000
         vertex 0.0000 -4.7593 1.2753
      endloop
   endfacet
   facet normal -1.0000 0.0000 0.0000
      outer loop
         vertex 0.0000 -4.7593 -1.2753
         vertex 0.0000 -4.7593 1.2753
         vertex 0.0000 -4.2671 2.4636
      endloop
   endfacet
   facet normal -1.0000 0.0000 0.0000
      outer loop
         vertex 0.0000 -4.7593 -1.2753
         vertex 0.0000 -4.2671 2.4636
         vertex 0.0000 -4.2671 -2.4636
      endloop
   endfacet
   facet normal 1.0000 0.0000 0.0000
      outer loop
         vertex 10.0000 -1.0612 3.9603
         vertex 10.0000 0.0000 4.1000
         vertex 10.0000 0.0000 4.9272
      endloop
   endfacet
   facet normal 1.0000 0.0000 0.0000
      outer loop
         vertex 10.0000 0.0000 4.9272
         vertex 10.0000 0.0000 4.1000
         vertex 10.0000 1.0612 3.9603
      endloop
   endfacet
   facet normal 1.0000 0.0000 0.0000
      outer loop
         vertex 10.0000 0.0000 4.9272
         vertex 10.0000 1.0612 3.9603
         vertex 10.0000 1.2753 4.7593
      endloop
   endfacet
   facet normal 1.0000 0.0000 0.0000
      outer loop
         vertex 10.0000 1.2753 4.7593
         vertex 10.0000 1.0612 3.9603
         vertex 10.0000 2.0500 3.5507
      endloop
   endfacet
   facet normal 1.0000 0.0000 0.0000
      outer loop
         vertex 10.0000 1.2753 4.7593
         vertex 10.0000 2.0500 3.5507
         vertex 10.0000 2.4636 4.2671
      endloop
   endfacet
   facet normal 1.0000 0.0000 0.0000
      outer loop
         vertex 10.0000 2.4636 4.2671
         vertex 10.0000 2.0500 3.5507
         vertex 10.0000 2.8991 2.8991
      endloop
   endfacet
   facet normal 1.0000 0.0000 0.0000
      outer loop
         vertex 10.0000 2.4636 4.2671
         vertex 10.0000 2.8991 2.8991
         vertex 10.0000 3.4841 3.4841
      endloop
   endfacet
   facet normal 1.0000 0.0000 0.0000
      outer loop
         vertex 10.0000 -3.9603 1.0612
         vertex 10.0000 -3.5507 2.0500
         vertex 10.0000 -3.4841 3.4841
      endloop
   endfacet
   facet normal 1.0000 0.0000 0.0000
      outer loop
         vertex 10.0000 -3.4841 3.4841
         vertex 10.0000 -3.5507 2.0500
         vertex 10.0000 -2.8991 2.8991
      endloop
   endfacet
   facet normal 1.0000 0.0000 0.0000
      outer loop
         vertex 10.0000 -3.4841 3.4841
         vertex 10.0000 -2.8991 2.8991
         vertex 10.0000 -2.4636 4.2671
      endloop
   endfacet
   facet normal 1.0000 0.0000 0.0000
      outer loop
         vertex 10.0000 -2.4636 4.2671
         vertex 10.0000 -2.8991 2.8991
         vertex 10.0000 -2.0500 3.5507
      endloop
   endfacet
   facet normal 1.0000 0.0000 0.0000
      outer loop
         vertex 10.0000 -2.4636 4.2671
         vertex 10.0000 -2.0500 3.5507
         vertex 10.0000 -1.2753 4.7593
      endloop
   endfacet
   facet normal 1.0000 0.0000 0.0000
      outer loop
         vertex 10.0000 -1.2753 4.7593
         vertex 10.0000 -2.0500 3.5507
         vertex 10.0000 -1.0612 3.9603
      endloop
   endfacet
   facet normal 1.0000 0.0000 0.0000
      outer loop
         vertex 10.0000 -1.2753 4.7593
         vertex 10.0000 -1.0612 3.9603
         vertex 10.0000 0.0000 4.9272
      endloop
   endfacet
   facet normal 1.0000 0.0000 0.0000
      outer loop
         vertex 10.0000 -2.8991 -2.8991
         vertex 10.0000 -3.5507 -2.0500
         vertex 10.0000 -3.4841 -3.4841
      endloop
   endfacet
   facet normal 1.0000 0.0000 0.0000
      outer loop
         vertex 10.0000 -3.4841 -3.4841
         vertex 10.0000 -3.5507 -2.0500
         vertex 10.0000 -3.9603 -1.0612
      endloop
   endfacet
   facet normal 1.0000 0.0000 0.0000
      outer loop
         vertex 10.0000 -3.4841 -3.4841
         vertex 10.0000 -3.9603 -1.0612
         vertex 10.0000 -4.2671 -2.4636
      endloop
   endfacet
   facet normal 1.0000 0.0000 0.0000
      outer loop
         vertex 10.0000 -4.2671 -2.4636
         vertex 10.0000 -3.9603 -1.0612
         vertex 10.0000 -4.1000 0.0000
      endloop
   endfacet
   facet normal 1.0000 0.0000 0.0000
      outer loop
         vertex 10.0000 -4.2671 -2.4636
         vertex 10.0000 -4.1000 0.0000
         vertex 10.0000 -4.2671 2.4636
      endloop
   endfacet
   facet normal 1.0000 0.0000 0.0000
      outer loop
         vertex 10.0000 -4.2671 2.4636
         vertex 10.0000 -4.1000 0.0000
         vertex 10.0000 -3.9603 1.0612
      endloop
   endfacet
   facet normal 1.0000 0.0000 0.0000
      outer loop
         vertex 10.0000 -4.2671 2.4636
         vertex 10.0000 -3.9603 1.0612
         vertex 10.0000 -3.4841 3.4841
      endloop
   endfacet
   facet normal 1.0000 0.0000 0.0000
      outer loop
         vertex 10.0000 4.9272 -0.0000
         vertex 10.0000 4.7593 1.2753
         vertex 10.0000 4.7593 -1.2753
      endloop
   endfacet
   facet normal 1.0000 0.0000 0.0000
      outer loop
         vertex 10.0000 4.7593 -1.2753
         vertex 10.0000 4.7593 1.2753
         vertex 10.0000 4.2671 2.4636
      endloop
   endfacet
   facet normal 1.0000 0.0000 0.0000
      outer loop
         vertex 10.0000 4.7593 -1.2753
         vertex 10.0000 4.2671 2.4636
         vertex 10.0000 4.2671 -2.4636
      endloop
   endfacet
   facet normal 1.0000 0.0000 0.0000
      outer loop
         vertex 10.0000 4.2671 -2.4636
         vertex 10.0000 4.2671 2.4636
         vertex 10.0000 4.1000 -0.0000
      endloop
   endfacet
   facet normal 1.0000 0.0000 0.0000
      outer loop
         vertex 10.0000 4.2671 -2.4636
         vertex 10.0000 4.1000 -0.0000
         vertex 10.0000 3.9603 -1.0612
      endloop
   endfacet
   facet normal 1.0000 0.0000 0.0000
      outer loop
         vertex 10.0000 4.2671 2.4636
         vertex 10.0000 3.5443 3.4227
         vertex 10.0000 3.5507 2.0500
      endloop
   endfacet
   facet normal 1.0000 0.0000 0.0000
      outer loop
         vertex 10.0000 4.2671 2.4636
         vertex 10.0000 3.5507 2.0500
         vertex 10.0000 3.9603 1.0612
      endloop
   endfacet
   facet normal 1.0000 0.0000 0.0000
      outer loop
         vertex 10.0000 4.2671 2.4636
         vertex 10.0000 3.9603 1.0612
         vertex 10.0000 4.1000 -0.0000
      endloop
   endfacet
   facet normal 1.0000 0.0000 0.0000
      outer loop
         vertex 10.0000 1.0612 -3.9603
         vertex 10.0000 1.2753 -4.7593
         vertex 10.0000 2.0500 -3.5507
      endloop
   endfacet
   facet normal 1.0000 0.0000 0.0000
      outer loop
         vertex 10.0000 2.0500 -3.5507
         vertex 10.0000 1.2753 -4.7593
         vertex 10.0000 2.4636 -4.2671
      endloop
   endfacet
   facet normal 1.0000 0.0000 0.0000
      outer loop
         vertex 10.0000 2.0500 -3.5507
         vertex 10.0000 2.4636 -4.2671
         vertex 10.0000 2.8991 -2.8991
      endloop
   endfacet
   facet normal 1.0000 0.0000 0.0000
      outer loop
         vertex 10.0000 2.8991 -2.8991
         vertex 10.0000 2.4636 -4.2671
         vertex 10.0000 3.4841 -3.4841
      endloop
   endfacet
   facet normal 1.0000 0.0000 0.0000
      outer loop
         vertex 10.0000 2.8991 -2.8991
         vertex 10.0000 3.4841 -3.4841
         vertex 10.0000 3.5507 -2.0500
      endloop
   endfacet
   facet normal 1.0000 0.0000 0.0000
      outer loop
         vertex 10.0000 3.5507 -2.0500
         vertex 10.0000 3.4841 -3.4841
         vertex 10.0000 4.2671 -2.4636
      endloop
   endfacet
   facet normal 1.0000 0.0000 0.0000
      outer loop
         vertex 10.0000 3.5507 -2.0500
         vertex 10.0000 4.2671 -2.4636
         vertex 10.0000 3.9603 -1.0612
      endloop
   endfacet
   facet normal 1.0000 0.0000 0.0000
      outer loop
         vertex 10.0000 -2.8991 -2.8991
         vertex 10.0000 -2.4636 -4.2671
         vertex 10.0000 -2.0500 -3.5507
      endloop
   endfacet
   facet normal 1.0000 0.0000 0.0000
      outer loop
         vertex 10.0000 -2.0500 -3.5507
         vertex 10.0000 -2.4636 -4.2671
         vertex 10.0000 -1.2753 -4.7593
      endloop
   endfacet
   facet normal 1.0000 0.0000 0.0000
      outer loop
         vertex 10.0000 -2.0500 -3.5507
         vertex 10.0000 -1.2753 -4.7593
         vertex 10.0000 -1.0612 -3.9603
      endloop
   endfacet
   facet normal 1.0000 0.0000 0.0000
      outer loop
         vertex 10.0000 -1.0612 -3.9603
         vertex 10.0000 -1.2753 -4.7593
         vertex 10.0000 -0.0000 -4.9272
      endloop
   endfacet
   facet normal 1.0000 0.0000 0.0000
      outer loop
         vertex 10.0000 -1.0612 -3.9603
         vertex 10.0000 -0.0000 -4.9272
         vertex 10.0000 -0.0000 -4.1000
      endloop
   endfacet
   facet normal 1.0000 0.0000 0.0000
      outer loop
         vertex 10.0000 -0.0000 -4.1000
         vertex 10.0000 -0.0000 -4.9272
         vertex 10.0000 1.2753 -4.7593
      endloop
   endfacet
   facet normal 1.0000 0.0000 0.0000
      outer loop
         vertex 10.0000 -0.0000 -4.1000
         vertex 10.0000 1.2753 -4.7593
         vertex 10.0000 1.0612 -3.9603
      endloop
   endfacet
   facet normal 1.0000 0.0000 0.0000
      outer loop
         vertex 10.0000 -4.7593 1.2753
         vertex 10.0000 -4.9272 0.0000
         vertex 10.0000 -4.7593 -1.2753
      endloop
   endfacet
   facet normal 1.0000 0.0000 0.0000
      outer loop
         vertex 10.0000 -4.7593 1.2753
         vertex 10.0000 -4.7593 -1.2753
         vertex 10.0000 -4.2671 -2.4636
      endloop
   endfacet
   facet normal 1.0000 0.0000 0.0000
      outer loop
         vertex 10.0000 -4.7593 1.2753
         vertex 10.0000 -4.2671 -2.4636
         vertex 10.0000 -4.2671 2.4636
      endloop
   endfacet
   facet normal 1.0000 0.0000 0.0000
      outer loop
         vertex 10.0000 -2.8991 -2.8991
         vertex 10.0000 -3.4841 -3.4841
         vertex 10.0000 -2.4636 -4.2671
      endloop
   endfacet
   facet normal 1.0000 0.0000 0.0000
      outer loop
         vertex 10.0000 3.5507 2.0500
         vertex 10.0000 3.5443 3.4227
         vertex 10.0000 2.9493 2.8481
      endloop
   endfacet
   facet normal 0.0000 0.7071 -0.7071
      outer loop
         vertex 0.1000 2.8284 2.8284
         vertex 0.0000 2.8991 2.8991
         vertex 0.0000 3.4841 3.4841
      endloop
   endfacet
   facet normal 0.0000 0.7071 -0.7071
      outer loop
         vertex 0.1000 2.8284 2.8284
         vertex 0.0000 3.4841 3.4841
         vertex 0.2000 3.5355 3.5355
      endloop
   endfacet
   facet normal 0.0000 0.7071 -0.7071
      outer loop
         vertex 0.1000 2.8284 2.8284
         vertex 0.2000 3.5355 3.5355
         vertex 9.8000 3.5355 3.5355
      endloop
   endfacet
   facet normal 0.0000 0.7071 -0.7071
      outer loop
         vertex 0.1000 2.8284 2.8284
         vertex 9.8000 3.5355 3.5355
         vertex 10.0000 3.4841 3.4841
      endloop
   endfacet
   facet normal 0.0000 0.7071 -0.7071
      outer loop
         vertex 0.1000 2.8284 2.8284
         vertex 10.0000 3.4841 3.4841
         vertex 10.0000 2.8991 2.8991
      endloop
   endfacet
   facet normal 0.0000 0.7071 -0.7071
      outer loop
         vertex 0.1000 2.8284 2.8284
         vertex 10.0000 2.8991 2.8991
         vertex 9.9000 2.8284 2.8284
      endloop
   endfacet
   facet normal 0.0000 0.8193 -0.5734
      outer loop
         vertex 0.2000 4.3301 -2.5000
         vertex 9.8000 4.3301 -2.5000
         vertex 9.8000 3.5355 -3.5355
      endloop
   endfacet
   facet normal 0.0000 0.7659 -0.6430
      outer loop
         vertex 0.2000 4.3301 -2.5000
         vertex 9.8000 3.5355 -3.5355
         vertex 0.2000 3.5355 -3.5355
      endloop
   endfacet
   facet normal 0.3443 0.7191 -0.6036
      outer loop
         vertex 10.0000 3.4841 -3.4841
         vertex 9.8000 3.5355 -3.5355
         vertex 9.8000 4.3301 -2.5000
      endloop
   endfacet
   facet normal 0.3443 0.7692 -0.5383
      outer loop
         vertex 10.0000 3.4841 -3.4841
         vertex 9.8000 4.3301 -2.5000
         vertex 10.0000 4.2671 -2.4636
      endloop
   endfacet
   facet normal 0.7098 -0.5771 0.4039
      outer loop
         vertex 10.0000 2.8991 -2.8991
         vertex 10.0000 3.5507 -2.0500
         vertex 9.9000 3.4641 -2.0000
      endloop
   endfacet
   facet normal 0.7098 -0.5395 0.4529
      outer loop
         vertex 10.0000 2.8991 -2.8991
         vertex 9.9000 3.4641 -2.0000
         vertex 9.9000 2.8284 -2.8284
      endloop
   endfacet
   facet normal 0.0000 -0.7659 0.6430
      outer loop
         vertex 0.1000 2.8284 -2.8284
         vertex 9.9000 2.8284 -2.8284
         vertex 9.9000 3.4641 -2.0000
      endloop
   endfacet
   facet normal 0.0000 -0.8193 0.5734
      outer loop
         vertex 0.1000 2.8284 -2.8284
         vertex 9.9000 3.4641 -2.0000
         vertex 0.1000 3.4641 -2.0000
      endloop
   endfacet
   facet normal -0.7098 -0.5395 0.4529
      outer loop
         vertex 0.0000 2.8991 -2.8991
         vertex 0.1000 2.8284 -2.8284
         vertex 0.1000 3.4641 -2.0000
      endloop
   endfacet
   facet normal -0.7098 -0.5771 0.4039
      outer loop
         vertex 0.0000 2.8991 -2.8991
         vertex 0.1000 3.4641 -2.0000
         vertex 0.0000 3.5507 -2.0500
      endloop
   endfacet
   facet normal -0.3443 0.7692 -0.5383
      outer loop
         vertex 0.0000 3.4841 -3.4841
         vertex 0.0000 4.2671 -2.4636
         vertex 0.2000 4.3301 -2.5000
      endloop
   endfacet
   facet normal -0.3443 0.7191 -0.6036
      outer loop
         vertex 0.0000 3.4841 -3.4841
         vertex 0.2000 4.3301 -2.5000
         vertex 0.2000 3.5355 -3.5355
      endloop
   endfacet
   facet normal 0.0000 0.9398 -0.3418
      outer loop
         vertex 0.2000 4.8296 -1.2941
         vertex 9.8000 4.8296 -1.2941
         vertex 9.8000 4.3301 -2.5000
      endloop
   endfacet
   facet normal 0.0000 0.9062 -0.4228
      outer loop
         vertex 0.2000 4.8296 -1.2941
         vertex 9.8000 4.3301 -2.5000
         vertex 0.2000 4.3301 -2.5000
      endloop
   endfacet
   facet normal 0.3443 0.8508 -0.3970
      outer loop
         vertex 10.0000 4.7593 -1.2753
         vertex 10.0000 4.2671 -2.4636
         vertex 9.8000 4.3301 -2.5000
      endloop
   endfacet
   facet normal 0.3443 0.8823 -0.3209
      outer loop
         vertex 10.0000 4.7593 -1.2753
         vertex 9.8000 4.3301 -2.5000
         vertex 9.8000 4.8296 -1.2941
      endloop
   endfacet
   facet normal 0.7098 -0.6620 0.2408
      outer loop
         vertex 10.0000 3.5507 -2.0500
         vertex 10.0000 3.9603 -1.0612
         vertex 9.9000 3.8637 -1.0353
      endloop
   endfacet
   facet normal 0.7098 -0.6383 0.2978
      outer loop
         vertex 10.0000 3.5507 -2.0500
         vertex 9.9000 3.8637 -1.0353
         vertex 9.9000 3.4641 -2.0000
      endloop
   endfacet
   facet normal 0.0000 -0.9062 0.4228
      outer loop
         vertex 0.1000 3.4641 -2.0000
         vertex 9.9000 3.4641 -2.0000
         vertex 9.9000 3.8637 -1.0353
      endloop
   endfacet
   facet normal 0.0000 -0.9398 0.3418
      outer loop
         vertex 0.1000 3.4641 -2.0000
         vertex 9.9000 3.8637 -1.0353
         vertex 0.1000 3.8637 -1.0353
      endloop
   endfacet
   facet normal -0.7098 -0.6383 0.2978
      outer loop
         vertex 0.0000 3.5507 -2.0500
         vertex 0.1000 3.4641 -2.0000
         vertex 0.1000 3.8637 -1.0353
      endloop
   endfacet
   facet normal -0.7098 -0.6620 0.2408
      outer loop
         vertex 0.0000 3.5507 -2.0500
         vertex 0.1000 3.8637 -1.0353
         vertex 0.0000 3.9603 -1.0612
      endloop
   endfacet
   facet normal -0.3443 0.8823 -0.3209
      outer loop
         vertex 0.0000 4.2671 -2.4636
         vertex 0.0000 4.7593 -1.2753
         vertex 0.2000 4.8296 -1.2941
      endloop
   endfacet
   facet normal -0.3443 0.8508 -0.3970
      outer loop
         vertex 0.0000 4.2671 -2.4636
         vertex 0.2000 4.8296 -1.2941
         vertex 0.2000 4.3301 -2.5000
      endloop
   endfacet
   facet normal 0.0000 0.9962 -0.0869
      outer loop
         vertex 0.2000 4.8296 -1.2941
         vertex 0.2000 5.0000 -0.0000
         vertex 9.8000 5.0000 -0.0000
      endloop
   endfacet
   facet normal 0.0000 0.9848 -0.1739
      outer loop
         vertex 0.2000 4.8296 -1.2941
         vertex 9.8000 5.0000 -0.0000
         vertex 9.8000 4.8296 -1.2941
      endloop
   endfacet
   facet normal 0.3443 0.9245 -0.1632
      outer loop
         vertex 10.0000 4.9272 -0.0000
         vertex 10.0000 4.7593 -1.2753
         vertex 9.8000 4.8296 -1.2941
      endloop
   endfacet
   facet normal 0.3443 0.9353 -0.0816
      outer loop
         vertex 10.0000 4.9272 -0.0000
         vertex 9.8000 4.8296 -1.2941
         vertex 9.8000 5.0000 -0.0000
      endloop
   endfacet
   facet normal 0.7098 -0.6937 0.1225
      outer loop
         vertex 9.9000 3.8637 -1.0353
         vertex 10.0000 3.9603 -1.0612
         vertex 10.0000 4.1000 -0.0000
      endloop
   endfacet
   facet normal 0.7098 -0.7017 0.0612
      outer loop
         vertex 9.9000 3.8637 -1.0353
         vertex 10.0000 4.1000 -0.0000
         vertex 9.9000 4.0000 -0.0000
      endloop
   endfacet
   facet normal 0.0000 -0.9848 0.1739
      outer loop
         vertex 0.1000 3.8637 -1.0353
         vertex 9.9000 3.8637 -1.0353
         vertex 9.9000 4.0000 -0.0000
      endloop
   endfacet
   facet normal 0.0000 -0.9962 0.0869
      outer loop
         vertex 0.1000 3.8637 -1.0353
         vertex 9.9000 4.0000 -0.0000
         vertex 0.1000 4.0000 -0.0000
      endloop
   endfacet
   facet normal -0.7098 -0.6937 0.1225
      outer loop
         vertex 0.0000 3.9603 -1.0612
         vertex 0.1000 3.8637 -1.0353
         vertex 0.1000 4.0000 -0.0000
      endloop
   endfacet
   facet normal -0.7098 -0.7017 0.0612
      outer loop
         vertex 0.0000 3.9603 -1.0612
         vertex 0.1000 4.0000 -0.0000
         vertex 0.0000 4.1000 -0.0000
      endloop
   endfacet
   facet normal -0.3443 0.9353 -0.0816
      outer loop
         vertex 0.0000 4.7593 -1.2753
         vertex 0.0000 4.9272 -0.0000
         vertex 0.2000 5.0000 -0.0000
      endloop
   endfacet
   facet normal -0.3443 0.9245 -0.1632
      outer loop
         vertex 0.0000 4.7593 -1.2753
         vertex 0.2000 5.0000 -0.0000
         vertex 0.2000 4.8296 -1.2941
      endloop
   endfacet
   facet normal 0.0000 0.9848 0.1739
      outer loop
         vertex 0.2000 5.0000 -0.0000
         vertex 0.2000 4.8296 1.2941
         vertex 9.8000 4.8296 1.2941
      endloop
   endfacet
   facet normal 0.0000 0.9962 0.0869
      outer loop
         vertex 0.2000 5.0000 -0.0000
         vertex 9.8000 4.8296 1.2941
         vertex 9.8000 5.0000 -0.0000
      endloop
   endfacet
   facet normal 0.3443 0.9353 0.0816
      outer loop
         vertex 10.0000 4.7593 1.2753
         vertex 10.0000 4.9272 -0.0000
         vertex 9.8000 5.0000 -0.0000
      endloop
   endfacet
   facet normal 0.3443 0.9245 0.1632
      outer loop
         vertex 10.0000 4.7593 1.2753
         vertex 9.8000 5.0000 -0.0000
         vertex 9.8000 4.8296 1.2941
      endloop
   endfacet
   facet normal 0.7098 -0.7017 -0.0612
      outer loop
         vertex 9.9000 4.0000 -0.0000
         vertex 10.0000 4.1000 -0.0000
         vertex 10.0000 3.9603 1.0612
      endloop
   endfacet
   facet normal 0.7098 -0.6937 -0.1225
      outer loop
         vertex 9.9000 4.0000 -0.0000
         vertex 10.0000 3.9603 1.0612
         vertex 9.9000 3.8637 1.0353
      endloop
   endfacet
   facet normal 0.0000 -0.9962 -0.0869
      outer loop
         vertex 0.1000 4.0000 -0.0000
         vertex 9.9000 4.0000 -0.0000
         vertex 9.9000 3.8637 1.0353
      endloop
   endfacet
   facet normal 0.0000 -0.9848 -0.1739
      outer loop
         vertex 0.1000 4.0000 -0.0000
         vertex 9.9000 3.8637 1.0353
         vertex 0.1000 3.8637 1.0353
      endloop
   endfacet
   facet normal -0.7098 -0.7017 -0.0612
      outer loop
         vertex 0.0000 4.1000 -0.0000
         vertex 0.1000 4.0000 -0.0000
         vertex 0.1000 3.8637 1.0353
      endloop
   endfacet
   facet normal -0.7098 -0.6937 -0.1225
      outer loop
         vertex 0.0000 4.1000 -0.0000
         vertex 0.1000 3.8637 1.0353
         vertex 0.0000 3.9603 1.0612
      endloop
   endfacet
   facet normal -0.3443 0.9245 0.1632
      outer loop
         vertex 0.0000 4.9272 -0.0000
         vertex 0.0000 4.7593 1.2753
         vertex 0.2000 4.8296 1.2941
      endloop
   endfacet
   facet normal -0.3443 0.9353 0.0816
      outer loop
         vertex 0.0000 4.9272 -0.0000
         vertex 0.2000 4.8296 1.2941
         vertex 0.2000 5.0000 -0.0000
      endloop
   endfacet
   facet normal 0.0000 0.9403 0.3405
      outer loop
         vertex 9.8000 4.8296 1.2941
         vertex 0.2000 4.8296 1.2941
         vertex 0.2000 4.3301 2.5000
      endloop
   endfacet
   facet normal 0.0000 0.9074 0.4202
      outer loop
         vertex 9.8000 4.8296 1.2941
         vertex 0.2000 4.3301 2.5000
         vertex 9.8000 4.3301 2.5000
      endloop
   endfacet
   facet normal 0.3443 0.8828 0.3197
      outer loop
         vertex 10.0000 4.2671 2.4636
         vertex 10.0000 4.7593 1.2753
         vertex 9.8000 4.8296 1.2941
      endloop
   endfacet
   facet normal 0.3443 0.8520 0.3945
      outer loop
         vertex 10.0000 4.2671 2.4636
         vertex 9.8000 4.8296 1.2941
         vertex 9.8000 4.3301 2.5000
      endloop
   endfacet
   facet normal 0.7097 -0.6624 -0.2399
      outer loop
         vertex 9.9000 3.8637 1.0353
         vertex 10.0000 3.9603 1.0612
         vertex 10.0000 3.5507 2.0500
      endloop
   endfacet
   facet normal 0.7097 -0.6393 -0.2960
      outer loop
         vertex 9.9000 3.8637 1.0353
         vertex 10.0000 3.5507 2.0500
         vertex 9.9000 3.4641 2.0000
      endloop
   endfacet
   facet normal 0.0000 -0.9403 -0.3405
      outer loop
         vertex 0.1000 3.8637 1.0353
         vertex 9.9000 3.8637 1.0353
         vertex 9.9000 3.4641 2.0000
      endloop
   endfacet
   facet normal 0.0000 -0.9074 -0.4202
      outer loop
         vertex 0.1000 3.8637 1.0353
         vertex 9.9000 3.4641 2.0000
         vertex 0.1000 3.4641 2.0000
      endloop
   endfacet
   facet normal -0.7097 -0.6624 -0.2399
      outer loop
         vertex 0.0000 3.9603 1.0612
         vertex 0.1000 3.8637 1.0353
         vertex 0.1000 3.4641 2.0000
      endloop
   endfacet
   facet normal -0.7097 -0.6393 -0.2960
      outer loop
         vertex 0.0000 3.9603 1.0612
         vertex 0.1000 3.4641 2.0000
         vertex 0.0000 3.5507 2.0500
      endloop
   endfacet
   facet normal -0.3443 0.8520 0.3945
      outer loop
         vertex 0.0000 4.7593 1.2753
         vertex 0.0000 4.2671 2.4636
         vertex 0.2000 4.3301 2.5000
      endloop
   endfacet
   facet normal -0.3443 0.8828 0.3197
      outer loop
         vertex 0.0000 4.7593 1.2753
         vertex 0.2000 4.3301 2.5000
         vertex 0.2000 4.8296 1.2941
      endloop
   endfacet
   facet normal 0.0000 0.8464 0.5326
      outer loop
         vertex 9.8000 4.3301 2.5000
         vertex 0.2000 4.3301 2.5000
         vertex 0.2000 3.5967 3.4733
      endloop
   endfacet
   facet normal 0.0000 0.8232 0.5678
      outer loop
         vertex 9.8000 4.3301 2.5000
         vertex 0.2000 3.5967 3.4733
         vertex 9.8000 3.5967 3.4733
      endloop
   endfacet
   facet normal 0.3418 0.7954 0.5005
      outer loop
         vertex 10.0000 4.2671 2.4636
         vertex 9.8000 4.3301 2.5000
         vertex 9.8000 3.5967 3.4733
      endloop
   endfacet
   facet normal 0.3410 0.7738 0.5338
      outer loop
         vertex 10.0000 4.2671 2.4636
         vertex 9.8000 3.5967 3.4733
         vertex 10.0000 3.5443 3.4227
      endloop
   endfacet
   facet normal 0.7069 -0.5987 -0.3767
      outer loop
         vertex 9.9000 3.4641 2.0000
         vertex 10.0000 3.5507 2.0500
         vertex 10.0000 2.9493 2.8481
      endloop
   endfacet
   facet normal 0.7060 -0.5830 -0.4021
      outer loop
         vertex 9.9000 3.4641 2.0000
         vertex 10.0000 2.9493 2.8481
         vertex 9.9000 2.8774 2.7786
      endloop
   endfacet
   facet normal 0.0000 -0.8464 -0.5326
      outer loop
         vertex 0.1000 3.4641 2.0000
         vertex 9.9000 3.4641 2.0000
         vertex 9.9000 2.8774 2.7786
      endloop
   endfacet
   facet normal 0.0000 -0.8232 -0.5678
      outer loop
         vertex 0.1000 3.4641 2.0000
         vertex 9.9000 2.8774 2.7786
         vertex 0.1000 2.8774 2.7786
      endloop
   endfacet
   facet normal -0.7069 -0.5987 -0.3767
      outer loop
         vertex 0.0000 3.5507 2.0500
         vertex 0.1000 3.4641 2.0000
         vertex 0.1000 2.8774 2.7786
      endloop
   endfacet
   facet normal -0.7060 -0.5830 -0.4021
      outer loop
         vertex 0.0000 3.5507 2.0500
         vertex 0.1000 2.8774 2.7786
         vertex 0.0000 2.9493 2.8481
      endloop
   endfacet
   facet normal -0.3418 0.7954 0.5005
      outer loop
         vertex 0.2000 4.3301 2.5000
         vertex 0.0000 4.2671 2.4636
         vertex 0.0000 3.5443 3.4227
      endloop
   endfacet
   facet normal -0.3410 0.7738 0.5338
      outer loop
         vertex 0.2000 4.3301 2.5000
         vertex 0.0000 3.5443 3.4227
         vertex 0.2000 3.5967 3.4733
      endloop
   endfacet
   facet normal 0.0000 -0.6947 0.7193
      outer loop
         vertex 10.0000 2.9493 2.8481
         vertex 10.0000 3.5443 3.4227
         vertex 9.8000 3.5967 3.4733
      endloop
   endfacet
   facet normal 0.0000 -0.6947 0.7193
      outer loop
         vertex 10.0000 2.9493 2.8481
         vertex 9.8000 3.5967 3.4733
         vertex 0.2000 3.5967 3.4733
      endloop
   endfacet
   facet normal 0.0000 -0.6947 0.7193
      outer loop
         vertex 10.0000 2.9493 2.8481
         vertex 0.2000 3.5967 3.4733
         vertex 0.0000 3.5443 3.4227
      endloop
   endfacet
   facet normal 0.0000 -0.6947 0.7193
      outer loop
         vertex 10.0000 2.9493 2.8481
         vertex 0.0000 3.5443 3.4227
         vertex 0.0000 2.9493 2.8481
      endloop
   endfacet
   facet normal 0.0000 -0.6947 0.7193
      outer loop
         vertex 10.0000 2.9493 2.8481
         vertex 0.0000 2.9493 2.8481
         vertex 0.1000 2.8774 2.7786
      endloop
   endfacet
   facet normal 0.0000 -0.6947 0.7193
      outer loop
         vertex 10.0000 2.9493 2.8481
         vertex 0.1000 2.8774 2.7786
         vertex 9.9000 2.8774 2.7786
      endloop
   endfacet
   facet normal 0.0000 0.5738 0.8190
      outer loop
         vertex 9.8000 2.5000 4.3301
         vertex 9.8000 3.5355 3.5355
         vertex 0.2000 3.5355 3.5355
      endloop
   endfacet
   facet normal 0.0000 0.5375 0.8433
      outer loop
         vertex 9.8000 2.5000 4.3301
         vertex 0.2000 3.5355 3.5355
         vertex 0.2000 2.5000 4.3301
      endloop
   endfacet
   facet normal 0.3409 0.5394 0.7699
      outer loop
         vertex 10.0000 3.4841 3.4841
         vertex 9.8000 3.5355 3.5355
         vertex 9.8000 2.5000 4.3301
      endloop
   endfacet
   facet normal 0.3417 0.5051 0.7925
      outer loop
         vertex 10.0000 3.4841 3.4841
         vertex 9.8000 2.5000 4.3301
         vertex 10.0000 2.4636 4.2671
      endloop
   endfacet
   facet normal 0.7057 -0.4065 -0.5802
      outer loop
         vertex 9.9000 2.0000 3.4641
         vertex 9.9000 2.8284 2.8284
         vertex 10.0000 2.8991 2.8991
      endloop
   endfacet
   facet normal 0.7068 -0.3802 -0.5966
      outer loop
         vertex 9.9000 2.0000 3.4641
         vertex 10.0000 2.8991 2.8991
         vertex 10.0000 2.0500 3.5507
      endloop
   endfacet
   facet normal 0.0000 -0.5738 -0.8190
      outer loop
         vertex 0.1000 2.8284 2.8284
         vertex 9.9000 2.8284 2.8284
         vertex 9.9000 2.0000 3.4641
      endloop
   endfacet
   facet normal 0.0000 -0.5375 -0.8433
      outer loop
         vertex 0.1000 2.8284 2.8284
         vertex 9.9000 2.0000 3.4641
         vertex 0.1000 2.0000 3.4641
      endloop
   endfacet
   facet normal -0.7057 -0.4065 -0.5802
      outer loop
         vertex 0.0000 2.8991 2.8991
         vertex 0.1000 2.8284 2.8284
         vertex 0.1000 2.0000 3.4641
      endloop
   endfacet
   facet normal -0.7068 -0.3802 -0.5966
      outer loop
         vertex 0.0000 2.8991 2.8991
         vertex 0.1000 2.0000 3.4641
         vertex 0.0000 2.0500 3.5507
      endloop
   endfacet
   facet normal -0.3409 0.5394 0.7699
      outer loop
         vertex 0.2000 2.5000 4.3301
         vertex 0.2000 3.5355 3.5355
         vertex 0.0000 3.4841 3.4841
      endloop
   endfacet
   facet normal -0.3417 0.5051 0.7925
      outer loop
         vertex 0.2000 2.5000 4.3301
         vertex 0.0000 3.4841 3.4841
         vertex 0.0000 2.4636 4.2671
      endloop
   endfacet
   facet normal 0.0000 0.4228 0.9062
      outer loop
         vertex 9.8000 1.2941 4.8296
         vertex 9.8000 2.5000 4.3301
         vertex 0.2000 2.5000 4.3301
      endloop
   endfacet
   facet normal 0.0000 0.3418 0.9398
      outer loop
         vertex 9.8000 1.2941 4.8296
         vertex 0.2000 2.5000 4.3301
         vertex 0.2000 1.2941 4.8296
      endloop
   endfacet
   facet normal 0.3443 0.3970 0.8508
      outer loop
         vertex 10.0000 2.4636 4.2671
         vertex 9.8000 2.5000 4.3301
         vertex 9.8000 1.2941 4.8296
      endloop
   endfacet
   facet normal 0.3443 0.3209 0.8823
      outer loop
         vertex 10.0000 2.4636 4.2671
         vertex 9.8000 1.2941 4.8296
         vertex 10.0000 1.2753 4.7593
      endloop
   endfacet
   facet normal 0.7098 -0.2978 -0.6383
      outer loop
         vertex 9.9000 1.0353 3.8637
         vertex 9.9000 2.0000 3.4641
         vertex 10.0000 2.0500 3.5507
      endloop
   endfacet
   facet normal 0.7098 -0.2408 -0.6620
      outer loop
         vertex 9.9000 1.0353 3.8637
         vertex 10.0000 2.0500 3.5507
         vertex 10.0000 1.0612 3.9603
      endloop
   endfacet
   facet normal 0.0000 -0.4228 -0.9062
      outer loop
         vertex 0.1000 2.0000 3.4641
         vertex 9.9000 2.0000 3.4641
         vertex 9.9000 1.0353 3.8637
      endloop
   endfacet
   facet normal 0.0000 -0.3418 -0.9398
      outer loop
         vertex 0.1000 2.0000 3.4641
         vertex 9.9000 1.0353 3.8637
         vertex 0.1000 1.0353 3.8637
      endloop
   endfacet
   facet normal -0.7098 -0.2978 -0.6383
      outer loop
         vertex 0.0000 2.0500 3.5507
         vertex 0.1000 2.0000 3.4641
         vertex 0.1000 1.0353 3.8637
      endloop
   endfacet
   facet normal -0.7098 -0.2408 -0.6620
      outer loop
         vertex 0.0000 2.0500 3.5507
         vertex 0.1000 1.0353 3.8637
         vertex 0.0000 1.0612 3.9603
      endloop
   endfacet
   facet normal -0.3443 0.3970 0.8508
      outer loop
         vertex 0.2000 1.2941 4.8296
         vertex 0.2000 2.5000 4.3301
         vertex 0.0000 2.4636 4.2671
      endloop
   endfacet
   facet normal -0.3443 0.3209 0.8823
      outer loop
         vertex 0.2000 1.2941 4.8296
         vertex 0.0000 2.4636 4.2671
         vertex 0.0000 1.2753 4.7593
      endloop
   endfacet
   facet normal 0.0000 0.1739 0.9848
      outer loop
         vertex 9.8000 0.0000 5.0000
         vertex 9.8000 1.2941 4.8296
         vertex 0.2000 1.2941 4.8296
      endloop
   endfacet
   facet normal 0.0000 0.0869 0.9962
      outer loop
         vertex 9.8000 0.0000 5.0000
         vertex 0.2000 1.2941 4.8296
         vertex 0.2000 0.0000 5.0000
      endloop
   endfacet
   facet normal 0.3443 0.1632 0.9245
      outer loop
         vertex 10.0000 0.0000 4.9272
         vertex 10.0000 1.2753 4.7593
         vertex 9.8000 1.2941 4.8296
      endloop
   endfacet
   facet normal 0.3443 0.0816 0.9353
      outer loop
         vertex 10.0000 0.0000 4.9272
         vertex 9.8000 1.2941 4.8296
         vertex 9.8000 0.0000 5.0000
      endloop
   endfacet
   facet normal 0.7098 -0.1225 -0.6937
      outer loop
         vertex 9.9000 -0.0000 4.0000
         vertex 9.9000 1.0353 3.8637
         vertex 10.0000 1.0612 3.9603
      endloop
   endfacet
   facet normal 0.7098 -0.0612 -0.7017
      outer loop
         vertex 9.9000 -0.0000 4.0000
         vertex 10.0000 1.0612 3.9603
         vertex 10.0000 0.0000 4.1000
      endloop
   endfacet
   facet normal 0.0000 -0.1739 -0.9848
      outer loop
         vertex 0.1000 1.0353 3.8637
         vertex 9.9000 1.0353 3.8637
         vertex 9.9000 -0.0000 4.0000
      endloop
   endfacet
   facet normal 0.0000 -0.0869 -0.9962
      outer loop
         vertex 0.1000 1.0353 3.8637
         vertex 9.9000 -0.0000 4.0000
         vertex 0.1000 0.0000 4.0000
      endloop
   endfacet
   facet normal -0.7098 -0.1225 -0.6937
      outer loop
         vertex 0.0000 1.0612 3.9603
         vertex 0.1000 1.0353 3.8637
         vertex 0.1000 0.0000 4.0000
      endloop
   endfacet
   facet normal -0.7098 -0.0612 -0.7017
      outer loop
         vertex 0.0000 1.0612 3.9603
         vertex 0.1000 0.0000 4.0000
         vertex 0.0000 0.0000 4.1000
      endloop
   endfacet
   facet normal -0.3443 0.0816 0.9353
      outer loop
         vertex 0.0000 1.2753 4.7593
         vertex 0.0000 0.0000 4.9272
         vertex 0.2000 0.0000 5.0000
      endloop
   endfacet
   facet normal -0.3443 0.1632 0.9245
      outer loop
         vertex 0.0000 1.2753 4.7593
         vertex 0.2000 0.0000 5.0000
         vertex 0.2000 1.2941 4.8296
      endloop
   endfacet
   facet normal 0.0000 -0.0869 0.9962
      outer loop
         vertex 9.8000 -1.2941 4.8296
         vertex 9.8000 0.0000 5.0000
         vertex 0.2000 0.0000 5.0000
      endloop
   endfacet
   facet normal 0.0000 -0.1739 0.9848
      outer loop
         vertex 9.8000 -1.2941 4.8296
         vertex 0.2000 0.0000 5.0000
         vertex 0.2000 -1.2941 4.8296
      endloop
   endfacet
   facet normal 0.3443 -0.0816 0.9353
      outer loop
         vertex 10.0000 -1.2753 4.7593
         vertex 10.0000 0.0000 4.9272
         vertex 9.8000 0.0000 5.0000
      endloop
   endfacet
   facet normal 0.3443 -0.1632 0.9245
      outer loop
         vertex 10.0000 -1.2753 4.7593
         vertex 9.8000 0.0000 5.0000
         vertex 9.8000 -1.2941 4.8296
      endloop
   endfacet
   facet normal 0.7098 0.0612 -0.7017
      outer loop
         vertex 9.9000 -1.0353 3.8637
         vertex 9.9000 -0.0000 4.0000
         vertex 10.0000 0.0000 4.1000
      endloop
   endfacet
   facet normal 0.7098 0.1225 -0.6937
      outer loop
         vertex 9.9000 -1.0353 3.8637
         vertex 10.0000 0.0000 4.1000
         vertex 10.0000 -1.0612 3.9603
      endloop
   endfacet
   facet normal 0.0000 0.0869 -0.9962
      outer loop
         vertex 0.1000 0.0000 4.0000
         vertex 9.9000 -0.0000 4.0000
         vertex 9.9000 -1.0353 3.8637
      endloop
   endfacet
   facet normal 0.0000 0.1739 -0.9848
      outer loop
         vertex 0.1000 0.0000 4.0000
         vertex 9.9000 -1.0353 3.8637
         vertex 0.1000 -1.0353 3.8637
      endloop
   endfacet
   facet normal -0.7098 0.0612 -0.7017
      outer loop
         vertex 0.0000 0.0000 4.1000
         vertex 0.1000 0.0000 4.0000
         vertex 0.1000 -1.0353 3.8637
      endloop
   endfacet
   facet normal -0.7098 0.1225 -0.6937
      outer loop
         vertex 0.0000 0.0000 4.1000
         vertex 0.1000 -1.0353 3.8637
         vertex 0.0000 -1.0612 3.9603
      endloop
   endfacet
   facet normal -0.3443 -0.1632 0.9245
      outer loop
         vertex 0.0000 0.0000 4.9272
         vertex 0.0000 -1.2753 4.7593
         vertex 0.2000 -1.2941 4.8296
      endloop
   endfacet
   facet normal -0.3443 -0.0816 0.9353
      outer loop
         vertex 0.0000 0.0000 4.9272
         vertex 0.2000 -1.2941 4.8296
         vertex 0.2000 0.0000 5.0000
      endloop
   endfacet
   facet normal 0.0000 -0.3418 0.9398
      outer loop
         vertex 9.8000 -2.5000 4.3301
         vertex 9.8000 -1.2941 4.8296
         vertex 0.2000 -1.2941 4.8296
      endloop
   endfacet
   facet normal 0.0000 -0.4228 0.9062
      outer loop
         vertex 9.8000 -2.5000 4.3301
         vertex 0.2000 -1.2941 4.8296
         vertex 0.2000 -2.5000 4.3301
      endloop
   endfacet
   facet normal 0.3443 -0.3209 0.8823
      outer loop
         vertex 10.0000 -2.4636 4.2671
         vertex 10.0000 -1.2753 4.7593
         vertex 9.8000 -1.2941 4.8296
      endloop
   endfacet
   facet normal 0.3443 -0.3970 0.8508
      outer loop
         vertex 10.0000 -2.4636 4.2671
         vertex 9.8000 -1.2941 4.8296
         vertex 9.8000 -2.5000 4.3301
      endloop
   endfacet
   facet normal 0.7098 0.2408 -0.6620
      outer loop
         vertex 9.9000 -2.0000 3.4641
         vertex 9.9000 -1.0353 3.8637
         vertex 10.0000 -1.0612 3.9603
      endloop
   endfacet
   facet normal 0.7098 0.2978 -0.6383
      outer loop
         vertex 9.9000 -2.0000 3.4641
         vertex 10.0000 -1.0612 3.9603
         vertex 10.0000 -2.0500 3.5507
      endloop
   endfacet
   facet normal 0.0000 0.3418 -0.9398
      outer loop
         vertex 0.1000 -1.0353 3.8637
         vertex 9.9000 -1.0353 3.8637
         vertex 9.9000 -2.0000 3.4641
      endloop
   endfacet
   facet normal 0.0000 0.4228 -0.9062
      outer loop
         vertex 0.1000 -1.0353 3.8637
         vertex 9.9000 -2.0000 3.4641
         vertex 0.1000 -2.0000 3.4641
      endloop
   endfacet
   facet normal -0.7098 0.2408 -0.6620
      outer loop
         vertex 0.0000 -1.0612 3.9603
         vertex 0.1000 -1.0353 3.8637
         vertex 0.1000 -2.0000 3.4641
      endloop
   endfacet
   facet normal -0.7098 0.2978 -0.6383
      outer loop
         vertex 0.0000 -1.0612 3.9603
         vertex 0.1000 -2.0000 3.4641
         vertex 0.0000 -2.0500 3.5507
      endloop
   endfacet
   facet normal -0.3443 -0.3970 0.8508
      outer loop
         vertex 0.0000 -1.2753 4.7593
         vertex 0.0000 -2.4636 4.2671
         vertex 0.2000 -2.5000 4.3301
      endloop
   endfacet
   facet normal -0.3443 -0.3209 0.8823
      outer loop
         vertex 0.0000 -1.2753 4.7593
         vertex 0.2000 -2.5000 4.3301
         vertex 0.2000 -1.2941 4.8296
      endloop
   endfacet
   facet normal 0.0000 -0.5734 0.8193
      outer loop
         vertex 9.8000 -3.5355 3.5355
         vertex 9.8000 -2.5000 4.3301
         vertex 0.2000 -2.5000 4.3301
      endloop
   endfacet
   facet normal 0.0000 -0.6430 0.7659
      outer loop
         vertex 9.8000 -3.5355 3.5355
         vertex 0.2000 -2.5000 4.3301
         vertex 0.2000 -3.5355 3.5355
      endloop
   endfacet
   facet normal 0.3443 -0.5383 0.7692
      outer loop
         vertex 10.0000 -2.4636 4.2671
         vertex 9.8000 -2.5000 4.3301
         vertex 9.8000 -3.5355 3.5355
      endloop
   endfacet
   facet normal 0.3443 -0.6036 0.7191
      outer loop
         vertex 10.0000 -2.4636 4.2671
         vertex 9.8000 -3.5355 3.5355
         vertex 10.0000 -3.4841 3.4841
      endloop
   endfacet
   facet normal 0.7098 0.4039 -0.5771
      outer loop
         vertex 9.9000 -2.8284 2.8284
         vertex 9.9000 -2.0000 3.4641
         vertex 10.0000 -2.0500 3.5507
      endloop
   endfacet
   facet normal 0.7098 0.4529 -0.5395
      outer loop
         vertex 9.9000 -2.8284 2.8284
         vertex 10.0000 -2.0500 3.5507
         vertex 10.0000 -2.8991 2.8991
      endloop
   endfacet
   facet normal 0.0000 0.5734 -0.8193
      outer loop
         vertex 0.1000 -2.0000 3.4641
         vertex 9.9000 -2.0000 3.4641
         vertex 9.9000 -2.8284 2.8284
      endloop
   endfacet
   facet normal 0.0000 0.6430 -0.7659
      outer loop
         vertex 0.1000 -2.0000 3.4641
         vertex 9.9000 -2.8284 2.8284
         vertex 0.1000 -2.8284 2.8284
      endloop
   endfacet
   facet normal -0.7098 0.4039 -0.5771
      outer loop
         vertex 0.0000 -2.0500 3.5507
         vertex 0.1000 -2.0000 3.4641
         vertex 0.1000 -2.8284 2.8284
      endloop
   endfacet
   facet normal -0.7098 0.4529 -0.5395
      outer loop
         vertex 0.0000 -2.0500 3.5507
         vertex 0.1000 -2.8284 2.8284
         vertex 0.0000 -2.8991 2.8991
      endloop
   endfacet
   facet normal -0.3443 -0.5383 0.7692
      outer loop
         vertex 0.2000 -3.5355 3.5355
         vertex 0.2000 -2.5000 4.3301
         vertex 0.0000 -2.4636 4.2671
      endloop
   endfacet
   facet normal -0.3443 -0.6036 0.7191
      outer loop
         vertex 0.2000 -3.5355 3.5355
         vertex 0.0000 -2.4636 4.2671
         vertex 0.0000 -3.4841 3.4841
      endloop
   endfacet
   facet normal 0.0000 -0.7659 0.6430
      outer loop
         vertex 9.8000 -4.3301 2.5000
         vertex 9.8000 -3.5355 3.5355
         vertex 0.2000 -3.5355 3.5355
      endloop
   endfacet
   facet normal 0.0000 -0.8193 0.5734
      outer loop
         vertex 9.8000 -4.3301 2.5000
         vertex 0.2000 -3.5355 3.5355
         vertex 0.2000 -4.3301 2.5000
      endloop
   endfacet
   facet normal 0.3443 -0.7191 0.6036
      outer loop
         vertex 10.0000 -3.4841 3.4841
         vertex 9.8000 -3.5355 3.5355
         vertex 9.8000 -4.3301 2.5000
      endloop
   endfacet
   facet normal 0.3443 -0.7692 0.5383
      outer loop
         vertex 10.0000 -3.4841 3.4841
         vertex 9.8000 -4.3301 2.5000
         vertex 10.0000 -4.2671 2.4636
      endloop
   endfacet
   facet normal 0.7098 0.5395 -0.4529
      outer loop
         vertex 9.9000 -3.4641 2.0000
         vertex 9.9000 -2.8284 2.8284
         vertex 10.0000 -2.8991 2.8991
      endloop
   endfacet
   facet normal 0.7098 0.5771 -0.4039
      outer loop
         vertex 9.9000 -3.4641 2.0000
         vertex 10.0000 -2.8991 2.8991
         vertex 10.0000 -3.5507 2.0500
      endloop
   endfacet
   facet normal 0.0000 0.7659 -0.6430
      outer loop
         vertex 0.1000 -2.8284 2.8284
         vertex 9.9000 -2.8284 2.8284
         vertex 9.9000 -3.4641 2.0000
      endloop
   endfacet
   facet normal 0.0000 0.8193 -0.5734
      outer loop
         vertex 0.1000 -2.8284 2.8284
         vertex 9.9000 -3.4641 2.0000
         vertex 0.1000 -3.4641 2.0000
      endloop
   endfacet
   facet normal -0.7098 0.5395 -0.4529
      outer loop
         vertex 0.0000 -2.8991 2.8991
         vertex 0.1000 -2.8284 2.8284
         vertex 0.1000 -3.4641 2.0000
      endloop
   endfacet
   facet normal -0.7098 0.5771 -0.4039
      outer loop
         vertex 0.0000 -2.8991 2.8991
         vertex 0.1000 -3.4641 2.0000
         vertex 0.0000 -3.5507 2.0500
      endloop
   endfacet
   facet normal -0.3443 -0.7191 0.6036
      outer loop
         vertex 0.2000 -4.3301 2.5000
         vertex 0.2000 -3.5355 3.5355
         vertex 0.0000 -3.4841 3.4841
      endloop
   endfacet
   facet normal -0.3443 -0.7692 0.5383
      outer loop
         vertex 0.2000 -4.3301 2.5000
         vertex 0.0000 -3.4841 3.4841
         vertex 0.0000 -4.2671 2.4636
      endloop
   endfacet
   facet normal 0.0000 -0.9062 0.4228
      outer loop
         vertex 9.8000 -4.8296 1.2941
         vertex 9.8000 -4.3301 2.5000
         vertex 0.2000 -4.3301 2.5000
      endloop
   endfacet
   facet normal 0.0000 -0.9398 0.3418
      outer loop
         vertex 9.8000 -4.8296 1.2941
         vertex 0.2000 -4.3301 2.5000
         vertex 0.2000 -4.8296 1.2941
      endloop
   endfacet
   facet normal 0.3443 -0.8508 0.3970
      outer loop
         vertex 10.0000 -4.2671 2.4636
         vertex 9.8000 -4.3301 2.5000
         vertex 9.8000 -4.8296 1.2941
      endloop
   endfacet
   facet normal 0.3443 -0.8823 0.3209
      outer loop
         vertex 10.0000 -4.2671 2.4636
         vertex 9.8000 -4.8296 1.2941
         vertex 10.0000 -4.7593 1.2753
      endloop
   endfacet
   facet normal 0.7098 0.6383 -0.2978
      outer loop
         vertex 9.9000 -3.8637 1.0353
         vertex 9.9000 -3.4641 2.0000
         vertex 10.0000 -3.5507 2.0500
      endloop
   endfacet
   facet normal 0.7098 0.6620 -0.2408
      outer loop
         vertex 9.9000 -3.8637 1.0353
         vertex 10.0000 -3.5507 2.0500
         vertex 10.0000 -3.9603 1.0612
      endloop
   endfacet
   facet normal 0.0000 0.9062 -0.4228
      outer loop
         vertex 0.1000 -3.4641 2.0000
         vertex 9.9000 -3.4641 2.0000
         vertex 9.9000 -3.8637 1.0353
      endloop
   endfacet
   facet normal 0.0000 0.9398 -0.3418
      outer loop
         vertex 0.1000 -3.4641 2.0000
         vertex 9.9000 -3.8637 1.0353
         vertex 0.1000 -3.8637 1.0353
      endloop
   endfacet
   facet normal -0.7098 0.6383 -0.2978
      outer loop
         vertex 0.0000 -3.5507 2.0500
         vertex 0.1000 -3.4641 2.0000
         vertex 0.1000 -3.8637 1.0353
      endloop
   endfacet
   facet normal -0.7098 0.6620 -0.2408
      outer loop
         vertex 0.0000 -3.5507 2.0500
         vertex 0.1000 -3.8637 1.0353
         vertex 0.0000 -3.9603 1.0612
      endloop
   endfacet
   facet normal -0.3443 -0.8508 0.3970
      outer loop
         vertex 0.2000 -4.8296 1.2941
         vertex 0.2000 -4.3301 2.5000
         vertex 0.0000 -4.2671 2.4636
      endloop
   endfacet
   facet normal -0.3443 -0.8823 0.3209
      outer loop
         vertex 0.2000 -4.8296 1.2941
         vertex 0.0000 -4.2671 2.4636
         vertex 0.0000 -4.7593 1.2753
      endloop
   endfacet
   facet normal 0.0000 -0.9848 0.1739
      outer loop
         vertex 9.8000 -5.0000 0.0000
         vertex 9.8000 -4.8296 1.2941
         vertex 0.2000 -4.8296 1.2941
      endloop
   endfacet
   facet normal 0.0000 -0.9962 0.0869
      outer loop
         vertex 9.8000 -5.0000 0.0000
         vertex 0.2000 -4.8296 1.2941
         vertex 0.2000 -5.0000 0.0000
      endloop
   endfacet
   facet normal 0.3443 -0.9245 0.1632
      outer loop
         vertex 10.0000 -4.9272 0.0000
         vertex 10.0000 -4.7593 1.2753
         vertex 9.8000 -4.8296 1.2941
      endloop
   endfacet
   facet normal 0.3443 -0.9353 0.0816
      outer loop
         vertex 10.0000 -4.9272 0.0000
         vertex 9.8000 -4.8296 1.2941
         vertex 9.8000 -5.0000 0.0000
      endloop
   endfacet
   facet normal 0.7098 0.6937 -0.1225
      outer loop
         vertex 9.9000 -4.0000 0.0000
         vertex 9.9000 -3.8637 1.0353
         vertex 10.0000 -3.9603 1.0612
      endloop
   endfacet
   facet normal 0.7098 0.7017 -0.0612
      outer loop
         vertex 9.9000 -4.0000 0.0000
         vertex 10.0000 -3.9603 1.0612
         vertex 10.0000 -4.1000 0.0000
      endloop
   endfacet
   facet normal 0.0000 0.9848 -0.1739
      outer loop
         vertex 0.1000 -3.8637 1.0353
         vertex 9.9000 -3.8637 1.0353
         vertex 9.9000 -4.0000 0.0000
      endloop
   endfacet
   facet normal 0.0000 0.9962 -0.0869
      outer loop
         vertex 0.1000 -3.8637 1.0353
         vertex 9.9000 -4.0000 0.0000
         vertex 0.1000 -4.0000 0.0000
      endloop
   endfacet
   facet normal -0.7098 0.6937 -0.1225
      outer loop
         vertex 0.0000 -3.9603 1.0612
         vertex 0.1000 -3.8637 1.0353
         vertex 0.1000 -4.0000 0.0000
      endloop
   endfacet
   facet normal -0.7098 0.7017 -0.0612
      outer loop
         vertex 0.0000 -3.9603 1.0612
         vertex 0.1000 -4.0000 0.0000
         vertex 0.0000 -4.1000 0.0000
      endloop
   endfacet
   facet normal -0.3443 -0.9353 0.0816
      outer loop
         vertex 0.0000 -4.7593 1.2753
         vertex 0.0000 -4.9272 0.0000
         vertex 0.2000 -5.0000 0.0000
      endloop
   endfacet
   facet normal -0.3443 -0.9245 0.1632
      outer loop
         vertex 0.0000 -4.7593 1.2753
         vertex 0.2000 -5.0000 0.0000
         vertex 0.2000 -4.8296 1.2941
      endloop
   endfacet
   facet normal 0.0000 -0.9962 -0.0869
      outer loop
         vertex 9.8000 -4.8296 -1.2941
         vertex 9.8000 -5.0000 0.0000
         vertex 0.2000 -5.0000 0.0000
      endloop
   endfacet
   facet normal 0.0000 -0.9848 -0.1739
      outer loop
         vertex 9.8000 -4.8296 -1.2941
         vertex 0.2000 -5.0000 0.0000
         vertex 0.2000 -4.8296 -1.2941
      endloop
   endfacet
   facet normal 0.3443 -0.9353 -0.0816
      outer loop
         vertex 10.0000 -4.7593 -1.2753
         vertex 10.0000 -4.9272 0.0000
         vertex 9.8000 -5.0000 0.0000
      endloop
   endfacet
   facet normal 0.3443 -0.9245 -0.1632
      outer loop
         vertex 10.0000 -4.7593 -1.2753
         vertex 9.8000 -5.0000 0.0000
         vertex 9.8000 -4.8296 -1.2941
      endloop
   endfacet
   facet normal 0.7098 0.7017 0.0612
      outer loop
         vertex 9.9000 -3.8637 -1.0353
         vertex 9.9000 -4.0000 0.0000
         vertex 10.0000 -4.1000 0.0000
      endloop
   endfacet
   facet normal 0.7098 0.6937 0.1225
      outer loop
         vertex 9.9000 -3.8637 -1.0353
         vertex 10.0000 -4.1000 0.0000
         vertex 10.0000 -3.9603 -1.0612
      endloop
   endfacet
   facet normal 0.0000 0.9962 0.0869
      outer loop
         vertex 0.1000 -4.0000 0.0000
         vertex 9.9000 -4.0000 0.0000
         vertex 9.9000 -3.8637 -1.0353
      endloop
   endfacet
   facet normal 0.0000 0.9848 0.1739
      outer loop
         vertex 0.1000 -4.0000 0.0000
         vertex 9.9000 -3.8637 -1.0353
         vertex 0.1000 -3.8637 -1.0353
      endloop
   endfacet
   facet normal -0.7098 0.7017 0.0612
      outer loop
         vertex 0.0000 -4.1000 0.0000
         vertex 0.1000 -4.0000 0.0000
         vertex 0.1000 -3.8637 -1.0353
      endloop
   endfacet
   facet normal -0.7098 0.6937 0.1225
      outer loop
         vertex 0.0000 -4.1000 0.0000
         vertex 0.1000 -3.8637 -1.0353
         vertex 0.0000 -3.9603 -1.0612
      endloop
   endfacet
   facet normal -0.3443 -0.9245 -0.1632
      outer loop
         vertex 0.0000 -4.9272 0.0000
         vertex 0.0000 -4.7593 -1.2753
         vertex 0.2000 -4.8296 -1.2941
      endloop
   endfacet
   facet normal -0.3443 -0.9353 -0.0816
      outer loop
         vertex 0.0000 -4.9272 0.0000
         vertex 0.2000 -4.8296 -1.2941
         vertex 0.2000 -5.0000 0.0000
      endloop
   endfacet
   facet normal 0.0000 -0.9398 -0.3418
      outer loop
         vertex 9.8000 -4.3301 -2.5000
         vertex 9.8000 -4.8296 -1.2941
         vertex 0.2000 -4.8296 -1.2941
      endloop
   endfacet
   facet normal 0.0000 -0.9062 -0.4228
      outer loop
         vertex 9.8000 -4.3301 -2.5000
         vertex 0.2000 -4.8296 -1.2941
         vertex 0.2000 -4.3301 -2.5000
      endloop
   endfacet
   facet normal 0.3443 -0.8823 -0.3209
      outer loop
         vertex 10.0000 -4.2671 -2.4636
         vertex 10.0000 -4.7593 -1.2753
         vertex 9.8000 -4.8296 -1.2941
      endloop
   endfacet
   facet normal 0.3443 -0.8508 -0.3970
      outer loop
         vertex 10.0000 -4.2671 -2.4636
         vertex 9.8000 -4.8296 -1.2941
         vertex 9.8000 -4.3301 -2.5000
      endloop
   endfacet
   facet normal 0.7098 0.6620 0.2408
      outer loop
         vertex 9.9000 -3.4641 -2.0000
         vertex 9.9000 -3.8637 -1.0353
         vertex 10.0000 -3.9603 -1.0612
      endloop
   endfacet
   facet normal 0.7098 0.6383 0.2978
      outer loop
         vertex 9.9000 -3.4641 -2.0000
         vertex 10.0000 -3.9603 -1.0612
         vertex 10.0000 -3.5507 -2.0500
      endloop
   endfacet
   facet normal 0.0000 0.9398 0.3418
      outer loop
         vertex 0.1000 -3.8637 -1.0353
         vertex 9.9000 -3.8637 -1.0353
         vertex 9.9000 -3.4641 -2.0000
      endloop
   endfacet
   facet normal 0.0000 0.9062 0.4228
      outer loop
         vertex 0.1000 -3.8637 -1.0353
         vertex 9.9000 -3.4641 -2.0000
         vertex 0.1000 -3.4641 -2.0000
      endloop
   endfacet
   facet normal -0.7098 0.6620 0.2408
      outer loop
         vertex 0.0000 -3.9603 -1.0612
         vertex 0.1000 -3.8637 -1.0353
         vertex 0.1000 -3.4641 -2.0000
      endloop
   endfacet
   facet normal -0.7098 0.6383 0.2978
      outer loop
         vertex 0.0000 -3.9603 -1.0612
         vertex 0.1000 -3.4641 -2.0000
         vertex 0.0000 -3.5507 -2.0500
      endloop
   endfacet
   facet normal -0.3443 -0.8508 -0.3970
      outer loop
         vertex 0.0000 -4.7593 -1.2753
         vertex 0.0000 -4.2671 -2.4636
         vertex 0.2000 -4.3301 -2.5000
      endloop
   endfacet
   facet normal -0.3443 -0.8823 -0.3209
      outer loop
         vertex 0.0000 -4.7593 -1.2753
         vertex 0.2000 -4.3301 -2.5000
         vertex 0.2000 -4.8296 -1.2941
      endloop
   endfacet
   facet normal 0.0000 -0.8193 -0.5734
      outer loop
         vertex 9.8000 -3.5355 -3.5355
         vertex 9.8000 -4.3301 -2.5000
         vertex 0.2000 -4.3301 -2.5000
      endloop
   endfacet
   facet normal 0.0000 -0.7659 -0.6430
      outer loop
         vertex 9.8000 -3.5355 -3.5355
         vertex 0.2000 -4.3301 -2.5000
         vertex 0.2000 -3.5355 -3.5355
      endloop
   endfacet
   facet normal 0.3443 -0.7692 -0.5383
      outer loop
         vertex 10.0000 -3.4841 -3.4841
         vertex 10.0000 -4.2671 -2.4636
         vertex 9.8000 -4.3301 -2.5000
      endloop
   endfacet
   facet normal 0.3443 -0.7191 -0.6036
      outer loop
         vertex 10.0000 -3.4841 -3.4841
         vertex 9.8000 -4.3301 -2.5000
         vertex 9.8000 -3.5355 -3.5355
      endloop
   endfacet
   facet normal 0.7098 0.5395 0.4529
      outer loop
         vertex 10.0000 -3.5507 -2.0500
         vertex 10.0000 -2.8991 -2.8991
         vertex 9.9000 -2.8284 -2.8284
      endloop
   endfacet
   facet normal 0.7098 0.5771 0.4039
      outer loop
         vertex 10.0000 -3.5507 -2.0500
         vertex 9.9000 -2.8284 -2.8284
         vertex 9.9000 -3.4641 -2.0000
      endloop
   endfacet
   facet normal 0.0000 0.8193 0.5734
      outer loop
         vertex 0.1000 -3.4641 -2.0000
         vertex 9.9000 -3.4641 -2.0000
         vertex 9.9000 -2.8284 -2.8284
      endloop
   endfacet
   facet normal 0.0000 0.7659 0.6430
      outer loop
         vertex 0.1000 -3.4641 -2.0000
         vertex 9.9000 -2.8284 -2.8284
         vertex 0.1000 -2.8284 -2.8284
      endloop
   endfacet
   facet normal -0.7098 0.5771 0.4039
      outer loop
         vertex 0.0000 -2.8991 -2.8991
         vertex 0.0000 -3.5507 -2.0500
         vertex 0.1000 -3.4641 -2.0000
      endloop
   endfacet
   facet normal -0.7098 0.5395 0.4529
      outer loop
         vertex 0.0000 -2.8991 -2.8991
         vertex 0.1000 -3.4641 -2.0000
         vertex 0.1000 -2.8284 -2.8284
      endloop
   endfacet
   facet normal -0.3443 -0.7191 -0.6036
      outer loop
         vertex 0.0000 -4.2671 -2.4636
         vertex 0.0000 -3.4841 -3.4841
         vertex 0.2000 -3.5355 -3.5355
      endloop
   endfacet
   facet normal -0.3443 -0.7692 -0.5383
      outer loop
         vertex 0.0000 -4.2671 -2.4636
         vertex 0.2000 -3.5355 -3.5355
         vertex 0.2000 -4.3301 -2.5000
      endloop
   endfacet
   facet normal 0.0000 -0.6430 -0.7659
      outer loop
         vertex 9.8000 -3.5355 -3.5355
         vertex 0.2000 -3.5355 -3.5355
         vertex 0.2000 -2.5000 -4.3301
      endloop
   endfacet
   facet normal 0.0000 -0.5734 -0.8193
      outer loop
         vertex 9.8000 -3.5355 -3.5355
         vertex 0.2000 -2.5000 -4.3301
         vertex 9.8000 -2.5000 -4.3301
      endloop
   endfacet
   facet normal 0.3443 -0.6036 -0.7191
      outer loop
         vertex 10.0000 -2.4636 -4.2671
         vertex 10.0000 -3.4841 -3.4841
         vertex 9.8000 -3.5355 -3.5355
      endloop
   endfacet
   facet normal 0.3443 -0.5383 -0.7692
      outer loop
         vertex 10.0000 -2.4636 -4.2671
         vertex 9.8000 -3.5355 -3.5355
         vertex 9.8000 -2.5000 -4.3301
      endloop
   endfacet
   facet normal 0.7098 0.4529 0.5395
      outer loop
         vertex 9.9000 -2.0000 -3.4641
         vertex 9.9000 -2.8284 -2.8284
         vertex 10.0000 -2.8991 -2.8991
      endloop
   endfacet
   facet normal 0.7098 0.4039 0.5771
      outer loop
         vertex 9.9000 -2.0000 -3.4641
         vertex 10.0000 -2.8991 -2.8991
         vertex 10.0000 -2.0500 -3.5507
      endloop
   endfacet
   facet normal 0.0000 0.6430 0.7659
      outer loop
         vertex 0.1000 -2.8284 -2.8284
         vertex 9.9000 -2.8284 -2.8284
         vertex 9.9000 -2.0000 -3.4641
      endloop
   endfacet
   facet normal 0.0000 0.5734 0.8193
      outer loop
         vertex 0.1000 -2.8284 -2.8284
         vertex 9.9000 -2.0000 -3.4641
         vertex 0.1000 -2.0000 -3.4641
      endloop
   endfacet
   facet normal -0.7098 0.4529 0.5395
      outer loop
         vertex 0.0000 -2.8991 -2.8991
         vertex 0.1000 -2.8284 -2.8284
         vertex 0.1000 -2.0000 -3.4641
      endloop
   endfacet
   facet normal -0.7098 0.4039 0.5771
      outer loop
         vertex 0.0000 -2.8991 -2.8991
         vertex 0.1000 -2.0000 -3.4641
         vertex 0.0000 -2.0500 -3.5507
      endloop
   endfacet
   facet normal -0.3443 -0.5383 -0.7692
      outer loop
         vertex 0.0000 -3.4841 -3.4841
         vertex 0.0000 -2.4636 -4.2671
         vertex 0.2000 -2.5000 -4.3301
      endloop
   endfacet
   facet normal -0.3443 -0.6036 -0.7191
      outer loop
         vertex 0.0000 -3.4841 -3.4841
         vertex 0.2000 -2.5000 -4.3301
         vertex 0.2000 -3.5355 -3.5355
      endloop
   endfacet
   facet normal 0.0000 -0.3418 -0.9398
      outer loop
         vertex 0.2000 -2.5000 -4.3301
         vertex 0.2000 -1.2941 -4.8296
         vertex 9.8000 -1.2941 -4.8296
      endloop
   endfacet
   facet normal 0.0000 -0.4228 -0.9062
      outer loop
         vertex 0.2000 -2.5000 -4.3301
         vertex 9.8000 -1.2941 -4.8296
         vertex 9.8000 -2.5000 -4.3301
      endloop
   endfacet
   facet normal 0.3443 -0.3970 -0.8508
      outer loop
         vertex 10.0000 -1.2753 -4.7593
         vertex 10.0000 -2.4636 -4.2671
         vertex 9.8000 -2.5000 -4.3301
      endloop
   endfacet
   facet normal 0.3443 -0.3209 -0.8823
      outer loop
         vertex 10.0000 -1.2753 -4.7593
         vertex 9.8000 -2.5000 -4.3301
         vertex 9.8000 -1.2941 -4.8296
      endloop
   endfacet
   facet normal 0.7098 0.2978 0.6383
      outer loop
         vertex 9.9000 -1.0353 -3.8637
         vertex 9.9000 -2.0000 -3.4641
         vertex 10.0000 -2.0500 -3.5507
      endloop
   endfacet
   facet normal 0.7098 0.2408 0.6620
      outer loop
         vertex 9.9000 -1.0353 -3.8637
         vertex 10.0000 -2.0500 -3.5507
         vertex 10.0000 -1.0612 -3.9603
      endloop
   endfacet
   facet normal 0.0000 0.4228 0.9062
      outer loop
         vertex 0.1000 -2.0000 -3.4641
         vertex 9.9000 -2.0000 -3.4641
         vertex 9.9000 -1.0353 -3.8637
      endloop
   endfacet
   facet normal 0.0000 0.3418 0.9398
      outer loop
         vertex 0.1000 -2.0000 -3.4641
         vertex 9.9000 -1.0353 -3.8637
         vertex 0.1000 -1.0353 -3.8637
      endloop
   endfacet
   facet normal -0.7098 0.2978 0.6383
      outer loop
         vertex 0.0000 -2.0500 -3.5507
         vertex 0.1000 -2.0000 -3.4641
         vertex 0.1000 -1.0353 -3.8637
      endloop
   endfacet
   facet normal -0.7098 0.2408 0.6620
      outer loop
         vertex 0.0000 -2.0500 -3.5507
         vertex 0.1000 -1.0353 -3.8637
         vertex 0.0000 -1.0612 -3.9603
      endloop
   endfacet
   facet normal -0.3443 -0.3209 -0.8823
      outer loop
         vertex 0.0000 -2.4636 -4.2671
         vertex 0.0000 -1.2753 -4.7593
         vertex 0.2000 -1.2941 -4.8296
      endloop
   endfacet
   facet normal -0.3443 -0.3970 -0.8508
      outer loop
         vertex 0.0000 -2.4636 -4.2671
         vertex 0.2000 -1.2941 -4.8296
         vertex 0.2000 -2.5000 -4.3301
      endloop
   endfacet
   facet normal 0.0000 -0.1739 -0.9848
      outer loop
         vertex 9.8000 -0.0000 -5.0000
         vertex 9.8000 -1.2941 -4.8296
         vertex 0.2000 -1.2941 -4.8296
      endloop
   endfacet
   facet normal 0.0000 -0.0869 -0.9962
      outer loop
         vertex 9.8000 -0.0000 -5.0000
         vertex 0.2000 -1.2941 -4.8296
         vertex 0.2000 -0.0000 -5.0000
      endloop
   endfacet
   facet normal 0.3443 -0.1632 -0.9245
      outer loop
         vertex 10.0000 -0.0000 -4.9272
         vertex 10.0000 -1.2753 -4.7593
         vertex 9.8000 -1.2941 -4.8296
      endloop
   endfacet
   facet normal 0.3443 -0.0816 -0.9353
      outer loop
         vertex 10.0000 -0.0000 -4.9272
         vertex 9.8000 -1.2941 -4.8296
         vertex 9.8000 -0.0000 -5.0000
      endloop
   endfacet
   facet normal 0.7098 0.1225 0.6937
      outer loop
         vertex 9.9000 -0.0000 -4.0000
         vertex 9.9000 -1.0353 -3.8637
         vertex 10.0000 -1.0612 -3.9603
      endloop
   endfacet
   facet normal 0.7098 0.0612 0.7017
      outer loop
         vertex 9.9000 -0.0000 -4.0000
         vertex 10.0000 -1.0612 -3.9603
         vertex 10.0000 -0.0000 -4.1000
      endloop
   endfacet
   facet normal 0.0000 0.1739 0.9848
      outer loop
         vertex 0.1000 -1.0353 -3.8637
         vertex 9.9000 -1.0353 -3.8637
         vertex 9.9000 -0.0000 -4.0000
      endloop
   endfacet
   facet normal 0.0000 0.0869 0.9962
      outer loop
         vertex 0.1000 -1.0353 -3.8637
         vertex 9.9000 -0.0000 -4.0000
         vertex 0.1000 -0.0000 -4.0000
      endloop
   endfacet
   facet normal -0.7098 0.1225 0.6937
      outer loop
         vertex 0.0000 -1.0612 -3.9603
         vertex 0.1000 -1.0353 -3.8637
         vertex 0.1000 -0.0000 -4.0000
      endloop
   endfacet
   facet normal -0.7098 0.0612 0.7017
      outer loop
         vertex 0.0000 -1.0612 -3.9603
         vertex 0.1000 -0.0000 -4.0000
         vertex 0.0000 -0.0000 -4.1000
      endloop
   endfacet
   facet normal -0.3443 -0.0816 -0.9353
      outer loop
         vertex 0.0000 -1.2753 -4.7593
         vertex 0.0000 -0.0000 -4.9272
         vertex 0.2000 -0.0000 -5.0000
      endloop
   endfacet
   facet normal -0.3443 -0.1632 -0.9245
      outer loop
         vertex 0.0000 -1.2753 -4.7593
         vertex 0.2000 -0.0000 -5.0000
         vertex 0.2000 -1.2941 -4.8296
      endloop
   endfacet
   facet normal 0.0000 0.0869 -0.9962
      outer loop
         vertex 9.8000 1.2941 -4.8296
         vertex 9.8000 -0.0000 -5.0000
         vertex 0.2000 -0.0000 -5.0000
      endloop
   endfacet
   facet normal 0.0000 0.1739 -0.9848
      outer loop
         vertex 9.8000 1.2941 -4.8296
         vertex 0.2000 -0.0000 -5.0000
         vertex 0.2000 1.2941 -4.8296
      endloop
   endfacet
   facet normal 0.3443 0.0816 -0.9353
      outer loop
         vertex 10.0000 1.2753 -4.7593
         vertex 10.0000 -0.0000 -4.9272
         vertex 9.8000 -0.0000 -5.0000
      endloop
   endfacet
   facet normal 0.3443 0.1632 -0.9245
      outer loop
         vertex 10.0000 1.2753 -4.7593
         vertex 9.8000 -0.0000 -5.0000
         vertex 9.8000 1.2941 -4.8296
      endloop
   endfacet
   facet normal 0.7098 -0.0612 0.7017
      outer loop
         vertex 9.9000 1.0353 -3.8637
         vertex 9.9000 -0.0000 -4.0000
         vertex 10.0000 -0.0000 -4.1000
      endloop
   endfacet
   facet normal 0.7098 -0.1225 0.6937
      outer loop
         vertex 9.9000 1.0353 -3.8637
         vertex 10.0000 -0.0000 -4.1000
         vertex 10.0000 1.0612 -3.9603
      endloop
   endfacet
   facet normal 0.0000 -0.0869 0.9962
      outer loop
         vertex 0.1000 -0.0000 -4.0000
         vertex 9.9000 -0.0000 -4.0000
         vertex 9.9000 1.0353 -3.8637
      endloop
   endfacet
   facet normal 0.0000 -0.1739 0.9848
      outer loop
         vertex 0.1000 -0.0000 -4.0000
         vertex 9.9000 1.0353 -3.8637
         vertex 0.1000 1.0353 -3.8637
      endloop
   endfacet
   facet normal -0.7098 -0.0612 0.7017
      outer loop
         vertex 0.0000 -0.0000 -4.1000
         vertex 0.1000 -0.0000 -4.0000
         vertex 0.1000 1.0353 -3.8637
      endloop
   endfacet
   facet normal -0.7098 -0.1225 0.6937
      outer loop
         vertex 0.0000 -0.0000 -4.1000
         vertex 0.1000 1.0353 -3.8637
         vertex 0.0000 1.0612 -3.9603
      endloop
   endfacet
   facet normal -0.3443 0.1632 -0.9245
      outer loop
         vertex 0.0000 -0.0000 -4.9272
         vertex 0.0000 1.2753 -4.7593
         vertex 0.2000 1.2941 -4.8296
      endloop
   endfacet
   facet normal -0.3443 0.0816 -0.9353
      outer loop
         vertex 0.0000 -0.0000 -4.9272
         vertex 0.2000 1.2941 -4.8296
         vertex 0.2000 -0.0000 -5.0000
      endloop
   endfacet
   facet normal 0.0000 0.3418 -0.9398
      outer loop
         vertex 9.8000 1.2941 -4.8296
         vertex 0.2000 1.2941 -4.8296
         vertex 0.2000 2.5000 -4.3301
      endloop
   endfacet
   facet normal 0.0000 0.4228 -0.9062
      outer loop
         vertex 9.8000 1.2941 -4.8296
         vertex 0.2000 2.5000 -4.3301
         vertex 9.8000 2.5000 -4.3301
      endloop
   endfacet
   facet normal 0.3443 0.3209 -0.8823
      outer loop
         vertex 10.0000 1.2753 -4.7593
         vertex 9.8000 1.2941 -4.8296
         vertex 9.8000 2.5000 -4.3301
      endloop
   endfacet
   facet normal 0.3443 0.3970 -0.8508
      outer loop
         vertex 10.0000 1.2753 -4.7593
         vertex 9.8000 2.5000 -4.3301
         vertex 10.0000 2.4636 -4.2671
      endloop
   endfacet
   facet normal 0.7098 -0.2408 0.6620
      outer loop
         vertex 9.9000 1.0353 -3.8637
         vertex 10.0000 1.0612 -3.9603
         vertex 10.0000 2.0500 -3.5507
      endloop
   endfacet
   facet normal 0.7098 -0.2978 0.6383
      outer loop
         vertex 9.9000 1.0353 -3.8637
         vertex 10.0000 2.0500 -3.5507
         vertex 9.9000 2.0000 -3.4641
      endloop
   endfacet
   facet normal 0.0000 -0.3418 0.9398
      outer loop
         vertex 0.1000 1.0353 -3.8637
         vertex 9.9000 1.0353 -3.8637
         vertex 9.9000 2.0000 -3.4641
      endloop
   endfacet
   facet normal 0.0000 -0.4228 0.9062
      outer loop
         vertex 0.1000 1.0353 -3.8637
         vertex 9.9000 2.0000 -3.4641
         vertex 0.1000 2.0000 -3.4641
      endloop
   endfacet
   facet normal -0.7098 -0.2408 0.6620
      outer loop
         vertex 0.0000 1.0612 -3.9603
         vertex 0.1000 1.0353 -3.8637
         vertex 0.1000 2.0000 -3.4641
      endloop
   endfacet
   facet normal -0.7098 -0.2978 0.6383
      outer loop
         vertex 0.0000 1.0612 -3.9603
         vertex 0.1000 2.0000 -3.4641
         vertex 0.0000 2.0500 -3.5507
      endloop
   endfacet
   facet normal -0.3443 0.3209 -0.8823
      outer loop
         vertex 0.2000 1.2941 -4.8296
         vertex 0.0000 1.2753 -4.7593
         vertex 0.0000 2.4636 -4.2671
      endloop
   endfacet
   facet normal -0.3443 0.3970 -0.8508
      outer loop
         vertex 0.2000 1.2941 -4.8296
         vertex 0.0000 2.4636 -4.2671
         vertex 0.2000 2.5000 -4.3301
      endloop
   endfacet
   facet normal 0.0000 0.5734 -0.8193
      outer loop
         vertex 9.8000 2.5000 -4.3301
         vertex 0.2000 2.5000 -4.3301
         vertex 0.2000 3.5355 -3.5355
      endloop
   endfacet
   facet normal 0.0000 0.6430 -0.7659
      outer loop
         vertex 9.8000 2.5000 -4.3301
         vertex 0.2000 3.5355 -3.5355
         vertex 9.8000 3.5355 -3.5355
      endloop
   endfacet
   facet normal 0.3443 0.5383 -0.7692
      outer loop
         vertex 10.0000 2.4636 -4.2671
         vertex 9.8000 2.5000 -4.3301
         vertex 9.8000 3.5355 -3.5355
      endloop
   endfacet
   facet normal 0.3443 0.6036 -0.7191
      outer loop
         vertex 10.0000 2.4636 -4.2671
         vertex 9.8000 3.5355 -3.5355
         vertex 10.0000 3.4841 -3.4841
      endloop
   endfacet
   facet normal 0.7098 -0.4529 0.5395
      outer loop
         vertex 10.0000 2.8991 -2.8991
         vertex 9.9000 2.8284 -2.8284
         vertex 9.9000 2.0000 -3.4641
      endloop
   endfacet
   facet normal 0.7098 -0.4039 0.5771
      outer loop
         vertex 10.0000 2.8991 -2.8991
         vertex 9.9000 2.0000 -3.4641
         vertex 10.0000 2.0500 -3.5507
      endloop
   endfacet
   facet normal 0.0000 -0.5734 0.8193
      outer loop
         vertex 0.1000 2.0000 -3.4641
         vertex 9.9000 2.0000 -3.4641
         vertex 9.9000 2.8284 -2.8284
      endloop
   endfacet
   facet normal 0.0000 -0.6430 0.7659
      outer loop
         vertex 0.1000 2.0000 -3.4641
         vertex 9.9000 2.8284 -2.8284
         vertex 0.1000 2.8284 -2.8284
      endloop
   endfacet
   facet normal -0.7098 -0.4039 0.5771
      outer loop
         vertex 0.0000 2.0500 -3.5507
         vertex 0.1000 2.0000 -3.4641
         vertex 0.1000 2.8284 -2.8284
      endloop
   endfacet
   facet normal -0.7098 -0.4529 0.5395
      outer loop
         vertex 0.0000 2.0500 -3.5507
         vertex 0.1000 2.8284 -2.8284
         vertex 0.0000 2.8991 -2.8991
      endloop
   endfacet
   facet normal -0.3443 0.6036 -0.7191
      outer loop
         vertex 0.0000 3.4841 -3.4841
         vertex 0.2000 3.5355 -3.5355
         vertex 0.2000 2.5000 -4.3301
      endloop
   endfacet
   facet normal -0.3443 0.5383 -0.7692
      outer loop
         vertex 0.0000 3.4841 -3.4841
         vertex 0.2000 2.5000 -4.3301
         vertex 0.0000 2.4636 -4.2671
      endloop
   endfacet
endsolid
