solid PARTassembly
   facet normal -1.0000 0.0000 0.0000
      outer loop
         vertex 0.0000 3.9272 -0.0000
         vertex 0.0000 3.7934 -1.0164
         vertex 0.0000 3.7934 1.0164
      endloop
   endfacet
   facet normal -1.0000 0.0000 0.0000
      outer loop
         vertex 0.0000 3.7934 1.0164
         vertex 0.0000 3.7934 -1.0164
         vertex 0.0000 3.4011 -1.9636
      endloop
   endfacet
   facet normal -1.0000 0.0000 0.0000
      outer loop
         vertex 0.0000 3.7934 1.0164
         vertex 0.0000 3.4011 -1.9636
         vertex 0.0000 3.4011 1.9636
      endloop
   endfacet
   facet normal -1.0000 0.0000 0.0000
      outer loop
         vertex 0.0000 3.4011 1.9636
         vertex 0.0000 3.4011 -1.9636
         vertex 0.0000 3.1000 -0.0000
      endloop
   endfacet
   facet normal -1.0000 0.0000 0.0000
      outer loop
         vertex 0.0000 3.4011 1.9636
         vertex 0.0000 3.1000 -0.0000
         vertex 0.0000 2.9944 0.8023
      endloop
   endfacet
   facet normal -1.0000 0.0000 0.0000
      outer loop
         vertex 0.0000 2.1920 -2.1920
         vertex 0.0000 2.6847 -1.5500
         vertex 0.0000 2.7770 -2.7770
      endloop
   endfacet
   facet normal -1.0000 0.0000 0.0000
      outer loop
         vertex 0.0000 2.7770 -2.7770
         vertex 0.0000 2.6847 -1.5500
         vertex 0.0000 2.9944 -0.8023
      endloop
   endfacet
   facet normal -1.0000 0.0000 0.0000
      outer loop
         vertex 0.0000 2.7770 -2.7770
         vertex 0.0000 2.9944 -0.8023
         vertex 0.0000 3.4011 -1.9636
      endloop
   endfacet
   facet normal -1.0000 0.0000 0.0000
      outer loop
         vertex 0.0000 3.4011 -1.9636
         vertex 0.0000 2.9944 -0.8023
         vertex 0.0000 3.1000 -0.0000
      endloop
   endfacet
   facet normal -1.0000 0.0000 0.0000
      outer loop
         vertex 0.0000 -0.0000 -3.1000
         vertex 0.0000 0.8023 -2.9944
         vertex 0.0000 1.0164 -3.7934
      endloop
   endfacet
   facet normal -1.0000 0.0000 0.0000
      outer loop
         vertex 0.0000 1.0164 -3.7934
         vertex 0.0000 0.8023 -2.9944
         vertex 0.0000 1.5500 -2.6847
      endloop
   endfacet
   facet normal -1.0000 0.0000 0.0000
      outer loop
         vertex 0.0000 1.0164 -3.7934
         vertex 0.0000 1.5500 -2.6847
         vertex 0.0000 1.9636 -3.4011
      endloop
   endfacet
   facet normal -1.0000 0.0000 0.0000
      outer loop
         vertex 0.0000 1.9636 -3.4011
         vertex 0.0000 1.5500 -2.6847
         vertex 0.0000 2.1920 -2.1920
      endloop
   endfacet
   facet normal -1.0000 0.0000 0.0000
      outer loop
         vertex 0.0000 1.9636 -3.4011
         vertex 0.0000 2.1920 -2.1920
         vertex 0.0000 2.7770 -2.7770
      endloop
   endfacet
   facet normal -1.0000 0.0000 0.0000
      outer loop
         vertex 0.0000 -2.6847 -1.5500
         vertex 0.0000 -2.1920 -2.1920
         vertex 0.0000 -1.9636 -3.4011
      endloop
   endfacet
   facet normal -1.0000 0.0000 0.0000
      outer loop
         vertex 0.0000 -1.9636 -3.4011
         vertex 0.0000 -2.1920 -2.1920
         vertex 0.0000 -1.5500 -2.6847
      endloop
   endfacet
   facet normal -1.0000 0.0000 0.0000
      outer loop
         vertex 0.0000 -1.9636 -3.4011
         vertex 0.0000 -1.5500 -2.6847
         vertex 0.0000 -1.0164 -3.7934
      endloop
   endfacet
   facet normal -1.0000 0.0000 0.0000
      outer loop
         vertex 0.0000 -1.0164 -3.7934
         vertex 0.0000 -1.5500 -2.6847
         vertex 0.0000 -0.8023 -2.9944
      endloop
   endfacet
   facet normal -1.0000 0.0000 0.0000
      outer loop
         vertex 0.0000 -1.0164 -3.7934
         vertex 0.0000 -0.8023 -2.9944
         vertex 0.0000 -0.0000 -3.9272
      endloop
   endfacet
   facet normal -1.0000 0.0000 0.0000
      outer loop
         vertex 0.0000 -0.0000 -3.9272
         vertex 0.0000 -0.8023 -2.9944
         vertex 0.0000 -0.0000 -3.1000
      endloop
   endfacet
   facet normal -1.0000 0.0000 0.0000
      outer loop
         vertex 0.0000 -0.0000 -3.9272
         vertex 0.0000 -0.0000 -3.1000
         vertex 0.0000 1.0164 -3.7934
      endloop
   endfacet
   facet normal -1.0000 0.0000 0.0000
      outer loop
         vertex 0.0000 -2.7770 -2.7770
         vertex 0.0000 -3.4011 -1.9636
         vertex 0.0000 -3.1000 0.0000
      endloop
   endfacet
   facet normal -1.0000 0.0000 0.0000
      outer loop
         vertex 0.0000 -2.7770 -2.7770
         vertex 0.0000 -3.1000 0.0000
         vertex 0.0000 -2.9944 -0.8023
      endloop
   endfacet
   facet normal -1.0000 0.0000 0.0000
      outer loop
         vertex 0.0000 -2.7770 -2.7770
         vertex 0.0000 -2.9944 -0.8023
         vertex 0.0000 -2.6847 -1.5500
      endloop
   endfacet
   facet normal -1.0000 0.0000 0.0000
      outer loop
         vertex 0.0000 -2.7770 -2.7770
         vertex 0.0000 -2.6847 -1.5500
         vertex 0.0000 -1.9636 -3.4011
      endloop
   endfacet
   facet normal -1.0000 0.0000 0.0000
      outer loop
         vertex 0.0000 2.8250 2.7281
         vertex 0.0000 3.4011 1.9636
         vertex 0.0000 2.9944 0.8023
      endloop
   endfacet
   facet normal -1.0000 0.0000 0.0000
      outer loop
         vertex 0.0000 2.8250 2.7281
         vertex 0.0000 2.9944 0.8023
         vertex 0.0000 2.6847 1.5500
      endloop
   endfacet
   facet normal -1.0000 0.0000 0.0000
      outer loop
         vertex 0.0000 2.8250 2.7281
         vertex 0.0000 2.6847 1.5500
         vertex 0.0000 2.2300 2.1534
      endloop
   endfacet
   facet normal -1.0000 0.0000 0.0000
      outer loop
         vertex 0.0000 2.7770 2.7770
         vertex 0.0000 2.1920 2.1920
         vertex 0.0000 1.9636 3.4011
      endloop
   endfacet
   facet normal -1.0000 0.0000 0.0000
      outer loop
         vertex 0.0000 1.9636 3.4011
         vertex 0.0000 2.1920 2.1920
         vertex 0.0000 1.5500 2.6847
      endloop
   endfacet
   facet normal -1.0000 0.0000 0.0000
      outer loop
         vertex 0.0000 1.9636 3.4011
         vertex 0.0000 1.5500 2.6847
         vertex 0.0000 1.0164 3.7934
      endloop
   endfacet
   facet normal -1.0000 0.0000 0.0000
      outer loop
         vertex 0.0000 1.0164 3.7934
         vertex 0.0000 1.5500 2.6847
         vertex 0.0000 0.8023 2.9944
      endloop
   endfacet
   facet normal -1.0000 0.0000 0.0000
      outer loop
         vertex 0.0000 1.0164 3.7934
         vertex 0.0000 0.8023 2.9944
         vertex 0.0000 0.0000 3.1000
      endloop
   endfacet
   facet normal -1.0000 0.0000 0.0000
      outer loop
         vertex 0.0000 1.0164 3.7934
         vertex 0.0000 0.0000 3.1000
         vertex 0.0000 0.0000 3.9272
      endloop
   endfacet
   facet normal -1.0000 0.0000 0.0000
      outer loop
         vertex 0.0000 0.0000 3.9272
         vertex 0.0000 0.0000 3.1000
         vertex 0.0000 -0.8023 2.9944
      endloop
   endfacet
   facet normal -1.0000 0.0000 0.0000
      outer loop
         vertex 0.0000 0.0000 3.9272
         vertex 0.0000 -0.8023 2.9944
         vertex 0.0000 -1.0164 3.7934
      endloop
   endfacet
   facet normal -1.0000 0.0000 0.0000
      outer loop
         vertex 0.0000 -1.0164 3.7934
         vertex 0.0000 -0.8023 2.9944
         vertex 0.0000 -1.5500 2.6847
      endloop
   endfacet
   facet normal -1.0000 0.0000 0.0000
      outer loop
         vertex 0.0000 -1.0164 3.7934
         vertex 0.0000 -1.5500 2.6847
         vertex 0.0000 -1.9636 3.4011
      endloop
   endfacet
   facet normal -1.0000 0.0000 0.0000
      outer loop
         vertex 0.0000 -1.9636 3.4011
         vertex 0.0000 -1.5500 2.6847
         vertex 0.0000 -2.1920 2.1920
      endloop
   endfacet
   facet normal -1.0000 0.0000 0.0000
      outer loop
         vertex 0.0000 -1.9636 3.4011
         vertex 0.0000 -2.1920 2.1920
         vertex 0.0000 -2.6847 1.5500
      endloop
   endfacet
   facet normal -1.0000 0.0000 0.0000
      outer loop
         vertex 0.0000 -2.7770 2.7770
         vertex 0.0000 -1.9636 3.4011
         vertex 0.0000 -2.6847 1.5500
      endloop
   endfacet
   facet normal -1.0000 0.0000 0.0000
      outer loop
         vertex 0.0000 -2.7770 2.7770
         vertex 0.0000 -2.6847 1.5500
         vertex 0.0000 -2.9944 0.8023
      endloop
   endfacet
   facet normal -1.0000 0.0000 0.0000
      outer loop
         vertex 0.0000 -2.7770 2.7770
         vertex 0.0000 -2.9944 0.8023
         vertex 0.0000 -3.1000 0.0000
      endloop
   endfacet
   facet normal -1.0000 0.0000 0.0000
      outer loop
         vertex 0.0000 -2.7770 2.7770
         vertex 0.0000 -3.1000 0.0000
         vertex 0.0000 -3.4011 -1.9636
      endloop
   endfacet
   facet normal -1.0000 0.0000 0.0000
      outer loop
         vertex 0.0000 -2.7770 2.7770
         vertex 0.0000 -3.4011 -1.9636
         vertex 0.0000 -3.4011 1.9636
      endloop
   endfacet
   facet normal -1.0000 0.0000 0.0000
      outer loop
         vertex 0.0000 -3.7934 -1.0164
         vertex 0.0000 -3.9272 0.0000
         vertex 0.0000 -3.7934 1.0164
      endloop
   endfacet
   facet normal -1.0000 0.0000 0.0000
      outer loop
         vertex 0.0000 -3.7934 -1.0164
         vertex 0.0000 -3.7934 1.0164
         vertex 0.0000 -3.4011 1.9636
      endloop
   endfacet
   facet normal -1.0000 0.0000 0.0000
      outer loop
         vertex 0.0000 -3.7934 -1.0164
         vertex 0.0000 -3.4011 1.9636
         vertex 0.0000 -3.4011 -1.9636
      endloop
   endfacet
   facet normal 1.0000 0.0000 0.0000
      outer loop
         vertex 6.0000 -0.8023 2.9944
         vertex 6.0000 0.0000 3.1000
         vertex 6.0000 0.0000 3.9272
      endloop
   endfacet
   facet normal 1.0000 0.0000 0.0000
      outer loop
         vertex 6.0000 0.0000 3.9272
         vertex 6.0000 0.0000 3.1000
         vertex 6.0000 0.8023 2.9944
      endloop
   endfacet
   facet normal 1.0000 0.0000 0.0000
      outer loop
         vertex 6.0000 0.0000 3.9272
         vertex 6.0000 0.8023 2.9944
         vertex 6.0000 1.0164 3.7934
      endloop
   endfacet
   facet normal 1.0000 0.0000 0.0000
      outer loop
         vertex 6.0000 1.0164 3.7934
         vertex 6.0000 0.8023 2.9944
         vertex 6.0000 1.5500 2.6847
      endloop
   endfacet
   facet normal 1.0000 0.0000 0.0000
      outer loop
         vertex 6.0000 1.0164 3.7934
         vertex 6.0000 1.5500 2.6847
         vertex 6.0000 1.9636 3.4011
      endloop
   endfacet
   facet normal 1.0000 0.0000 0.0000
      outer loop
         vertex 6.0000 1.9636 3.4011
         vertex 6.0000 1.5500 2.6847
         vertex 6.0000 2.1920 2.1920
      endloop
   endfacet
   facet normal 1.0000 0.0000 0.0000
      outer loop
         vertex 6.0000 1.9636 3.4011
         vertex 6.0000 2.1920 2.1920
         vertex 6.0000 2.7770 2.7770
      endloop
   endfacet
   facet normal 1.0000 0.0000 0.0000
      outer loop
         vertex 6.0000 -2.6847 1.5500
         vertex 6.0000 -2.1920 2.1920
         vertex 6.0000 -1.9636 3.4011
      endloop
   endfacet
   facet normal 1.0000 0.0000 0.0000
      outer loop
         vertex 6.0000 -1.9636 3.4011
         vertex 6.0000 -2.1920 2.1920
         vertex 6.0000 -1.5500 2.6847
      endloop
   endfacet
   facet normal 1.0000 0.0000 0.0000
      outer loop
         vertex 6.0000 -1.9636 3.4011
         vertex 6.0000 -1.5500 2.6847
         vertex 6.0000 -1.0164 3.7934
      endloop
   endfacet
   facet normal 1.0000 0.0000 0.0000
      outer loop
         vertex 6.0000 -1.0164 3.7934
         vertex 6.0000 -1.5500 2.6847
         vertex 6.0000 -0.8023 2.9944
      endloop
   endfacet
   facet normal 1.0000 0.0000 0.0000
      outer loop
         vertex 6.0000 -1.0164 3.7934
         vertex 6.0000 -0.8023 2.9944
         vertex 6.0000 0.0000 3.9272
      endloop
   endfacet
   facet normal 1.0000 0.0000 0.0000
      outer loop
         vertex 6.0000 -2.7770 2.7770
         vertex 6.0000 -3.4011 1.9636
         vertex 6.0000 -3.1000 0.0000
      endloop
   endfacet
   facet normal 1.0000 0.0000 0.0000
      outer loop
         vertex 6.0000 -2.7770 2.7770
         vertex 6.0000 -3.1000 0.0000
         vertex 6.0000 -2.9944 0.8023
      endloop
   endfacet
   facet normal 1.0000 0.0000 0.0000
      outer loop
         vertex 6.0000 -2.7770 2.7770
         vertex 6.0000 -2.9944 0.8023
         vertex 6.0000 -2.6847 1.5500
      endloop
   endfacet
   facet normal 1.0000 0.0000 0.0000
      outer loop
         vertex 6.0000 -2.7770 2.7770
         vertex 6.0000 -2.6847 1.5500
         vertex 6.0000 -1.9636 3.4011
      endloop
   endfacet
   facet normal 1.0000 0.0000 0.0000
      outer loop
         vertex 6.0000 3.9272 -0.0000
         vertex 6.0000 3.7934 1.0164
         vertex 6.0000 3.7934 -1.0164
      endloop
   endfacet
   facet normal 1.0000 0.0000 0.0000
      outer loop
         vertex 6.0000 3.7934 -1.0164
         vertex 6.0000 3.7934 1.0164
         vertex 6.0000 3.4011 1.9636
      endloop
   endfacet
   facet normal 1.0000 0.0000 0.0000
      outer loop
         vertex 6.0000 3.7934 -1.0164
         vertex 6.0000 3.4011 1.9636
         vertex 6.0000 3.4011 -1.9636
      endloop
   endfacet
   facet normal 1.0000 0.0000 0.0000
      outer loop
         vertex 6.0000 3.4011 -1.9636
         vertex 6.0000 3.4011 1.9636
         vertex 6.0000 3.1000 -0.0000
      endloop
   endfacet
   facet normal 1.0000 0.0000 0.0000
      outer loop
         vertex 6.0000 3.4011 -1.9636
         vertex 6.0000 3.1000 -0.0000
         vertex 6.0000 2.9944 -0.8023
      endloop
   endfacet
   facet normal 1.0000 0.0000 0.0000
      outer loop
         vertex 6.0000 2.2300 2.1534
         vertex 6.0000 2.6847 1.5500
         vertex 6.0000 2.8250 2.7281
      endloop
   endfacet
   facet normal 1.0000 0.0000 0.0000
      outer loop
         vertex 6.0000 2.8250 2.7281
         vertex 6.0000 2.6847 1.5500
         vertex 6.0000 2.9944 0.8023
      endloop
   endfacet
   facet normal 1.0000 0.0000 0.0000
      outer loop
         vertex 6.0000 2.8250 2.7281
         vertex 6.0000 2.9944 0.8023
         vertex 6.0000 3.4011 1.9636
      endloop
   endfacet
   facet normal 1.0000 0.0000 0.0000
      outer loop
         vertex 6.0000 3.4011 1.9636
         vertex 6.0000 2.9944 0.8023
         vertex 6.0000 3.1000 -0.0000
      endloop
   endfacet
   facet normal 1.0000 0.0000 0.0000
      outer loop
         vertex 6.0000 2.7770 -2.7770
         vertex 6.0000 3.4011 -1.9636
         vertex 6.0000 2.9944 -0.8023
      endloop
   endfacet
   facet normal 1.0000 0.0000 0.0000
      outer loop
         vertex 6.0000 2.7770 -2.7770
         vertex 6.0000 2.9944 -0.8023
         vertex 6.0000 2.6847 -1.5500
      endloop
   endfacet
   facet normal 1.0000 0.0000 0.0000
      outer loop
         vertex 6.0000 2.7770 -2.7770
         vertex 6.0000 2.6847 -1.5500
         vertex 6.0000 2.1920 -2.1920
      endloop
   endfacet
   facet normal 1.0000 0.0000 0.0000
      outer loop
         vertex 6.0000 2.7770 -2.7770
         vertex 6.0000 2.1920 -2.1920
         vertex 6.0000 1.9636 -3.4011
      endloop
   endfacet
   facet normal 1.0000 0.0000 0.0000
      outer loop
         vertex 6.0000 1.5500 -2.6847
         vertex 6.0000 0.8023 -2.9944
         vertex 6.0000 1.0164 -3.7934
      endloop
   endfacet
   facet normal 1.0000 0.0000 0.0000
      outer loop
         vertex 6.0000 1.5500 -2.6847
         vertex 6.0000 1.0164 -3.7934
         vertex 6.0000 1.9636 -3.4011
      endloop
   endfacet
   facet normal 1.0000 0.0000 0.0000
      outer loop
         vertex 6.0000 1.5500 -2.6847
         vertex 6.0000 1.9636 -3.4011
         vertex 6.0000 2.1920 -2.1920
      endloop
   endfacet
   facet normal 1.0000 0.0000 0.0000
      outer loop
         vertex 6.0000 -2.1920 -2.1920
         vertex 6.0000 -1.9636 -3.4011
         vertex 6.0000 -1.5500 -2.6847
      endloop
   endfacet
   facet normal 1.0000 0.0000 0.0000
      outer loop
         vertex 6.0000 -1.5500 -2.6847
         vertex 6.0000 -1.9636 -3.4011
         vertex 6.0000 -1.0164 -3.7934
      endloop
   endfacet
   facet normal 1.0000 0.0000 0.0000
      outer loop
         vertex 6.0000 -1.5500 -2.6847
         vertex 6.0000 -1.0164 -3.7934
         vertex 6.0000 -0.8023 -2.9944
      endloop
   endfacet
   facet normal 1.0000 0.0000 0.0000
      outer loop
         vertex 6.0000 -0.8023 -2.9944
         vertex 6.0000 -1.0164 -3.7934
         vertex 6.0000 -0.0000 -3.9272
      endloop
   endfacet
   facet normal 1.0000 0.0000 0.0000
      outer loop
         vertex 6.0000 -0.8023 -2.9944
         vertex 6.0000 -0.0000 -3.9272
         vertex 6.0000 -0.0000 -3.1000
      endloop
   endfacet
   facet normal 1.0000 0.0000 0.0000
      outer loop
         vertex 6.0000 -0.0000 -3.1000
         vertex 6.0000 -0.0000 -3.9272
         vertex 6.0000 1.0164 -3.7934
      endloop
   endfacet
   facet normal 1.0000 0.0000 0.0000
      outer loop
         vertex 6.0000 -0.0000 -3.1000
         vertex 6.0000 1.0164 -3.7934
         vertex 6.0000 0.8023 -2.9944
      endloop
   endfacet
   facet normal 1.0000 0.0000 0.0000
      outer loop
         vertex 6.0000 -2.6847 -1.5500
         vertex 6.0000 -2.9944 -0.8023
         vertex 6.0000 -2.7770 -2.7770
      endloop
   endfacet
   facet normal 1.0000 0.0000 0.0000
      outer loop
         vertex 6.0000 -2.6847 -1.5500
         vertex 6.0000 -2.7770 -2.7770
         vertex 6.0000 -1.9636 -3.4011
      endloop
   endfacet
   facet normal 1.0000 0.0000 0.0000
      outer loop
         vertex 6.0000 -2.6847 -1.5500
         vertex 6.0000 -1.9636 -3.4011
         vertex 6.0000 -2.1920 -2.1920
      endloop
   endfacet
   facet normal 1.0000 0.0000 0.0000
      outer loop
         vertex 6.0000 -3.9272 0.0000
         vertex 6.0000 -3.7934 -1.0164
         vertex 6.0000 -3.7934 1.0164
      endloop
   endfacet
   facet normal 1.0000 0.0000 0.0000
      outer loop
         vertex 6.0000 -3.7934 1.0164
         vertex 6.0000 -3.7934 -1.0164
         vertex 6.0000 -3.4011 -1.9636
      endloop
   endfacet
   facet normal 1.0000 0.0000 0.0000
      outer loop
         vertex 6.0000 -3.7934 1.0164
         vertex 6.0000 -3.4011 -1.9636
         vertex 6.0000 -3.4011 1.9636
      endloop
   endfacet
   facet normal 1.0000 0.0000 0.0000
      outer loop
         vertex 6.0000 -3.4011 1.9636
         vertex 6.0000 -3.4011 -1.9636
         vertex 6.0000 -2.7770 -2.7770
      endloop
   endfacet
   facet normal 1.0000 0.0000 0.0000
      outer loop
         vertex 6.0000 -3.4011 1.9636
         vertex 6.0000 -2.7770 -2.7770
         vertex 6.0000 -3.1000 0.0000
      endloop
   endfacet
   facet normal 1.0000 0.0000 0.0000
      outer loop
         vertex 6.0000 -3.1000 0.0000
         vertex 6.0000 -2.7770 -2.7770
         vertex 6.0000 -2.9944 -0.8023
      endloop
   endfacet
   facet normal 0.0000 0.7071 -0.7071
      outer loop
         vertex 0.0000 2.1920 2.1920
         vertex 0.0000 2.7770 2.7770
         vertex 0.2000 2.8284 2.8284
      endloop
   endfacet
   facet normal 0.0000 0.7071 -0.7071
      outer loop
         vertex 0.0000 2.1920 2.1920
         vertex 0.2000 2.8284 2.8284
         vertex 5.8000 2.8284 2.8284
      endloop
   endfacet
   facet normal 0.0000 0.7071 -0.7071
      outer loop
         vertex 0.0000 2.1920 2.1920
         vertex 5.8000 2.8284 2.8284
         vertex 6.0000 2.7770 2.7770
      endloop
   endfacet
   facet normal 0.0000 0.7071 -0.7071
      outer loop
         vertex 0.0000 2.1920 2.1920
         vertex 6.0000 2.7770 2.7770
         vertex 6.0000 2.1920 2.1920
      endloop
   endfacet
   facet normal 0.0000 0.7071 -0.7071
      outer loop
         vertex 0.0000 2.1920 2.1920
         vertex 6.0000 2.1920 2.1920
         vertex 5.9000 2.1213 2.1213
      endloop
   endfacet
   facet normal 0.0000 0.7071 -0.7071
      outer loop
         vertex 0.0000 2.1920 2.1920
         vertex 5.9000 2.1213 2.1213
         vertex 0.1000 2.1213 2.1213
      endloop
   endfacet
   facet normal 0.0000 0.8193 -0.5734
      outer loop
         vertex 0.2000 3.4641 -2.0000
         vertex 5.8000 3.4641 -2.0000
         vertex 5.8000 2.8284 -2.8284
      endloop
   endfacet
   facet normal 0.0000 0.7659 -0.6430
      outer loop
         vertex 0.2000 3.4641 -2.0000
         vertex 5.8000 2.8284 -2.8284
         vertex 0.2000 2.8284 -2.8284
      endloop
   endfacet
   facet normal 0.3443 0.7191 -0.6036
      outer loop
         vertex 6.0000 2.7770 -2.7770
         vertex 5.8000 2.8284 -2.8284
         vertex 5.8000 3.4641 -2.0000
      endloop
   endfacet
   facet normal 0.3443 0.7692 -0.5383
      outer loop
         vertex 6.0000 2.7770 -2.7770
         vertex 5.8000 3.4641 -2.0000
         vertex 6.0000 3.4011 -1.9636
      endloop
   endfacet
   facet normal 0.7098 -0.5771 0.4039
      outer loop
         vertex 6.0000 2.1920 -2.1920
         vertex 6.0000 2.6847 -1.5500
         vertex 5.9000 2.5981 -1.5000
      endloop
   endfacet
   facet normal 0.7098 -0.5395 0.4529
      outer loop
         vertex 6.0000 2.1920 -2.1920
         vertex 5.9000 2.5981 -1.5000
         vertex 5.9000 2.1213 -2.1213
      endloop
   endfacet
   facet normal 0.0000 -0.7659 0.6430
      outer loop
         vertex 0.1000 2.1213 -2.1213
         vertex 5.9000 2.1213 -2.1213
         vertex 5.9000 2.5981 -1.5000
      endloop
   endfacet
   facet normal 0.0000 -0.8193 0.5734
      outer loop
         vertex 0.1000 2.1213 -2.1213
         vertex 5.9000 2.5981 -1.5000
         vertex 0.1000 2.5981 -1.5000
      endloop
   endfacet
   facet normal -0.7098 -0.5395 0.4529
      outer loop
         vertex 0.0000 2.1920 -2.1920
         vertex 0.1000 2.1213 -2.1213
         vertex 0.1000 2.5981 -1.5000
      endloop
   endfacet
   facet normal -0.7098 -0.5771 0.4039
      outer loop
         vertex 0.0000 2.1920 -2.1920
         vertex 0.1000 2.5981 -1.5000
         vertex 0.0000 2.6847 -1.5500
      endloop
   endfacet
   facet normal -0.3443 0.7692 -0.5383
      outer loop
         vertex 0.0000 2.7770 -2.7770
         vertex 0.0000 3.4011 -1.9636
         vertex 0.2000 3.4641 -2.0000
      endloop
   endfacet
   facet normal -0.3443 0.7191 -0.6036
      outer loop
         vertex 0.0000 2.7770 -2.7770
         vertex 0.2000 3.4641 -2.0000
         vertex 0.2000 2.8284 -2.8284
      endloop
   endfacet
   facet normal 0.0000 0.9398 -0.3418
      outer loop
         vertex 0.2000 3.4641 -2.0000
         vertex 0.2000 3.8637 -1.0353
         vertex 5.8000 3.8637 -1.0353
      endloop
   endfacet
   facet normal 0.0000 0.9062 -0.4228
      outer loop
         vertex 0.2000 3.4641 -2.0000
         vertex 5.8000 3.8637 -1.0353
         vertex 5.8000 3.4641 -2.0000
      endloop
   endfacet
   facet normal 0.3443 0.8508 -0.3970
      outer loop
         vertex 6.0000 3.7934 -1.0164
         vertex 6.0000 3.4011 -1.9636
         vertex 5.8000 3.4641 -2.0000
      endloop
   endfacet
   facet normal 0.3443 0.8823 -0.3209
      outer loop
         vertex 6.0000 3.7934 -1.0164
         vertex 5.8000 3.4641 -2.0000
         vertex 5.8000 3.8637 -1.0353
      endloop
   endfacet
   facet normal 0.7098 -0.6383 0.2978
      outer loop
         vertex 5.9000 2.5981 -1.5000
         vertex 6.0000 2.6847 -1.5500
         vertex 6.0000 2.9944 -0.8023
      endloop
   endfacet
   facet normal 0.7098 -0.6620 0.2408
      outer loop
         vertex 5.9000 2.5981 -1.5000
         vertex 6.0000 2.9944 -0.8023
         vertex 5.9000 2.8978 -0.7765
      endloop
   endfacet
   facet normal 0.0000 -0.9062 0.4228
      outer loop
         vertex 0.1000 2.5981 -1.5000
         vertex 5.9000 2.5981 -1.5000
         vertex 5.9000 2.8978 -0.7765
      endloop
   endfacet
   facet normal 0.0000 -0.9398 0.3418
      outer loop
         vertex 0.1000 2.5981 -1.5000
         vertex 5.9000 2.8978 -0.7765
         vertex 0.1000 2.8978 -0.7765
      endloop
   endfacet
   facet normal -0.7098 -0.6383 0.2978
      outer loop
         vertex 0.0000 2.6847 -1.5500
         vertex 0.1000 2.5981 -1.5000
         vertex 0.1000 2.8978 -0.7765
      endloop
   endfacet
   facet normal -0.7098 -0.6620 0.2408
      outer loop
         vertex 0.0000 2.6847 -1.5500
         vertex 0.1000 2.8978 -0.7765
         vertex 0.0000 2.9944 -0.8023
      endloop
   endfacet
   facet normal -0.3443 0.8823 -0.3209
      outer loop
         vertex 0.0000 3.4011 -1.9636
         vertex 0.0000 3.7934 -1.0164
         vertex 0.2000 3.8637 -1.0353
      endloop
   endfacet
   facet normal -0.3443 0.8508 -0.3970
      outer loop
         vertex 0.0000 3.4011 -1.9636
         vertex 0.2000 3.8637 -1.0353
         vertex 0.2000 3.4641 -2.0000
      endloop
   endfacet
   facet normal 0.0000 0.9962 -0.0869
      outer loop
         vertex 0.2000 4.0000 -0.0000
         vertex 5.8000 4.0000 -0.0000
         vertex 5.8000 3.8637 -1.0353
      endloop
   endfacet
   facet normal 0.0000 0.9848 -0.1739
      outer loop
         vertex 0.2000 4.0000 -0.0000
         vertex 5.8000 3.8637 -1.0353
         vertex 0.2000 3.8637 -1.0353
      endloop
   endfacet
   facet normal 0.3443 0.9245 -0.1632
      outer loop
         vertex 6.0000 3.9272 -0.0000
         vertex 6.0000 3.7934 -1.0164
         vertex 5.8000 3.8637 -1.0353
      endloop
   endfacet
   facet normal 0.3443 0.9353 -0.0816
      outer loop
         vertex 6.0000 3.9272 -0.0000
         vertex 5.8000 3.8637 -1.0353
         vertex 5.8000 4.0000 -0.0000
      endloop
   endfacet
   facet normal 0.7098 -0.6937 0.1225
      outer loop
         vertex 5.9000 2.8978 -0.7765
         vertex 6.0000 2.9944 -0.8023
         vertex 6.0000 3.1000 -0.0000
      endloop
   endfacet
   facet normal 0.7098 -0.7017 0.0612
      outer loop
         vertex 5.9000 2.8978 -0.7765
         vertex 6.0000 3.1000 -0.0000
         vertex 5.9000 3.0000 -0.0000
      endloop
   endfacet
   facet normal 0.0000 -0.9848 0.1739
      outer loop
         vertex 0.1000 2.8978 -0.7765
         vertex 5.9000 2.8978 -0.7765
         vertex 5.9000 3.0000 -0.0000
      endloop
   endfacet
   facet normal 0.0000 -0.9962 0.0869
      outer loop
         vertex 0.1000 2.8978 -0.7765
         vertex 5.9000 3.0000 -0.0000
         vertex 0.1000 3.0000 -0.0000
      endloop
   endfacet
   facet normal -0.7098 -0.6937 0.1225
      outer loop
         vertex 0.0000 2.9944 -0.8023
         vertex 0.1000 2.8978 -0.7765
         vertex 0.1000 3.0000 -0.0000
      endloop
   endfacet
   facet normal -0.7098 -0.7017 0.0612
      outer loop
         vertex 0.0000 2.9944 -0.8023
         vertex 0.1000 3.0000 -0.0000
         vertex 0.0000 3.1000 -0.0000
      endloop
   endfacet
   facet normal -0.3443 0.9353 -0.0816
      outer loop
         vertex 0.0000 3.7934 -1.0164
         vertex 0.0000 3.9272 -0.0000
         vertex 0.2000 4.0000 -0.0000
      endloop
   endfacet
   facet normal -0.3443 0.9245 -0.1632
      outer loop
         vertex 0.0000 3.7934 -1.0164
         vertex 0.2000 4.0000 -0.0000
         vertex 0.2000 3.8637 -1.0353
      endloop
   endfacet
   facet normal 0.0000 0.9848 0.1739
      outer loop
         vertex 0.2000 3.8637 1.0353
         vertex 5.8000 3.8637 1.0353
         vertex 5.8000 4.0000 -0.0000
      endloop
   endfacet
   facet normal 0.0000 0.9962 0.0869
      outer loop
         vertex 0.2000 3.8637 1.0353
         vertex 5.8000 4.0000 -0.0000
         vertex 0.2000 4.0000 -0.0000
      endloop
   endfacet
   facet normal 0.3443 0.9353 0.0816
      outer loop
         vertex 6.0000 3.7934 1.0164
         vertex 6.0000 3.9272 -0.0000
         vertex 5.8000 4.0000 -0.0000
      endloop
   endfacet
   facet normal 0.3443 0.9245 0.1632
      outer loop
         vertex 6.0000 3.7934 1.0164
         vertex 5.8000 4.0000 -0.0000
         vertex 5.8000 3.8637 1.0353
      endloop
   endfacet
   facet normal 0.7098 -0.7017 -0.0612
      outer loop
         vertex 5.9000 3.0000 -0.0000
         vertex 6.0000 3.1000 -0.0000
         vertex 6.0000 2.9944 0.8023
      endloop
   endfacet
   facet normal 0.7098 -0.6937 -0.1225
      outer loop
         vertex 5.9000 3.0000 -0.0000
         vertex 6.0000 2.9944 0.8023
         vertex 5.9000 2.8978 0.7765
      endloop
   endfacet
   facet normal 0.0000 -0.9962 -0.0869
      outer loop
         vertex 0.1000 3.0000 -0.0000
         vertex 5.9000 3.0000 -0.0000
         vertex 5.9000 2.8978 0.7765
      endloop
   endfacet
   facet normal 0.0000 -0.9848 -0.1739
      outer loop
         vertex 0.1000 3.0000 -0.0000
         vertex 5.9000 2.8978 0.7765
         vertex 0.1000 2.8978 0.7765
      endloop
   endfacet
   facet normal -0.7098 -0.7017 -0.0612
      outer loop
         vertex 0.0000 3.1000 -0.0000
         vertex 0.1000 3.0000 -0.0000
         vertex 0.1000 2.8978 0.7765
      endloop
   endfacet
   facet normal -0.7098 -0.6937 -0.1225
      outer loop
         vertex 0.0000 3.1000 -0.0000
         vertex 0.1000 2.8978 0.7765
         vertex 0.0000 2.9944 0.8023
      endloop
   endfacet
   facet normal -0.3443 0.9245 0.1632
      outer loop
         vertex 0.0000 3.9272 -0.0000
         vertex 0.0000 3.7934 1.0164
         vertex 0.2000 3.8637 1.0353
      endloop
   endfacet
   facet normal -0.3443 0.9353 0.0816
      outer loop
         vertex 0.0000 3.9272 -0.0000
         vertex 0.2000 3.8637 1.0353
         vertex 0.2000 4.0000 -0.0000
      endloop
   endfacet
   facet normal 0.0000 0.9403 0.3405
      outer loop
         vertex 5.8000 3.8637 1.0353
         vertex 0.2000 3.8637 1.0353
         vertex 0.2000 3.4641 2.0000
      endloop
   endfacet
   facet normal 0.0000 0.9074 0.4202
      outer loop
         vertex 5.8000 3.8637 1.0353
         vertex 0.2000 3.4641 2.0000
         vertex 5.8000 3.4641 2.0000
      endloop
   endfacet
   facet normal 0.3443 0.8828 0.3197
      outer loop
         vertex 6.0000 3.7934 1.0164
         vertex 5.8000 3.8637 1.0353
         vertex 5.8000 3.4641 2.0000
      endloop
   endfacet
   facet normal 0.3443 0.8520 0.3945
      outer loop
         vertex 6.0000 3.7934 1.0164
         vertex 5.8000 3.4641 2.0000
         vertex 6.0000 3.4011 1.9636
      endloop
   endfacet
   facet normal 0.7097 -0.6624 -0.2399
      outer loop
         vertex 5.9000 2.8978 0.7765
         vertex 6.0000 2.9944 0.8023
         vertex 6.0000 2.6847 1.5500
      endloop
   endfacet
   facet normal 0.7097 -0.6393 -0.2960
      outer loop
         vertex 5.9000 2.8978 0.7765
         vertex 6.0000 2.6847 1.5500
         vertex 5.9000 2.5981 1.5000
      endloop
   endfacet
   facet normal 0.0000 -0.9403 -0.3405
      outer loop
         vertex 0.1000 2.8978 0.7765
         vertex 5.9000 2.8978 0.7765
         vertex 5.9000 2.5981 1.5000
      endloop
   endfacet
   facet normal 0.0000 -0.9074 -0.4202
      outer loop
         vertex 0.1000 2.8978 0.7765
         vertex 5.9000 2.5981 1.5000
         vertex 0.1000 2.5981 1.5000
      endloop
   endfacet
   facet normal -0.7097 -0.6624 -0.2399
      outer loop
         vertex 0.0000 2.9944 0.8023
         vertex 0.1000 2.8978 0.7765
         vertex 0.1000 2.5981 1.5000
      endloop
   endfacet
   facet normal -0.7097 -0.6393 -0.2960
      outer loop
         vertex 0.0000 2.9944 0.8023
         vertex 0.1000 2.5981 1.5000
         vertex 0.0000 2.6847 1.5500
      endloop
   endfacet
   facet normal -0.3443 0.8828 0.3197
      outer loop
         vertex 0.2000 3.8637 1.0353
         vertex 0.0000 3.7934 1.0164
         vertex 0.0000 3.4011 1.9636
      endloop
   endfacet
   facet normal -0.3443 0.8520 0.3945
      outer loop
         vertex 0.2000 3.8637 1.0353
         vertex 0.0000 3.4011 1.9636
         vertex 0.2000 3.4641 2.0000
      endloop
   endfacet
   facet normal 0.0000 0.8464 0.5326
      outer loop
         vertex 5.8000 3.4641 2.0000
         vertex 0.2000 3.4641 2.0000
         vertex 0.2000 2.8774 2.7786
      endloop
   endfacet
   facet normal 0.0000 0.8232 0.5678
      outer loop
         vertex 5.8000 3.4641 2.0000
         vertex 0.2000 2.8774 2.7786
         vertex 5.8000 2.8774 2.7786
      endloop
   endfacet
   facet normal 0.3418 0.7954 0.5005
      outer loop
         vertex 6.0000 3.4011 1.9636
         vertex 5.8000 3.4641 2.0000
         vertex 5.8000 2.8774 2.7786
      endloop
   endfacet
   facet normal 0.3410 0.7738 0.5338
      outer loop
         vertex 6.0000 3.4011 1.9636
         vertex 5.8000 2.8774 2.7786
         vertex 6.0000 2.8250 2.7281
      endloop
   endfacet
   facet normal 0.7069 -0.5987 -0.3767
      outer loop
         vertex 5.9000 2.5981 1.5000
         vertex 6.0000 2.6847 1.5500
         vertex 6.0000 2.2300 2.1534
      endloop
   endfacet
   facet normal 0.7060 -0.5830 -0.4021
      outer loop
         vertex 5.9000 2.5981 1.5000
         vertex 6.0000 2.2300 2.1534
         vertex 5.9000 2.1580 2.0840
      endloop
   endfacet
   facet normal 0.0000 -0.8464 -0.5326
      outer loop
         vertex 0.1000 2.5981 1.5000
         vertex 5.9000 2.5981 1.5000
         vertex 5.9000 2.1580 2.0840
      endloop
   endfacet
   facet normal 0.0000 -0.8232 -0.5678
      outer loop
         vertex 0.1000 2.5981 1.5000
         vertex 5.9000 2.1580 2.0840
         vertex 0.1000 2.1580 2.0840
      endloop
   endfacet
   facet normal -0.7069 -0.5987 -0.3767
      outer loop
         vertex 0.0000 2.6847 1.5500
         vertex 0.1000 2.5981 1.5000
         vertex 0.1000 2.1580 2.0840
      endloop
   endfacet
   facet normal -0.7060 -0.5830 -0.4021
      outer loop
         vertex 0.0000 2.6847 1.5500
         vertex 0.1000 2.1580 2.0840
         vertex 0.0000 2.2300 2.1534
      endloop
   endfacet
   facet normal -0.3418 0.7954 0.5005
      outer loop
         vertex 0.2000 3.4641 2.0000
         vertex 0.0000 3.4011 1.9636
         vertex 0.0000 2.8250 2.7281
      endloop
   endfacet
   facet normal -0.3410 0.7738 0.5338
      outer loop
         vertex 0.2000 3.4641 2.0000
         vertex 0.0000 2.8250 2.7281
         vertex 0.2000 2.8774 2.7786
      endloop
   endfacet
   facet normal 0.0000 -0.6947 0.7193
      outer loop
         vertex 6.0000 2.2300 2.1534
         vertex 6.0000 2.8250 2.7281
         vertex 5.8000 2.8774 2.7786
      endloop
   endfacet
   facet normal 0.0000 -0.6947 0.7193
      outer loop
         vertex 6.0000 2.2300 2.1534
         vertex 5.8000 2.8774 2.7786
         vertex 0.2000 2.8774 2.7786
      endloop
   endfacet
   facet normal 0.0000 -0.6947 0.7193
      outer loop
         vertex 6.0000 2.2300 2.1534
         vertex 0.2000 2.8774 2.7786
         vertex 0.0000 2.8250 2.7281
      endloop
   endfacet
   facet normal 0.0000 -0.6947 0.7193
      outer loop
         vertex 6.0000 2.2300 2.1534
         vertex 0.0000 2.8250 2.7281
         vertex 0.0000 2.2300 2.1534
      endloop
   endfacet
   facet normal 0.0000 -0.6947 0.7193
      outer loop
         vertex 6.0000 2.2300 2.1534
         vertex 0.0000 2.2300 2.1534
         vertex 0.1000 2.1580 2.0840
      endloop
   endfacet
   facet normal 0.0000 -0.6947 0.7193
      outer loop
         vertex 6.0000 2.2300 2.1534
         vertex 0.1000 2.1580 2.0840
         vertex 5.9000 2.1580 2.0840
      endloop
   endfacet
   facet normal 0.0000 0.5738 0.8190
      outer loop
         vertex 5.8000 2.0000 3.4641
         vertex 5.8000 2.8284 2.8284
         vertex 0.2000 2.8284 2.8284
      endloop
   endfacet
   facet normal 0.0000 0.5375 0.8433
      outer loop
         vertex 5.8000 2.0000 3.4641
         vertex 0.2000 2.8284 2.8284
         vertex 0.2000 2.0000 3.4641
      endloop
   endfacet
   facet normal 0.3409 0.5394 0.7699
      outer loop
         vertex 6.0000 2.7770 2.7770
         vertex 5.8000 2.8284 2.8284
         vertex 5.8000 2.0000 3.4641
      endloop
   endfacet
   facet normal 0.3417 0.5051 0.7925
      outer loop
         vertex 6.0000 2.7770 2.7770
         vertex 5.8000 2.0000 3.4641
         vertex 6.0000 1.9636 3.4011
      endloop
   endfacet
   facet normal 0.7057 -0.4065 -0.5802
      outer loop
         vertex 5.9000 1.5000 2.5981
         vertex 5.9000 2.1213 2.1213
         vertex 6.0000 2.1920 2.1920
      endloop
   endfacet
   facet normal 0.7068 -0.3802 -0.5966
      outer loop
         vertex 5.9000 1.5000 2.5981
         vertex 6.0000 2.1920 2.1920
         vertex 6.0000 1.5500 2.6847
      endloop
   endfacet
   facet normal 0.0000 -0.5738 -0.8190
      outer loop
         vertex 0.1000 2.1213 2.1213
         vertex 5.9000 2.1213 2.1213
         vertex 5.9000 1.5000 2.5981
      endloop
   endfacet
   facet normal 0.0000 -0.5375 -0.8433
      outer loop
         vertex 0.1000 2.1213 2.1213
         vertex 5.9000 1.5000 2.5981
         vertex 0.1000 1.5000 2.5981
      endloop
   endfacet
   facet normal -0.7057 -0.4065 -0.5802
      outer loop
         vertex 0.0000 2.1920 2.1920
         vertex 0.1000 2.1213 2.1213
         vertex 0.1000 1.5000 2.5981
      endloop
   endfacet
   facet normal -0.7068 -0.3802 -0.5966
      outer loop
         vertex 0.0000 2.1920 2.1920
         vertex 0.1000 1.5000 2.5981
         vertex 0.0000 1.5500 2.6847
      endloop
   endfacet
   facet normal -0.3409 0.5394 0.7699
      outer loop
         vertex 0.2000 2.0000 3.4641
         vertex 0.2000 2.8284 2.8284
         vertex 0.0000 2.7770 2.7770
      endloop
   endfacet
   facet normal -0.3417 0.5051 0.7925
      outer loop
         vertex 0.2000 2.0000 3.4641
         vertex 0.0000 2.7770 2.7770
         vertex 0.0000 1.9636 3.4011
      endloop
   endfacet
   facet normal 0.0000 0.3418 0.9398
      outer loop
         vertex 0.2000 1.0353 3.8637
         vertex 5.8000 1.0353 3.8637
         vertex 5.8000 2.0000 3.4641
      endloop
   endfacet
   facet normal 0.0000 0.4228 0.9062
      outer loop
         vertex 0.2000 1.0353 3.8637
         vertex 5.8000 2.0000 3.4641
         vertex 0.2000 2.0000 3.4641
      endloop
   endfacet
   facet normal 0.3443 0.3970 0.8508
      outer loop
         vertex 6.0000 1.9636 3.4011
         vertex 5.8000 2.0000 3.4641
         vertex 5.8000 1.0353 3.8637
      endloop
   endfacet
   facet normal 0.3443 0.3209 0.8823
      outer loop
         vertex 6.0000 1.9636 3.4011
         vertex 5.8000 1.0353 3.8637
         vertex 6.0000 1.0164 3.7934
      endloop
   endfacet
   facet normal 0.7098 -0.2978 -0.6383
      outer loop
         vertex 5.9000 0.7765 2.8978
         vertex 5.9000 1.5000 2.5981
         vertex 6.0000 1.5500 2.6847
      endloop
   endfacet
   facet normal 0.7098 -0.2408 -0.6620
      outer loop
         vertex 5.9000 0.7765 2.8978
         vertex 6.0000 1.5500 2.6847
         vertex 6.0000 0.8023 2.9944
      endloop
   endfacet
   facet normal 0.0000 -0.4228 -0.9062
      outer loop
         vertex 0.1000 1.5000 2.5981
         vertex 5.9000 1.5000 2.5981
         vertex 5.9000 0.7765 2.8978
      endloop
   endfacet
   facet normal 0.0000 -0.3418 -0.9398
      outer loop
         vertex 0.1000 1.5000 2.5981
         vertex 5.9000 0.7765 2.8978
         vertex 0.1000 0.7765 2.8978
      endloop
   endfacet
   facet normal -0.7098 -0.2978 -0.6383
      outer loop
         vertex 0.0000 1.5500 2.6847
         vertex 0.1000 1.5000 2.5981
         vertex 0.1000 0.7765 2.8978
      endloop
   endfacet
   facet normal -0.7098 -0.2408 -0.6620
      outer loop
         vertex 0.0000 1.5500 2.6847
         vertex 0.1000 0.7765 2.8978
         vertex 0.0000 0.8023 2.9944
      endloop
   endfacet
   facet normal -0.3443 0.3970 0.8508
      outer loop
         vertex 0.2000 1.0353 3.8637
         vertex 0.2000 2.0000 3.4641
         vertex 0.0000 1.9636 3.4011
      endloop
   endfacet
   facet normal -0.3443 0.3209 0.8823
      outer loop
         vertex 0.2000 1.0353 3.8637
         vertex 0.0000 1.9636 3.4011
         vertex 0.0000 1.0164 3.7934
      endloop
   endfacet
   facet normal 0.0000 0.0869 0.9962
      outer loop
         vertex 0.2000 0.0000 4.0000
         vertex 5.8000 0.0000 4.0000
         vertex 5.8000 1.0353 3.8637
      endloop
   endfacet
   facet normal 0.0000 0.1739 0.9848
      outer loop
         vertex 0.2000 0.0000 4.0000
         vertex 5.8000 1.0353 3.8637
         vertex 0.2000 1.0353 3.8637
      endloop
   endfacet
   facet normal 0.3443 0.1632 0.9245
      outer loop
         vertex 6.0000 1.0164 3.7934
         vertex 5.8000 1.0353 3.8637
         vertex 5.8000 0.0000 4.0000
      endloop
   endfacet
   facet normal 0.3443 0.0816 0.9353
      outer loop
         vertex 6.0000 1.0164 3.7934
         vertex 5.8000 0.0000 4.0000
         vertex 6.0000 0.0000 3.9272
      endloop
   endfacet
   facet normal 0.7098 -0.1225 -0.6937
      outer loop
         vertex 5.9000 0.0000 3.0000
         vertex 5.9000 0.7765 2.8978
         vertex 6.0000 0.8023 2.9944
      endloop
   endfacet
   facet normal 0.7098 -0.0612 -0.7017
      outer loop
         vertex 5.9000 0.0000 3.0000
         vertex 6.0000 0.8023 2.9944
         vertex 6.0000 0.0000 3.1000
      endloop
   endfacet
   facet normal 0.0000 -0.1739 -0.9848
      outer loop
         vertex 0.1000 -0.0000 3.0000
         vertex 0.1000 0.7765 2.8978
         vertex 5.9000 0.7765 2.8978
      endloop
   endfacet
   facet normal 0.0000 -0.0869 -0.9962
      outer loop
         vertex 0.1000 -0.0000 3.0000
         vertex 5.9000 0.7765 2.8978
         vertex 5.9000 0.0000 3.0000
      endloop
   endfacet
   facet normal -0.7098 -0.1225 -0.6937
      outer loop
         vertex 0.0000 0.8023 2.9944
         vertex 0.1000 0.7765 2.8978
         vertex 0.1000 -0.0000 3.0000
      endloop
   endfacet
   facet normal -0.7098 -0.0612 -0.7017
      outer loop
         vertex 0.0000 0.8023 2.9944
         vertex 0.1000 -0.0000 3.0000
         vertex 0.0000 0.0000 3.1000
      endloop
   endfacet
   facet normal -0.3443 0.1632 0.9245
      outer loop
         vertex 0.2000 0.0000 4.0000
         vertex 0.2000 1.0353 3.8637
         vertex 0.0000 1.0164 3.7934
      endloop
   endfacet
   facet normal -0.3443 0.0816 0.9353
      outer loop
         vertex 0.2000 0.0000 4.0000
         vertex 0.0000 1.0164 3.7934
         vertex 0.0000 0.0000 3.9272
      endloop
   endfacet
   facet normal 0.0000 -0.1739 0.9848
      outer loop
         vertex 0.2000 -1.0353 3.8637
         vertex 5.8000 -1.0353 3.8637
         vertex 5.8000 0.0000 4.0000
      endloop
   endfacet
   facet normal 0.0000 -0.0869 0.9962
      outer loop
         vertex 0.2000 -1.0353 3.8637
         vertex 5.8000 0.0000 4.0000
         vertex 0.2000 0.0000 4.0000
      endloop
   endfacet
   facet normal 0.3443 -0.0816 0.9353
      outer loop
         vertex 6.0000 -1.0164 3.7934
         vertex 6.0000 0.0000 3.9272
         vertex 5.8000 0.0000 4.0000
      endloop
   endfacet
   facet normal 0.3443 -0.1632 0.9245
      outer loop
         vertex 6.0000 -1.0164 3.7934
         vertex 5.8000 0.0000 4.0000
         vertex 5.8000 -1.0353 3.8637
      endloop
   endfacet
   facet normal 0.7098 0.0612 -0.7017
      outer loop
         vertex 5.9000 -0.7765 2.8978
         vertex 5.9000 0.0000 3.0000
         vertex 6.0000 0.0000 3.1000
      endloop
   endfacet
   facet normal 0.7098 0.1225 -0.6937
      outer loop
         vertex 5.9000 -0.7765 2.8978
         vertex 6.0000 0.0000 3.1000
         vertex 6.0000 -0.8023 2.9944
      endloop
   endfacet
   facet normal 0.0000 0.0869 -0.9962
      outer loop
         vertex 0.1000 -0.0000 3.0000
         vertex 5.9000 0.0000 3.0000
         vertex 5.9000 -0.7765 2.8978
      endloop
   endfacet
   facet normal 0.0000 0.1739 -0.9848
      outer loop
         vertex 0.1000 -0.0000 3.0000
         vertex 5.9000 -0.7765 2.8978
         vertex 0.1000 -0.7765 2.8978
      endloop
   endfacet
   facet normal -0.7098 0.0612 -0.7017
      outer loop
         vertex 0.0000 0.0000 3.1000
         vertex 0.1000 -0.0000 3.0000
         vertex 0.1000 -0.7765 2.8978
      endloop
   endfacet
   facet normal -0.7098 0.1225 -0.6937
      outer loop
         vertex 0.0000 0.0000 3.1000
         vertex 0.1000 -0.7765 2.8978
         vertex 0.0000 -0.8023 2.9944
      endloop
   endfacet
   facet normal -0.3443 -0.1632 0.9245
      outer loop
         vertex 0.0000 0.0000 3.9272
         vertex 0.0000 -1.0164 3.7934
         vertex 0.2000 -1.0353 3.8637
      endloop
   endfacet
   facet normal -0.3443 -0.0816 0.9353
      outer loop
         vertex 0.0000 0.0000 3.9272
         vertex 0.2000 -1.0353 3.8637
         vertex 0.2000 0.0000 4.0000
      endloop
   endfacet
   facet normal 0.0000 -0.4228 0.9062
      outer loop
         vertex 0.2000 -2.0000 3.4641
         vertex 5.8000 -2.0000 3.4641
         vertex 5.8000 -1.0353 3.8637
      endloop
   endfacet
   facet normal 0.0000 -0.3418 0.9398
      outer loop
         vertex 0.2000 -2.0000 3.4641
         vertex 5.8000 -1.0353 3.8637
         vertex 0.2000 -1.0353 3.8637
      endloop
   endfacet
   facet normal 0.3443 -0.3209 0.8823
      outer loop
         vertex 6.0000 -1.9636 3.4011
         vertex 6.0000 -1.0164 3.7934
         vertex 5.8000 -1.0353 3.8637
      endloop
   endfacet
   facet normal 0.3443 -0.3970 0.8508
      outer loop
         vertex 6.0000 -1.9636 3.4011
         vertex 5.8000 -1.0353 3.8637
         vertex 5.8000 -2.0000 3.4641
      endloop
   endfacet
   facet normal 0.7098 0.2408 -0.6620
      outer loop
         vertex 5.9000 -1.5000 2.5981
         vertex 5.9000 -0.7765 2.8978
         vertex 6.0000 -0.8023 2.9944
      endloop
   endfacet
   facet normal 0.7098 0.2978 -0.6383
      outer loop
         vertex 5.9000 -1.5000 2.5981
         vertex 6.0000 -0.8023 2.9944
         vertex 6.0000 -1.5500 2.6847
      endloop
   endfacet
   facet normal 0.0000 0.3418 -0.9398
      outer loop
         vertex 0.1000 -0.7765 2.8978
         vertex 5.9000 -0.7765 2.8978
         vertex 5.9000 -1.5000 2.5981
      endloop
   endfacet
   facet normal 0.0000 0.4228 -0.9062
      outer loop
         vertex 0.1000 -0.7765 2.8978
         vertex 5.9000 -1.5000 2.5981
         vertex 0.1000 -1.5000 2.5981
      endloop
   endfacet
   facet normal -0.7098 0.2408 -0.6620
      outer loop
         vertex 0.0000 -0.8023 2.9944
         vertex 0.1000 -0.7765 2.8978
         vertex 0.1000 -1.5000 2.5981
      endloop
   endfacet
   facet normal -0.7098 0.2978 -0.6383
      outer loop
         vertex 0.0000 -0.8023 2.9944
         vertex 0.1000 -1.5000 2.5981
         vertex 0.0000 -1.5500 2.6847
      endloop
   endfacet
   facet normal -0.3443 -0.3970 0.8508
      outer loop
         vertex 0.0000 -1.0164 3.7934
         vertex 0.0000 -1.9636 3.4011
         vertex 0.2000 -2.0000 3.4641
      endloop
   endfacet
   facet normal -0.3443 -0.3209 0.8823
      outer loop
         vertex 0.0000 -1.0164 3.7934
         vertex 0.2000 -2.0000 3.4641
         vertex 0.2000 -1.0353 3.8637
      endloop
   endfacet
   facet normal 0.0000 -0.6430 0.7659
      outer loop
         vertex 0.2000 -2.8284 2.8284
         vertex 5.8000 -2.8284 2.8284
         vertex 5.8000 -2.0000 3.4641
      endloop
   endfacet
   facet normal 0.0000 -0.5734 0.8193
      outer loop
         vertex 0.2000 -2.8284 2.8284
         vertex 5.8000 -2.0000 3.4641
         vertex 0.2000 -2.0000 3.4641
      endloop
   endfacet
   facet normal 0.3443 -0.5383 0.7692
      outer loop
         vertex 6.0000 -1.9636 3.4011
         vertex 5.8000 -2.0000 3.4641
         vertex 5.8000 -2.8284 2.8284
      endloop
   endfacet
   facet normal 0.3443 -0.6036 0.7191
      outer loop
         vertex 6.0000 -1.9636 3.4011
         vertex 5.8000 -2.8284 2.8284
         vertex 6.0000 -2.7770 2.7770
      endloop
   endfacet
   facet normal 0.7098 0.4039 -0.5771
      outer loop
         vertex 5.9000 -2.1213 2.1213
         vertex 5.9000 -1.5000 2.5981
         vertex 6.0000 -1.5500 2.6847
      endloop
   endfacet
   facet normal 0.7098 0.4529 -0.5395
      outer loop
         vertex 5.9000 -2.1213 2.1213
         vertex 6.0000 -1.5500 2.6847
         vertex 6.0000 -2.1920 2.1920
      endloop
   endfacet
   facet normal 0.0000 0.5734 -0.8193
      outer loop
         vertex 0.1000 -1.5000 2.5981
         vertex 5.9000 -1.5000 2.5981
         vertex 5.9000 -2.1213 2.1213
      endloop
   endfacet
   facet normal 0.0000 0.6430 -0.7659
      outer loop
         vertex 0.1000 -1.5000 2.5981
         vertex 5.9000 -2.1213 2.1213
         vertex 0.1000 -2.1213 2.1213
      endloop
   endfacet
   facet normal -0.7098 0.4039 -0.5771
      outer loop
         vertex 0.0000 -1.5500 2.6847
         vertex 0.1000 -1.5000 2.5981
         vertex 0.1000 -2.1213 2.1213
      endloop
   endfacet
   facet normal -0.7098 0.4529 -0.5395
      outer loop
         vertex 0.0000 -1.5500 2.6847
         vertex 0.1000 -2.1213 2.1213
         vertex 0.0000 -2.1920 2.1920
      endloop
   endfacet
   facet normal -0.3443 -0.5383 0.7692
      outer loop
         vertex 0.2000 -2.8284 2.8284
         vertex 0.2000 -2.0000 3.4641
         vertex 0.0000 -1.9636 3.4011
      endloop
   endfacet
   facet normal -0.3443 -0.6036 0.7191
      outer loop
         vertex 0.2000 -2.8284 2.8284
         vertex 0.0000 -1.9636 3.4011
         vertex 0.0000 -2.7770 2.7770
      endloop
   endfacet
   facet normal 0.0000 -0.7659 0.6430
      outer loop
         vertex 5.8000 -3.4641 2.0000
         vertex 5.8000 -2.8284 2.8284
         vertex 0.2000 -2.8284 2.8284
      endloop
   endfacet
   facet normal 0.0000 -0.8193 0.5734
      outer loop
         vertex 5.8000 -3.4641 2.0000
         vertex 0.2000 -2.8284 2.8284
         vertex 0.2000 -3.4641 2.0000
      endloop
   endfacet
   facet normal 0.3443 -0.7191 0.6036
      outer loop
         vertex 6.0000 -2.7770 2.7770
         vertex 5.8000 -2.8284 2.8284
         vertex 5.8000 -3.4641 2.0000
      endloop
   endfacet
   facet normal 0.3443 -0.7692 0.5383
      outer loop
         vertex 6.0000 -2.7770 2.7770
         vertex 5.8000 -3.4641 2.0000
         vertex 6.0000 -3.4011 1.9636
      endloop
   endfacet
   facet normal 0.7098 0.5395 -0.4529
      outer loop
         vertex 5.9000 -2.5981 1.5000
         vertex 5.9000 -2.1213 2.1213
         vertex 6.0000 -2.1920 2.1920
      endloop
   endfacet
   facet normal 0.7098 0.5771 -0.4039
      outer loop
         vertex 5.9000 -2.5981 1.5000
         vertex 6.0000 -2.1920 2.1920
         vertex 6.0000 -2.6847 1.5500
      endloop
   endfacet
   facet normal 0.0000 0.7659 -0.6430
      outer loop
         vertex 0.1000 -2.1213 2.1213
         vertex 5.9000 -2.1213 2.1213
         vertex 5.9000 -2.5981 1.5000
      endloop
   endfacet
   facet normal 0.0000 0.8193 -0.5734
      outer loop
         vertex 0.1000 -2.1213 2.1213
         vertex 5.9000 -2.5981 1.5000
         vertex 0.1000 -2.5981 1.5000
      endloop
   endfacet
   facet normal -0.7098 0.5395 -0.4529
      outer loop
         vertex 0.0000 -2.1920 2.1920
         vertex 0.1000 -2.1213 2.1213
         vertex 0.1000 -2.5981 1.5000
      endloop
   endfacet
   facet normal -0.7098 0.5771 -0.4039
      outer loop
         vertex 0.0000 -2.1920 2.1920
         vertex 0.1000 -2.5981 1.5000
         vertex 0.0000 -2.6847 1.5500
      endloop
   endfacet
   facet normal -0.3443 -0.7191 0.6036
      outer loop
         vertex 0.2000 -3.4641 2.0000
         vertex 0.2000 -2.8284 2.8284
         vertex 0.0000 -2.7770 2.7770
      endloop
   endfacet
   facet normal -0.3443 -0.7692 0.5383
      outer loop
         vertex 0.2000 -3.4641 2.0000
         vertex 0.0000 -2.7770 2.7770
         vertex 0.0000 -3.4011 1.9636
      endloop
   endfacet
   facet normal 0.0000 -0.9398 0.3418
      outer loop
         vertex 0.2000 -3.8637 1.0353
         vertex 5.8000 -3.8637 1.0353
         vertex 5.8000 -3.4641 2.0000
      endloop
   endfacet
   facet normal 0.0000 -0.9062 0.4228
      outer loop
         vertex 0.2000 -3.8637 1.0353
         vertex 5.8000 -3.4641 2.0000
         vertex 0.2000 -3.4641 2.0000
      endloop
   endfacet
   facet normal 0.3443 -0.8508 0.3970
      outer loop
         vertex 6.0000 -3.4011 1.9636
         vertex 5.8000 -3.4641 2.0000
         vertex 5.8000 -3.8637 1.0353
      endloop
   endfacet
   facet normal 0.3443 -0.8823 0.3209
      outer loop
         vertex 6.0000 -3.4011 1.9636
         vertex 5.8000 -3.8637 1.0353
         vertex 6.0000 -3.7934 1.0164
      endloop
   endfacet
   facet normal 0.7098 0.6383 -0.2978
      outer loop
         vertex 5.9000 -2.8978 0.7765
         vertex 5.9000 -2.5981 1.5000
         vertex 6.0000 -2.6847 1.5500
      endloop
   endfacet
   facet normal 0.7098 0.6620 -0.2408
      outer loop
         vertex 5.9000 -2.8978 0.7765
         vertex 6.0000 -2.6847 1.5500
         vertex 6.0000 -2.9944 0.8023
      endloop
   endfacet
   facet normal 0.0000 0.9062 -0.4228
      outer loop
         vertex 0.1000 -2.5981 1.5000
         vertex 5.9000 -2.5981 1.5000
         vertex 5.9000 -2.8978 0.7765
      endloop
   endfacet
   facet normal 0.0000 0.9398 -0.3418
      outer loop
         vertex 0.1000 -2.5981 1.5000
         vertex 5.9000 -2.8978 0.7765
         vertex 0.1000 -2.8978 0.7765
      endloop
   endfacet
   facet normal -0.7098 0.6383 -0.2978
      outer loop
         vertex 0.0000 -2.6847 1.5500
         vertex 0.1000 -2.5981 1.5000
         vertex 0.1000 -2.8978 0.7765
      endloop
   endfacet
   facet normal -0.7098 0.6620 -0.2408
      outer loop
         vertex 0.0000 -2.6847 1.5500
         vertex 0.1000 -2.8978 0.7765
         vertex 0.0000 -2.9944 0.8023
      endloop
   endfacet
   facet normal -0.3443 -0.8508 0.3970
      outer loop
         vertex 0.2000 -3.8637 1.0353
         vertex 0.2000 -3.4641 2.0000
         vertex 0.0000 -3.4011 1.9636
      endloop
   endfacet
   facet normal -0.3443 -0.8823 0.3209
      outer loop
         vertex 0.2000 -3.8637 1.0353
         vertex 0.0000 -3.4011 1.9636
         vertex 0.0000 -3.7934 1.0164
      endloop
   endfacet
   facet normal 0.0000 -0.9848 0.1739
      outer loop
         vertex 5.8000 -3.8637 1.0353
         vertex 0.2000 -3.8637 1.0353
         vertex 0.2000 -4.0000 0.0000
      endloop
   endfacet
   facet normal 0.0000 -0.9962 0.0869
      outer loop
         vertex 5.8000 -3.8637 1.0353
         vertex 0.2000 -4.0000 0.0000
         vertex 5.8000 -4.0000 0.0000
      endloop
   endfacet
   facet normal 0.3443 -0.9245 0.1632
      outer loop
         vertex 6.0000 -3.7934 1.0164
         vertex 5.8000 -3.8637 1.0353
         vertex 5.8000 -4.0000 0.0000
      endloop
   endfacet
   facet normal 0.3443 -0.9353 0.0816
      outer loop
         vertex 6.0000 -3.7934 1.0164
         vertex 5.8000 -4.0000 0.0000
         vertex 6.0000 -3.9272 0.0000
      endloop
   endfacet
   facet normal 0.7098 0.6937 -0.1225
      outer loop
         vertex 5.9000 -3.0000 0.0000
         vertex 5.9000 -2.8978 0.7765
         vertex 6.0000 -2.9944 0.8023
      endloop
   endfacet
   facet normal 0.7098 0.7017 -0.0612
      outer loop
         vertex 5.9000 -3.0000 0.0000
         vertex 6.0000 -2.9944 0.8023
         vertex 6.0000 -3.1000 0.0000
      endloop
   endfacet
   facet normal 0.0000 0.9848 -0.1739
      outer loop
         vertex 0.1000 -2.8978 0.7765
         vertex 5.9000 -2.8978 0.7765
         vertex 5.9000 -3.0000 0.0000
      endloop
   endfacet
   facet normal 0.0000 0.9962 -0.0869
      outer loop
         vertex 0.1000 -2.8978 0.7765
         vertex 5.9000 -3.0000 0.0000
         vertex 0.1000 -3.0000 0.0000
      endloop
   endfacet
   facet normal -0.7098 0.6937 -0.1225
      outer loop
         vertex 0.0000 -2.9944 0.8023
         vertex 0.1000 -2.8978 0.7765
         vertex 0.1000 -3.0000 0.0000
      endloop
   endfacet
   facet normal -0.7098 0.7017 -0.0612
      outer loop
         vertex 0.0000 -2.9944 0.8023
         vertex 0.1000 -3.0000 0.0000
         vertex 0.0000 -3.1000 0.0000
      endloop
   endfacet
   facet normal -0.3443 -0.9245 0.1632
      outer loop
         vertex 0.2000 -4.0000 0.0000
         vertex 0.2000 -3.8637 1.0353
         vertex 0.0000 -3.7934 1.0164
      endloop
   endfacet
   facet normal -0.3443 -0.9353 0.0816
      outer loop
         vertex 0.2000 -4.0000 0.0000
         vertex 0.0000 -3.7934 1.0164
         vertex 0.0000 -3.9272 0.0000
      endloop
   endfacet
   facet normal 0.0000 -0.9962 -0.0869
      outer loop
         vertex 5.8000 -4.0000 0.0000
         vertex 0.2000 -4.0000 0.0000
         vertex 0.2000 -3.8637 -1.0353
      endloop
   endfacet
   facet normal 0.0000 -0.9848 -0.1739
      outer loop
         vertex 5.8000 -4.0000 0.0000
         vertex 0.2000 -3.8637 -1.0353
         vertex 5.8000 -3.8637 -1.0353
      endloop
   endfacet
   facet normal 0.3443 -0.9353 -0.0816
      outer loop
         vertex 6.0000 -3.9272 0.0000
         vertex 5.8000 -4.0000 0.0000
         vertex 5.8000 -3.8637 -1.0353
      endloop
   endfacet
   facet normal 0.3443 -0.9245 -0.1632
      outer loop
         vertex 6.0000 -3.9272 0.0000
         vertex 5.8000 -3.8637 -1.0353
         vertex 6.0000 -3.7934 -1.0164
      endloop
   endfacet
   facet normal 0.7098 0.7017 0.0612
      outer loop
         vertex 5.9000 -2.8978 -0.7765
         vertex 5.9000 -3.0000 0.0000
         vertex 6.0000 -3.1000 0.0000
      endloop
   endfacet
   facet normal 0.7098 0.6937 0.1225
      outer loop
         vertex 5.9000 -2.8978 -0.7765
         vertex 6.0000 -3.1000 0.0000
         vertex 6.0000 -2.9944 -0.8023
      endloop
   endfacet
   facet normal 0.0000 0.9962 0.0869
      outer loop
         vertex 0.1000 -3.0000 0.0000
         vertex 5.9000 -3.0000 0.0000
         vertex 5.9000 -2.8978 -0.7765
      endloop
   endfacet
   facet normal 0.0000 0.9848 0.1739
      outer loop
         vertex 0.1000 -3.0000 0.0000
         vertex 5.9000 -2.8978 -0.7765
         vertex 0.1000 -2.8978 -0.7765
      endloop
   endfacet
   facet normal -0.7098 0.7017 0.0612
      outer loop
         vertex 0.0000 -3.1000 0.0000
         vertex 0.1000 -3.0000 0.0000
         vertex 0.1000 -2.8978 -0.7765
      endloop
   endfacet
   facet normal -0.7098 0.6937 0.1225
      outer loop
         vertex 0.0000 -3.1000 0.0000
         vertex 0.1000 -2.8978 -0.7765
         vertex 0.0000 -2.9944 -0.8023
      endloop
   endfacet
   facet normal -0.3443 -0.9353 -0.0816
      outer loop
         vertex 0.2000 -3.8637 -1.0353
         vertex 0.2000 -4.0000 0.0000
         vertex 0.0000 -3.9272 0.0000
      endloop
   endfacet
   facet normal -0.3443 -0.9245 -0.1632
      outer loop
         vertex 0.2000 -3.8637 -1.0353
         vertex 0.0000 -3.9272 0.0000
         vertex 0.0000 -3.7934 -1.0164
      endloop
   endfacet
   facet normal 0.0000 -0.9398 -0.3418
      outer loop
         vertex 5.8000 -3.8637 -1.0353
         vertex 0.2000 -3.8637 -1.0353
         vertex 0.2000 -3.4641 -2.0000
      endloop
   endfacet
   facet normal 0.0000 -0.9062 -0.4228
      outer loop
         vertex 5.8000 -3.8637 -1.0353
         vertex 0.2000 -3.4641 -2.0000
         vertex 5.8000 -3.4641 -2.0000
      endloop
   endfacet
   facet normal 0.3443 -0.8823 -0.3209
      outer loop
         vertex 6.0000 -3.4011 -1.9636
         vertex 6.0000 -3.7934 -1.0164
         vertex 5.8000 -3.8637 -1.0353
      endloop
   endfacet
   facet normal 0.3443 -0.8508 -0.3970
      outer loop
         vertex 6.0000 -3.4011 -1.9636
         vertex 5.8000 -3.8637 -1.0353
         vertex 5.8000 -3.4641 -2.0000
      endloop
   endfacet
   facet normal 0.7098 0.6620 0.2408
      outer loop
         vertex 5.9000 -2.5981 -1.5000
         vertex 5.9000 -2.8978 -0.7765
         vertex 6.0000 -2.9944 -0.8023
      endloop
   endfacet
   facet normal 0.7098 0.6383 0.2978
      outer loop
         vertex 5.9000 -2.5981 -1.5000
         vertex 6.0000 -2.9944 -0.8023
         vertex 6.0000 -2.6847 -1.5500
      endloop
   endfacet
   facet normal 0.0000 0.9398 0.3418
      outer loop
         vertex 0.1000 -2.8978 -0.7765
         vertex 5.9000 -2.8978 -0.7765
         vertex 5.9000 -2.5981 -1.5000
      endloop
   endfacet
   facet normal 0.0000 0.9062 0.4228
      outer loop
         vertex 0.1000 -2.8978 -0.7765
         vertex 5.9000 -2.5981 -1.5000
         vertex 0.1000 -2.5981 -1.5000
      endloop
   endfacet
   facet normal -0.7098 0.6620 0.2408
      outer loop
         vertex 0.0000 -2.9944 -0.8023
         vertex 0.1000 -2.8978 -0.7765
         vertex 0.1000 -2.5981 -1.5000
      endloop
   endfacet
   facet normal -0.7098 0.6383 0.2978
      outer loop
         vertex 0.0000 -2.9944 -0.8023
         vertex 0.1000 -2.5981 -1.5000
         vertex 0.0000 -2.6847 -1.5500
      endloop
   endfacet
   facet normal -0.3443 -0.8508 -0.3970
      outer loop
         vertex 0.0000 -3.7934 -1.0164
         vertex 0.0000 -3.4011 -1.9636
         vertex 0.2000 -3.4641 -2.0000
      endloop
   endfacet
   facet normal -0.3443 -0.8823 -0.3209
      outer loop
         vertex 0.0000 -3.7934 -1.0164
         vertex 0.2000 -3.4641 -2.0000
         vertex 0.2000 -3.8637 -1.0353
      endloop
   endfacet
   facet normal 0.0000 -0.7659 -0.6430
      outer loop
         vertex 0.2000 -3.4641 -2.0000
         vertex 0.2000 -2.8284 -2.8284
         vertex 5.8000 -2.8284 -2.8284
      endloop
   endfacet
   facet normal 0.0000 -0.8193 -0.5734
      outer loop
         vertex 0.2000 -3.4641 -2.0000
         vertex 5.8000 -2.8284 -2.8284
         vertex 5.8000 -3.4641 -2.0000
      endloop
   endfacet
   facet normal 0.3443 -0.7692 -0.5383
      outer loop
         vertex 6.0000 -2.7770 -2.7770
         vertex 6.0000 -3.4011 -1.9636
         vertex 5.8000 -3.4641 -2.0000
      endloop
   endfacet
   facet normal 0.3443 -0.7191 -0.6036
      outer loop
         vertex 6.0000 -2.7770 -2.7770
         vertex 5.8000 -3.4641 -2.0000
         vertex 5.8000 -2.8284 -2.8284
      endloop
   endfacet
   facet normal 0.7098 0.5395 0.4529
      outer loop
         vertex 6.0000 -2.6847 -1.5500
         vertex 6.0000 -2.1920 -2.1920
         vertex 5.9000 -2.1213 -2.1213
      endloop
   endfacet
   facet normal 0.7098 0.5771 0.4039
      outer loop
         vertex 6.0000 -2.6847 -1.5500
         vertex 5.9000 -2.1213 -2.1213
         vertex 5.9000 -2.5981 -1.5000
      endloop
   endfacet
   facet normal 0.0000 0.8193 0.5734
      outer loop
         vertex 0.1000 -2.5981 -1.5000
         vertex 5.9000 -2.5981 -1.5000
         vertex 5.9000 -2.1213 -2.1213
      endloop
   endfacet
   facet normal 0.0000 0.7659 0.6430
      outer loop
         vertex 0.1000 -2.5981 -1.5000
         vertex 5.9000 -2.1213 -2.1213
         vertex 0.1000 -2.1213 -2.1213
      endloop
   endfacet
   facet normal -0.7098 0.5771 0.4039
      outer loop
         vertex 0.0000 -2.1920 -2.1920
         vertex 0.0000 -2.6847 -1.5500
         vertex 0.1000 -2.5981 -1.5000
      endloop
   endfacet
   facet normal -0.7098 0.5395 0.4529
      outer loop
         vertex 0.0000 -2.1920 -2.1920
         vertex 0.1000 -2.5981 -1.5000
         vertex 0.1000 -2.1213 -2.1213
      endloop
   endfacet
   facet normal -0.3443 -0.7191 -0.6036
      outer loop
         vertex 0.0000 -3.4011 -1.9636
         vertex 0.0000 -2.7770 -2.7770
         vertex 0.2000 -2.8284 -2.8284
      endloop
   endfacet
   facet normal -0.3443 -0.7692 -0.5383
      outer loop
         vertex 0.0000 -3.4011 -1.9636
         vertex 0.2000 -2.8284 -2.8284
         vertex 0.2000 -3.4641 -2.0000
      endloop
   endfacet
   facet normal 0.0000 -0.6430 -0.7659
      outer loop
         vertex 5.8000 -2.8284 -2.8284
         vertex 0.2000 -2.8284 -2.8284
         vertex 0.2000 -2.0000 -3.4641
      endloop
   endfacet
   facet normal 0.0000 -0.5734 -0.8193
      outer loop
         vertex 5.8000 -2.8284 -2.8284
         vertex 0.2000 -2.0000 -3.4641
         vertex 5.8000 -2.0000 -3.4641
      endloop
   endfacet
   facet normal 0.3443 -0.6036 -0.7191
      outer loop
         vertex 6.0000 -1.9636 -3.4011
         vertex 6.0000 -2.7770 -2.7770
         vertex 5.8000 -2.8284 -2.8284
      endloop
   endfacet
   facet normal 0.3443 -0.5383 -0.7692
      outer loop
         vertex 6.0000 -1.9636 -3.4011
         vertex 5.8000 -2.8284 -2.8284
         vertex 5.8000 -2.0000 -3.4641
      endloop
   endfacet
   facet normal 0.7098 0.4529 0.5395
      outer loop
         vertex 5.9000 -1.5000 -2.5981
         vertex 5.9000 -2.1213 -2.1213
         vertex 6.0000 -2.1920 -2.1920
      endloop
   endfacet
   facet normal 0.7098 0.4039 0.5771
      outer loop
         vertex 5.9000 -1.5000 -2.5981
         vertex 6.0000 -2.1920 -2.1920
         vertex 6.0000 -1.5500 -2.6847
      endloop
   endfacet
   facet normal 0.0000 0.6430 0.7659
      outer loop
         vertex 0.1000 -2.1213 -2.1213
         vertex 5.9000 -2.1213 -2.1213
         vertex 5.9000 -1.5000 -2.5981
      endloop
   endfacet
   facet normal 0.0000 0.5734 0.8193
      outer loop
         vertex 0.1000 -2.1213 -2.1213
         vertex 5.9000 -1.5000 -2.5981
         vertex 0.1000 -1.5000 -2.5981
      endloop
   endfacet
   facet normal -0.7098 0.4529 0.5395
      outer loop
         vertex 0.0000 -2.1920 -2.1920
         vertex 0.1000 -2.1213 -2.1213
         vertex 0.1000 -1.5000 -2.5981
      endloop
   endfacet
   facet normal -0.7098 0.4039 0.5771
      outer loop
         vertex 0.0000 -2.1920 -2.1920
         vertex 0.1000 -1.5000 -2.5981
         vertex 0.0000 -1.5500 -2.6847
      endloop
   endfacet
   facet normal -0.3443 -0.5383 -0.7692
      outer loop
         vertex 0.0000 -2.7770 -2.7770
         vertex 0.0000 -1.9636 -3.4011
         vertex 0.2000 -2.0000 -3.4641
      endloop
   endfacet
   facet normal -0.3443 -0.6036 -0.7191
      outer loop
         vertex 0.0000 -2.7770 -2.7770
         vertex 0.2000 -2.0000 -3.4641
         vertex 0.2000 -2.8284 -2.8284
      endloop
   endfacet
   facet normal 0.0000 -0.4228 -0.9062
      outer loop
         vertex 5.8000 -2.0000 -3.4641
         vertex 0.2000 -2.0000 -3.4641
         vertex 0.2000 -1.0353 -3.8637
      endloop
   endfacet
   facet normal 0.0000 -0.3418 -0.9398
      outer loop
         vertex 5.8000 -2.0000 -3.4641
         vertex 0.2000 -1.0353 -3.8637
         vertex 5.8000 -1.0353 -3.8637
      endloop
   endfacet
   facet normal 0.3443 -0.3970 -0.8508
      outer loop
         vertex 6.0000 -1.0164 -3.7934
         vertex 6.0000 -1.9636 -3.4011
         vertex 5.8000 -2.0000 -3.4641
      endloop
   endfacet
   facet normal 0.3443 -0.3209 -0.8823
      outer loop
         vertex 6.0000 -1.0164 -3.7934
         vertex 5.8000 -2.0000 -3.4641
         vertex 5.8000 -1.0353 -3.8637
      endloop
   endfacet
   facet normal 0.7098 0.2978 0.6383
      outer loop
         vertex 5.9000 -0.7765 -2.8978
         vertex 5.9000 -1.5000 -2.5981
         vertex 6.0000 -1.5500 -2.6847
      endloop
   endfacet
   facet normal 0.7098 0.2408 0.6620
      outer loop
         vertex 5.9000 -0.7765 -2.8978
         vertex 6.0000 -1.5500 -2.6847
         vertex 6.0000 -0.8023 -2.9944
      endloop
   endfacet
   facet normal 0.0000 0.4228 0.9062
      outer loop
         vertex 0.1000 -1.5000 -2.5981
         vertex 5.9000 -1.5000 -2.5981
         vertex 5.9000 -0.7765 -2.8978
      endloop
   endfacet
   facet normal 0.0000 0.3418 0.9398
      outer loop
         vertex 0.1000 -1.5000 -2.5981
         vertex 5.9000 -0.7765 -2.8978
         vertex 0.1000 -0.7765 -2.8978
      endloop
   endfacet
   facet normal -0.7098 0.2978 0.6383
      outer loop
         vertex 0.0000 -1.5500 -2.6847
         vertex 0.1000 -1.5000 -2.5981
         vertex 0.1000 -0.7765 -2.8978
      endloop
   endfacet
   facet normal -0.7098 0.2408 0.6620
      outer loop
         vertex 0.0000 -1.5500 -2.6847
         vertex 0.1000 -0.7765 -2.8978
         vertex 0.0000 -0.8023 -2.9944
      endloop
   endfacet
   facet normal -0.3443 -0.3209 -0.8823
      outer loop
         vertex 0.0000 -1.9636 -3.4011
         vertex 0.0000 -1.0164 -3.7934
         vertex 0.2000 -1.0353 -3.8637
      endloop
   endfacet
   facet normal -0.3443 -0.3970 -0.8508
      outer loop
         vertex 0.0000 -1.9636 -3.4011
         vertex 0.2000 -1.0353 -3.8637
         vertex 0.2000 -2.0000 -3.4641
      endloop
   endfacet
   facet normal 0.0000 -0.0869 -0.9962
      outer loop
         vertex 0.2000 -1.0353 -3.8637
         vertex 0.2000 -0.0000 -4.0000
         vertex 5.8000 -0.0000 -4.0000
      endloop
   endfacet
   facet normal 0.0000 -0.1739 -0.9848
      outer loop
         vertex 0.2000 -1.0353 -3.8637
         vertex 5.8000 -0.0000 -4.0000
         vertex 5.8000 -1.0353 -3.8637
      endloop
   endfacet
   facet normal 0.3443 -0.1632 -0.9245
      outer loop
         vertex 6.0000 -1.0164 -3.7934
         vertex 5.8000 -1.0353 -3.8637
         vertex 5.8000 -0.0000 -4.0000
      endloop
   endfacet
   facet normal 0.3443 -0.0816 -0.9353
      outer loop
         vertex 6.0000 -1.0164 -3.7934
         vertex 5.8000 -0.0000 -4.0000
         vertex 6.0000 -0.0000 -3.9272
      endloop
   endfacet
   facet normal 0.7098 0.0612 0.7017
      outer loop
         vertex 6.0000 -0.8023 -2.9944
         vertex 6.0000 -0.0000 -3.1000
         vertex 5.9000 -0.0000 -3.0000
      endloop
   endfacet
   facet normal 0.7098 0.1225 0.6937
      outer loop
         vertex 6.0000 -0.8023 -2.9944
         vertex 5.9000 -0.0000 -3.0000
         vertex 5.9000 -0.7765 -2.8978
      endloop
   endfacet
   facet normal 0.0000 0.1739 0.9848
      outer loop
         vertex 0.1000 -0.7765 -2.8978
         vertex 5.9000 -0.7765 -2.8978
         vertex 5.9000 -0.0000 -3.0000
      endloop
   endfacet
   facet normal 0.0000 0.0869 0.9962
      outer loop
         vertex 0.1000 -0.7765 -2.8978
         vertex 5.9000 -0.0000 -3.0000
         vertex 0.1000 -0.0000 -3.0000
      endloop
   endfacet
   facet normal -0.7098 0.1225 0.6937
      outer loop
         vertex 0.0000 -0.8023 -2.9944
         vertex 0.1000 -0.7765 -2.8978
         vertex 0.1000 -0.0000 -3.0000
      endloop
   endfacet
   facet normal -0.7098 0.0612 0.7017
      outer loop
         vertex 0.0000 -0.8023 -2.9944
         vertex 0.1000 -0.0000 -3.0000
         vertex 0.0000 -0.0000 -3.1000
      endloop
   endfacet
   facet normal -0.3443 -0.0816 -0.9353
      outer loop
         vertex 0.0000 -1.0164 -3.7934
         vertex 0.0000 -0.0000 -3.9272
         vertex 0.2000 -0.0000 -4.0000
      endloop
   endfacet
   facet normal -0.3443 -0.1632 -0.9245
      outer loop
         vertex 0.0000 -1.0164 -3.7934
         vertex 0.2000 -0.0000 -4.0000
         vertex 0.2000 -1.0353 -3.8637
      endloop
   endfacet
   facet normal 0.0000 0.1739 -0.9848
      outer loop
         vertex 0.2000 -0.0000 -4.0000
         vertex 0.2000 1.0353 -3.8637
         vertex 5.8000 1.0353 -3.8637
      endloop
   endfacet
   facet normal 0.0000 0.0869 -0.9962
      outer loop
         vertex 0.2000 -0.0000 -4.0000
         vertex 5.8000 1.0353 -3.8637
         vertex 5.8000 -0.0000 -4.0000
      endloop
   endfacet
   facet normal 0.3443 0.0816 -0.9353
      outer loop
         vertex 6.0000 -0.0000 -3.9272
         vertex 5.8000 -0.0000 -4.0000
         vertex 5.8000 1.0353 -3.8637
      endloop
   endfacet
   facet normal 0.3443 0.1632 -0.9245
      outer loop
         vertex 6.0000 -0.0000 -3.9272
         vertex 5.8000 1.0353 -3.8637
         vertex 6.0000 1.0164 -3.7934
      endloop
   endfacet
   facet normal 0.7098 -0.0612 0.7017
      outer loop
         vertex 5.9000 0.7765 -2.8978
         vertex 5.9000 -0.0000 -3.0000
         vertex 6.0000 -0.0000 -3.1000
      endloop
   endfacet
   facet normal 0.7098 -0.1225 0.6937
      outer loop
         vertex 5.9000 0.7765 -2.8978
         vertex 6.0000 -0.0000 -3.1000
         vertex 6.0000 0.8023 -2.9944
      endloop
   endfacet
   facet normal 0.0000 -0.0869 0.9962
      outer loop
         vertex 0.1000 -0.0000 -3.0000
         vertex 5.9000 -0.0000 -3.0000
         vertex 5.9000 0.7765 -2.8978
      endloop
   endfacet
   facet normal 0.0000 -0.1739 0.9848
      outer loop
         vertex 0.1000 -0.0000 -3.0000
         vertex 5.9000 0.7765 -2.8978
         vertex 0.1000 0.7765 -2.8978
      endloop
   endfacet
   facet normal -0.7098 -0.0612 0.7017
      outer loop
         vertex 0.0000 -0.0000 -3.1000
         vertex 0.1000 -0.0000 -3.0000
         vertex 0.1000 0.7765 -2.8978
      endloop
   endfacet
   facet normal -0.7098 -0.1225 0.6937
      outer loop
         vertex 0.0000 -0.0000 -3.1000
         vertex 0.1000 0.7765 -2.8978
         vertex 0.0000 0.8023 -2.9944
      endloop
   endfacet
   facet normal -0.3443 0.0816 -0.9353
      outer loop
         vertex 0.2000 1.0353 -3.8637
         vertex 0.2000 -0.0000 -4.0000
         vertex 0.0000 -0.0000 -3.9272
      endloop
   endfacet
   facet normal -0.3443 0.1632 -0.9245
      outer loop
         vertex 0.2000 1.0353 -3.8637
         vertex 0.0000 -0.0000 -3.9272
         vertex 0.0000 1.0164 -3.7934
      endloop
   endfacet
   facet normal 0.0000 0.3418 -0.9398
      outer loop
         vertex 5.8000 2.0000 -3.4641
         vertex 5.8000 1.0353 -3.8637
         vertex 0.2000 1.0353 -3.8637
      endloop
   endfacet
   facet normal 0.0000 0.4228 -0.9062
      outer loop
         vertex 5.8000 2.0000 -3.4641
         vertex 0.2000 1.0353 -3.8637
         vertex 0.2000 2.0000 -3.4641
      endloop
   endfacet
   facet normal 0.3443 0.3209 -0.8823
      outer loop
         vertex 6.0000 1.0164 -3.7934
         vertex 5.8000 1.0353 -3.8637
         vertex 5.8000 2.0000 -3.4641
      endloop
   endfacet
   facet normal 0.3443 0.3970 -0.8508
      outer loop
         vertex 6.0000 1.0164 -3.7934
         vertex 5.8000 2.0000 -3.4641
         vertex 6.0000 1.9636 -3.4011
      endloop
   endfacet
   facet normal 0.7098 -0.2408 0.6620
      outer loop
         vertex 5.9000 0.7765 -2.8978
         vertex 6.0000 0.8023 -2.9944
         vertex 6.0000 1.5500 -2.6847
      endloop
   endfacet
   facet normal 0.7098 -0.2978 0.6383
      outer loop
         vertex 5.9000 0.7765 -2.8978
         vertex 6.0000 1.5500 -2.6847
         vertex 5.9000 1.5000 -2.5981
      endloop
   endfacet
   facet normal 0.0000 -0.3418 0.9398
      outer loop
         vertex 0.1000 0.7765 -2.8978
         vertex 5.9000 0.7765 -2.8978
         vertex 5.9000 1.5000 -2.5981
      endloop
   endfacet
   facet normal 0.0000 -0.4228 0.9062
      outer loop
         vertex 0.1000 0.7765 -2.8978
         vertex 5.9000 1.5000 -2.5981
         vertex 0.1000 1.5000 -2.5981
      endloop
   endfacet
   facet normal -0.7098 -0.2408 0.6620
      outer loop
         vertex 0.0000 0.8023 -2.9944
         vertex 0.1000 0.7765 -2.8978
         vertex 0.1000 1.5000 -2.5981
      endloop
   endfacet
   facet normal -0.7098 -0.2978 0.6383
      outer loop
         vertex 0.0000 0.8023 -2.9944
         vertex 0.1000 1.5000 -2.5981
         vertex 0.0000 1.5500 -2.6847
      endloop
   endfacet
   facet normal -0.3443 0.3209 -0.8823
      outer loop
         vertex 0.2000 1.0353 -3.8637
         vertex 0.0000 1.0164 -3.7934
         vertex 0.0000 1.9636 -3.4011
      endloop
   endfacet
   facet normal -0.3443 0.3970 -0.8508
      outer loop
         vertex 0.2000 1.0353 -3.8637
         vertex 0.0000 1.9636 -3.4011
         vertex 0.2000 2.0000 -3.4641
      endloop
   endfacet
   facet normal 0.0000 0.5734 -0.8193
      outer loop
         vertex 5.8000 2.8284 -2.8284
         vertex 5.8000 2.0000 -3.4641
         vertex 0.2000 2.0000 -3.4641
      endloop
   endfacet
   facet normal 0.0000 0.6430 -0.7659
      outer loop
         vertex 5.8000 2.8284 -2.8284
         vertex 0.2000 2.0000 -3.4641
         vertex 0.2000 2.8284 -2.8284
      endloop
   endfacet
   facet normal 0.3443 0.5383 -0.7692
      outer loop
         vertex 6.0000 1.9636 -3.4011
         vertex 5.8000 2.0000 -3.4641
         vertex 5.8000 2.8284 -2.8284
      endloop
   endfacet
   facet normal 0.3443 0.6036 -0.7191
      outer loop
         vertex 6.0000 1.9636 -3.4011
         vertex 5.8000 2.8284 -2.8284
         vertex 6.0000 2.7770 -2.7770
      endloop
   endfacet
   facet normal 0.7098 -0.4529 0.5395
      outer loop
         vertex 6.0000 1.5500 -2.6847
         vertex 6.0000 2.1920 -2.1920
         vertex 5.9000 2.1213 -2.1213
      endloop
   endfacet
   facet normal 0.7098 -0.4039 0.5771
      outer loop
         vertex 6.0000 1.5500 -2.6847
         vertex 5.9000 2.1213 -2.1213
         vertex 5.9000 1.5000 -2.5981
      endloop
   endfacet
   facet normal 0.0000 -0.5734 0.8193
      outer loop
         vertex 0.1000 1.5000 -2.5981
         vertex 5.9000 1.5000 -2.5981
         vertex 5.9000 2.1213 -2.1213
      endloop
   endfacet
   facet normal 0.0000 -0.6430 0.7659
      outer loop
         vertex 0.1000 1.5000 -2.5981
         vertex 5.9000 2.1213 -2.1213
         vertex 0.1000 2.1213 -2.1213
      endloop
   endfacet
   facet normal -0.7098 -0.4039 0.5771
      outer loop
         vertex 0.0000 1.5500 -2.6847
         vertex 0.1000 1.5000 -2.5981
         vertex 0.1000 2.1213 -2.1213
      endloop
   endfacet
   facet normal -0.7098 -0.4529 0.5395
      outer loop
         vertex 0.0000 1.5500 -2.6847
         vertex 0.1000 2.1213 -2.1213
         vertex 0.0000 2.1920 -2.1920
      endloop
   endfacet
   facet normal -0.3443 0.6036 -0.7191
      outer loop
         vertex 0.0000 1.9636 -3.4011
         vertex 0.0000 2.7770 -2.7770
         vertex 0.2000 2.8284 -2.8284
      endloop
   endfacet
   facet normal -0.3443 0.5383 -0.7692
      outer loop
         vertex 0.0000 1.9636 -3.4011
         vertex 0.2000 2.8284 -2.8284
         vertex 0.2000 2.0000 -3.4641
      endloop
   endfacet
endsolid
