  0
SECTION
  2
BLOCKS
  0
ENDSEC
  0
SECTION
  2
ENTITIES
  0
LINE
  8
0
 10
151.406
 20
54.25
 11
-75
 21
54.25
  0
LINE
  8
0
 10
-75
 20
54.25
 11
-75
 21
-54.25
  0
LINE
  8
0
 10
-75
 20
-54.25
 11
151.406
 21
-54.25
  0
LINE
  8
0
 10
151.406
 20
-54.25
 11
151.406
 21
54.25
  0
LINE
  8
0
 10
9.85297
 20
37.7572
 11
9.70735
 21
37.7788
  0
LINE
  8
0
 10
9.70735
 20
37.7788
 11
9.56456
 21
37.8146
  0
LINE
  8
0
 10
9.56456
 20
37.8146
 11
9.42596
 21
37.8642
  0
LINE
  8
0
 10
9.42596
 20
37.8642
 11
9.29289
 21
37.9271
  0
LINE
  8
0
 10
9.29289
 20
37.9271
 11
9.16664
 21
38.0028
  0
LINE
  8
0
 10
9.16664
 20
38.0028
 11
9.0484
 21
38.0905
  0
LINE
  8
0
 10
9.0484
 20
38.0905
 11
8.93933
 21
38.1893
  0
LINE
  8
0
 10
8.93933
 20
38.1893
 11
8.84047
 21
38.2984
  0
LINE
  8
0
 10
8.84047
 20
38.2984
 11
8.75279
 21
38.4166
  0
LINE
  8
0
 10
8.75279
 20
38.4166
 11
8.67711
 21
38.5429
  0
LINE
  8
0
 10
8.67711
 20
38.5429
 11
8.61417
 21
38.676
  0
LINE
  8
0
 10
8.61417
 20
38.676
 11
8.56458
 21
38.8146
  0
LINE
  8
0
 10
8.56458
 20
38.8146
 11
8.52881
 21
38.9574
  0
LINE
  8
0
 10
8.52881
 20
38.9574
 11
8.50722
 21
39.103
  0
LINE
  8
0
 10
8.50722
 20
39.103
 11
8.5
 21
39.25
  0
LINE
  8
0
 10
8.5
 20
39.25
 11
8.50722
 21
39.397
  0
LINE
  8
0
 10
8.50722
 20
39.397
 11
8.52881
 21
39.5426
  0
LINE
  8
0
 10
8.52881
 20
39.5426
 11
8.56458
 21
39.6854
  0
LINE
  8
0
 10
8.56458
 20
39.6854
 11
8.61417
 21
39.824
  0
LINE
  8
0
 10
8.61417
 20
39.824
 11
8.67711
 21
39.9571
  0
LINE
  8
0
 10
8.67711
 20
39.9571
 11
8.75279
 21
40.0833
  0
LINE
  8
0
 10
8.75279
 20
40.0833
 11
8.84047
 21
40.2016
  0
LINE
  8
0
 10
8.84047
 20
40.2016
 11
8.93933
 21
40.3107
  0
LINE
  8
0
 10
8.93933
 20
40.3107
 11
9.0484
 21
40.4095
  0
LINE
  8
0
 10
9.0484
 20
40.4095
 11
9.16664
 21
40.4972
  0
LINE
  8
0
 10
9.16664
 20
40.4972
 11
9.29289
 21
40.5729
  0
LINE
  8
0
 10
9.29289
 20
40.5729
 11
9.42596
 21
40.6358
  0
LINE
  8
0
 10
9.42596
 20
40.6358
 11
9.56456
 21
40.6854
  0
LINE
  8
0
 10
9.56456
 20
40.6854
 11
9.70735
 21
40.7212
  0
LINE
  8
0
 10
9.70735
 20
40.7212
 11
9.85297
 21
40.7428
  0
LINE
  8
0
 10
9.85297
 20
40.7428
 11
10
 21
40.75
  0
LINE
  8
0
 10
10
 20
40.75
 11
10.147
 21
40.7428
  0
LINE
  8
0
 10
10.147
 20
40.7428
 11
10.2926
 21
40.7212
  0
LINE
  8
0
 10
10.2926
 20
40.7212
 11
10.4354
 21
40.6854
  0
LINE
  8
0
 10
10.4354
 20
40.6854
 11
10.574
 21
40.6358
  0
LINE
  8
0
 10
10.574
 20
40.6358
 11
10.7071
 21
40.5729
  0
LINE
  8
0
 10
10.7071
 20
40.5729
 11
10.8333
 21
40.4972
  0
LINE
  8
0
 10
10.8333
 20
40.4972
 11
10.9516
 21
40.4095
  0
LINE
  8
0
 10
10.9516
 20
40.4095
 11
11.0607
 21
40.3107
  0
LINE
  8
0
 10
11.0607
 20
40.3107
 11
11.1595
 21
40.2016
  0
LINE
  8
0
 10
11.1595
 20
40.2016
 11
11.2472
 21
40.0833
  0
LINE
  8
0
 10
11.2472
 20
40.0833
 11
11.3229
 21
39.9571
  0
LINE
  8
0
 10
11.3229
 20
39.9571
 11
11.3858
 21
39.824
  0
LINE
  8
0
 10
11.3858
 20
39.824
 11
11.4354
 21
39.6854
  0
LINE
  8
0
 10
11.4354
 20
39.6854
 11
11.4712
 21
39.5426
  0
LINE
  8
0
 10
11.4712
 20
39.5426
 11
11.4928
 21
39.397
  0
LINE
  8
0
 10
11.4928
 20
39.397
 11
11.5
 21
39.25
  0
LINE
  8
0
 10
11.5
 20
39.25
 11
11.4928
 21
39.103
  0
LINE
  8
0
 10
11.4928
 20
39.103
 11
11.4712
 21
38.9574
  0
LINE
  8
0
 10
11.4712
 20
38.9574
 11
11.4354
 21
38.8146
  0
LINE
  8
0
 10
11.4354
 20
38.8146
 11
11.3858
 21
38.676
  0
LINE
  8
0
 10
11.3858
 20
38.676
 11
11.3229
 21
38.5429
  0
LINE
  8
0
 10
11.3229
 20
38.5429
 11
11.2472
 21
38.4166
  0
LINE
  8
0
 10
11.2472
 20
38.4166
 11
11.1595
 21
38.2984
  0
LINE
  8
0
 10
11.1595
 20
38.2984
 11
11.0607
 21
38.1893
  0
LINE
  8
0
 10
11.0607
 20
38.1893
 11
10.9516
 21
38.0905
  0
LINE
  8
0
 10
10.9516
 20
38.0905
 11
10.8333
 21
38.0028
  0
LINE
  8
0
 10
10.8333
 20
38.0028
 11
10.7071
 21
37.9271
  0
LINE
  8
0
 10
10.7071
 20
37.9271
 11
10.574
 21
37.8642
  0
LINE
  8
0
 10
10.574
 20
37.8642
 11
10.4354
 21
37.8146
  0
LINE
  8
0
 10
10.4354
 20
37.8146
 11
10.2926
 21
37.7788
  0
LINE
  8
0
 10
10.2926
 20
37.7788
 11
10.147
 21
37.7572
  0
LINE
  8
0
 10
10.147
 20
37.7572
 11
10
 21
37.75
  0
LINE
  8
0
 10
10
 20
37.75
 11
9.85297
 21
37.7572
  0
LINE
  8
0
 10
-70.147
 20
37.7572
 11
-70.2926
 21
37.7788
  0
LINE
  8
0
 10
-70.2926
 20
37.7788
 11
-70.4354
 21
37.8146
  0
LINE
  8
0
 10
-70.4354
 20
37.8146
 11
-70.574
 21
37.8642
  0
LINE
  8
0
 10
-70.574
 20
37.8642
 11
-70.7071
 21
37.9271
  0
LINE
  8
0
 10
-70.7071
 20
37.9271
 11
-70.8333
 21
38.0028
  0
LINE
  8
0
 10
-70.8333
 20
38.0028
 11
-70.9516
 21
38.0905
  0
LINE
  8
0
 10
-70.9516
 20
38.0905
 11
-71.0607
 21
38.1893
  0
LINE
  8
0
 10
-71.0607
 20
38.1893
 11
-71.1595
 21
38.2984
  0
LINE
  8
0
 10
-71.1595
 20
38.2984
 11
-71.2472
 21
38.4166
  0
LINE
  8
0
 10
-71.2472
 20
38.4166
 11
-71.3229
 21
38.5429
  0
LINE
  8
0
 10
-71.3229
 20
38.5429
 11
-71.3858
 21
38.676
  0
LINE
  8
0
 10
-71.3858
 20
38.676
 11
-71.4354
 21
38.8146
  0
LINE
  8
0
 10
-71.4354
 20
38.8146
 11
-71.4712
 21
38.9574
  0
LINE
  8
0
 10
-71.4712
 20
38.9574
 11
-71.4928
 21
39.103
  0
LINE
  8
0
 10
-71.4928
 20
39.103
 11
-71.5
 21
39.25
  0
LINE
  8
0
 10
-71.5
 20
39.25
 11
-71.4928
 21
39.397
  0
LINE
  8
0
 10
-71.4928
 20
39.397
 11
-71.4712
 21
39.5426
  0
LINE
  8
0
 10
-71.4712
 20
39.5426
 11
-71.4354
 21
39.6854
  0
LINE
  8
0
 10
-71.4354
 20
39.6854
 11
-71.3858
 21
39.824
  0
LINE
  8
0
 10
-71.3858
 20
39.824
 11
-71.3229
 21
39.9571
  0
LINE
  8
0
 10
-71.3229
 20
39.9571
 11
-71.2472
 21
40.0833
  0
LINE
  8
0
 10
-71.2472
 20
40.0833
 11
-71.1595
 21
40.2016
  0
LINE
  8
0
 10
-71.1595
 20
40.2016
 11
-71.0607
 21
40.3107
  0
LINE
  8
0
 10
-71.0607
 20
40.3107
 11
-70.9516
 21
40.4095
  0
LINE
  8
0
 10
-70.9516
 20
40.4095
 11
-70.8333
 21
40.4972
  0
LINE
  8
0
 10
-70.8333
 20
40.4972
 11
-70.7071
 21
40.5729
  0
LINE
  8
0
 10
-70.7071
 20
40.5729
 11
-70.574
 21
40.6358
  0
LINE
  8
0
 10
-70.574
 20
40.6358
 11
-70.4354
 21
40.6854
  0
LINE
  8
0
 10
-70.4354
 20
40.6854
 11
-70.2926
 21
40.7212
  0
LINE
  8
0
 10
-70.2926
 20
40.7212
 11
-70.147
 21
40.7428
  0
LINE
  8
0
 10
-70.147
 20
40.7428
 11
-70
 21
40.75
  0
LINE
  8
0
 10
-70
 20
40.75
 11
-69.853
 21
40.7428
  0
LINE
  8
0
 10
-69.853
 20
40.7428
 11
-69.7074
 21
40.7212
  0
LINE
  8
0
 10
-69.7074
 20
40.7212
 11
-69.5646
 21
40.6854
  0
LINE
  8
0
 10
-69.5646
 20
40.6854
 11
-69.426
 21
40.6358
  0
LINE
  8
0
 10
-69.426
 20
40.6358
 11
-69.2929
 21
40.5729
  0
LINE
  8
0
 10
-69.2929
 20
40.5729
 11
-69.1666
 21
40.4972
  0
LINE
  8
0
 10
-69.1666
 20
40.4972
 11
-69.0484
 21
40.4095
  0
LINE
  8
0
 10
-69.0484
 20
40.4095
 11
-68.9393
 21
40.3107
  0
LINE
  8
0
 10
-68.9393
 20
40.3107
 11
-68.8405
 21
40.2016
  0
LINE
  8
0
 10
-68.8405
 20
40.2016
 11
-68.7528
 21
40.0833
  0
LINE
  8
0
 10
-68.7528
 20
40.0833
 11
-68.6771
 21
39.9571
  0
LINE
  8
0
 10
-68.6771
 20
39.9571
 11
-68.6142
 21
39.824
  0
LINE
  8
0
 10
-68.6142
 20
39.824
 11
-68.5646
 21
39.6854
  0
LINE
  8
0
 10
-68.5646
 20
39.6854
 11
-68.5288
 21
39.5426
  0
LINE
  8
0
 10
-68.5288
 20
39.5426
 11
-68.5072
 21
39.397
  0
LINE
  8
0
 10
-68.5072
 20
39.397
 11
-68.5
 21
39.25
  0
LINE
  8
0
 10
-68.5
 20
39.25
 11
-68.5072
 21
39.103
  0
LINE
  8
0
 10
-68.5072
 20
39.103
 11
-68.5288
 21
38.9574
  0
LINE
  8
0
 10
-68.5288
 20
38.9574
 11
-68.5646
 21
38.8146
  0
LINE
  8
0
 10
-68.5646
 20
38.8146
 11
-68.6142
 21
38.676
  0
LINE
  8
0
 10
-68.6142
 20
38.676
 11
-68.6771
 21
38.5429
  0
LINE
  8
0
 10
-68.6771
 20
38.5429
 11
-68.7528
 21
38.4166
  0
LINE
  8
0
 10
-68.7528
 20
38.4166
 11
-68.8405
 21
38.2984
  0
LINE
  8
0
 10
-68.8405
 20
38.2984
 11
-68.9393
 21
38.1893
  0
LINE
  8
0
 10
-68.9393
 20
38.1893
 11
-69.0484
 21
38.0905
  0
LINE
  8
0
 10
-69.0484
 20
38.0905
 11
-69.1666
 21
38.0028
  0
LINE
  8
0
 10
-69.1666
 20
38.0028
 11
-69.2929
 21
37.9271
  0
LINE
  8
0
 10
-69.2929
 20
37.9271
 11
-69.426
 21
37.8642
  0
LINE
  8
0
 10
-69.426
 20
37.8642
 11
-69.5646
 21
37.8146
  0
LINE
  8
0
 10
-69.5646
 20
37.8146
 11
-69.7074
 21
37.7788
  0
LINE
  8
0
 10
-69.7074
 20
37.7788
 11
-69.853
 21
37.7572
  0
LINE
  8
0
 10
-69.853
 20
37.7572
 11
-70
 21
37.75
  0
LINE
  8
0
 10
-70
 20
37.75
 11
-70.147
 21
37.7572
  0
LINE
  8
0
 10
33.4741
 20
37.7572
 11
33.3285
 21
37.7788
  0
LINE
  8
0
 10
33.3285
 20
37.7788
 11
33.1857
 21
37.8146
  0
LINE
  8
0
 10
33.1857
 20
37.8146
 11
33.0471
 21
37.8642
  0
LINE
  8
0
 10
33.0471
 20
37.8642
 11
32.914
 21
37.9271
  0
LINE
  8
0
 10
32.914
 20
37.9271
 11
32.7878
 21
38.0028
  0
LINE
  8
0
 10
32.7878
 20
38.0028
 11
32.6695
 21
38.0905
  0
LINE
  8
0
 10
32.6695
 20
38.0905
 11
32.5605
 21
38.1893
  0
LINE
  8
0
 10
32.5605
 20
38.1893
 11
32.4616
 21
38.2984
  0
LINE
  8
0
 10
32.4616
 20
38.2984
 11
32.3739
 21
38.4166
  0
LINE
  8
0
 10
32.3739
 20
38.4166
 11
32.2982
 21
38.5429
  0
LINE
  8
0
 10
32.2982
 20
38.5429
 11
32.2353
 21
38.676
  0
LINE
  8
0
 10
32.2353
 20
38.676
 11
32.1857
 21
38.8146
  0
LINE
  8
0
 10
32.1857
 20
38.8146
 11
32.1499
 21
38.9574
  0
LINE
  8
0
 10
32.1499
 20
38.9574
 11
32.1283
 21
39.103
  0
LINE
  8
0
 10
32.1283
 20
39.103
 11
32.1211
 21
39.25
  0
LINE
  8
0
 10
32.1211
 20
39.25
 11
32.1283
 21
39.397
  0
LINE
  8
0
 10
32.1283
 20
39.397
 11
32.1499
 21
39.5426
  0
LINE
  8
0
 10
32.1499
 20
39.5426
 11
32.1857
 21
39.6854
  0
LINE
  8
0
 10
32.1857
 20
39.6854
 11
32.2353
 21
39.824
  0
LINE
  8
0
 10
32.2353
 20
39.824
 11
32.2982
 21
39.9571
  0
LINE
  8
0
 10
32.2982
 20
39.9571
 11
32.3739
 21
40.0833
  0
LINE
  8
0
 10
32.3739
 20
40.0833
 11
32.4616
 21
40.2016
  0
LINE
  8
0
 10
32.4616
 20
40.2016
 11
32.5605
 21
40.3107
  0
LINE
  8
0
 10
32.5605
 20
40.3107
 11
32.6695
 21
40.4095
  0
LINE
  8
0
 10
32.6695
 20
40.4095
 11
32.7878
 21
40.4972
  0
LINE
  8
0
 10
32.7878
 20
40.4972
 11
32.914
 21
40.5729
  0
LINE
  8
0
 10
32.914
 20
40.5729
 11
33.0471
 21
40.6358
  0
LINE
  8
0
 10
33.0471
 20
40.6358
 11
33.1857
 21
40.6854
  0
LINE
  8
0
 10
33.1857
 20
40.6854
 11
33.3285
 21
40.7212
  0
LINE
  8
0
 10
33.3285
 20
40.7212
 11
33.4741
 21
40.7428
  0
LINE
  8
0
 10
33.4741
 20
40.7428
 11
33.6211
 21
40.75
  0
LINE
  8
0
 10
33.6211
 20
40.75
 11
33.7681
 21
40.7428
  0
LINE
  8
0
 10
33.7681
 20
40.7428
 11
33.9138
 21
40.7212
  0
LINE
  8
0
 10
33.9138
 20
40.7212
 11
34.0565
 21
40.6854
  0
LINE
  8
0
 10
34.0565
 20
40.6854
 11
34.1951
 21
40.6358
  0
LINE
  8
0
 10
34.1951
 20
40.6358
 11
34.3282
 21
40.5729
  0
LINE
  8
0
 10
34.3282
 20
40.5729
 11
34.4545
 21
40.4972
  0
LINE
  8
0
 10
34.4545
 20
40.4972
 11
34.5727
 21
40.4095
  0
LINE
  8
0
 10
34.5727
 20
40.4095
 11
34.6818
 21
40.3107
  0
LINE
  8
0
 10
34.6818
 20
40.3107
 11
34.7806
 21
40.2016
  0
LINE
  8
0
 10
34.7806
 20
40.2016
 11
34.8683
 21
40.0833
  0
LINE
  8
0
 10
34.8683
 20
40.0833
 11
34.944
 21
39.9571
  0
LINE
  8
0
 10
34.944
 20
39.9571
 11
35.0069
 21
39.824
  0
LINE
  8
0
 10
35.0069
 20
39.824
 11
35.0565
 21
39.6854
  0
LINE
  8
0
 10
35.0565
 20
39.6854
 11
35.0923
 21
39.5426
  0
LINE
  8
0
 10
35.0923
 20
39.5426
 11
35.1139
 21
39.397
  0
LINE
  8
0
 10
35.1139
 20
39.397
 11
35.1211
 21
39.25
  0
LINE
  8
0
 10
35.1211
 20
39.25
 11
35.1139
 21
39.103
  0
LINE
  8
0
 10
35.1139
 20
39.103
 11
35.0923
 21
38.9574
  0
LINE
  8
0
 10
35.0923
 20
38.9574
 11
35.0565
 21
38.8146
  0
LINE
  8
0
 10
35.0565
 20
38.8146
 11
35.0069
 21
38.676
  0
LINE
  8
0
 10
35.0069
 20
38.676
 11
34.944
 21
38.5429
  0
LINE
  8
0
 10
34.944
 20
38.5429
 11
34.8683
 21
38.4166
  0
LINE
  8
0
 10
34.8683
 20
38.4166
 11
34.7806
 21
38.2984
  0
LINE
  8
0
 10
34.7806
 20
38.2984
 11
34.6818
 21
38.1893
  0
LINE
  8
0
 10
34.6818
 20
38.1893
 11
34.5727
 21
38.0905
  0
LINE
  8
0
 10
34.5727
 20
38.0905
 11
34.4545
 21
38.0028
  0
LINE
  8
0
 10
34.4545
 20
38.0028
 11
34.3282
 21
37.9271
  0
LINE
  8
0
 10
34.3282
 20
37.9271
 11
34.1951
 21
37.8642
  0
LINE
  8
0
 10
34.1951
 20
37.8642
 11
34.0565
 21
37.8146
  0
LINE
  8
0
 10
34.0565
 20
37.8146
 11
33.9138
 21
37.7788
  0
LINE
  8
0
 10
33.9138
 20
37.7788
 11
33.7681
 21
37.7572
  0
LINE
  8
0
 10
33.7681
 20
37.7572
 11
33.6211
 21
37.75
  0
LINE
  8
0
 10
33.6211
 20
37.75
 11
33.4741
 21
37.7572
  0
LINE
  8
0
 10
62.6341
 20
37.7572
 11
62.4885
 21
37.7788
  0
LINE
  8
0
 10
62.4885
 20
37.7788
 11
62.3457
 21
37.8146
  0
LINE
  8
0
 10
62.3457
 20
37.8146
 11
62.2071
 21
37.8642
  0
LINE
  8
0
 10
62.2071
 20
37.8642
 11
62.074
 21
37.9271
  0
LINE
  8
0
 10
62.074
 20
37.9271
 11
61.9478
 21
38.0028
  0
LINE
  8
0
 10
61.9478
 20
38.0028
 11
61.8295
 21
38.0905
  0
LINE
  8
0
 10
61.8295
 20
38.0905
 11
61.7205
 21
38.1893
  0
LINE
  8
0
 10
61.7205
 20
38.1893
 11
61.6216
 21
38.2984
  0
LINE
  8
0
 10
61.6216
 20
38.2984
 11
61.5339
 21
38.4166
  0
LINE
  8
0
 10
61.5339
 20
38.4166
 11
61.4582
 21
38.5429
  0
LINE
  8
0
 10
61.4582
 20
38.5429
 11
61.3953
 21
38.676
  0
LINE
  8
0
 10
61.3953
 20
38.676
 11
61.3457
 21
38.8146
  0
LINE
  8
0
 10
61.3457
 20
38.8146
 11
61.3099
 21
38.9574
  0
LINE
  8
0
 10
61.3099
 20
38.9574
 11
61.2883
 21
39.103
  0
LINE
  8
0
 10
61.2883
 20
39.103
 11
61.2811
 21
39.25
  0
LINE
  8
0
 10
61.2811
 20
39.25
 11
61.2883
 21
39.397
  0
LINE
  8
0
 10
61.2883
 20
39.397
 11
61.3099
 21
39.5426
  0
LINE
  8
0
 10
61.3099
 20
39.5426
 11
61.3457
 21
39.6854
  0
LINE
  8
0
 10
61.3457
 20
39.6854
 11
61.3953
 21
39.824
  0
LINE
  8
0
 10
61.3953
 20
39.824
 11
61.4582
 21
39.9571
  0
LINE
  8
0
 10
61.4582
 20
39.9571
 11
61.5339
 21
40.0833
  0
LINE
  8
0
 10
61.5339
 20
40.0833
 11
61.6216
 21
40.2016
  0
LINE
  8
0
 10
61.6216
 20
40.2016
 11
61.7205
 21
40.3107
  0
LINE
  8
0
 10
61.7205
 20
40.3107
 11
61.8295
 21
40.4095
  0
LINE
  8
0
 10
61.8295
 20
40.4095
 11
61.9478
 21
40.4972
  0
LINE
  8
0
 10
61.9478
 20
40.4972
 11
62.074
 21
40.5729
  0
LINE
  8
0
 10
62.074
 20
40.5729
 11
62.2071
 21
40.6358
  0
LINE
  8
0
 10
62.2071
 20
40.6358
 11
62.3457
 21
40.6854
  0
LINE
  8
0
 10
62.3457
 20
40.6854
 11
62.4885
 21
40.7212
  0
LINE
  8
0
 10
62.4885
 20
40.7212
 11
62.6341
 21
40.7428
  0
LINE
  8
0
 10
62.6341
 20
40.7428
 11
62.7811
 21
40.75
  0
LINE
  8
0
 10
62.7811
 20
40.75
 11
62.9281
 21
40.7428
  0
LINE
  8
0
 10
62.9281
 20
40.7428
 11
63.0737
 21
40.7212
  0
LINE
  8
0
 10
63.0737
 20
40.7212
 11
63.2165
 21
40.6854
  0
LINE
  8
0
 10
63.2165
 20
40.6854
 11
63.3551
 21
40.6358
  0
LINE
  8
0
 10
63.3551
 20
40.6358
 11
63.4882
 21
40.5729
  0
LINE
  8
0
 10
63.4882
 20
40.5729
 11
63.6145
 21
40.4972
  0
LINE
  8
0
 10
63.6145
 20
40.4972
 11
63.7327
 21
40.4095
  0
LINE
  8
0
 10
63.7327
 20
40.4095
 11
63.8418
 21
40.3107
  0
LINE
  8
0
 10
63.8418
 20
40.3107
 11
63.9406
 21
40.2016
  0
LINE
  8
0
 10
63.9406
 20
40.2016
 11
64.0283
 21
40.0833
  0
LINE
  8
0
 10
64.0283
 20
40.0833
 11
64.104
 21
39.9571
  0
LINE
  8
0
 10
64.104
 20
39.9571
 11
64.1669
 21
39.824
  0
LINE
  8
0
 10
64.1669
 20
39.824
 11
64.2165
 21
39.6854
  0
LINE
  8
0
 10
64.2165
 20
39.6854
 11
64.2523
 21
39.5426
  0
LINE
  8
0
 10
64.2523
 20
39.5426
 11
64.2739
 21
39.397
  0
LINE
  8
0
 10
64.2739
 20
39.397
 11
64.2811
 21
39.25
  0
LINE
  8
0
 10
64.2811
 20
39.25
 11
64.2739
 21
39.103
  0
LINE
  8
0
 10
64.2739
 20
39.103
 11
64.2523
 21
38.9574
  0
LINE
  8
0
 10
64.2523
 20
38.9574
 11
64.2165
 21
38.8146
  0
LINE
  8
0
 10
64.2165
 20
38.8146
 11
64.1669
 21
38.676
  0
LINE
  8
0
 10
64.1669
 20
38.676
 11
64.104
 21
38.5429
  0
LINE
  8
0
 10
64.104
 20
38.5429
 11
64.0283
 21
38.4166
  0
LINE
  8
0
 10
64.0283
 20
38.4166
 11
63.9406
 21
38.2984
  0
LINE
  8
0
 10
63.9406
 20
38.2984
 11
63.8418
 21
38.1893
  0
LINE
  8
0
 10
63.8418
 20
38.1893
 11
63.7327
 21
38.0905
  0
LINE
  8
0
 10
63.7327
 20
38.0905
 11
63.6145
 21
38.0028
  0
LINE
  8
0
 10
63.6145
 20
38.0028
 11
63.4882
 21
37.9271
  0
LINE
  8
0
 10
63.4882
 20
37.9271
 11
63.3551
 21
37.8642
  0
LINE
  8
0
 10
63.3551
 20
37.8642
 11
63.2165
 21
37.8146
  0
LINE
  8
0
 10
63.2165
 20
37.8146
 11
63.0737
 21
37.7788
  0
LINE
  8
0
 10
63.0737
 20
37.7788
 11
62.9281
 21
37.7572
  0
LINE
  8
0
 10
62.9281
 20
37.7572
 11
62.7811
 21
37.75
  0
LINE
  8
0
 10
62.7811
 20
37.75
 11
62.6341
 21
37.7572
  0
LINE
  8
0
 10
141.539
 20
37.7572
 11
141.393
 21
37.7788
  0
LINE
  8
0
 10
141.393
 20
37.7788
 11
141.25
 21
37.8146
  0
LINE
  8
0
 10
141.25
 20
37.8146
 11
141.112
 21
37.8642
  0
LINE
  8
0
 10
141.112
 20
37.8642
 11
140.978
 21
37.9271
  0
LINE
  8
0
 10
140.978
 20
37.9271
 11
140.852
 21
38.0028
  0
LINE
  8
0
 10
140.852
 20
38.0028
 11
140.734
 21
38.0905
  0
LINE
  8
0
 10
140.734
 20
38.0905
 11
140.625
 21
38.1893
  0
LINE
  8
0
 10
140.625
 20
38.1893
 11
140.526
 21
38.2984
  0
LINE
  8
0
 10
140.526
 20
38.2984
 11
140.438
 21
38.4166
  0
LINE
  8
0
 10
140.438
 20
38.4166
 11
140.363
 21
38.5429
  0
LINE
  8
0
 10
140.363
 20
38.5429
 11
140.3
 21
38.676
  0
LINE
  8
0
 10
140.3
 20
38.676
 11
140.25
 21
38.8146
  0
LINE
  8
0
 10
140.25
 20
38.8146
 11
140.214
 21
38.9574
  0
LINE
  8
0
 10
140.214
 20
38.9574
 11
140.193
 21
39.103
  0
LINE
  8
0
 10
140.193
 20
39.103
 11
140.186
 21
39.25
  0
LINE
  8
0
 10
140.186
 20
39.25
 11
140.193
 21
39.397
  0
LINE
  8
0
 10
140.193
 20
39.397
 11
140.214
 21
39.5426
  0
LINE
  8
0
 10
140.214
 20
39.5426
 11
140.25
 21
39.6854
  0
LINE
  8
0
 10
140.25
 20
39.6854
 11
140.3
 21
39.824
  0
LINE
  8
0
 10
140.3
 20
39.824
 11
140.363
 21
39.9571
  0
LINE
  8
0
 10
140.363
 20
39.9571
 11
140.438
 21
40.0833
  0
LINE
  8
0
 10
140.438
 20
40.0833
 11
140.526
 21
40.2016
  0
LINE
  8
0
 10
140.526
 20
40.2016
 11
140.625
 21
40.3107
  0
LINE
  8
0
 10
140.625
 20
40.3107
 11
140.734
 21
40.4095
  0
LINE
  8
0
 10
140.734
 20
40.4095
 11
140.852
 21
40.4972
  0
LINE
  8
0
 10
140.852
 20
40.4972
 11
140.978
 21
40.5729
  0
LINE
  8
0
 10
140.978
 20
40.5729
 11
141.112
 21
40.6358
  0
LINE
  8
0
 10
141.112
 20
40.6358
 11
141.25
 21
40.6854
  0
LINE
  8
0
 10
141.25
 20
40.6854
 11
141.393
 21
40.7212
  0
LINE
  8
0
 10
141.393
 20
40.7212
 11
141.539
 21
40.7428
  0
LINE
  8
0
 10
141.539
 20
40.7428
 11
141.686
 21
40.75
  0
LINE
  8
0
 10
141.686
 20
40.75
 11
141.833
 21
40.7428
  0
LINE
  8
0
 10
141.833
 20
40.7428
 11
141.978
 21
40.7212
  0
LINE
  8
0
 10
141.978
 20
40.7212
 11
142.121
 21
40.6854
  0
LINE
  8
0
 10
142.121
 20
40.6854
 11
142.26
 21
40.6358
  0
LINE
  8
0
 10
142.26
 20
40.6358
 11
142.393
 21
40.5729
  0
LINE
  8
0
 10
142.393
 20
40.5729
 11
142.519
 21
40.4972
  0
LINE
  8
0
 10
142.519
 20
40.4972
 11
142.637
 21
40.4095
  0
LINE
  8
0
 10
142.637
 20
40.4095
 11
142.746
 21
40.3107
  0
LINE
  8
0
 10
142.746
 20
40.3107
 11
142.845
 21
40.2016
  0
LINE
  8
0
 10
142.845
 20
40.2016
 11
142.933
 21
40.0833
  0
LINE
  8
0
 10
142.933
 20
40.0833
 11
143.008
 21
39.9571
  0
LINE
  8
0
 10
143.008
 20
39.9571
 11
143.071
 21
39.824
  0
LINE
  8
0
 10
143.071
 20
39.824
 11
143.121
 21
39.6854
  0
LINE
  8
0
 10
143.121
 20
39.6854
 11
143.157
 21
39.5426
  0
LINE
  8
0
 10
143.157
 20
39.5426
 11
143.178
 21
39.397
  0
LINE
  8
0
 10
143.178
 20
39.397
 11
143.186
 21
39.25
  0
LINE
  8
0
 10
143.186
 20
39.25
 11
143.178
 21
39.103
  0
LINE
  8
0
 10
143.178
 20
39.103
 11
143.157
 21
38.9574
  0
LINE
  8
0
 10
143.157
 20
38.9574
 11
143.121
 21
38.8146
  0
LINE
  8
0
 10
143.121
 20
38.8146
 11
143.071
 21
38.676
  0
LINE
  8
0
 10
143.071
 20
38.676
 11
143.008
 21
38.5429
  0
LINE
  8
0
 10
143.008
 20
38.5429
 11
142.933
 21
38.4166
  0
LINE
  8
0
 10
142.933
 20
38.4166
 11
142.845
 21
38.2984
  0
LINE
  8
0
 10
142.845
 20
38.2984
 11
142.746
 21
38.1893
  0
LINE
  8
0
 10
142.746
 20
38.1893
 11
142.637
 21
38.0905
  0
LINE
  8
0
 10
142.637
 20
38.0905
 11
142.519
 21
38.0028
  0
LINE
  8
0
 10
142.519
 20
38.0028
 11
142.393
 21
37.9271
  0
LINE
  8
0
 10
142.393
 20
37.9271
 11
142.26
 21
37.8642
  0
LINE
  8
0
 10
142.26
 20
37.8642
 11
142.121
 21
37.8146
  0
LINE
  8
0
 10
142.121
 20
37.8146
 11
141.978
 21
37.7788
  0
LINE
  8
0
 10
141.978
 20
37.7788
 11
141.833
 21
37.7572
  0
LINE
  8
0
 10
141.833
 20
37.7572
 11
141.686
 21
37.75
  0
LINE
  8
0
 10
141.686
 20
37.75
 11
141.539
 21
37.7572
  0
LINE
  8
0
 10
-55.147
 20
37.7572
 11
-55.2926
 21
37.7788
  0
LINE
  8
0
 10
-55.2926
 20
37.7788
 11
-55.4354
 21
37.8146
  0
LINE
  8
0
 10
-55.4354
 20
37.8146
 11
-55.574
 21
37.8642
  0
LINE
  8
0
 10
-55.574
 20
37.8642
 11
-55.7071
 21
37.9271
  0
LINE
  8
0
 10
-55.7071
 20
37.9271
 11
-55.8333
 21
38.0028
  0
LINE
  8
0
 10
-55.8333
 20
38.0028
 11
-55.9516
 21
38.0905
  0
LINE
  8
0
 10
-55.9516
 20
38.0905
 11
-56.0607
 21
38.1893
  0
LINE
  8
0
 10
-56.0607
 20
38.1893
 11
-56.1595
 21
38.2984
  0
LINE
  8
0
 10
-56.1595
 20
38.2984
 11
-56.2472
 21
38.4166
  0
LINE
  8
0
 10
-56.2472
 20
38.4166
 11
-56.3229
 21
38.5429
  0
LINE
  8
0
 10
-56.3229
 20
38.5429
 11
-56.3858
 21
38.676
  0
LINE
  8
0
 10
-56.3858
 20
38.676
 11
-56.4354
 21
38.8146
  0
LINE
  8
0
 10
-56.4354
 20
38.8146
 11
-56.4712
 21
38.9574
  0
LINE
  8
0
 10
-56.4712
 20
38.9574
 11
-56.4928
 21
39.103
  0
LINE
  8
0
 10
-56.4928
 20
39.103
 11
-56.5
 21
39.25
  0
LINE
  8
0
 10
-56.5
 20
39.25
 11
-56.4928
 21
39.397
  0
LINE
  8
0
 10
-56.4928
 20
39.397
 11
-56.4712
 21
39.5426
  0
LINE
  8
0
 10
-56.4712
 20
39.5426
 11
-56.4354
 21
39.6854
  0
LINE
  8
0
 10
-56.4354
 20
39.6854
 11
-56.3858
 21
39.824
  0
LINE
  8
0
 10
-56.3858
 20
39.824
 11
-56.3229
 21
39.9571
  0
LINE
  8
0
 10
-56.3229
 20
39.9571
 11
-56.2472
 21
40.0833
  0
LINE
  8
0
 10
-56.2472
 20
40.0833
 11
-56.1595
 21
40.2016
  0
LINE
  8
0
 10
-56.1595
 20
40.2016
 11
-56.0607
 21
40.3107
  0
LINE
  8
0
 10
-56.0607
 20
40.3107
 11
-55.9516
 21
40.4095
  0
LINE
  8
0
 10
-55.9516
 20
40.4095
 11
-55.8333
 21
40.4972
  0
LINE
  8
0
 10
-55.8333
 20
40.4972
 11
-55.7071
 21
40.5729
  0
LINE
  8
0
 10
-55.7071
 20
40.5729
 11
-55.574
 21
40.6358
  0
LINE
  8
0
 10
-55.574
 20
40.6358
 11
-55.4354
 21
40.6854
  0
LINE
  8
0
 10
-55.4354
 20
40.6854
 11
-55.2926
 21
40.7212
  0
LINE
  8
0
 10
-55.2926
 20
40.7212
 11
-55.147
 21
40.7428
  0
LINE
  8
0
 10
-55.147
 20
40.7428
 11
-55
 21
40.75
  0
LINE
  8
0
 10
-55
 20
40.75
 11
-54.853
 21
40.7428
  0
LINE
  8
0
 10
-54.853
 20
40.7428
 11
-54.7074
 21
40.7212
  0
LINE
  8
0
 10
-54.7074
 20
40.7212
 11
-54.5646
 21
40.6854
  0
LINE
  8
0
 10
-54.5646
 20
40.6854
 11
-54.426
 21
40.6358
  0
LINE
  8
0
 10
-54.426
 20
40.6358
 11
-54.2929
 21
40.5729
  0
LINE
  8
0
 10
-54.2929
 20
40.5729
 11
-54.1666
 21
40.4972
  0
LINE
  8
0
 10
-54.1666
 20
40.4972
 11
-54.0484
 21
40.4095
  0
LINE
  8
0
 10
-54.0484
 20
40.4095
 11
-53.9393
 21
40.3107
  0
LINE
  8
0
 10
-53.9393
 20
40.3107
 11
-53.8405
 21
40.2016
  0
LINE
  8
0
 10
-53.8405
 20
40.2016
 11
-53.7528
 21
40.0833
  0
LINE
  8
0
 10
-53.7528
 20
40.0833
 11
-53.6771
 21
39.9571
  0
LINE
  8
0
 10
-53.6771
 20
39.9571
 11
-53.6142
 21
39.824
  0
LINE
  8
0
 10
-53.6142
 20
39.824
 11
-53.5646
 21
39.6854
  0
LINE
  8
0
 10
-53.5646
 20
39.6854
 11
-53.5288
 21
39.5426
  0
LINE
  8
0
 10
-53.5288
 20
39.5426
 11
-53.5072
 21
39.397
  0
LINE
  8
0
 10
-53.5072
 20
39.397
 11
-53.5
 21
39.25
  0
LINE
  8
0
 10
-53.5
 20
39.25
 11
-53.5072
 21
39.103
  0
LINE
  8
0
 10
-53.5072
 20
39.103
 11
-53.5288
 21
38.9574
  0
LINE
  8
0
 10
-53.5288
 20
38.9574
 11
-53.5646
 21
38.8146
  0
LINE
  8
0
 10
-53.5646
 20
38.8146
 11
-53.6142
 21
38.676
  0
LINE
  8
0
 10
-53.6142
 20
38.676
 11
-53.6771
 21
38.5429
  0
LINE
  8
0
 10
-53.6771
 20
38.5429
 11
-53.7528
 21
38.4166
  0
LINE
  8
0
 10
-53.7528
 20
38.4166
 11
-53.8405
 21
38.2984
  0
LINE
  8
0
 10
-53.8405
 20
38.2984
 11
-53.9393
 21
38.1893
  0
LINE
  8
0
 10
-53.9393
 20
38.1893
 11
-54.0484
 21
38.0905
  0
LINE
  8
0
 10
-54.0484
 20
38.0905
 11
-54.1666
 21
38.0028
  0
LINE
  8
0
 10
-54.1666
 20
38.0028
 11
-54.2929
 21
37.9271
  0
LINE
  8
0
 10
-54.2929
 20
37.9271
 11
-54.426
 21
37.8642
  0
LINE
  8
0
 10
-54.426
 20
37.8642
 11
-54.5646
 21
37.8146
  0
LINE
  8
0
 10
-54.5646
 20
37.8146
 11
-54.7074
 21
37.7788
  0
LINE
  8
0
 10
-54.7074
 20
37.7788
 11
-54.853
 21
37.7572
  0
LINE
  8
0
 10
-54.853
 20
37.7572
 11
-55
 21
37.75
  0
LINE
  8
0
 10
-55
 20
37.75
 11
-55.147
 21
37.7572
  0
LINE
  8
0
 10
112.379
 20
37.7572
 11
112.233
 21
37.7788
  0
LINE
  8
0
 10
112.233
 20
37.7788
 11
112.09
 21
37.8146
  0
LINE
  8
0
 10
112.09
 20
37.8146
 11
111.952
 21
37.8642
  0
LINE
  8
0
 10
111.952
 20
37.8642
 11
111.818
 21
37.9271
  0
LINE
  8
0
 10
111.818
 20
37.9271
 11
111.692
 21
38.0028
  0
LINE
  8
0
 10
111.692
 20
38.0028
 11
111.574
 21
38.0905
  0
LINE
  8
0
 10
111.574
 20
38.0905
 11
111.465
 21
38.1893
  0
LINE
  8
0
 10
111.465
 20
38.1893
 11
111.366
 21
38.2984
  0
LINE
  8
0
 10
111.366
 20
38.2984
 11
111.278
 21
38.4166
  0
LINE
  8
0
 10
111.278
 20
38.4166
 11
111.203
 21
38.5429
  0
LINE
  8
0
 10
111.203
 20
38.5429
 11
111.14
 21
38.676
  0
LINE
  8
0
 10
111.14
 20
38.676
 11
111.09
 21
38.8146
  0
LINE
  8
0
 10
111.09
 20
38.8146
 11
111.054
 21
38.9574
  0
LINE
  8
0
 10
111.054
 20
38.9574
 11
111.033
 21
39.103
  0
LINE
  8
0
 10
111.033
 20
39.103
 11
111.026
 21
39.25
  0
LINE
  8
0
 10
111.026
 20
39.25
 11
111.033
 21
39.397
  0
LINE
  8
0
 10
111.033
 20
39.397
 11
111.054
 21
39.5426
  0
LINE
  8
0
 10
111.054
 20
39.5426
 11
111.09
 21
39.6854
  0
LINE
  8
0
 10
111.09
 20
39.6854
 11
111.14
 21
39.824
  0
LINE
  8
0
 10
111.14
 20
39.824
 11
111.203
 21
39.9571
  0
LINE
  8
0
 10
111.203
 20
39.9571
 11
111.278
 21
40.0833
  0
LINE
  8
0
 10
111.278
 20
40.0833
 11
111.366
 21
40.2016
  0
LINE
  8
0
 10
111.366
 20
40.2016
 11
111.465
 21
40.3107
  0
LINE
  8
0
 10
111.465
 20
40.3107
 11
111.574
 21
40.4095
  0
LINE
  8
0
 10
111.574
 20
40.4095
 11
111.692
 21
40.4972
  0
LINE
  8
0
 10
111.692
 20
40.4972
 11
111.818
 21
40.5729
  0
LINE
  8
0
 10
111.818
 20
40.5729
 11
111.952
 21
40.6358
  0
LINE
  8
0
 10
111.952
 20
40.6358
 11
112.09
 21
40.6854
  0
LINE
  8
0
 10
112.09
 20
40.6854
 11
112.233
 21
40.7212
  0
LINE
  8
0
 10
112.233
 20
40.7212
 11
112.379
 21
40.7428
  0
LINE
  8
0
 10
112.379
 20
40.7428
 11
112.526
 21
40.75
  0
LINE
  8
0
 10
112.526
 20
40.75
 11
112.673
 21
40.7428
  0
LINE
  8
0
 10
112.673
 20
40.7428
 11
112.818
 21
40.7212
  0
LINE
  8
0
 10
112.818
 20
40.7212
 11
112.961
 21
40.6854
  0
LINE
  8
0
 10
112.961
 20
40.6854
 11
113.1
 21
40.6358
  0
LINE
  8
0
 10
113.1
 20
40.6358
 11
113.233
 21
40.5729
  0
LINE
  8
0
 10
113.233
 20
40.5729
 11
113.359
 21
40.4972
  0
LINE
  8
0
 10
113.359
 20
40.4972
 11
113.477
 21
40.4095
  0
LINE
  8
0
 10
113.477
 20
40.4095
 11
113.586
 21
40.3107
  0
LINE
  8
0
 10
113.586
 20
40.3107
 11
113.685
 21
40.2016
  0
LINE
  8
0
 10
113.685
 20
40.2016
 11
113.773
 21
40.0833
  0
LINE
  8
0
 10
113.773
 20
40.0833
 11
113.848
 21
39.9571
  0
LINE
  8
0
 10
113.848
 20
39.9571
 11
113.911
 21
39.824
  0
LINE
  8
0
 10
113.911
 20
39.824
 11
113.961
 21
39.6854
  0
LINE
  8
0
 10
113.961
 20
39.6854
 11
113.997
 21
39.5426
  0
LINE
  8
0
 10
113.997
 20
39.5426
 11
114.018
 21
39.397
  0
LINE
  8
0
 10
114.018
 20
39.397
 11
114.026
 21
39.25
  0
LINE
  8
0
 10
114.026
 20
39.25
 11
114.018
 21
39.103
  0
LINE
  8
0
 10
114.018
 20
39.103
 11
113.997
 21
38.9574
  0
LINE
  8
0
 10
113.997
 20
38.9574
 11
113.961
 21
38.8146
  0
LINE
  8
0
 10
113.961
 20
38.8146
 11
113.911
 21
38.676
  0
LINE
  8
0
 10
113.911
 20
38.676
 11
113.848
 21
38.5429
  0
LINE
  8
0
 10
113.848
 20
38.5429
 11
113.773
 21
38.4166
  0
LINE
  8
0
 10
113.773
 20
38.4166
 11
113.685
 21
38.2984
  0
LINE
  8
0
 10
113.685
 20
38.2984
 11
113.586
 21
38.1893
  0
LINE
  8
0
 10
113.586
 20
38.1893
 11
113.477
 21
38.0905
  0
LINE
  8
0
 10
113.477
 20
38.0905
 11
113.359
 21
38.0028
  0
LINE
  8
0
 10
113.359
 20
38.0028
 11
113.233
 21
37.9271
  0
LINE
  8
0
 10
113.233
 20
37.9271
 11
113.1
 21
37.8642
  0
LINE
  8
0
 10
113.1
 20
37.8642
 11
112.961
 21
37.8146
  0
LINE
  8
0
 10
112.961
 20
37.8146
 11
112.818
 21
37.7788
  0
LINE
  8
0
 10
112.818
 20
37.7788
 11
112.673
 21
37.7572
  0
LINE
  8
0
 10
112.673
 20
37.7572
 11
112.526
 21
37.75
  0
LINE
  8
0
 10
112.526
 20
37.75
 11
112.379
 21
37.7572
  0
LINE
  8
0
 10
-12
 20
25
 11
-12
 21
35
  0
LINE
  8
0
 10
-12
 20
35
 11
12
 21
35
  0
LINE
  8
0
 10
12
 20
35
 11
12
 21
25
  0
LINE
  8
0
 10
12
 20
25
 11
-12
 21
25
  0
LINE
  8
0
 10
55.2585
 20
30.0182
 11
55.1129
 21
30.0398
  0
LINE
  8
0
 10
55.1129
 20
30.0398
 11
54.9701
 21
30.0756
  0
LINE
  8
0
 10
54.9701
 20
30.0756
 11
54.8315
 21
30.1252
  0
LINE
  8
0
 10
54.8315
 20
30.1252
 11
54.6985
 21
30.1881
  0
LINE
  8
0
 10
54.6985
 20
30.1881
 11
54.5722
 21
30.2638
  0
LINE
  8
0
 10
54.5722
 20
30.2638
 11
54.454
 21
30.3515
  0
LINE
  8
0
 10
54.454
 20
30.3515
 11
54.3449
 21
30.4503
  0
LINE
  8
0
 10
54.3449
 20
30.4503
 11
54.246
 21
30.5594
  0
LINE
  8
0
 10
54.246
 20
30.5594
 11
54.1584
 21
30.6776
  0
LINE
  8
0
 10
54.1584
 20
30.6776
 11
54.0827
 21
30.8039
  0
LINE
  8
0
 10
54.0827
 20
30.8039
 11
54.0197
 21
30.937
  0
LINE
  8
0
 10
54.0197
 20
30.937
 11
53.9701
 21
31.0755
  0
LINE
  8
0
 10
53.9701
 20
31.0755
 11
53.9344
 21
31.2183
  0
LINE
  8
0
 10
53.9344
 20
31.2183
 11
53.9128
 21
31.364
  0
LINE
  8
0
 10
53.9128
 20
31.364
 11
53.9055
 21
31.511
  0
LINE
  8
0
 10
53.9055
 20
31.511
 11
53.9128
 21
31.658
  0
LINE
  8
0
 10
53.9128
 20
31.658
 11
53.9344
 21
31.8036
  0
LINE
  8
0
 10
53.9344
 20
31.8036
 11
53.9701
 21
31.9464
  0
LINE
  8
0
 10
53.9701
 20
31.9464
 11
54.0197
 21
32.085
  0
LINE
  8
0
 10
54.0197
 20
32.085
 11
54.0827
 21
32.2181
  0
LINE
  8
0
 10
54.0827
 20
32.2181
 11
54.1584
 21
32.3443
  0
LINE
  8
0
 10
54.1584
 20
32.3443
 11
54.246
 21
32.4626
  0
LINE
  8
0
 10
54.246
 20
32.4626
 11
54.3449
 21
32.5716
  0
LINE
  8
0
 10
54.3449
 20
32.5716
 11
54.454
 21
32.6705
  0
LINE
  8
0
 10
54.454
 20
32.6705
 11
54.5722
 21
32.7582
  0
LINE
  8
0
 10
54.5722
 20
32.7582
 11
54.6985
 21
32.8339
  0
LINE
  8
0
 10
54.6985
 20
32.8339
 11
54.8315
 21
32.8968
  0
LINE
  8
0
 10
54.8315
 20
32.8968
 11
54.9701
 21
32.9464
  0
LINE
  8
0
 10
54.9701
 20
32.9464
 11
55.1129
 21
32.9822
  0
LINE
  8
0
 10
55.1129
 20
32.9822
 11
55.2585
 21
33.0038
  0
LINE
  8
0
 10
55.2585
 20
33.0038
 11
55.4055
 21
33.011
  0
LINE
  8
0
 10
55.4055
 20
33.011
 11
55.5526
 21
33.0038
  0
LINE
  8
0
 10
55.5526
 20
33.0038
 11
55.6982
 21
32.9822
  0
LINE
  8
0
 10
55.6982
 20
32.9822
 11
55.841
 21
32.9464
  0
LINE
  8
0
 10
55.841
 20
32.9464
 11
55.9796
 21
32.8968
  0
LINE
  8
0
 10
55.9796
 20
32.8968
 11
56.1127
 21
32.8339
  0
LINE
  8
0
 10
56.1127
 20
32.8339
 11
56.2389
 21
32.7582
  0
LINE
  8
0
 10
56.2389
 20
32.7582
 11
56.3571
 21
32.6705
  0
LINE
  8
0
 10
56.3571
 20
32.6705
 11
56.4662
 21
32.5716
  0
LINE
  8
0
 10
56.4662
 20
32.5716
 11
56.5651
 21
32.4626
  0
LINE
  8
0
 10
56.5651
 20
32.4626
 11
56.6528
 21
32.3443
  0
LINE
  8
0
 10
56.6528
 20
32.3443
 11
56.7284
 21
32.2181
  0
LINE
  8
0
 10
56.7284
 20
32.2181
 11
56.7914
 21
32.085
  0
LINE
  8
0
 10
56.7914
 20
32.085
 11
56.841
 21
31.9464
  0
LINE
  8
0
 10
56.841
 20
31.9464
 11
56.8767
 21
31.8036
  0
LINE
  8
0
 10
56.8767
 20
31.8036
 11
56.8983
 21
31.658
  0
LINE
  8
0
 10
56.8983
 20
31.658
 11
56.9055
 21
31.511
  0
LINE
  8
0
 10
56.9055
 20
31.511
 11
56.8983
 21
31.364
  0
LINE
  8
0
 10
56.8983
 20
31.364
 11
56.8767
 21
31.2183
  0
LINE
  8
0
 10
56.8767
 20
31.2183
 11
56.841
 21
31.0755
  0
LINE
  8
0
 10
56.841
 20
31.0755
 11
56.7914
 21
30.937
  0
LINE
  8
0
 10
56.7914
 20
30.937
 11
56.7284
 21
30.8039
  0
LINE
  8
0
 10
56.7284
 20
30.8039
 11
56.6528
 21
30.6776
  0
LINE
  8
0
 10
56.6528
 20
30.6776
 11
56.5651
 21
30.5594
  0
LINE
  8
0
 10
56.5651
 20
30.5594
 11
56.4662
 21
30.4503
  0
LINE
  8
0
 10
56.4662
 20
30.4503
 11
56.3571
 21
30.3515
  0
LINE
  8
0
 10
56.3571
 20
30.3515
 11
56.2389
 21
30.2638
  0
LINE
  8
0
 10
56.2389
 20
30.2638
 11
56.1127
 21
30.1881
  0
LINE
  8
0
 10
56.1127
 20
30.1881
 11
55.9796
 21
30.1252
  0
LINE
  8
0
 10
55.9796
 20
30.1252
 11
55.841
 21
30.0756
  0
LINE
  8
0
 10
55.841
 20
30.0756
 11
55.6982
 21
30.0398
  0
LINE
  8
0
 10
55.6982
 20
30.0398
 11
55.5526
 21
30.0182
  0
LINE
  8
0
 10
55.5526
 20
30.0182
 11
55.4055
 21
30.011
  0
LINE
  8
0
 10
55.4055
 20
30.011
 11
55.2585
 21
30.0182
  0
LINE
  8
0
 10
141.259
 20
30.0182
 11
141.113
 21
30.0398
  0
LINE
  8
0
 10
141.113
 20
30.0398
 11
140.97
 21
30.0756
  0
LINE
  8
0
 10
140.97
 20
30.0756
 11
140.832
 21
30.1252
  0
LINE
  8
0
 10
140.832
 20
30.1252
 11
140.698
 21
30.1881
  0
LINE
  8
0
 10
140.698
 20
30.1881
 11
140.572
 21
30.2638
  0
LINE
  8
0
 10
140.572
 20
30.2638
 11
140.454
 21
30.3515
  0
LINE
  8
0
 10
140.454
 20
30.3515
 11
140.345
 21
30.4503
  0
LINE
  8
0
 10
140.345
 20
30.4503
 11
140.246
 21
30.5594
  0
LINE
  8
0
 10
140.246
 20
30.5594
 11
140.158
 21
30.6776
  0
LINE
  8
0
 10
140.158
 20
30.6776
 11
140.083
 21
30.8039
  0
LINE
  8
0
 10
140.083
 20
30.8039
 11
140.02
 21
30.937
  0
LINE
  8
0
 10
140.02
 20
30.937
 11
139.97
 21
31.0755
  0
LINE
  8
0
 10
139.97
 20
31.0755
 11
139.934
 21
31.2183
  0
LINE
  8
0
 10
139.934
 20
31.2183
 11
139.913
 21
31.364
  0
LINE
  8
0
 10
139.913
 20
31.364
 11
139.906
 21
31.511
  0
LINE
  8
0
 10
139.906
 20
31.511
 11
139.913
 21
31.658
  0
LINE
  8
0
 10
139.913
 20
31.658
 11
139.934
 21
31.8036
  0
LINE
  8
0
 10
139.934
 20
31.8036
 11
139.97
 21
31.9464
  0
LINE
  8
0
 10
139.97
 20
31.9464
 11
140.02
 21
32.085
  0
LINE
  8
0
 10
140.02
 20
32.085
 11
140.083
 21
32.2181
  0
LINE
  8
0
 10
140.083
 20
32.2181
 11
140.158
 21
32.3443
  0
LINE
  8
0
 10
140.158
 20
32.3443
 11
140.246
 21
32.4626
  0
LINE
  8
0
 10
140.246
 20
32.4626
 11
140.345
 21
32.5716
  0
LINE
  8
0
 10
140.345
 20
32.5716
 11
140.454
 21
32.6705
  0
LINE
  8
0
 10
140.454
 20
32.6705
 11
140.572
 21
32.7582
  0
LINE
  8
0
 10
140.572
 20
32.7582
 11
140.698
 21
32.8339
  0
LINE
  8
0
 10
140.698
 20
32.8339
 11
140.832
 21
32.8968
  0
LINE
  8
0
 10
140.832
 20
32.8968
 11
140.97
 21
32.9464
  0
LINE
  8
0
 10
140.97
 20
32.9464
 11
141.113
 21
32.9822
  0
LINE
  8
0
 10
141.113
 20
32.9822
 11
141.259
 21
33.0038
  0
LINE
  8
0
 10
141.259
 20
33.0038
 11
141.406
 21
33.011
  0
LINE
  8
0
 10
141.406
 20
33.011
 11
141.553
 21
33.0038
  0
LINE
  8
0
 10
141.553
 20
33.0038
 11
141.698
 21
32.9822
  0
LINE
  8
0
 10
141.698
 20
32.9822
 11
141.841
 21
32.9464
  0
LINE
  8
0
 10
141.841
 20
32.9464
 11
141.98
 21
32.8968
  0
LINE
  8
0
 10
141.98
 20
32.8968
 11
142.113
 21
32.8339
  0
LINE
  8
0
 10
142.113
 20
32.8339
 11
142.239
 21
32.7582
  0
LINE
  8
0
 10
142.239
 20
32.7582
 11
142.357
 21
32.6705
  0
LINE
  8
0
 10
142.357
 20
32.6705
 11
142.466
 21
32.5716
  0
LINE
  8
0
 10
142.466
 20
32.5716
 11
142.565
 21
32.4626
  0
LINE
  8
0
 10
142.565
 20
32.4626
 11
142.653
 21
32.3443
  0
LINE
  8
0
 10
142.653
 20
32.3443
 11
142.728
 21
32.2181
  0
LINE
  8
0
 10
142.728
 20
32.2181
 11
142.791
 21
32.085
  0
LINE
  8
0
 10
142.791
 20
32.085
 11
142.841
 21
31.9464
  0
LINE
  8
0
 10
142.841
 20
31.9464
 11
142.877
 21
31.8036
  0
LINE
  8
0
 10
142.877
 20
31.8036
 11
142.898
 21
31.658
  0
LINE
  8
0
 10
142.898
 20
31.658
 11
142.906
 21
31.511
  0
LINE
  8
0
 10
142.906
 20
31.511
 11
142.898
 21
31.364
  0
LINE
  8
0
 10
142.898
 20
31.364
 11
142.877
 21
31.2183
  0
LINE
  8
0
 10
142.877
 20
31.2183
 11
142.841
 21
31.0755
  0
LINE
  8
0
 10
142.841
 20
31.0755
 11
142.791
 21
30.937
  0
LINE
  8
0
 10
142.791
 20
30.937
 11
142.728
 21
30.8039
  0
LINE
  8
0
 10
142.728
 20
30.8039
 11
142.653
 21
30.6776
  0
LINE
  8
0
 10
142.653
 20
30.6776
 11
142.565
 21
30.5594
  0
LINE
  8
0
 10
142.565
 20
30.5594
 11
142.466
 21
30.4503
  0
LINE
  8
0
 10
142.466
 20
30.4503
 11
142.357
 21
30.3515
  0
LINE
  8
0
 10
142.357
 20
30.3515
 11
142.239
 21
30.2638
  0
LINE
  8
0
 10
142.239
 20
30.2638
 11
142.113
 21
30.1881
  0
LINE
  8
0
 10
142.113
 20
30.1881
 11
141.98
 21
30.1252
  0
LINE
  8
0
 10
141.98
 20
30.1252
 11
141.841
 21
30.0756
  0
LINE
  8
0
 10
141.841
 20
30.0756
 11
141.698
 21
30.0398
  0
LINE
  8
0
 10
141.698
 20
30.0398
 11
141.553
 21
30.0182
  0
LINE
  8
0
 10
141.553
 20
30.0182
 11
141.406
 21
30.011
  0
LINE
  8
0
 10
141.406
 20
30.011
 11
141.259
 21
30.0182
  0
LINE
  8
0
 10
27.853
 20
26.5072
 11
27.7074
 21
26.5288
  0
LINE
  8
0
 10
27.7074
 20
26.5288
 11
27.5646
 21
26.5646
  0
LINE
  8
0
 10
27.5646
 20
26.5646
 11
27.426
 21
26.6142
  0
LINE
  8
0
 10
27.426
 20
26.6142
 11
27.2929
 21
26.6771
  0
LINE
  8
0
 10
27.2929
 20
26.6771
 11
27.1666
 21
26.7528
  0
LINE
  8
0
 10
27.1666
 20
26.7528
 11
27.0484
 21
26.8405
  0
LINE
  8
0
 10
27.0484
 20
26.8405
 11
26.9393
 21
26.9393
  0
LINE
  8
0
 10
26.9393
 20
26.9393
 11
26.8405
 21
27.0484
  0
LINE
  8
0
 10
26.8405
 20
27.0484
 11
26.7528
 21
27.1666
  0
LINE
  8
0
 10
26.7528
 20
27.1666
 11
26.6771
 21
27.2929
  0
LINE
  8
0
 10
26.6771
 20
27.2929
 11
26.6142
 21
27.426
  0
LINE
  8
0
 10
26.6142
 20
27.426
 11
26.5646
 21
27.5646
  0
LINE
  8
0
 10
26.5646
 20
27.5646
 11
26.5288
 21
27.7074
  0
LINE
  8
0
 10
26.5288
 20
27.7074
 11
26.5072
 21
27.853
  0
LINE
  8
0
 10
26.5072
 20
27.853
 11
26.5
 21
28
  0
LINE
  8
0
 10
26.5
 20
28
 11
26.5072
 21
28.147
  0
LINE
  8
0
 10
26.5072
 20
28.147
 11
26.5288
 21
28.2926
  0
LINE
  8
0
 10
26.5288
 20
28.2926
 11
26.5646
 21
28.4354
  0
LINE
  8
0
 10
26.5646
 20
28.4354
 11
26.6142
 21
28.574
  0
LINE
  8
0
 10
26.6142
 20
28.574
 11
26.6771
 21
28.7071
  0
LINE
  8
0
 10
26.6771
 20
28.7071
 11
26.7528
 21
28.8333
  0
LINE
  8
0
 10
26.7528
 20
28.8333
 11
26.8405
 21
28.9516
  0
LINE
  8
0
 10
26.8405
 20
28.9516
 11
26.9393
 21
29.0607
  0
LINE
  8
0
 10
26.9393
 20
29.0607
 11
27.0484
 21
29.1595
  0
LINE
  8
0
 10
27.0484
 20
29.1595
 11
27.1666
 21
29.2472
  0
LINE
  8
0
 10
27.1666
 20
29.2472
 11
27.2929
 21
29.3229
  0
LINE
  8
0
 10
27.2929
 20
29.3229
 11
27.426
 21
29.3858
  0
LINE
  8
0
 10
27.426
 20
29.3858
 11
27.5646
 21
29.4354
  0
LINE
  8
0
 10
27.5646
 20
29.4354
 11
27.7074
 21
29.4712
  0
LINE
  8
0
 10
27.7074
 20
29.4712
 11
27.853
 21
29.4928
  0
LINE
  8
0
 10
27.853
 20
29.4928
 11
28
 21
29.5
  0
LINE
  8
0
 10
28
 20
29.5
 11
28.147
 21
29.4928
  0
LINE
  8
0
 10
28.147
 20
29.4928
 11
28.2926
 21
29.4712
  0
LINE
  8
0
 10
28.2926
 20
29.4712
 11
28.4354
 21
29.4354
  0
LINE
  8
0
 10
28.4354
 20
29.4354
 11
28.574
 21
29.3858
  0
LINE
  8
0
 10
28.574
 20
29.3858
 11
28.7071
 21
29.3229
  0
LINE
  8
0
 10
28.7071
 20
29.3229
 11
28.8333
 21
29.2472
  0
LINE
  8
0
 10
28.8333
 20
29.2472
 11
28.9516
 21
29.1595
  0
LINE
  8
0
 10
28.9516
 20
29.1595
 11
29.0607
 21
29.0607
  0
LINE
  8
0
 10
29.0607
 20
29.0607
 11
29.1595
 21
28.9516
  0
LINE
  8
0
 10
29.1595
 20
28.9516
 11
29.2472
 21
28.8333
  0
LINE
  8
0
 10
29.2472
 20
28.8333
 11
29.3229
 21
28.7071
  0
LINE
  8
0
 10
29.3229
 20
28.7071
 11
29.3858
 21
28.574
  0
LINE
  8
0
 10
29.3858
 20
28.574
 11
29.4354
 21
28.4354
  0
LINE
  8
0
 10
29.4354
 20
28.4354
 11
29.4712
 21
28.2926
  0
LINE
  8
0
 10
29.4712
 20
28.2926
 11
29.4928
 21
28.147
  0
LINE
  8
0
 10
29.4928
 20
28.147
 11
29.5
 21
28
  0
LINE
  8
0
 10
29.5
 20
28
 11
29.4928
 21
27.853
  0
LINE
  8
0
 10
29.4928
 20
27.853
 11
29.4712
 21
27.7074
  0
LINE
  8
0
 10
29.4712
 20
27.7074
 11
29.4354
 21
27.5646
  0
LINE
  8
0
 10
29.4354
 20
27.5646
 11
29.3858
 21
27.426
  0
LINE
  8
0
 10
29.3858
 20
27.426
 11
29.3229
 21
27.2929
  0
LINE
  8
0
 10
29.3229
 20
27.2929
 11
29.2472
 21
27.1666
  0
LINE
  8
0
 10
29.2472
 20
27.1666
 11
29.1595
 21
27.0484
  0
LINE
  8
0
 10
29.1595
 20
27.0484
 11
29.0607
 21
26.9393
  0
LINE
  8
0
 10
29.0607
 20
26.9393
 11
28.9516
 21
26.8405
  0
LINE
  8
0
 10
28.9516
 20
26.8405
 11
28.8333
 21
26.7528
  0
LINE
  8
0
 10
28.8333
 20
26.7528
 11
28.7071
 21
26.6771
  0
LINE
  8
0
 10
28.7071
 20
26.6771
 11
28.574
 21
26.6142
  0
LINE
  8
0
 10
28.574
 20
26.6142
 11
28.4354
 21
26.5646
  0
LINE
  8
0
 10
28.4354
 20
26.5646
 11
28.2926
 21
26.5288
  0
LINE
  8
0
 10
28.2926
 20
26.5288
 11
28.147
 21
26.5072
  0
LINE
  8
0
 10
28.147
 20
26.5072
 11
28
 21
26.5
  0
LINE
  8
0
 10
28
 20
26.5
 11
27.853
 21
26.5072
  0
LINE
  8
0
 10
-42.147
 20
18.5072
 11
-42.2926
 21
18.5288
  0
LINE
  8
0
 10
-42.2926
 20
18.5288
 11
-42.4354
 21
18.5646
  0
LINE
  8
0
 10
-42.4354
 20
18.5646
 11
-42.574
 21
18.6142
  0
LINE
  8
0
 10
-42.574
 20
18.6142
 11
-42.7071
 21
18.6771
  0
LINE
  8
0
 10
-42.7071
 20
18.6771
 11
-42.8333
 21
18.7528
  0
LINE
  8
0
 10
-42.8333
 20
18.7528
 11
-42.9516
 21
18.8405
  0
LINE
  8
0
 10
-42.9516
 20
18.8405
 11
-43.0607
 21
18.9393
  0
LINE
  8
0
 10
-43.0607
 20
18.9393
 11
-43.1595
 21
19.0484
  0
LINE
  8
0
 10
-43.1595
 20
19.0484
 11
-43.2472
 21
19.1666
  0
LINE
  8
0
 10
-43.2472
 20
19.1666
 11
-43.3229
 21
19.2929
  0
LINE
  8
0
 10
-43.3229
 20
19.2929
 11
-43.3858
 21
19.426
  0
LINE
  8
0
 10
-43.3858
 20
19.426
 11
-43.4354
 21
19.5646
  0
LINE
  8
0
 10
-43.4354
 20
19.5646
 11
-43.4712
 21
19.7074
  0
LINE
  8
0
 10
-43.4712
 20
19.7074
 11
-43.4928
 21
19.853
  0
LINE
  8
0
 10
-43.4928
 20
19.853
 11
-43.5
 21
20
  0
LINE
  8
0
 10
-43.5
 20
20
 11
-43.4928
 21
20.147
  0
LINE
  8
0
 10
-43.4928
 20
20.147
 11
-43.4712
 21
20.2926
  0
LINE
  8
0
 10
-43.4712
 20
20.2926
 11
-43.4354
 21
20.4354
  0
LINE
  8
0
 10
-43.4354
 20
20.4354
 11
-43.3858
 21
20.574
  0
LINE
  8
0
 10
-43.3858
 20
20.574
 11
-43.3229
 21
20.7071
  0
LINE
  8
0
 10
-43.3229
 20
20.7071
 11
-43.2472
 21
20.8333
  0
LINE
  8
0
 10
-43.2472
 20
20.8333
 11
-43.1595
 21
20.9516
  0
LINE
  8
0
 10
-43.1595
 20
20.9516
 11
-43.0607
 21
21.0607
  0
LINE
  8
0
 10
-43.0607
 20
21.0607
 11
-42.9516
 21
21.1595
  0
LINE
  8
0
 10
-42.9516
 20
21.1595
 11
-42.8333
 21
21.2472
  0
LINE
  8
0
 10
-42.8333
 20
21.2472
 11
-42.7071
 21
21.3229
  0
LINE
  8
0
 10
-42.7071
 20
21.3229
 11
-42.574
 21
21.3858
  0
LINE
  8
0
 10
-42.574
 20
21.3858
 11
-42.4354
 21
21.4354
  0
LINE
  8
0
 10
-42.4354
 20
21.4354
 11
-42.2926
 21
21.4712
  0
LINE
  8
0
 10
-42.2926
 20
21.4712
 11
-42.147
 21
21.4928
  0
LINE
  8
0
 10
-42.147
 20
21.4928
 11
-42
 21
21.5
  0
LINE
  8
0
 10
-42
 20
21.5
 11
-41.853
 21
21.4928
  0
LINE
  8
0
 10
-41.853
 20
21.4928
 11
-41.7074
 21
21.4712
  0
LINE
  8
0
 10
-41.7074
 20
21.4712
 11
-41.5646
 21
21.4354
  0
LINE
  8
0
 10
-41.5646
 20
21.4354
 11
-41.426
 21
21.3858
  0
LINE
  8
0
 10
-41.426
 20
21.3858
 11
-41.2929
 21
21.3229
  0
LINE
  8
0
 10
-41.2929
 20
21.3229
 11
-41.1666
 21
21.2472
  0
LINE
  8
0
 10
-41.1666
 20
21.2472
 11
-41.0484
 21
21.1595
  0
LINE
  8
0
 10
-41.0484
 20
21.1595
 11
-40.9393
 21
21.0607
  0
LINE
  8
0
 10
-40.9393
 20
21.0607
 11
-40.8405
 21
20.9516
  0
LINE
  8
0
 10
-40.8405
 20
20.9516
 11
-40.7528
 21
20.8333
  0
LINE
  8
0
 10
-40.7528
 20
20.8333
 11
-40.6771
 21
20.7071
  0
LINE
  8
0
 10
-40.6771
 20
20.7071
 11
-40.6142
 21
20.574
  0
LINE
  8
0
 10
-40.6142
 20
20.574
 11
-40.5646
 21
20.4354
  0
LINE
  8
0
 10
-40.5646
 20
20.4354
 11
-40.5288
 21
20.2926
  0
LINE
  8
0
 10
-40.5288
 20
20.2926
 11
-40.5072
 21
20.147
  0
LINE
  8
0
 10
-40.5072
 20
20.147
 11
-40.5
 21
20
  0
LINE
  8
0
 10
-40.5
 20
20
 11
-40.5072
 21
19.853
  0
LINE
  8
0
 10
-40.5072
 20
19.853
 11
-40.5288
 21
19.7074
  0
LINE
  8
0
 10
-40.5288
 20
19.7074
 11
-40.5646
 21
19.5646
  0
LINE
  8
0
 10
-40.5646
 20
19.5646
 11
-40.6142
 21
19.426
  0
LINE
  8
0
 10
-40.6142
 20
19.426
 11
-40.6771
 21
19.2929
  0
LINE
  8
0
 10
-40.6771
 20
19.2929
 11
-40.7528
 21
19.1666
  0
LINE
  8
0
 10
-40.7528
 20
19.1666
 11
-40.8405
 21
19.0484
  0
LINE
  8
0
 10
-40.8405
 20
19.0484
 11
-40.9393
 21
18.9393
  0
LINE
  8
0
 10
-40.9393
 20
18.9393
 11
-41.0484
 21
18.8405
  0
LINE
  8
0
 10
-41.0484
 20
18.8405
 11
-41.1666
 21
18.7528
  0
LINE
  8
0
 10
-41.1666
 20
18.7528
 11
-41.2929
 21
18.6771
  0
LINE
  8
0
 10
-41.2929
 20
18.6771
 11
-41.426
 21
18.6142
  0
LINE
  8
0
 10
-41.426
 20
18.6142
 11
-41.5646
 21
18.5646
  0
LINE
  8
0
 10
-41.5646
 20
18.5646
 11
-41.7074
 21
18.5288
  0
LINE
  8
0
 10
-41.7074
 20
18.5288
 11
-41.853
 21
18.5072
  0
LINE
  8
0
 10
-41.853
 20
18.5072
 11
-42
 21
18.5
  0
LINE
  8
0
 10
-42
 20
18.5
 11
-42.147
 21
18.5072
  0
LINE
  8
0
 10
-42.147
 20
-21.4928
 11
-42.2926
 21
-21.4712
  0
LINE
  8
0
 10
-42.2926
 20
-21.4712
 11
-42.4354
 21
-21.4354
  0
LINE
  8
0
 10
-42.4354
 20
-21.4354
 11
-42.574
 21
-21.3858
  0
LINE
  8
0
 10
-42.574
 20
-21.3858
 11
-42.7071
 21
-21.3229
  0
LINE
  8
0
 10
-42.7071
 20
-21.3229
 11
-42.8333
 21
-21.2472
  0
LINE
  8
0
 10
-42.8333
 20
-21.2472
 11
-42.9516
 21
-21.1595
  0
LINE
  8
0
 10
-42.9516
 20
-21.1595
 11
-43.0607
 21
-21.0607
  0
LINE
  8
0
 10
-43.0607
 20
-21.0607
 11
-43.1595
 21
-20.9516
  0
LINE
  8
0
 10
-43.1595
 20
-20.9516
 11
-43.2472
 21
-20.8333
  0
LINE
  8
0
 10
-43.2472
 20
-20.8333
 11
-43.3229
 21
-20.7071
  0
LINE
  8
0
 10
-43.3229
 20
-20.7071
 11
-43.3858
 21
-20.574
  0
LINE
  8
0
 10
-43.3858
 20
-20.574
 11
-43.4354
 21
-20.4354
  0
LINE
  8
0
 10
-43.4354
 20
-20.4354
 11
-43.4712
 21
-20.2926
  0
LINE
  8
0
 10
-43.4712
 20
-20.2926
 11
-43.4928
 21
-20.147
  0
LINE
  8
0
 10
-43.4928
 20
-20.147
 11
-43.5
 21
-20
  0
LINE
  8
0
 10
-43.5
 20
-20
 11
-43.4928
 21
-19.853
  0
LINE
  8
0
 10
-43.4928
 20
-19.853
 11
-43.4712
 21
-19.7074
  0
LINE
  8
0
 10
-43.4712
 20
-19.7074
 11
-43.4354
 21
-19.5646
  0
LINE
  8
0
 10
-43.4354
 20
-19.5646
 11
-43.3858
 21
-19.426
  0
LINE
  8
0
 10
-43.3858
 20
-19.426
 11
-43.3229
 21
-19.2929
  0
LINE
  8
0
 10
-43.3229
 20
-19.2929
 11
-43.2472
 21
-19.1666
  0
LINE
  8
0
 10
-43.2472
 20
-19.1666
 11
-43.1595
 21
-19.0484
  0
LINE
  8
0
 10
-43.1595
 20
-19.0484
 11
-43.0607
 21
-18.9393
  0
LINE
  8
0
 10
-43.0607
 20
-18.9393
 11
-42.9516
 21
-18.8405
  0
LINE
  8
0
 10
-42.9516
 20
-18.8405
 11
-42.8333
 21
-18.7528
  0
LINE
  8
0
 10
-42.8333
 20
-18.7528
 11
-42.7071
 21
-18.6771
  0
LINE
  8
0
 10
-42.7071
 20
-18.6771
 11
-42.574
 21
-18.6142
  0
LINE
  8
0
 10
-42.574
 20
-18.6142
 11
-42.4354
 21
-18.5646
  0
LINE
  8
0
 10
-42.4354
 20
-18.5646
 11
-42.2926
 21
-18.5288
  0
LINE
  8
0
 10
-42.2926
 20
-18.5288
 11
-42.147
 21
-18.5072
  0
LINE
  8
0
 10
-42.147
 20
-18.5072
 11
-42
 21
-18.5
  0
LINE
  8
0
 10
-42
 20
-18.5
 11
-41.853
 21
-18.5072
  0
LINE
  8
0
 10
-41.853
 20
-18.5072
 11
-41.7074
 21
-18.5288
  0
LINE
  8
0
 10
-41.7074
 20
-18.5288
 11
-41.5646
 21
-18.5646
  0
LINE
  8
0
 10
-41.5646
 20
-18.5646
 11
-41.426
 21
-18.6142
  0
LINE
  8
0
 10
-41.426
 20
-18.6142
 11
-41.2929
 21
-18.6771
  0
LINE
  8
0
 10
-41.2929
 20
-18.6771
 11
-41.1666
 21
-18.7528
  0
LINE
  8
0
 10
-41.1666
 20
-18.7528
 11
-41.0484
 21
-18.8405
  0
LINE
  8
0
 10
-41.0484
 20
-18.8405
 11
-40.9393
 21
-18.9393
  0
LINE
  8
0
 10
-40.9393
 20
-18.9393
 11
-40.8405
 21
-19.0484
  0
LINE
  8
0
 10
-40.8405
 20
-19.0484
 11
-40.7528
 21
-19.1666
  0
LINE
  8
0
 10
-40.7528
 20
-19.1666
 11
-40.6771
 21
-19.2929
  0
LINE
  8
0
 10
-40.6771
 20
-19.2929
 11
-40.6142
 21
-19.426
  0
LINE
  8
0
 10
-40.6142
 20
-19.426
 11
-40.5646
 21
-19.5646
  0
LINE
  8
0
 10
-40.5646
 20
-19.5646
 11
-40.5288
 21
-19.7074
  0
LINE
  8
0
 10
-40.5288
 20
-19.7074
 11
-40.5072
 21
-19.853
  0
LINE
  8
0
 10
-40.5072
 20
-19.853
 11
-40.5
 21
-20
  0
LINE
  8
0
 10
-40.5
 20
-20
 11
-40.5072
 21
-20.147
  0
LINE
  8
0
 10
-40.5072
 20
-20.147
 11
-40.5288
 21
-20.2926
  0
LINE
  8
0
 10
-40.5288
 20
-20.2926
 11
-40.5646
 21
-20.4354
  0
LINE
  8
0
 10
-40.5646
 20
-20.4354
 11
-40.6142
 21
-20.574
  0
LINE
  8
0
 10
-40.6142
 20
-20.574
 11
-40.6771
 21
-20.7071
  0
LINE
  8
0
 10
-40.6771
 20
-20.7071
 11
-40.7528
 21
-20.8333
  0
LINE
  8
0
 10
-40.7528
 20
-20.8333
 11
-40.8405
 21
-20.9516
  0
LINE
  8
0
 10
-40.8405
 20
-20.9516
 11
-40.9393
 21
-21.0607
  0
LINE
  8
0
 10
-40.9393
 20
-21.0607
 11
-41.0484
 21
-21.1595
  0
LINE
  8
0
 10
-41.0484
 20
-21.1595
 11
-41.1666
 21
-21.2472
  0
LINE
  8
0
 10
-41.1666
 20
-21.2472
 11
-41.2929
 21
-21.3229
  0
LINE
  8
0
 10
-41.2929
 20
-21.3229
 11
-41.426
 21
-21.3858
  0
LINE
  8
0
 10
-41.426
 20
-21.3858
 11
-41.5646
 21
-21.4354
  0
LINE
  8
0
 10
-41.5646
 20
-21.4354
 11
-41.7074
 21
-21.4712
  0
LINE
  8
0
 10
-41.7074
 20
-21.4712
 11
-41.853
 21
-21.4928
  0
LINE
  8
0
 10
-41.853
 20
-21.4928
 11
-42
 21
-21.5
  0
LINE
  8
0
 10
-42
 20
-21.5
 11
-42.147
 21
-21.4928
  0
LINE
  8
0
 10
55.2585
 20
-27.9818
 11
55.1129
 21
-27.9602
  0
LINE
  8
0
 10
55.1129
 20
-27.9602
 11
54.9701
 21
-27.9244
  0
LINE
  8
0
 10
54.9701
 20
-27.9244
 11
54.8315
 21
-27.8748
  0
LINE
  8
0
 10
54.8315
 20
-27.8748
 11
54.6985
 21
-27.8119
  0
LINE
  8
0
 10
54.6985
 20
-27.8119
 11
54.5722
 21
-27.7362
  0
LINE
  8
0
 10
54.5722
 20
-27.7362
 11
54.454
 21
-27.6485
  0
LINE
  8
0
 10
54.454
 20
-27.6485
 11
54.3449
 21
-27.5497
  0
LINE
  8
0
 10
54.3449
 20
-27.5497
 11
54.246
 21
-27.4406
  0
LINE
  8
0
 10
54.246
 20
-27.4406
 11
54.1584
 21
-27.3224
  0
LINE
  8
0
 10
54.1584
 20
-27.3224
 11
54.0827
 21
-27.1961
  0
LINE
  8
0
 10
54.0827
 20
-27.1961
 11
54.0197
 21
-27.063
  0
LINE
  8
0
 10
54.0197
 20
-27.063
 11
53.9701
 21
-26.9244
  0
LINE
  8
0
 10
53.9701
 20
-26.9244
 11
53.9344
 21
-26.7816
  0
LINE
  8
0
 10
53.9344
 20
-26.7816
 11
53.9128
 21
-26.636
  0
LINE
  8
0
 10
53.9128
 20
-26.636
 11
53.9055
 21
-26.489
  0
LINE
  8
0
 10
53.9055
 20
-26.489
 11
53.9128
 21
-26.342
  0
LINE
  8
0
 10
53.9128
 20
-26.342
 11
53.9344
 21
-26.1964
  0
LINE
  8
0
 10
53.9344
 20
-26.1964
 11
53.9701
 21
-26.0536
  0
LINE
  8
0
 10
53.9701
 20
-26.0536
 11
54.0197
 21
-25.915
  0
LINE
  8
0
 10
54.0197
 20
-25.915
 11
54.0827
 21
-25.7819
  0
LINE
  8
0
 10
54.0827
 20
-25.7819
 11
54.1584
 21
-25.6557
  0
LINE
  8
0
 10
54.1584
 20
-25.6557
 11
54.246
 21
-25.5374
  0
LINE
  8
0
 10
54.246
 20
-25.5374
 11
54.3449
 21
-25.4283
  0
LINE
  8
0
 10
54.3449
 20
-25.4283
 11
54.454
 21
-25.3295
  0
LINE
  8
0
 10
54.454
 20
-25.3295
 11
54.5722
 21
-25.2418
  0
LINE
  8
0
 10
54.5722
 20
-25.2418
 11
54.6985
 21
-25.1661
  0
LINE
  8
0
 10
54.6985
 20
-25.1661
 11
54.8315
 21
-25.1032
  0
LINE
  8
0
 10
54.8315
 20
-25.1032
 11
54.9701
 21
-25.0536
  0
LINE
  8
0
 10
54.9701
 20
-25.0536
 11
55.1129
 21
-25.0178
  0
LINE
  8
0
 10
55.1129
 20
-25.0178
 11
55.2585
 21
-24.9962
  0
LINE
  8
0
 10
55.2585
 20
-24.9962
 11
55.4055
 21
-24.989
  0
LINE
  8
0
 10
55.4055
 20
-24.989
 11
55.5526
 21
-24.9962
  0
LINE
  8
0
 10
55.5526
 20
-24.9962
 11
55.6982
 21
-25.0178
  0
LINE
  8
0
 10
55.6982
 20
-25.0178
 11
55.841
 21
-25.0536
  0
LINE
  8
0
 10
55.841
 20
-25.0536
 11
55.9796
 21
-25.1032
  0
LINE
  8
0
 10
55.9796
 20
-25.1032
 11
56.1127
 21
-25.1661
  0
LINE
  8
0
 10
56.1127
 20
-25.1661
 11
56.2389
 21
-25.2418
  0
LINE
  8
0
 10
56.2389
 20
-25.2418
 11
56.3571
 21
-25.3295
  0
LINE
  8
0
 10
56.3571
 20
-25.3295
 11
56.4662
 21
-25.4283
  0
LINE
  8
0
 10
56.4662
 20
-25.4283
 11
56.5651
 21
-25.5374
  0
LINE
  8
0
 10
56.5651
 20
-25.5374
 11
56.6528
 21
-25.6557
  0
LINE
  8
0
 10
56.6528
 20
-25.6557
 11
56.7284
 21
-25.7819
  0
LINE
  8
0
 10
56.7284
 20
-25.7819
 11
56.7914
 21
-25.915
  0
LINE
  8
0
 10
56.7914
 20
-25.915
 11
56.841
 21
-26.0536
  0
LINE
  8
0
 10
56.841
 20
-26.0536
 11
56.8767
 21
-26.1964
  0
LINE
  8
0
 10
56.8767
 20
-26.1964
 11
56.8983
 21
-26.342
  0
LINE
  8
0
 10
56.8983
 20
-26.342
 11
56.9055
 21
-26.489
  0
LINE
  8
0
 10
56.9055
 20
-26.489
 11
56.8983
 21
-26.636
  0
LINE
  8
0
 10
56.8983
 20
-26.636
 11
56.8767
 21
-26.7816
  0
LINE
  8
0
 10
56.8767
 20
-26.7816
 11
56.841
 21
-26.9244
  0
LINE
  8
0
 10
56.841
 20
-26.9244
 11
56.7914
 21
-27.063
  0
LINE
  8
0
 10
56.7914
 20
-27.063
 11
56.7284
 21
-27.1961
  0
LINE
  8
0
 10
56.7284
 20
-27.1961
 11
56.6528
 21
-27.3224
  0
LINE
  8
0
 10
56.6528
 20
-27.3224
 11
56.5651
 21
-27.4406
  0
LINE
  8
0
 10
56.5651
 20
-27.4406
 11
56.4662
 21
-27.5497
  0
LINE
  8
0
 10
56.4662
 20
-27.5497
 11
56.3571
 21
-27.6485
  0
LINE
  8
0
 10
56.3571
 20
-27.6485
 11
56.2389
 21
-27.7362
  0
LINE
  8
0
 10
56.2389
 20
-27.7362
 11
56.1127
 21
-27.8119
  0
LINE
  8
0
 10
56.1127
 20
-27.8119
 11
55.9796
 21
-27.8748
  0
LINE
  8
0
 10
55.9796
 20
-27.8748
 11
55.841
 21
-27.9244
  0
LINE
  8
0
 10
55.841
 20
-27.9244
 11
55.6982
 21
-27.9602
  0
LINE
  8
0
 10
55.6982
 20
-27.9602
 11
55.5526
 21
-27.9818
  0
LINE
  8
0
 10
55.5526
 20
-27.9818
 11
55.4055
 21
-27.989
  0
LINE
  8
0
 10
55.4055
 20
-27.989
 11
55.2585
 21
-27.9818
  0
LINE
  8
0
 10
141.259
 20
-27.9818
 11
141.113
 21
-27.9602
  0
LINE
  8
0
 10
141.113
 20
-27.9602
 11
140.97
 21
-27.9244
  0
LINE
  8
0
 10
140.97
 20
-27.9244
 11
140.832
 21
-27.8748
  0
LINE
  8
0
 10
140.832
 20
-27.8748
 11
140.698
 21
-27.8119
  0
LINE
  8
0
 10
140.698
 20
-27.8119
 11
140.572
 21
-27.7362
  0
LINE
  8
0
 10
140.572
 20
-27.7362
 11
140.454
 21
-27.6485
  0
LINE
  8
0
 10
140.454
 20
-27.6485
 11
140.345
 21
-27.5497
  0
LINE
  8
0
 10
140.345
 20
-27.5497
 11
140.246
 21
-27.4406
  0
LINE
  8
0
 10
140.246
 20
-27.4406
 11
140.158
 21
-27.3224
  0
LINE
  8
0
 10
140.158
 20
-27.3224
 11
140.083
 21
-27.1961
  0
LINE
  8
0
 10
140.083
 20
-27.1961
 11
140.02
 21
-27.063
  0
LINE
  8
0
 10
140.02
 20
-27.063
 11
139.97
 21
-26.9244
  0
LINE
  8
0
 10
139.97
 20
-26.9244
 11
139.934
 21
-26.7816
  0
LINE
  8
0
 10
139.934
 20
-26.7816
 11
139.913
 21
-26.636
  0
LINE
  8
0
 10
139.913
 20
-26.636
 11
139.906
 21
-26.489
  0
LINE
  8
0
 10
139.906
 20
-26.489
 11
139.913
 21
-26.342
  0
LINE
  8
0
 10
139.913
 20
-26.342
 11
139.934
 21
-26.1964
  0
LINE
  8
0
 10
139.934
 20
-26.1964
 11
139.97
 21
-26.0536
  0
LINE
  8
0
 10
139.97
 20
-26.0536
 11
140.02
 21
-25.915
  0
LINE
  8
0
 10
140.02
 20
-25.915
 11
140.083
 21
-25.7819
  0
LINE
  8
0
 10
140.083
 20
-25.7819
 11
140.158
 21
-25.6557
  0
LINE
  8
0
 10
140.158
 20
-25.6557
 11
140.246
 21
-25.5374
  0
LINE
  8
0
 10
140.246
 20
-25.5374
 11
140.345
 21
-25.4283
  0
LINE
  8
0
 10
140.345
 20
-25.4283
 11
140.454
 21
-25.3295
  0
LINE
  8
0
 10
140.454
 20
-25.3295
 11
140.572
 21
-25.2418
  0
LINE
  8
0
 10
140.572
 20
-25.2418
 11
140.698
 21
-25.1661
  0
LINE
  8
0
 10
140.698
 20
-25.1661
 11
140.832
 21
-25.1032
  0
LINE
  8
0
 10
140.832
 20
-25.1032
 11
140.97
 21
-25.0536
  0
LINE
  8
0
 10
140.97
 20
-25.0536
 11
141.113
 21
-25.0178
  0
LINE
  8
0
 10
141.113
 20
-25.0178
 11
141.259
 21
-24.9962
  0
LINE
  8
0
 10
141.259
 20
-24.9962
 11
141.406
 21
-24.989
  0
LINE
  8
0
 10
141.406
 20
-24.989
 11
141.553
 21
-24.9962
  0
LINE
  8
0
 10
141.553
 20
-24.9962
 11
141.698
 21
-25.0178
  0
LINE
  8
0
 10
141.698
 20
-25.0178
 11
141.841
 21
-25.0536
  0
LINE
  8
0
 10
141.841
 20
-25.0536
 11
141.98
 21
-25.1032
  0
LINE
  8
0
 10
141.98
 20
-25.1032
 11
142.113
 21
-25.1661
  0
LINE
  8
0
 10
142.113
 20
-25.1661
 11
142.239
 21
-25.2418
  0
LINE
  8
0
 10
142.239
 20
-25.2418
 11
142.357
 21
-25.3295
  0
LINE
  8
0
 10
142.357
 20
-25.3295
 11
142.466
 21
-25.4283
  0
LINE
  8
0
 10
142.466
 20
-25.4283
 11
142.565
 21
-25.5374
  0
LINE
  8
0
 10
142.565
 20
-25.5374
 11
142.653
 21
-25.6557
  0
LINE
  8
0
 10
142.653
 20
-25.6557
 11
142.728
 21
-25.7819
  0
LINE
  8
0
 10
142.728
 20
-25.7819
 11
142.791
 21
-25.915
  0
LINE
  8
0
 10
142.791
 20
-25.915
 11
142.841
 21
-26.0536
  0
LINE
  8
0
 10
142.841
 20
-26.0536
 11
142.877
 21
-26.1964
  0
LINE
  8
0
 10
142.877
 20
-26.1964
 11
142.898
 21
-26.342
  0
LINE
  8
0
 10
142.898
 20
-26.342
 11
142.906
 21
-26.489
  0
LINE
  8
0
 10
142.906
 20
-26.489
 11
142.898
 21
-26.636
  0
LINE
  8
0
 10
142.898
 20
-26.636
 11
142.877
 21
-26.7816
  0
LINE
  8
0
 10
142.877
 20
-26.7816
 11
142.841
 21
-26.9244
  0
LINE
  8
0
 10
142.841
 20
-26.9244
 11
142.791
 21
-27.063
  0
LINE
  8
0
 10
142.791
 20
-27.063
 11
142.728
 21
-27.1961
  0
LINE
  8
0
 10
142.728
 20
-27.1961
 11
142.653
 21
-27.3224
  0
LINE
  8
0
 10
142.653
 20
-27.3224
 11
142.565
 21
-27.4406
  0
LINE
  8
0
 10
142.565
 20
-27.4406
 11
142.466
 21
-27.5497
  0
LINE
  8
0
 10
142.466
 20
-27.5497
 11
142.357
 21
-27.6485
  0
LINE
  8
0
 10
142.357
 20
-27.6485
 11
142.239
 21
-27.7362
  0
LINE
  8
0
 10
142.239
 20
-27.7362
 11
142.113
 21
-27.8119
  0
LINE
  8
0
 10
142.113
 20
-27.8119
 11
141.98
 21
-27.8748
  0
LINE
  8
0
 10
141.98
 20
-27.8748
 11
141.841
 21
-27.9244
  0
LINE
  8
0
 10
141.841
 20
-27.9244
 11
141.698
 21
-27.9602
  0
LINE
  8
0
 10
141.698
 20
-27.9602
 11
141.553
 21
-27.9818
  0
LINE
  8
0
 10
141.553
 20
-27.9818
 11
141.406
 21
-27.989
  0
LINE
  8
0
 10
141.406
 20
-27.989
 11
141.259
 21
-27.9818
  0
LINE
  8
0
 10
27.853
 20
-29.4928
 11
27.7074
 21
-29.4712
  0
LINE
  8
0
 10
27.7074
 20
-29.4712
 11
27.5646
 21
-29.4354
  0
LINE
  8
0
 10
27.5646
 20
-29.4354
 11
27.426
 21
-29.3858
  0
LINE
  8
0
 10
27.426
 20
-29.3858
 11
27.2929
 21
-29.3229
  0
LINE
  8
0
 10
27.2929
 20
-29.3229
 11
27.1666
 21
-29.2472
  0
LINE
  8
0
 10
27.1666
 20
-29.2472
 11
27.0484
 21
-29.1595
  0
LINE
  8
0
 10
27.0484
 20
-29.1595
 11
26.9393
 21
-29.0607
  0
LINE
  8
0
 10
26.9393
 20
-29.0607
 11
26.8405
 21
-28.9516
  0
LINE
  8
0
 10
26.8405
 20
-28.9516
 11
26.7528
 21
-28.8333
  0
LINE
  8
0
 10
26.7528
 20
-28.8333
 11
26.6771
 21
-28.7071
  0
LINE
  8
0
 10
26.6771
 20
-28.7071
 11
26.6142
 21
-28.574
  0
LINE
  8
0
 10
26.6142
 20
-28.574
 11
26.5646
 21
-28.4354
  0
LINE
  8
0
 10
26.5646
 20
-28.4354
 11
26.5288
 21
-28.2926
  0
LINE
  8
0
 10
26.5288
 20
-28.2926
 11
26.5072
 21
-28.147
  0
LINE
  8
0
 10
26.5072
 20
-28.147
 11
26.5
 21
-28
  0
LINE
  8
0
 10
26.5
 20
-28
 11
26.5072
 21
-27.853
  0
LINE
  8
0
 10
26.5072
 20
-27.853
 11
26.5288
 21
-27.7074
  0
LINE
  8
0
 10
26.5288
 20
-27.7074
 11
26.5646
 21
-27.5646
  0
LINE
  8
0
 10
26.5646
 20
-27.5646
 11
26.6142
 21
-27.426
  0
LINE
  8
0
 10
26.6142
 20
-27.426
 11
26.6771
 21
-27.2929
  0
LINE
  8
0
 10
26.6771
 20
-27.2929
 11
26.7528
 21
-27.1666
  0
LINE
  8
0
 10
26.7528
 20
-27.1666
 11
26.8405
 21
-27.0484
  0
LINE
  8
0
 10
26.8405
 20
-27.0484
 11
26.9393
 21
-26.9393
  0
LINE
  8
0
 10
26.9393
 20
-26.9393
 11
27.0484
 21
-26.8405
  0
LINE
  8
0
 10
27.0484
 20
-26.8405
 11
27.1666
 21
-26.7528
  0
LINE
  8
0
 10
27.1666
 20
-26.7528
 11
27.2929
 21
-26.6771
  0
LINE
  8
0
 10
27.2929
 20
-26.6771
 11
27.426
 21
-26.6142
  0
LINE
  8
0
 10
27.426
 20
-26.6142
 11
27.5646
 21
-26.5646
  0
LINE
  8
0
 10
27.5646
 20
-26.5646
 11
27.7074
 21
-26.5288
  0
LINE
  8
0
 10
27.7074
 20
-26.5288
 11
27.853
 21
-26.5072
  0
LINE
  8
0
 10
27.853
 20
-26.5072
 11
28
 21
-26.5
  0
LINE
  8
0
 10
28
 20
-26.5
 11
28.147
 21
-26.5072
  0
LINE
  8
0
 10
28.147
 20
-26.5072
 11
28.2926
 21
-26.5288
  0
LINE
  8
0
 10
28.2926
 20
-26.5288
 11
28.4354
 21
-26.5646
  0
LINE
  8
0
 10
28.4354
 20
-26.5646
 11
28.574
 21
-26.6142
  0
LINE
  8
0
 10
28.574
 20
-26.6142
 11
28.7071
 21
-26.6771
  0
LINE
  8
0
 10
28.7071
 20
-26.6771
 11
28.8333
 21
-26.7528
  0
LINE
  8
0
 10
28.8333
 20
-26.7528
 11
28.9516
 21
-26.8405
  0
LINE
  8
0
 10
28.9516
 20
-26.8405
 11
29.0607
 21
-26.9393
  0
LINE
  8
0
 10
29.0607
 20
-26.9393
 11
29.1595
 21
-27.0484
  0
LINE
  8
0
 10
29.1595
 20
-27.0484
 11
29.2472
 21
-27.1666
  0
LINE
  8
0
 10
29.2472
 20
-27.1666
 11
29.3229
 21
-27.2929
  0
LINE
  8
0
 10
29.3229
 20
-27.2929
 11
29.3858
 21
-27.426
  0
LINE
  8
0
 10
29.3858
 20
-27.426
 11
29.4354
 21
-27.5646
  0
LINE
  8
0
 10
29.4354
 20
-27.5646
 11
29.4712
 21
-27.7074
  0
LINE
  8
0
 10
29.4712
 20
-27.7074
 11
29.4928
 21
-27.853
  0
LINE
  8
0
 10
29.4928
 20
-27.853
 11
29.5
 21
-28
  0
LINE
  8
0
 10
29.5
 20
-28
 11
29.4928
 21
-28.147
  0
LINE
  8
0
 10
29.4928
 20
-28.147
 11
29.4712
 21
-28.2926
  0
LINE
  8
0
 10
29.4712
 20
-28.2926
 11
29.4354
 21
-28.4354
  0
LINE
  8
0
 10
29.4354
 20
-28.4354
 11
29.3858
 21
-28.574
  0
LINE
  8
0
 10
29.3858
 20
-28.574
 11
29.3229
 21
-28.7071
  0
LINE
  8
0
 10
29.3229
 20
-28.7071
 11
29.2472
 21
-28.8333
  0
LINE
  8
0
 10
29.2472
 20
-28.8333
 11
29.1595
 21
-28.9516
  0
LINE
  8
0
 10
29.1595
 20
-28.9516
 11
29.0607
 21
-29.0607
  0
LINE
  8
0
 10
29.0607
 20
-29.0607
 11
28.9516
 21
-29.1595
  0
LINE
  8
0
 10
28.9516
 20
-29.1595
 11
28.8333
 21
-29.2472
  0
LINE
  8
0
 10
28.8333
 20
-29.2472
 11
28.7071
 21
-29.3229
  0
LINE
  8
0
 10
28.7071
 20
-29.3229
 11
28.574
 21
-29.3858
  0
LINE
  8
0
 10
28.574
 20
-29.3858
 11
28.4354
 21
-29.4354
  0
LINE
  8
0
 10
28.4354
 20
-29.4354
 11
28.2926
 21
-29.4712
  0
LINE
  8
0
 10
28.2926
 20
-29.4712
 11
28.147
 21
-29.4928
  0
LINE
  8
0
 10
28.147
 20
-29.4928
 11
28
 21
-29.5
  0
LINE
  8
0
 10
28
 20
-29.5
 11
27.853
 21
-29.4928
  0
LINE
  8
0
 10
-70.147
 20
-40.7428
 11
-70.2926
 21
-40.7212
  0
LINE
  8
0
 10
-70.2926
 20
-40.7212
 11
-70.4354
 21
-40.6854
  0
LINE
  8
0
 10
-70.4354
 20
-40.6854
 11
-70.574
 21
-40.6358
  0
LINE
  8
0
 10
-70.574
 20
-40.6358
 11
-70.7071
 21
-40.5729
  0
LINE
  8
0
 10
-70.7071
 20
-40.5729
 11
-70.8333
 21
-40.4972
  0
LINE
  8
0
 10
-70.8333
 20
-40.4972
 11
-70.9516
 21
-40.4095
  0
LINE
  8
0
 10
-70.9516
 20
-40.4095
 11
-71.0607
 21
-40.3107
  0
LINE
  8
0
 10
-71.0607
 20
-40.3107
 11
-71.1595
 21
-40.2016
  0
LINE
  8
0
 10
-71.1595
 20
-40.2016
 11
-71.2472
 21
-40.0833
  0
LINE
  8
0
 10
-71.2472
 20
-40.0833
 11
-71.3229
 21
-39.9571
  0
LINE
  8
0
 10
-71.3229
 20
-39.9571
 11
-71.3858
 21
-39.824
  0
LINE
  8
0
 10
-71.3858
 20
-39.824
 11
-71.4354
 21
-39.6854
  0
LINE
  8
0
 10
-71.4354
 20
-39.6854
 11
-71.4712
 21
-39.5426
  0
LINE
  8
0
 10
-71.4712
 20
-39.5426
 11
-71.4928
 21
-39.397
  0
LINE
  8
0
 10
-71.4928
 20
-39.397
 11
-71.5
 21
-39.25
  0
LINE
  8
0
 10
-71.5
 20
-39.25
 11
-71.4928
 21
-39.103
  0
LINE
  8
0
 10
-71.4928
 20
-39.103
 11
-71.4712
 21
-38.9574
  0
LINE
  8
0
 10
-71.4712
 20
-38.9574
 11
-71.4354
 21
-38.8146
  0
LINE
  8
0
 10
-71.4354
 20
-38.8146
 11
-71.3858
 21
-38.676
  0
LINE
  8
0
 10
-71.3858
 20
-38.676
 11
-71.3229
 21
-38.5429
  0
LINE
  8
0
 10
-71.3229
 20
-38.5429
 11
-71.2472
 21
-38.4166
  0
LINE
  8
0
 10
-71.2472
 20
-38.4166
 11
-71.1595
 21
-38.2984
  0
LINE
  8
0
 10
-71.1595
 20
-38.2984
 11
-71.0607
 21
-38.1893
  0
LINE
  8
0
 10
-71.0607
 20
-38.1893
 11
-70.9516
 21
-38.0905
  0
LINE
  8
0
 10
-70.9516
 20
-38.0905
 11
-70.8333
 21
-38.0028
  0
LINE
  8
0
 10
-70.8333
 20
-38.0028
 11
-70.7071
 21
-37.9271
  0
LINE
  8
0
 10
-70.7071
 20
-37.9271
 11
-70.574
 21
-37.8642
  0
LINE
  8
0
 10
-70.574
 20
-37.8642
 11
-70.4354
 21
-37.8146
  0
LINE
  8
0
 10
-70.4354
 20
-37.8146
 11
-70.2926
 21
-37.7788
  0
LINE
  8
0
 10
-70.2926
 20
-37.7788
 11
-70.147
 21
-37.7572
  0
LINE
  8
0
 10
-70.147
 20
-37.7572
 11
-70
 21
-37.75
  0
LINE
  8
0
 10
-70
 20
-37.75
 11
-69.853
 21
-37.7572
  0
LINE
  8
0
 10
-69.853
 20
-37.7572
 11
-69.7074
 21
-37.7788
  0
LINE
  8
0
 10
-69.7074
 20
-37.7788
 11
-69.5646
 21
-37.8146
  0
LINE
  8
0
 10
-69.5646
 20
-37.8146
 11
-69.426
 21
-37.8642
  0
LINE
  8
0
 10
-69.426
 20
-37.8642
 11
-69.2929
 21
-37.9271
  0
LINE
  8
0
 10
-69.2929
 20
-37.9271
 11
-69.1666
 21
-38.0028
  0
LINE
  8
0
 10
-69.1666
 20
-38.0028
 11
-69.0484
 21
-38.0905
  0
LINE
  8
0
 10
-69.0484
 20
-38.0905
 11
-68.9393
 21
-38.1893
  0
LINE
  8
0
 10
-68.9393
 20
-38.1893
 11
-68.8405
 21
-38.2984
  0
LINE
  8
0
 10
-68.8405
 20
-38.2984
 11
-68.7528
 21
-38.4166
  0
LINE
  8
0
 10
-68.7528
 20
-38.4166
 11
-68.6771
 21
-38.5429
  0
LINE
  8
0
 10
-68.6771
 20
-38.5429
 11
-68.6142
 21
-38.676
  0
LINE
  8
0
 10
-68.6142
 20
-38.676
 11
-68.5646
 21
-38.8146
  0
LINE
  8
0
 10
-68.5646
 20
-38.8146
 11
-68.5288
 21
-38.9574
  0
LINE
  8
0
 10
-68.5288
 20
-38.9574
 11
-68.5072
 21
-39.103
  0
LINE
  8
0
 10
-68.5072
 20
-39.103
 11
-68.5
 21
-39.25
  0
LINE
  8
0
 10
-68.5
 20
-39.25
 11
-68.5072
 21
-39.397
  0
LINE
  8
0
 10
-68.5072
 20
-39.397
 11
-68.5288
 21
-39.5426
  0
LINE
  8
0
 10
-68.5288
 20
-39.5426
 11
-68.5646
 21
-39.6854
  0
LINE
  8
0
 10
-68.5646
 20
-39.6854
 11
-68.6142
 21
-39.824
  0
LINE
  8
0
 10
-68.6142
 20
-39.824
 11
-68.6771
 21
-39.9571
  0
LINE
  8
0
 10
-68.6771
 20
-39.9571
 11
-68.7528
 21
-40.0833
  0
LINE
  8
0
 10
-68.7528
 20
-40.0833
 11
-68.8405
 21
-40.2016
  0
LINE
  8
0
 10
-68.8405
 20
-40.2016
 11
-68.9393
 21
-40.3107
  0
LINE
  8
0
 10
-68.9393
 20
-40.3107
 11
-69.0484
 21
-40.4095
  0
LINE
  8
0
 10
-69.0484
 20
-40.4095
 11
-69.1666
 21
-40.4972
  0
LINE
  8
0
 10
-69.1666
 20
-40.4972
 11
-69.2929
 21
-40.5729
  0
LINE
  8
0
 10
-69.2929
 20
-40.5729
 11
-69.426
 21
-40.6358
  0
LINE
  8
0
 10
-69.426
 20
-40.6358
 11
-69.5646
 21
-40.6854
  0
LINE
  8
0
 10
-69.5646
 20
-40.6854
 11
-69.7074
 21
-40.7212
  0
LINE
  8
0
 10
-69.7074
 20
-40.7212
 11
-69.853
 21
-40.7428
  0
LINE
  8
0
 10
-69.853
 20
-40.7428
 11
-70
 21
-40.75
  0
LINE
  8
0
 10
-70
 20
-40.75
 11
-70.147
 21
-40.7428
  0
LINE
  8
0
 10
-55.147
 20
-40.7428
 11
-55.2926
 21
-40.7212
  0
LINE
  8
0
 10
-55.2926
 20
-40.7212
 11
-55.4354
 21
-40.6854
  0
LINE
  8
0
 10
-55.4354
 20
-40.6854
 11
-55.574
 21
-40.6358
  0
LINE
  8
0
 10
-55.574
 20
-40.6358
 11
-55.7071
 21
-40.5729
  0
LINE
  8
0
 10
-55.7071
 20
-40.5729
 11
-55.8333
 21
-40.4972
  0
LINE
  8
0
 10
-55.8333
 20
-40.4972
 11
-55.9516
 21
-40.4095
  0
LINE
  8
0
 10
-55.9516
 20
-40.4095
 11
-56.0607
 21
-40.3107
  0
LINE
  8
0
 10
-56.0607
 20
-40.3107
 11
-56.1595
 21
-40.2016
  0
LINE
  8
0
 10
-56.1595
 20
-40.2016
 11
-56.2472
 21
-40.0833
  0
LINE
  8
0
 10
-56.2472
 20
-40.0833
 11
-56.3229
 21
-39.9571
  0
LINE
  8
0
 10
-56.3229
 20
-39.9571
 11
-56.3858
 21
-39.824
  0
LINE
  8
0
 10
-56.3858
 20
-39.824
 11
-56.4354
 21
-39.6854
  0
LINE
  8
0
 10
-56.4354
 20
-39.6854
 11
-56.4712
 21
-39.5426
  0
LINE
  8
0
 10
-56.4712
 20
-39.5426
 11
-56.4928
 21
-39.397
  0
LINE
  8
0
 10
-56.4928
 20
-39.397
 11
-56.5
 21
-39.25
  0
LINE
  8
0
 10
-56.5
 20
-39.25
 11
-56.4928
 21
-39.103
  0
LINE
  8
0
 10
-56.4928
 20
-39.103
 11
-56.4712
 21
-38.9574
  0
LINE
  8
0
 10
-56.4712
 20
-38.9574
 11
-56.4354
 21
-38.8146
  0
LINE
  8
0
 10
-56.4354
 20
-38.8146
 11
-56.3858
 21
-38.676
  0
LINE
  8
0
 10
-56.3858
 20
-38.676
 11
-56.3229
 21
-38.5429
  0
LINE
  8
0
 10
-56.3229
 20
-38.5429
 11
-56.2472
 21
-38.4166
  0
LINE
  8
0
 10
-56.2472
 20
-38.4166
 11
-56.1595
 21
-38.2984
  0
LINE
  8
0
 10
-56.1595
 20
-38.2984
 11
-56.0607
 21
-38.1893
  0
LINE
  8
0
 10
-56.0607
 20
-38.1893
 11
-55.9516
 21
-38.0905
  0
LINE
  8
0
 10
-55.9516
 20
-38.0905
 11
-55.8333
 21
-38.0028
  0
LINE
  8
0
 10
-55.8333
 20
-38.0028
 11
-55.7071
 21
-37.9271
  0
LINE
  8
0
 10
-55.7071
 20
-37.9271
 11
-55.574
 21
-37.8642
  0
LINE
  8
0
 10
-55.574
 20
-37.8642
 11
-55.4354
 21
-37.8146
  0
LINE
  8
0
 10
-55.4354
 20
-37.8146
 11
-55.2926
 21
-37.7788
  0
LINE
  8
0
 10
-55.2926
 20
-37.7788
 11
-55.147
 21
-37.7572
  0
LINE
  8
0
 10
-55.147
 20
-37.7572
 11
-55
 21
-37.75
  0
LINE
  8
0
 10
-55
 20
-37.75
 11
-54.853
 21
-37.7572
  0
LINE
  8
0
 10
-54.853
 20
-37.7572
 11
-54.7074
 21
-37.7788
  0
LINE
  8
0
 10
-54.7074
 20
-37.7788
 11
-54.5646
 21
-37.8146
  0
LINE
  8
0
 10
-54.5646
 20
-37.8146
 11
-54.426
 21
-37.8642
  0
LINE
  8
0
 10
-54.426
 20
-37.8642
 11
-54.2929
 21
-37.9271
  0
LINE
  8
0
 10
-54.2929
 20
-37.9271
 11
-54.1666
 21
-38.0028
  0
LINE
  8
0
 10
-54.1666
 20
-38.0028
 11
-54.0484
 21
-38.0905
  0
LINE
  8
0
 10
-54.0484
 20
-38.0905
 11
-53.9393
 21
-38.1893
  0
LINE
  8
0
 10
-53.9393
 20
-38.1893
 11
-53.8405
 21
-38.2984
  0
LINE
  8
0
 10
-53.8405
 20
-38.2984
 11
-53.7528
 21
-38.4166
  0
LINE
  8
0
 10
-53.7528
 20
-38.4166
 11
-53.6771
 21
-38.5429
  0
LINE
  8
0
 10
-53.6771
 20
-38.5429
 11
-53.6142
 21
-38.676
  0
LINE
  8
0
 10
-53.6142
 20
-38.676
 11
-53.5646
 21
-38.8146
  0
LINE
  8
0
 10
-53.5646
 20
-38.8146
 11
-53.5288
 21
-38.9574
  0
LINE
  8
0
 10
-53.5288
 20
-38.9574
 11
-53.5072
 21
-39.103
  0
LINE
  8
0
 10
-53.5072
 20
-39.103
 11
-53.5
 21
-39.25
  0
LINE
  8
0
 10
-53.5
 20
-39.25
 11
-53.5072
 21
-39.397
  0
LINE
  8
0
 10
-53.5072
 20
-39.397
 11
-53.5288
 21
-39.5426
  0
LINE
  8
0
 10
-53.5288
 20
-39.5426
 11
-53.5646
 21
-39.6854
  0
LINE
  8
0
 10
-53.5646
 20
-39.6854
 11
-53.6142
 21
-39.824
  0
LINE
  8
0
 10
-53.6142
 20
-39.824
 11
-53.6771
 21
-39.9571
  0
LINE
  8
0
 10
-53.6771
 20
-39.9571
 11
-53.7528
 21
-40.0833
  0
LINE
  8
0
 10
-53.7528
 20
-40.0833
 11
-53.8405
 21
-40.2016
  0
LINE
  8
0
 10
-53.8405
 20
-40.2016
 11
-53.9393
 21
-40.3107
  0
LINE
  8
0
 10
-53.9393
 20
-40.3107
 11
-54.0484
 21
-40.4095
  0
LINE
  8
0
 10
-54.0484
 20
-40.4095
 11
-54.1666
 21
-40.4972
  0
LINE
  8
0
 10
-54.1666
 20
-40.4972
 11
-54.2929
 21
-40.5729
  0
LINE
  8
0
 10
-54.2929
 20
-40.5729
 11
-54.426
 21
-40.6358
  0
LINE
  8
0
 10
-54.426
 20
-40.6358
 11
-54.5646
 21
-40.6854
  0
LINE
  8
0
 10
-54.5646
 20
-40.6854
 11
-54.7074
 21
-40.7212
  0
LINE
  8
0
 10
-54.7074
 20
-40.7212
 11
-54.853
 21
-40.7428
  0
LINE
  8
0
 10
-54.853
 20
-40.7428
 11
-55
 21
-40.75
  0
LINE
  8
0
 10
-55
 20
-40.75
 11
-55.147
 21
-40.7428
  0
LINE
  8
0
 10
112.379
 20
-40.7428
 11
112.233
 21
-40.7212
  0
LINE
  8
0
 10
112.233
 20
-40.7212
 11
112.09
 21
-40.6854
  0
LINE
  8
0
 10
112.09
 20
-40.6854
 11
111.952
 21
-40.6358
  0
LINE
  8
0
 10
111.952
 20
-40.6358
 11
111.818
 21
-40.5729
  0
LINE
  8
0
 10
111.818
 20
-40.5729
 11
111.692
 21
-40.4972
  0
LINE
  8
0
 10
111.692
 20
-40.4972
 11
111.574
 21
-40.4095
  0
LINE
  8
0
 10
111.574
 20
-40.4095
 11
111.465
 21
-40.3107
  0
LINE
  8
0
 10
111.465
 20
-40.3107
 11
111.366
 21
-40.2016
  0
LINE
  8
0
 10
111.366
 20
-40.2016
 11
111.278
 21
-40.0833
  0
LINE
  8
0
 10
111.278
 20
-40.0833
 11
111.203
 21
-39.9571
  0
LINE
  8
0
 10
111.203
 20
-39.9571
 11
111.14
 21
-39.824
  0
LINE
  8
0
 10
111.14
 20
-39.824
 11
111.09
 21
-39.6854
  0
LINE
  8
0
 10
111.09
 20
-39.6854
 11
111.054
 21
-39.5426
  0
LINE
  8
0
 10
111.054
 20
-39.5426
 11
111.033
 21
-39.397
  0
LINE
  8
0
 10
111.033
 20
-39.397
 11
111.026
 21
-39.25
  0
LINE
  8
0
 10
111.026
 20
-39.25
 11
111.033
 21
-39.103
  0
LINE
  8
0
 10
111.033
 20
-39.103
 11
111.054
 21
-38.9574
  0
LINE
  8
0
 10
111.054
 20
-38.9574
 11
111.09
 21
-38.8146
  0
LINE
  8
0
 10
111.09
 20
-38.8146
 11
111.14
 21
-38.676
  0
LINE
  8
0
 10
111.14
 20
-38.676
 11
111.203
 21
-38.5429
  0
LINE
  8
0
 10
111.203
 20
-38.5429
 11
111.278
 21
-38.4166
  0
LINE
  8
0
 10
111.278
 20
-38.4166
 11
111.366
 21
-38.2984
  0
LINE
  8
0
 10
111.366
 20
-38.2984
 11
111.465
 21
-38.1893
  0
LINE
  8
0
 10
111.465
 20
-38.1893
 11
111.574
 21
-38.0905
  0
LINE
  8
0
 10
111.574
 20
-38.0905
 11
111.692
 21
-38.0028
  0
LINE
  8
0
 10
111.692
 20
-38.0028
 11
111.818
 21
-37.9271
  0
LINE
  8
0
 10
111.818
 20
-37.9271
 11
111.952
 21
-37.8642
  0
LINE
  8
0
 10
111.952
 20
-37.8642
 11
112.09
 21
-37.8146
  0
LINE
  8
0
 10
112.09
 20
-37.8146
 11
112.233
 21
-37.7788
  0
LINE
  8
0
 10
112.233
 20
-37.7788
 11
112.379
 21
-37.7572
  0
LINE
  8
0
 10
112.379
 20
-37.7572
 11
112.526
 21
-37.75
  0
LINE
  8
0
 10
112.526
 20
-37.75
 11
112.673
 21
-37.7572
  0
LINE
  8
0
 10
112.673
 20
-37.7572
 11
112.818
 21
-37.7788
  0
LINE
  8
0
 10
112.818
 20
-37.7788
 11
112.961
 21
-37.8146
  0
LINE
  8
0
 10
112.961
 20
-37.8146
 11
113.1
 21
-37.8642
  0
LINE
  8
0
 10
113.1
 20
-37.8642
 11
113.233
 21
-37.9271
  0
LINE
  8
0
 10
113.233
 20
-37.9271
 11
113.359
 21
-38.0028
  0
LINE
  8
0
 10
113.359
 20
-38.0028
 11
113.477
 21
-38.0905
  0
LINE
  8
0
 10
113.477
 20
-38.0905
 11
113.586
 21
-38.1893
  0
LINE
  8
0
 10
113.586
 20
-38.1893
 11
113.685
 21
-38.2984
  0
LINE
  8
0
 10
113.685
 20
-38.2984
 11
113.773
 21
-38.4166
  0
LINE
  8
0
 10
113.773
 20
-38.4166
 11
113.848
 21
-38.5429
  0
LINE
  8
0
 10
113.848
 20
-38.5429
 11
113.911
 21
-38.676
  0
LINE
  8
0
 10
113.911
 20
-38.676
 11
113.961
 21
-38.8146
  0
LINE
  8
0
 10
113.961
 20
-38.8146
 11
113.997
 21
-38.9574
  0
LINE
  8
0
 10
113.997
 20
-38.9574
 11
114.018
 21
-39.103
  0
LINE
  8
0
 10
114.018
 20
-39.103
 11
114.026
 21
-39.25
  0
LINE
  8
0
 10
114.026
 20
-39.25
 11
114.018
 21
-39.397
  0
LINE
  8
0
 10
114.018
 20
-39.397
 11
113.997
 21
-39.5426
  0
LINE
  8
0
 10
113.997
 20
-39.5426
 11
113.961
 21
-39.6854
  0
LINE
  8
0
 10
113.961
 20
-39.6854
 11
113.911
 21
-39.824
  0
LINE
  8
0
 10
113.911
 20
-39.824
 11
113.848
 21
-39.9571
  0
LINE
  8
0
 10
113.848
 20
-39.9571
 11
113.773
 21
-40.0833
  0
LINE
  8
0
 10
113.773
 20
-40.0833
 11
113.685
 21
-40.2016
  0
LINE
  8
0
 10
113.685
 20
-40.2016
 11
113.586
 21
-40.3107
  0
LINE
  8
0
 10
113.586
 20
-40.3107
 11
113.477
 21
-40.4095
  0
LINE
  8
0
 10
113.477
 20
-40.4095
 11
113.359
 21
-40.4972
  0
LINE
  8
0
 10
113.359
 20
-40.4972
 11
113.233
 21
-40.5729
  0
LINE
  8
0
 10
113.233
 20
-40.5729
 11
113.1
 21
-40.6358
  0
LINE
  8
0
 10
113.1
 20
-40.6358
 11
112.961
 21
-40.6854
  0
LINE
  8
0
 10
112.961
 20
-40.6854
 11
112.818
 21
-40.7212
  0
LINE
  8
0
 10
112.818
 20
-40.7212
 11
112.673
 21
-40.7428
  0
LINE
  8
0
 10
112.673
 20
-40.7428
 11
112.526
 21
-40.75
  0
LINE
  8
0
 10
112.526
 20
-40.75
 11
112.379
 21
-40.7428
  0
LINE
  8
0
 10
141.539
 20
-40.7428
 11
141.393
 21
-40.7212
  0
LINE
  8
0
 10
141.393
 20
-40.7212
 11
141.25
 21
-40.6854
  0
LINE
  8
0
 10
141.25
 20
-40.6854
 11
141.112
 21
-40.6358
  0
LINE
  8
0
 10
141.112
 20
-40.6358
 11
140.978
 21
-40.5729
  0
LINE
  8
0
 10
140.978
 20
-40.5729
 11
140.852
 21
-40.4972
  0
LINE
  8
0
 10
140.852
 20
-40.4972
 11
140.734
 21
-40.4095
  0
LINE
  8
0
 10
140.734
 20
-40.4095
 11
140.625
 21
-40.3107
  0
LINE
  8
0
 10
140.625
 20
-40.3107
 11
140.526
 21
-40.2016
  0
LINE
  8
0
 10
140.526
 20
-40.2016
 11
140.438
 21
-40.0833
  0
LINE
  8
0
 10
140.438
 20
-40.0833
 11
140.363
 21
-39.9571
  0
LINE
  8
0
 10
140.363
 20
-39.9571
 11
140.3
 21
-39.824
  0
LINE
  8
0
 10
140.3
 20
-39.824
 11
140.25
 21
-39.6854
  0
LINE
  8
0
 10
140.25
 20
-39.6854
 11
140.214
 21
-39.5426
  0
LINE
  8
0
 10
140.214
 20
-39.5426
 11
140.193
 21
-39.397
  0
LINE
  8
0
 10
140.193
 20
-39.397
 11
140.186
 21
-39.25
  0
LINE
  8
0
 10
140.186
 20
-39.25
 11
140.193
 21
-39.103
  0
LINE
  8
0
 10
140.193
 20
-39.103
 11
140.214
 21
-38.9574
  0
LINE
  8
0
 10
140.214
 20
-38.9574
 11
140.25
 21
-38.8146
  0
LINE
  8
0
 10
140.25
 20
-38.8146
 11
140.3
 21
-38.676
  0
LINE
  8
0
 10
140.3
 20
-38.676
 11
140.363
 21
-38.5429
  0
LINE
  8
0
 10
140.363
 20
-38.5429
 11
140.438
 21
-38.4166
  0
LINE
  8
0
 10
140.438
 20
-38.4166
 11
140.526
 21
-38.2984
  0
LINE
  8
0
 10
140.526
 20
-38.2984
 11
140.625
 21
-38.1893
  0
LINE
  8
0
 10
140.625
 20
-38.1893
 11
140.734
 21
-38.0905
  0
LINE
  8
0
 10
140.734
 20
-38.0905
 11
140.852
 21
-38.0028
  0
LINE
  8
0
 10
140.852
 20
-38.0028
 11
140.978
 21
-37.9271
  0
LINE
  8
0
 10
140.978
 20
-37.9271
 11
141.112
 21
-37.8642
  0
LINE
  8
0
 10
141.112
 20
-37.8642
 11
141.25
 21
-37.8146
  0
LINE
  8
0
 10
141.25
 20
-37.8146
 11
141.393
 21
-37.7788
  0
LINE
  8
0
 10
141.393
 20
-37.7788
 11
141.539
 21
-37.7572
  0
LINE
  8
0
 10
141.539
 20
-37.7572
 11
141.686
 21
-37.75
  0
LINE
  8
0
 10
141.686
 20
-37.75
 11
141.833
 21
-37.7572
  0
LINE
  8
0
 10
141.833
 20
-37.7572
 11
141.978
 21
-37.7788
  0
LINE
  8
0
 10
141.978
 20
-37.7788
 11
142.121
 21
-37.8146
  0
LINE
  8
0
 10
142.121
 20
-37.8146
 11
142.26
 21
-37.8642
  0
LINE
  8
0
 10
142.26
 20
-37.8642
 11
142.393
 21
-37.9271
  0
LINE
  8
0
 10
142.393
 20
-37.9271
 11
142.519
 21
-38.0028
  0
LINE
  8
0
 10
142.519
 20
-38.0028
 11
142.637
 21
-38.0905
  0
LINE
  8
0
 10
142.637
 20
-38.0905
 11
142.746
 21
-38.1893
  0
LINE
  8
0
 10
142.746
 20
-38.1893
 11
142.845
 21
-38.2984
  0
LINE
  8
0
 10
142.845
 20
-38.2984
 11
142.933
 21
-38.4166
  0
LINE
  8
0
 10
142.933
 20
-38.4166
 11
143.008
 21
-38.5429
  0
LINE
  8
0
 10
143.008
 20
-38.5429
 11
143.071
 21
-38.676
  0
LINE
  8
0
 10
143.071
 20
-38.676
 11
143.121
 21
-38.8146
  0
LINE
  8
0
 10
143.121
 20
-38.8146
 11
143.157
 21
-38.9574
  0
LINE
  8
0
 10
143.157
 20
-38.9574
 11
143.178
 21
-39.103
  0
LINE
  8
0
 10
143.178
 20
-39.103
 11
143.186
 21
-39.25
  0
LINE
  8
0
 10
143.186
 20
-39.25
 11
143.178
 21
-39.397
  0
LINE
  8
0
 10
143.178
 20
-39.397
 11
143.157
 21
-39.5426
  0
LINE
  8
0
 10
143.157
 20
-39.5426
 11
143.121
 21
-39.6854
  0
LINE
  8
0
 10
143.121
 20
-39.6854
 11
143.071
 21
-39.824
  0
LINE
  8
0
 10
143.071
 20
-39.824
 11
143.008
 21
-39.9571
  0
LINE
  8
0
 10
143.008
 20
-39.9571
 11
142.933
 21
-40.0833
  0
LINE
  8
0
 10
142.933
 20
-40.0833
 11
142.845
 21
-40.2016
  0
LINE
  8
0
 10
142.845
 20
-40.2016
 11
142.746
 21
-40.3107
  0
LINE
  8
0
 10
142.746
 20
-40.3107
 11
142.637
 21
-40.4095
  0
LINE
  8
0
 10
142.637
 20
-40.4095
 11
142.519
 21
-40.4972
  0
LINE
  8
0
 10
142.519
 20
-40.4972
 11
142.393
 21
-40.5729
  0
LINE
  8
0
 10
142.393
 20
-40.5729
 11
142.26
 21
-40.6358
  0
LINE
  8
0
 10
142.26
 20
-40.6358
 11
142.121
 21
-40.6854
  0
LINE
  8
0
 10
142.121
 20
-40.6854
 11
141.978
 21
-40.7212
  0
LINE
  8
0
 10
141.978
 20
-40.7212
 11
141.833
 21
-40.7428
  0
LINE
  8
0
 10
141.833
 20
-40.7428
 11
141.686
 21
-40.75
  0
LINE
  8
0
 10
141.686
 20
-40.75
 11
141.539
 21
-40.7428
  0
LINE
  8
0
 10
62.6341
 20
-40.7428
 11
62.4885
 21
-40.7212
  0
LINE
  8
0
 10
62.4885
 20
-40.7212
 11
62.3457
 21
-40.6854
  0
LINE
  8
0
 10
62.3457
 20
-40.6854
 11
62.2071
 21
-40.6358
  0
LINE
  8
0
 10
62.2071
 20
-40.6358
 11
62.074
 21
-40.5729
  0
LINE
  8
0
 10
62.074
 20
-40.5729
 11
61.9478
 21
-40.4972
  0
LINE
  8
0
 10
61.9478
 20
-40.4972
 11
61.8295
 21
-40.4095
  0
LINE
  8
0
 10
61.8295
 20
-40.4095
 11
61.7205
 21
-40.3107
  0
LINE
  8
0
 10
61.7205
 20
-40.3107
 11
61.6216
 21
-40.2016
  0
LINE
  8
0
 10
61.6216
 20
-40.2016
 11
61.5339
 21
-40.0833
  0
LINE
  8
0
 10
61.5339
 20
-40.0833
 11
61.4582
 21
-39.9571
  0
LINE
  8
0
 10
61.4582
 20
-39.9571
 11
61.3953
 21
-39.824
  0
LINE
  8
0
 10
61.3953
 20
-39.824
 11
61.3457
 21
-39.6854
  0
LINE
  8
0
 10
61.3457
 20
-39.6854
 11
61.3099
 21
-39.5426
  0
LINE
  8
0
 10
61.3099
 20
-39.5426
 11
61.2883
 21
-39.397
  0
LINE
  8
0
 10
61.2883
 20
-39.397
 11
61.2811
 21
-39.25
  0
LINE
  8
0
 10
61.2811
 20
-39.25
 11
61.2883
 21
-39.103
  0
LINE
  8
0
 10
61.2883
 20
-39.103
 11
61.3099
 21
-38.9574
  0
LINE
  8
0
 10
61.3099
 20
-38.9574
 11
61.3457
 21
-38.8146
  0
LINE
  8
0
 10
61.3457
 20
-38.8146
 11
61.3953
 21
-38.676
  0
LINE
  8
0
 10
61.3953
 20
-38.676
 11
61.4582
 21
-38.5429
  0
LINE
  8
0
 10
61.4582
 20
-38.5429
 11
61.5339
 21
-38.4166
  0
LINE
  8
0
 10
61.5339
 20
-38.4166
 11
61.6216
 21
-38.2984
  0
LINE
  8
0
 10
61.6216
 20
-38.2984
 11
61.7205
 21
-38.1893
  0
LINE
  8
0
 10
61.7205
 20
-38.1893
 11
61.8295
 21
-38.0905
  0
LINE
  8
0
 10
61.8295
 20
-38.0905
 11
61.9478
 21
-38.0028
  0
LINE
  8
0
 10
61.9478
 20
-38.0028
 11
62.074
 21
-37.9271
  0
LINE
  8
0
 10
62.074
 20
-37.9271
 11
62.2071
 21
-37.8642
  0
LINE
  8
0
 10
62.2071
 20
-37.8642
 11
62.3457
 21
-37.8146
  0
LINE
  8
0
 10
62.3457
 20
-37.8146
 11
62.4885
 21
-37.7788
  0
LINE
  8
0
 10
62.4885
 20
-37.7788
 11
62.6341
 21
-37.7572
  0
LINE
  8
0
 10
62.6341
 20
-37.7572
 11
62.7811
 21
-37.75
  0
LINE
  8
0
 10
62.7811
 20
-37.75
 11
62.9281
 21
-37.7572
  0
LINE
  8
0
 10
62.9281
 20
-37.7572
 11
63.0737
 21
-37.7788
  0
LINE
  8
0
 10
63.0737
 20
-37.7788
 11
63.2165
 21
-37.8146
  0
LINE
  8
0
 10
63.2165
 20
-37.8146
 11
63.3551
 21
-37.8642
  0
LINE
  8
0
 10
63.3551
 20
-37.8642
 11
63.4882
 21
-37.9271
  0
LINE
  8
0
 10
63.4882
 20
-37.9271
 11
63.6145
 21
-38.0028
  0
LINE
  8
0
 10
63.6145
 20
-38.0028
 11
63.7327
 21
-38.0905
  0
LINE
  8
0
 10
63.7327
 20
-38.0905
 11
63.8418
 21
-38.1893
  0
LINE
  8
0
 10
63.8418
 20
-38.1893
 11
63.9406
 21
-38.2984
  0
LINE
  8
0
 10
63.9406
 20
-38.2984
 11
64.0283
 21
-38.4166
  0
LINE
  8
0
 10
64.0283
 20
-38.4166
 11
64.104
 21
-38.5429
  0
LINE
  8
0
 10
64.104
 20
-38.5429
 11
64.1669
 21
-38.676
  0
LINE
  8
0
 10
64.1669
 20
-38.676
 11
64.2165
 21
-38.8146
  0
LINE
  8
0
 10
64.2165
 20
-38.8146
 11
64.2523
 21
-38.9574
  0
LINE
  8
0
 10
64.2523
 20
-38.9574
 11
64.2739
 21
-39.103
  0
LINE
  8
0
 10
64.2739
 20
-39.103
 11
64.2811
 21
-39.25
  0
LINE
  8
0
 10
64.2811
 20
-39.25
 11
64.2739
 21
-39.397
  0
LINE
  8
0
 10
64.2739
 20
-39.397
 11
64.2523
 21
-39.5426
  0
LINE
  8
0
 10
64.2523
 20
-39.5426
 11
64.2165
 21
-39.6854
  0
LINE
  8
0
 10
64.2165
 20
-39.6854
 11
64.1669
 21
-39.824
  0
LINE
  8
0
 10
64.1669
 20
-39.824
 11
64.104
 21
-39.9571
  0
LINE
  8
0
 10
64.104
 20
-39.9571
 11
64.0283
 21
-40.0833
  0
LINE
  8
0
 10
64.0283
 20
-40.0833
 11
63.9406
 21
-40.2016
  0
LINE
  8
0
 10
63.9406
 20
-40.2016
 11
63.8418
 21
-40.3107
  0
LINE
  8
0
 10
63.8418
 20
-40.3107
 11
63.7327
 21
-40.4095
  0
LINE
  8
0
 10
63.7327
 20
-40.4095
 11
63.6145
 21
-40.4972
  0
LINE
  8
0
 10
63.6145
 20
-40.4972
 11
63.4882
 21
-40.5729
  0
LINE
  8
0
 10
63.4882
 20
-40.5729
 11
63.3551
 21
-40.6358
  0
LINE
  8
0
 10
63.3551
 20
-40.6358
 11
63.2165
 21
-40.6854
  0
LINE
  8
0
 10
63.2165
 20
-40.6854
 11
63.0737
 21
-40.7212
  0
LINE
  8
0
 10
63.0737
 20
-40.7212
 11
62.9281
 21
-40.7428
  0
LINE
  8
0
 10
62.9281
 20
-40.7428
 11
62.7811
 21
-40.75
  0
LINE
  8
0
 10
62.7811
 20
-40.75
 11
62.6341
 21
-40.7428
  0
LINE
  8
0
 10
33.4741
 20
-40.7428
 11
33.3285
 21
-40.7212
  0
LINE
  8
0
 10
33.3285
 20
-40.7212
 11
33.1857
 21
-40.6854
  0
LINE
  8
0
 10
33.1857
 20
-40.6854
 11
33.0471
 21
-40.6358
  0
LINE
  8
0
 10
33.0471
 20
-40.6358
 11
32.914
 21
-40.5729
  0
LINE
  8
0
 10
32.914
 20
-40.5729
 11
32.7878
 21
-40.4972
  0
LINE
  8
0
 10
32.7878
 20
-40.4972
 11
32.6695
 21
-40.4095
  0
LINE
  8
0
 10
32.6695
 20
-40.4095
 11
32.5605
 21
-40.3107
  0
LINE
  8
0
 10
32.5605
 20
-40.3107
 11
32.4616
 21
-40.2016
  0
LINE
  8
0
 10
32.4616
 20
-40.2016
 11
32.3739
 21
-40.0833
  0
LINE
  8
0
 10
32.3739
 20
-40.0833
 11
32.2982
 21
-39.9571
  0
LINE
  8
0
 10
32.2982
 20
-39.9571
 11
32.2353
 21
-39.824
  0
LINE
  8
0
 10
32.2353
 20
-39.824
 11
32.1857
 21
-39.6854
  0
LINE
  8
0
 10
32.1857
 20
-39.6854
 11
32.1499
 21
-39.5426
  0
LINE
  8
0
 10
32.1499
 20
-39.5426
 11
32.1283
 21
-39.397
  0
LINE
  8
0
 10
32.1283
 20
-39.397
 11
32.1211
 21
-39.25
  0
LINE
  8
0
 10
32.1211
 20
-39.25
 11
32.1283
 21
-39.103
  0
LINE
  8
0
 10
32.1283
 20
-39.103
 11
32.1499
 21
-38.9574
  0
LINE
  8
0
 10
32.1499
 20
-38.9574
 11
32.1857
 21
-38.8146
  0
LINE
  8
0
 10
32.1857
 20
-38.8146
 11
32.2353
 21
-38.676
  0
LINE
  8
0
 10
32.2353
 20
-38.676
 11
32.2982
 21
-38.5429
  0
LINE
  8
0
 10
32.2982
 20
-38.5429
 11
32.3739
 21
-38.4166
  0
LINE
  8
0
 10
32.3739
 20
-38.4166
 11
32.4616
 21
-38.2984
  0
LINE
  8
0
 10
32.4616
 20
-38.2984
 11
32.5605
 21
-38.1893
  0
LINE
  8
0
 10
32.5605
 20
-38.1893
 11
32.6695
 21
-38.0905
  0
LINE
  8
0
 10
32.6695
 20
-38.0905
 11
32.7878
 21
-38.0028
  0
LINE
  8
0
 10
32.7878
 20
-38.0028
 11
32.914
 21
-37.9271
  0
LINE
  8
0
 10
32.914
 20
-37.9271
 11
33.0471
 21
-37.8642
  0
LINE
  8
0
 10
33.0471
 20
-37.8642
 11
33.1857
 21
-37.8146
  0
LINE
  8
0
 10
33.1857
 20
-37.8146
 11
33.3285
 21
-37.7788
  0
LINE
  8
0
 10
33.3285
 20
-37.7788
 11
33.4741
 21
-37.7572
  0
LINE
  8
0
 10
33.4741
 20
-37.7572
 11
33.6211
 21
-37.75
  0
LINE
  8
0
 10
33.6211
 20
-37.75
 11
33.7681
 21
-37.7572
  0
LINE
  8
0
 10
33.7681
 20
-37.7572
 11
33.9138
 21
-37.7788
  0
LINE
  8
0
 10
33.9138
 20
-37.7788
 11
34.0565
 21
-37.8146
  0
LINE
  8
0
 10
34.0565
 20
-37.8146
 11
34.1951
 21
-37.8642
  0
LINE
  8
0
 10
34.1951
 20
-37.8642
 11
34.3282
 21
-37.9271
  0
LINE
  8
0
 10
34.3282
 20
-37.9271
 11
34.4545
 21
-38.0028
  0
LINE
  8
0
 10
34.4545
 20
-38.0028
 11
34.5727
 21
-38.0905
  0
LINE
  8
0
 10
34.5727
 20
-38.0905
 11
34.6818
 21
-38.1893
  0
LINE
  8
0
 10
34.6818
 20
-38.1893
 11
34.7806
 21
-38.2984
  0
LINE
  8
0
 10
34.7806
 20
-38.2984
 11
34.8683
 21
-38.4166
  0
LINE
  8
0
 10
34.8683
 20
-38.4166
 11
34.944
 21
-38.5429
  0
LINE
  8
0
 10
34.944
 20
-38.5429
 11
35.0069
 21
-38.676
  0
LINE
  8
0
 10
35.0069
 20
-38.676
 11
35.0565
 21
-38.8146
  0
LINE
  8
0
 10
35.0565
 20
-38.8146
 11
35.0923
 21
-38.9574
  0
LINE
  8
0
 10
35.0923
 20
-38.9574
 11
35.1139
 21
-39.103
  0
LINE
  8
0
 10
35.1139
 20
-39.103
 11
35.1211
 21
-39.25
  0
LINE
  8
0
 10
35.1211
 20
-39.25
 11
35.1139
 21
-39.397
  0
LINE
  8
0
 10
35.1139
 20
-39.397
 11
35.0923
 21
-39.5426
  0
LINE
  8
0
 10
35.0923
 20
-39.5426
 11
35.0565
 21
-39.6854
  0
LINE
  8
0
 10
35.0565
 20
-39.6854
 11
35.0069
 21
-39.824
  0
LINE
  8
0
 10
35.0069
 20
-39.824
 11
34.944
 21
-39.9571
  0
LINE
  8
0
 10
34.944
 20
-39.9571
 11
34.8683
 21
-40.0833
  0
LINE
  8
0
 10
34.8683
 20
-40.0833
 11
34.7806
 21
-40.2016
  0
LINE
  8
0
 10
34.7806
 20
-40.2016
 11
34.6818
 21
-40.3107
  0
LINE
  8
0
 10
34.6818
 20
-40.3107
 11
34.5727
 21
-40.4095
  0
LINE
  8
0
 10
34.5727
 20
-40.4095
 11
34.4545
 21
-40.4972
  0
LINE
  8
0
 10
34.4545
 20
-40.4972
 11
34.3282
 21
-40.5729
  0
LINE
  8
0
 10
34.3282
 20
-40.5729
 11
34.1951
 21
-40.6358
  0
LINE
  8
0
 10
34.1951
 20
-40.6358
 11
34.0565
 21
-40.6854
  0
LINE
  8
0
 10
34.0565
 20
-40.6854
 11
33.9138
 21
-40.7212
  0
LINE
  8
0
 10
33.9138
 20
-40.7212
 11
33.7681
 21
-40.7428
  0
LINE
  8
0
 10
33.7681
 20
-40.7428
 11
33.6211
 21
-40.75
  0
LINE
  8
0
 10
33.6211
 20
-40.75
 11
33.4741
 21
-40.7428
  0
LINE
  8
0
 10
9.85297
 20
-40.7428
 11
9.70735
 21
-40.7212
  0
LINE
  8
0
 10
9.70735
 20
-40.7212
 11
9.56456
 21
-40.6854
  0
LINE
  8
0
 10
9.56456
 20
-40.6854
 11
9.42596
 21
-40.6358
  0
LINE
  8
0
 10
9.42596
 20
-40.6358
 11
9.29289
 21
-40.5729
  0
LINE
  8
0
 10
9.29289
 20
-40.5729
 11
9.16664
 21
-40.4972
  0
LINE
  8
0
 10
9.16664
 20
-40.4972
 11
9.0484
 21
-40.4095
  0
LINE
  8
0
 10
9.0484
 20
-40.4095
 11
8.93933
 21
-40.3107
  0
LINE
  8
0
 10
8.93933
 20
-40.3107
 11
8.84047
 21
-40.2016
  0
LINE
  8
0
 10
8.84047
 20
-40.2016
 11
8.75279
 21
-40.0833
  0
LINE
  8
0
 10
8.75279
 20
-40.0833
 11
8.67711
 21
-39.9571
  0
LINE
  8
0
 10
8.67711
 20
-39.9571
 11
8.61417
 21
-39.824
  0
LINE
  8
0
 10
8.61417
 20
-39.824
 11
8.56458
 21
-39.6854
  0
LINE
  8
0
 10
8.56458
 20
-39.6854
 11
8.52881
 21
-39.5426
  0
LINE
  8
0
 10
8.52881
 20
-39.5426
 11
8.50722
 21
-39.397
  0
LINE
  8
0
 10
8.50722
 20
-39.397
 11
8.5
 21
-39.25
  0
LINE
  8
0
 10
8.5
 20
-39.25
 11
8.50722
 21
-39.103
  0
LINE
  8
0
 10
8.50722
 20
-39.103
 11
8.52881
 21
-38.9574
  0
LINE
  8
0
 10
8.52881
 20
-38.9574
 11
8.56458
 21
-38.8146
  0
LINE
  8
0
 10
8.56458
 20
-38.8146
 11
8.61417
 21
-38.676
  0
LINE
  8
0
 10
8.61417
 20
-38.676
 11
8.67711
 21
-38.5429
  0
LINE
  8
0
 10
8.67711
 20
-38.5429
 11
8.75279
 21
-38.4166
  0
LINE
  8
0
 10
8.75279
 20
-38.4166
 11
8.84047
 21
-38.2984
  0
LINE
  8
0
 10
8.84047
 20
-38.2984
 11
8.93933
 21
-38.1893
  0
LINE
  8
0
 10
8.93933
 20
-38.1893
 11
9.0484
 21
-38.0905
  0
LINE
  8
0
 10
9.0484
 20
-38.0905
 11
9.16664
 21
-38.0028
  0
LINE
  8
0
 10
9.16664
 20
-38.0028
 11
9.29289
 21
-37.9271
  0
LINE
  8
0
 10
9.29289
 20
-37.9271
 11
9.42596
 21
-37.8642
  0
LINE
  8
0
 10
9.42596
 20
-37.8642
 11
9.56456
 21
-37.8146
  0
LINE
  8
0
 10
9.56456
 20
-37.8146
 11
9.70735
 21
-37.7788
  0
LINE
  8
0
 10
9.70735
 20
-37.7788
 11
9.85297
 21
-37.7572
  0
LINE
  8
0
 10
9.85297
 20
-37.7572
 11
10
 21
-37.75
  0
LINE
  8
0
 10
10
 20
-37.75
 11
10.147
 21
-37.7572
  0
LINE
  8
0
 10
10.147
 20
-37.7572
 11
10.2926
 21
-37.7788
  0
LINE
  8
0
 10
10.2926
 20
-37.7788
 11
10.4354
 21
-37.8146
  0
LINE
  8
0
 10
10.4354
 20
-37.8146
 11
10.574
 21
-37.8642
  0
LINE
  8
0
 10
10.574
 20
-37.8642
 11
10.7071
 21
-37.9271
  0
LINE
  8
0
 10
10.7071
 20
-37.9271
 11
10.8333
 21
-38.0028
  0
LINE
  8
0
 10
10.8333
 20
-38.0028
 11
10.9516
 21
-38.0905
  0
LINE
  8
0
 10
10.9516
 20
-38.0905
 11
11.0607
 21
-38.1893
  0
LINE
  8
0
 10
11.0607
 20
-38.1893
 11
11.1595
 21
-38.2984
  0
LINE
  8
0
 10
11.1595
 20
-38.2984
 11
11.2472
 21
-38.4166
  0
LINE
  8
0
 10
11.2472
 20
-38.4166
 11
11.3229
 21
-38.5429
  0
LINE
  8
0
 10
11.3229
 20
-38.5429
 11
11.3858
 21
-38.676
  0
LINE
  8
0
 10
11.3858
 20
-38.676
 11
11.4354
 21
-38.8146
  0
LINE
  8
0
 10
11.4354
 20
-38.8146
 11
11.4712
 21
-38.9574
  0
LINE
  8
0
 10
11.4712
 20
-38.9574
 11
11.4928
 21
-39.103
  0
LINE
  8
0
 10
11.4928
 20
-39.103
 11
11.5
 21
-39.25
  0
LINE
  8
0
 10
11.5
 20
-39.25
 11
11.4928
 21
-39.397
  0
LINE
  8
0
 10
11.4928
 20
-39.397
 11
11.4712
 21
-39.5426
  0
LINE
  8
0
 10
11.4712
 20
-39.5426
 11
11.4354
 21
-39.6854
  0
LINE
  8
0
 10
11.4354
 20
-39.6854
 11
11.3858
 21
-39.824
  0
LINE
  8
0
 10
11.3858
 20
-39.824
 11
11.3229
 21
-39.9571
  0
LINE
  8
0
 10
11.3229
 20
-39.9571
 11
11.2472
 21
-40.0833
  0
LINE
  8
0
 10
11.2472
 20
-40.0833
 11
11.1595
 21
-40.2016
  0
LINE
  8
0
 10
11.1595
 20
-40.2016
 11
11.0607
 21
-40.3107
  0
LINE
  8
0
 10
11.0607
 20
-40.3107
 11
10.9516
 21
-40.4095
  0
LINE
  8
0
 10
10.9516
 20
-40.4095
 11
10.8333
 21
-40.4972
  0
LINE
  8
0
 10
10.8333
 20
-40.4972
 11
10.7071
 21
-40.5729
  0
LINE
  8
0
 10
10.7071
 20
-40.5729
 11
10.574
 21
-40.6358
  0
LINE
  8
0
 10
10.574
 20
-40.6358
 11
10.4354
 21
-40.6854
  0
LINE
  8
0
 10
10.4354
 20
-40.6854
 11
10.2926
 21
-40.7212
  0
LINE
  8
0
 10
10.2926
 20
-40.7212
 11
10.147
 21
-40.7428
  0
LINE
  8
0
 10
10.147
 20
-40.7428
 11
10
 21
-40.75
  0
LINE
  8
0
 10
10
 20
-40.75
 11
9.85297
 21
-40.7428
  0
ENDSEC
  0
SECTION
  2
OBJECTS
  0
DICTIONARY
  0
ENDSEC
  0
EOF
