  0
SECTION
  2
BLOCKS
  0
ENDSEC
  0
SECTION
  2
ENTITIES
  0
LINE
  8
0
 10
19.6034
 20
-199.037
 11
39.0181
 21
-196.157
  0
LINE
  8
0
 10
39.0181
 20
-196.157
 11
58.0569
 21
-191.388
  0
LINE
  8
0
 10
58.0569
 20
-191.388
 11
76.5367
 21
-184.776
  0
LINE
  8
0
 10
76.5367
 20
-184.776
 11
94.2793
 21
-176.384
  0
LINE
  8
0
 10
94.2793
 20
-176.384
 11
111.114
 21
-166.294
  0
LINE
  8
0
 10
111.114
 20
-166.294
 11
126.879
 21
-154.602
  0
LINE
  8
0
 10
126.879
 20
-154.602
 11
141.421
 21
-141.421
  0
LINE
  8
0
 10
141.421
 20
-141.421
 11
154.602
 21
-126.879
  0
LINE
  8
0
 10
154.602
 20
-126.879
 11
166.294
 21
-111.114
  0
LINE
  8
0
 10
166.294
 20
-111.114
 11
176.384
 21
-94.2793
  0
LINE
  8
0
 10
176.384
 20
-94.2793
 11
184.776
 21
-76.5367
  0
LINE
  8
0
 10
184.776
 20
-76.5367
 11
191.388
 21
-58.0569
  0
LINE
  8
0
 10
191.388
 20
-58.0569
 11
196.157
 21
-39.0181
  0
LINE
  8
0
 10
196.157
 20
-39.0181
 11
199.037
 21
-19.6034
  0
LINE
  8
0
 10
199.037
 20
-19.6034
 11
200
 21
0
  0
LINE
  8
0
 10
200
 20
0
 11
199.037
 21
19.6034
  0
LINE
  8
0
 10
199.037
 20
19.6034
 11
196.157
 21
39.0181
  0
LINE
  8
0
 10
196.157
 20
39.0181
 11
191.388
 21
58.0569
  0
LINE
  8
0
 10
191.388
 20
58.0569
 11
184.776
 21
76.5367
  0
LINE
  8
0
 10
184.776
 20
76.5367
 11
176.384
 21
94.2793
  0
LINE
  8
0
 10
176.384
 20
94.2793
 11
166.294
 21
111.114
  0
LINE
  8
0
 10
166.294
 20
111.114
 11
154.602
 21
126.879
  0
LINE
  8
0
 10
154.602
 20
126.879
 11
141.421
 21
141.421
  0
LINE
  8
0
 10
141.421
 20
141.421
 11
126.879
 21
154.602
  0
LINE
  8
0
 10
126.879
 20
154.602
 11
111.114
 21
166.294
  0
LINE
  8
0
 10
111.114
 20
166.294
 11
94.2793
 21
176.384
  0
LINE
  8
0
 10
94.2793
 20
176.384
 11
76.5367
 21
184.776
  0
LINE
  8
0
 10
76.5367
 20
184.776
 11
58.0569
 21
191.388
  0
LINE
  8
0
 10
58.0569
 20
191.388
 11
39.0181
 21
196.157
  0
LINE
  8
0
 10
39.0181
 20
196.157
 11
19.6034
 21
199.037
  0
LINE
  8
0
 10
19.6034
 20
199.037
 11
0
 21
200
  0
LINE
  8
0
 10
0
 20
200
 11
-19.6034
 21
199.037
  0
LINE
  8
0
 10
-19.6034
 20
199.037
 11
-39.0181
 21
196.157
  0
LINE
  8
0
 10
-39.0181
 20
196.157
 11
-58.0569
 21
191.388
  0
LINE
  8
0
 10
-58.0569
 20
191.388
 11
-76.5367
 21
184.776
  0
LINE
  8
0
 10
-76.5367
 20
184.776
 11
-94.2793
 21
176.384
  0
LINE
  8
0
 10
-94.2793
 20
176.384
 11
-111.114
 21
166.294
  0
LINE
  8
0
 10
-111.114
 20
166.294
 11
-126.879
 21
154.602
  0
LINE
  8
0
 10
-126.879
 20
154.602
 11
-141.421
 21
141.421
  0
LINE
  8
0
 10
-141.421
 20
141.421
 11
-154.602
 21
126.879
  0
LINE
  8
0
 10
-154.602
 20
126.879
 11
-166.294
 21
111.114
  0
LINE
  8
0
 10
-166.294
 20
111.114
 11
-176.384
 21
94.2793
  0
LINE
  8
0
 10
-176.384
 20
94.2793
 11
-184.776
 21
76.5367
  0
LINE
  8
0
 10
-184.776
 20
76.5367
 11
-191.388
 21
58.0569
  0
LINE
  8
0
 10
-191.388
 20
58.0569
 11
-196.157
 21
39.0181
  0
LINE
  8
0
 10
-196.157
 20
39.0181
 11
-199.037
 21
19.6034
  0
LINE
  8
0
 10
-199.037
 20
19.6034
 11
-200
 21
0
  0
LINE
  8
0
 10
-200
 20
0
 11
-199.037
 21
-19.6034
  0
LINE
  8
0
 10
-199.037
 20
-19.6034
 11
-196.157
 21
-39.0181
  0
LINE
  8
0
 10
-196.157
 20
-39.0181
 11
-191.388
 21
-58.0569
  0
LINE
  8
0
 10
-191.388
 20
-58.0569
 11
-184.776
 21
-76.5367
  0
LINE
  8
0
 10
-184.776
 20
-76.5367
 11
-176.384
 21
-94.2793
  0
LINE
  8
0
 10
-176.384
 20
-94.2793
 11
-166.294
 21
-111.114
  0
LINE
  8
0
 10
-166.294
 20
-111.114
 11
-154.602
 21
-126.879
  0
LINE
  8
0
 10
-154.602
 20
-126.879
 11
-141.421
 21
-141.421
  0
LINE
  8
0
 10
-141.421
 20
-141.421
 11
-126.879
 21
-154.602
  0
LINE
  8
0
 10
-126.879
 20
-154.602
 11
-111.114
 21
-166.294
  0
LINE
  8
0
 10
-111.114
 20
-166.294
 11
-94.2793
 21
-176.384
  0
LINE
  8
0
 10
-94.2793
 20
-176.384
 11
-76.5367
 21
-184.776
  0
LINE
  8
0
 10
-76.5367
 20
-184.776
 11
-58.0569
 21
-191.388
  0
LINE
  8
0
 10
-58.0569
 20
-191.388
 11
-39.0181
 21
-196.157
  0
LINE
  8
0
 10
-39.0181
 20
-196.157
 11
-19.6034
 21
-199.037
  0
LINE
  8
0
 10
-19.6034
 20
-199.037
 11
0
 21
-200
  0
LINE
  8
0
 10
0
 20
-200
 11
19.6034
 21
-199.037
  0
LINE
  8
0
 10
-0.245041
 20
190.012
 11
-0.487717
 21
190.048
  0
LINE
  8
0
 10
-0.487717
 20
190.048
 11
-0.725708
 21
190.108
  0
LINE
  8
0
 10
-0.725708
 20
190.108
 11
-0.956696
 21
190.19
  0
LINE
  8
0
 10
-0.956696
 20
190.19
 11
-1.17848
 21
190.295
  0
LINE
  8
0
 10
-1.17848
 20
190.295
 11
-1.38892
 21
190.421
  0
LINE
  8
0
 10
-1.38892
 20
190.421
 11
-1.58597
 21
190.567
  0
LINE
  8
0
 10
-1.58597
 20
190.567
 11
-1.76776
 21
190.732
  0
LINE
  8
0
 10
-1.76776
 20
190.732
 11
-1.93253
 21
190.914
  0
LINE
  8
0
 10
-1.93253
 20
190.914
 11
-2.07866
 21
191.111
  0
LINE
  8
0
 10
-2.07866
 20
191.111
 11
-2.20479
 21
191.322
  0
LINE
  8
0
 10
-2.20479
 20
191.322
 11
-2.30969
 21
191.543
  0
LINE
  8
0
 10
-2.30969
 20
191.543
 11
-2.39235
 21
191.774
  0
LINE
  8
0
 10
-2.39235
 20
191.774
 11
-2.45195
 21
192.012
  0
LINE
  8
0
 10
-2.45195
 20
192.012
 11
-2.48796
 21
192.255
  0
LINE
  8
0
 10
-2.48796
 20
192.255
 11
-2.5
 21
192.5
  0
LINE
  8
0
 10
-2.5
 20
192.5
 11
-2.48796
 21
192.745
  0
LINE
  8
0
 10
-2.48796
 20
192.745
 11
-2.45195
 21
192.988
  0
LINE
  8
0
 10
-2.45195
 20
192.988
 11
-2.39235
 21
193.226
  0
LINE
  8
0
 10
-2.39235
 20
193.226
 11
-2.30969
 21
193.457
  0
LINE
  8
0
 10
-2.30969
 20
193.457
 11
-2.20479
 21
193.678
  0
LINE
  8
0
 10
-2.20479
 20
193.678
 11
-2.07866
 21
193.889
  0
LINE
  8
0
 10
-2.07866
 20
193.889
 11
-1.93253
 21
194.086
  0
LINE
  8
0
 10
-1.93253
 20
194.086
 11
-1.76776
 21
194.268
  0
LINE
  8
0
 10
-1.76776
 20
194.268
 11
-1.58597
 21
194.433
  0
LINE
  8
0
 10
-1.58597
 20
194.433
 11
-1.38892
 21
194.579
  0
LINE
  8
0
 10
-1.38892
 20
194.579
 11
-1.17848
 21
194.705
  0
LINE
  8
0
 10
-1.17848
 20
194.705
 11
-0.956696
 21
194.81
  0
LINE
  8
0
 10
-0.956696
 20
194.81
 11
-0.725708
 21
194.892
  0
LINE
  8
0
 10
-0.725708
 20
194.892
 11
-0.487717
 21
194.952
  0
LINE
  8
0
 10
-0.487717
 20
194.952
 11
-0.245041
 21
194.988
  0
LINE
  8
0
 10
-0.245041
 20
194.988
 11
0
 21
195
  0
LINE
  8
0
 10
0
 20
195
 11
0.245041
 21
194.988
  0
LINE
  8
0
 10
0.245041
 20
194.988
 11
0.487717
 21
194.952
  0
LINE
  8
0
 10
0.487717
 20
194.952
 11
0.725708
 21
194.892
  0
LINE
  8
0
 10
0.725708
 20
194.892
 11
0.956696
 21
194.81
  0
LINE
  8
0
 10
0.956696
 20
194.81
 11
1.17848
 21
194.705
  0
LINE
  8
0
 10
1.17848
 20
194.705
 11
1.38892
 21
194.579
  0
LINE
  8
0
 10
1.38892
 20
194.579
 11
1.58597
 21
194.433
  0
LINE
  8
0
 10
1.58597
 20
194.433
 11
1.76776
 21
194.268
  0
LINE
  8
0
 10
1.76776
 20
194.268
 11
1.93253
 21
194.086
  0
LINE
  8
0
 10
1.93253
 20
194.086
 11
2.07866
 21
193.889
  0
LINE
  8
0
 10
2.07866
 20
193.889
 11
2.20479
 21
193.678
  0
LINE
  8
0
 10
2.20479
 20
193.678
 11
2.30969
 21
193.457
  0
LINE
  8
0
 10
2.30969
 20
193.457
 11
2.39235
 21
193.226
  0
LINE
  8
0
 10
2.39235
 20
193.226
 11
2.45195
 21
192.988
  0
LINE
  8
0
 10
2.45195
 20
192.988
 11
2.48796
 21
192.745
  0
LINE
  8
0
 10
2.48796
 20
192.745
 11
2.5
 21
192.5
  0
LINE
  8
0
 10
2.5
 20
192.5
 11
2.48796
 21
192.255
  0
LINE
  8
0
 10
2.48796
 20
192.255
 11
2.45195
 21
192.012
  0
LINE
  8
0
 10
2.45195
 20
192.012
 11
2.39235
 21
191.774
  0
LINE
  8
0
 10
2.39235
 20
191.774
 11
2.30969
 21
191.543
  0
LINE
  8
0
 10
2.30969
 20
191.543
 11
2.20479
 21
191.322
  0
LINE
  8
0
 10
2.20479
 20
191.322
 11
2.07866
 21
191.111
  0
LINE
  8
0
 10
2.07866
 20
191.111
 11
1.93253
 21
190.914
  0
LINE
  8
0
 10
1.93253
 20
190.914
 11
1.76776
 21
190.732
  0
LINE
  8
0
 10
1.76776
 20
190.732
 11
1.58597
 21
190.567
  0
LINE
  8
0
 10
1.58597
 20
190.567
 11
1.38892
 21
190.421
  0
LINE
  8
0
 10
1.38892
 20
190.421
 11
1.17848
 21
190.295
  0
LINE
  8
0
 10
1.17848
 20
190.295
 11
0.956696
 21
190.19
  0
LINE
  8
0
 10
0.956696
 20
190.19
 11
0.725708
 21
190.108
  0
LINE
  8
0
 10
0.725708
 20
190.108
 11
0.487717
 21
190.048
  0
LINE
  8
0
 10
0.487717
 20
190.048
 11
0.245041
 21
190.012
  0
LINE
  8
0
 10
0.245041
 20
190.012
 11
0
 21
190
  0
LINE
  8
0
 10
0
 20
190
 11
-0.245041
 21
190.012
  0
LINE
  8
0
 10
33.3997
 20
188.572
 11
33.2536
 21
188.591
  0
LINE
  8
0
 10
33.2536
 20
188.591
 11
33.1101
 21
188.623
  0
LINE
  8
0
 10
33.1101
 20
188.623
 11
32.9704
 21
188.67
  0
LINE
  8
0
 10
32.9704
 20
188.67
 11
32.836
 21
188.73
  0
LINE
  8
0
 10
32.836
 20
188.73
 11
32.7081
 21
188.803
  0
LINE
  8
0
 10
32.7081
 20
188.803
 11
32.588
 21
188.888
  0
LINE
  8
0
 10
32.588
 20
188.888
 11
32.4768
 21
188.984
  0
LINE
  8
0
 10
32.4768
 20
188.984
 11
32.3756
 21
189.091
  0
LINE
  8
0
 10
32.3756
 20
189.091
 11
32.2854
 21
189.208
  0
LINE
  8
0
 10
32.2854
 20
189.208
 11
32.207
 21
189.332
  0
LINE
  8
0
 10
32.207
 20
189.332
 11
32.1411
 21
189.464
  0
LINE
  8
0
 10
32.1411
 20
189.464
 11
32.0885
 21
189.601
  0
LINE
  8
0
 10
32.0885
 20
189.601
 11
32.0497
 21
189.743
  0
LINE
  8
0
 10
32.0497
 20
189.743
 11
32.0249
 21
189.888
  0
LINE
  8
0
 10
32.0249
 20
189.888
 11
32.0145
 21
190.035
  0
LINE
  8
0
 10
32.0145
 20
190.035
 11
32.0185
 21
190.182
  0
LINE
  8
0
 10
32.0185
 20
190.182
 11
32.0369
 21
190.328
  0
LINE
  8
0
 10
32.0369
 20
190.328
 11
32.0695
 21
190.472
  0
LINE
  8
0
 10
32.0695
 20
190.472
 11
32.1161
 21
190.612
  0
LINE
  8
0
 10
32.1161
 20
190.612
 11
32.1761
 21
190.746
  0
LINE
  8
0
 10
32.1761
 20
190.746
 11
32.249
 21
190.874
  0
LINE
  8
0
 10
32.249
 20
190.874
 11
32.3341
 21
190.994
  0
LINE
  8
0
 10
32.3341
 20
190.994
 11
32.4305
 21
191.105
  0
LINE
  8
0
 10
32.4305
 20
191.105
 11
32.5374
 21
191.206
  0
LINE
  8
0
 10
32.5374
 20
191.206
 11
32.6537
 21
191.297
  0
LINE
  8
0
 10
32.6537
 20
191.297
 11
32.7783
 21
191.375
  0
LINE
  8
0
 10
32.7783
 20
191.375
 11
32.91
 21
191.441
  0
LINE
  8
0
 10
32.91
 20
191.441
 11
33.0475
 21
191.493
  0
LINE
  8
0
 10
33.0475
 20
191.493
 11
33.1894
 21
191.532
  0
LINE
  8
0
 10
33.1894
 20
191.532
 11
33.3345
 21
191.557
  0
LINE
  8
0
 10
33.3345
 20
191.557
 11
33.4814
 21
191.568
  0
LINE
  8
0
 10
33.4814
 20
191.568
 11
33.6285
 21
191.564
  0
LINE
  8
0
 10
33.6285
 20
191.564
 11
33.7746
 21
191.545
  0
LINE
  8
0
 10
33.7746
 20
191.545
 11
33.9181
 21
191.512
  0
LINE
  8
0
 10
33.9181
 20
191.512
 11
34.0578
 21
191.466
  0
LINE
  8
0
 10
34.0578
 20
191.466
 11
34.1922
 21
191.406
  0
LINE
  8
0
 10
34.1922
 20
191.406
 11
34.32
 21
191.333
  0
LINE
  8
0
 10
34.32
 20
191.333
 11
34.4402
 21
191.248
  0
LINE
  8
0
 10
34.4402
 20
191.248
 11
34.5514
 21
191.151
  0
LINE
  8
0
 10
34.5514
 20
191.151
 11
34.6526
 21
191.045
  0
LINE
  8
0
 10
34.6526
 20
191.045
 11
34.7428
 21
190.928
  0
LINE
  8
0
 10
34.7428
 20
190.928
 11
34.8212
 21
190.804
  0
LINE
  8
0
 10
34.8212
 20
190.804
 11
34.8871
 21
190.672
  0
LINE
  8
0
 10
34.8871
 20
190.672
 11
34.9397
 21
190.535
  0
LINE
  8
0
 10
34.9397
 20
190.535
 11
34.9785
 21
190.393
  0
LINE
  8
0
 10
34.9785
 20
190.393
 11
35.0033
 21
190.247
  0
LINE
  8
0
 10
35.0033
 20
190.247
 11
35.0137
 21
190.101
  0
LINE
  8
0
 10
35.0137
 20
190.101
 11
35.0097
 21
189.953
  0
LINE
  8
0
 10
35.0097
 20
189.953
 11
34.9913
 21
189.807
  0
LINE
  8
0
 10
34.9913
 20
189.807
 11
34.9587
 21
189.664
  0
LINE
  8
0
 10
34.9587
 20
189.664
 11
34.9121
 21
189.524
  0
LINE
  8
0
 10
34.9121
 20
189.524
 11
34.8521
 21
189.39
  0
LINE
  8
0
 10
34.8521
 20
189.39
 11
34.7792
 21
189.262
  0
LINE
  8
0
 10
34.7792
 20
189.262
 11
34.6941
 21
189.142
  0
LINE
  8
0
 10
34.6941
 20
189.142
 11
34.5976
 21
189.031
  0
LINE
  8
0
 10
34.5976
 20
189.031
 11
34.4908
 21
188.929
  0
LINE
  8
0
 10
34.4908
 20
188.929
 11
34.3745
 21
188.839
  0
LINE
  8
0
 10
34.3745
 20
188.839
 11
34.2499
 21
188.761
  0
LINE
  8
0
 10
34.2499
 20
188.761
 11
34.1182
 21
188.695
  0
LINE
  8
0
 10
34.1182
 20
188.695
 11
33.9807
 21
188.642
  0
LINE
  8
0
 10
33.9807
 20
188.642
 11
33.8387
 21
188.603
  0
LINE
  8
0
 10
33.8387
 20
188.603
 11
33.6936
 21
188.579
  0
LINE
  8
0
 10
33.6936
 20
188.579
 11
33.5468
 21
188.568
  0
LINE
  8
0
 10
33.5468
 20
188.568
 11
33.3997
 21
188.572
  0
LINE
  8
0
 10
-50.1479
 20
184.937
 11
-50.2927
 21
184.963
  0
LINE
  8
0
 10
-50.2927
 20
184.963
 11
-50.4342
 21
185.003
  0
LINE
  8
0
 10
-50.4342
 20
185.003
 11
-50.5711
 21
185.057
  0
LINE
  8
0
 10
-50.5711
 20
185.057
 11
-50.7021
 21
185.125
  0
LINE
  8
0
 10
-50.7021
 20
185.125
 11
-50.8258
 21
185.204
  0
LINE
  8
0
 10
-50.8258
 20
185.204
 11
-50.9411
 21
185.296
  0
LINE
  8
0
 10
-50.9411
 20
185.296
 11
-51.0469
 21
185.398
  0
LINE
  8
0
 10
-51.0469
 20
185.398
 11
-51.1421
 21
185.511
  0
LINE
  8
0
 10
-51.1421
 20
185.511
 11
-51.2259
 21
185.632
  0
LINE
  8
0
 10
-51.2259
 20
185.632
 11
-51.2974
 21
185.76
  0
LINE
  8
0
 10
-51.2974
 20
185.76
 11
-51.3559
 21
185.895
  0
LINE
  8
0
 10
-51.3559
 20
185.895
 11
-51.401
 21
186.035
  0
LINE
  8
0
 10
-51.401
 20
186.035
 11
-51.432
 21
186.179
  0
LINE
  8
0
 10
-51.432
 20
186.179
 11
-51.4489
 21
186.326
  0
LINE
  8
0
 10
-51.4489
 20
186.326
 11
-51.4513
 21
186.473
  0
LINE
  8
0
 10
-51.4513
 20
186.473
 11
-51.4392
 21
186.619
  0
LINE
  8
0
 10
-51.4392
 20
186.619
 11
-51.4129
 21
186.764
  0
LINE
  8
0
 10
-51.4129
 20
186.764
 11
-51.3725
 21
186.906
  0
LINE
  8
0
 10
-51.3725
 20
186.906
 11
-51.3184
 21
187.043
  0
LINE
  8
0
 10
-51.3184
 20
187.043
 11
-51.2511
 21
187.174
  0
LINE
  8
0
 10
-51.2511
 20
187.174
 11
-51.1713
 21
187.297
  0
LINE
  8
0
 10
-51.1713
 20
187.297
 11
-51.0798
 21
187.413
  0
LINE
  8
0
 10
-51.0798
 20
187.413
 11
-50.9775
 21
187.518
  0
LINE
  8
0
 10
-50.9775
 20
187.518
 11
-50.8652
 21
187.614
  0
LINE
  8
0
 10
-50.8652
 20
187.614
 11
-50.7442
 21
187.697
  0
LINE
  8
0
 10
-50.7442
 20
187.697
 11
-50.6155
 21
187.769
  0
LINE
  8
0
 10
-50.6155
 20
187.769
 11
-50.4804
 21
187.828
  0
LINE
  8
0
 10
-50.4804
 20
187.828
 11
-50.3403
 21
187.873
  0
LINE
  8
0
 10
-50.3403
 20
187.873
 11
-50.1964
 21
187.904
  0
LINE
  8
0
 10
-50.1964
 20
187.904
 11
-50.0502
 21
187.92
  0
LINE
  8
0
 10
-50.0502
 20
187.92
 11
-49.903
 21
187.923
  0
LINE
  8
0
 10
-49.903
 20
187.923
 11
-49.7563
 21
187.911
  0
LINE
  8
0
 10
-49.7563
 20
187.911
 11
-49.6115
 21
187.884
  0
LINE
  8
0
 10
-49.6115
 20
187.884
 11
-49.4699
 21
187.844
  0
LINE
  8
0
 10
-49.4699
 20
187.844
 11
-49.333
 21
187.79
  0
LINE
  8
0
 10
-49.333
 20
187.79
 11
-49.2021
 21
187.723
  0
LINE
  8
0
 10
-49.2021
 20
187.723
 11
-49.0784
 21
187.643
  0
LINE
  8
0
 10
-49.0784
 20
187.643
 11
-48.963
 21
187.551
  0
LINE
  8
0
 10
-48.963
 20
187.551
 11
-48.8573
 21
187.449
  0
LINE
  8
0
 10
-48.8573
 20
187.449
 11
-48.762
 21
187.337
  0
LINE
  8
0
 10
-48.762
 20
187.337
 11
-48.6783
 21
187.216
  0
LINE
  8
0
 10
-48.6783
 20
187.216
 11
-48.6068
 21
187.087
  0
LINE
  8
0
 10
-48.6068
 20
187.087
 11
-48.5482
 21
186.952
  0
LINE
  8
0
 10
-48.5482
 20
186.952
 11
-48.5032
 21
186.812
  0
LINE
  8
0
 10
-48.5032
 20
186.812
 11
-48.4721
 21
186.668
  0
LINE
  8
0
 10
-48.4721
 20
186.668
 11
-48.4553
 21
186.522
  0
LINE
  8
0
 10
-48.4553
 20
186.522
 11
-48.4529
 21
186.375
  0
LINE
  8
0
 10
-48.4529
 20
186.375
 11
-48.4649
 21
186.228
  0
LINE
  8
0
 10
-48.4649
 20
186.228
 11
-48.4913
 21
186.083
  0
LINE
  8
0
 10
-48.4913
 20
186.083
 11
-48.5317
 21
185.942
  0
LINE
  8
0
 10
-48.5317
 20
185.942
 11
-48.5858
 21
185.805
  0
LINE
  8
0
 10
-48.5858
 20
185.805
 11
-48.653
 21
185.674
  0
LINE
  8
0
 10
-48.653
 20
185.674
 11
-48.7328
 21
185.55
  0
LINE
  8
0
 10
-48.7328
 20
185.55
 11
-48.8243
 21
185.435
  0
LINE
  8
0
 10
-48.8243
 20
185.435
 11
-48.9267
 21
185.329
  0
LINE
  8
0
 10
-48.9267
 20
185.329
 11
-49.0389
 21
185.234
  0
LINE
  8
0
 10
-49.0389
 20
185.234
 11
-49.16
 21
185.15
  0
LINE
  8
0
 10
-49.16
 20
185.15
 11
-49.2886
 21
185.078
  0
LINE
  8
0
 10
-49.2886
 20
185.078
 11
-49.4237
 21
185.02
  0
LINE
  8
0
 10
-49.4237
 20
185.02
 11
-49.5638
 21
184.975
  0
LINE
  8
0
 10
-49.5638
 20
184.975
 11
-49.7077
 21
184.944
  0
LINE
  8
0
 10
-49.7077
 20
184.944
 11
-49.854
 21
184.927
  0
LINE
  8
0
 10
-49.854
 20
184.927
 11
-50.0011
 21
184.924
  0
LINE
  8
0
 10
-50.0011
 20
184.924
 11
-50.1479
 21
184.937
  0
LINE
  8
0
 10
-18.1332
 20
-184.109
 11
-36.0917
 21
-181.445
  0
LINE
  8
0
 10
-36.0917
 20
-181.445
 11
-53.7027
 21
-177.034
  0
LINE
  8
0
 10
-53.7027
 20
-177.034
 11
-70.7964
 21
-170.918
  0
LINE
  8
0
 10
-70.7964
 20
-170.918
 11
-87.2084
 21
-163.155
  0
LINE
  8
0
 10
-87.2084
 20
-163.155
 11
-102.78
 21
-153.822
  0
LINE
  8
0
 10
-102.78
 20
-153.822
 11
-117.363
 21
-143.007
  0
LINE
  8
0
 10
-117.363
 20
-143.007
 11
-130.815
 21
-130.815
  0
LINE
  8
0
 10
-130.815
 20
-130.815
 11
-143.007
 21
-117.363
  0
LINE
  8
0
 10
-143.007
 20
-117.363
 11
-153.822
 21
-102.78
  0
LINE
  8
0
 10
-153.822
 20
-102.78
 11
-163.155
 21
-87.2084
  0
LINE
  8
0
 10
-163.155
 20
-87.2084
 11
-170.918
 21
-70.7964
  0
LINE
  8
0
 10
-170.918
 20
-70.7964
 11
-177.034
 21
-53.7027
  0
LINE
  8
0
 10
-177.034
 20
-53.7027
 11
-181.445
 21
-36.0917
  0
LINE
  8
0
 10
-181.445
 20
-36.0917
 11
-184.109
 21
-18.1332
  0
LINE
  8
0
 10
-184.109
 20
-18.1332
 11
-185
 21
0
  0
LINE
  8
0
 10
-185
 20
0
 11
-184.109
 21
18.1332
  0
LINE
  8
0
 10
-184.109
 20
18.1332
 11
-181.445
 21
36.0917
  0
LINE
  8
0
 10
-181.445
 20
36.0917
 11
-177.034
 21
53.7027
  0
LINE
  8
0
 10
-177.034
 20
53.7027
 11
-170.918
 21
70.7964
  0
LINE
  8
0
 10
-170.918
 20
70.7964
 11
-163.155
 21
87.2084
  0
LINE
  8
0
 10
-163.155
 20
87.2084
 11
-153.822
 21
102.78
  0
LINE
  8
0
 10
-153.822
 20
102.78
 11
-143.007
 21
117.363
  0
LINE
  8
0
 10
-143.007
 20
117.363
 11
-130.815
 21
130.815
  0
LINE
  8
0
 10
-130.815
 20
130.815
 11
-117.363
 21
143.007
  0
LINE
  8
0
 10
-117.363
 20
143.007
 11
-102.78
 21
153.822
  0
LINE
  8
0
 10
-102.78
 20
153.822
 11
-87.2084
 21
163.155
  0
LINE
  8
0
 10
-87.2084
 20
163.155
 11
-70.7964
 21
170.918
  0
LINE
  8
0
 10
-70.7964
 20
170.918
 11
-53.7027
 21
177.034
  0
LINE
  8
0
 10
-53.7027
 20
177.034
 11
-36.0917
 21
181.445
  0
LINE
  8
0
 10
-36.0917
 20
181.445
 11
-18.1332
 21
184.109
  0
LINE
  8
0
 10
-18.1332
 20
184.109
 11
0
 21
185
  0
LINE
  8
0
 10
0
 20
185
 11
18.1332
 21
184.109
  0
LINE
  8
0
 10
18.1332
 20
184.109
 11
36.0917
 21
181.445
  0
LINE
  8
0
 10
36.0917
 20
181.445
 11
53.7027
 21
177.034
  0
LINE
  8
0
 10
53.7027
 20
177.034
 11
70.7964
 21
170.918
  0
LINE
  8
0
 10
70.7964
 20
170.918
 11
87.2084
 21
163.155
  0
LINE
  8
0
 10
87.2084
 20
163.155
 11
102.78
 21
153.822
  0
LINE
  8
0
 10
102.78
 20
153.822
 11
117.363
 21
143.007
  0
LINE
  8
0
 10
117.363
 20
143.007
 11
130.815
 21
130.815
  0
LINE
  8
0
 10
130.815
 20
130.815
 11
143.007
 21
117.363
  0
LINE
  8
0
 10
143.007
 20
117.363
 11
153.822
 21
102.78
  0
LINE
  8
0
 10
153.822
 20
102.78
 11
163.155
 21
87.2084
  0
LINE
  8
0
 10
163.155
 20
87.2084
 11
170.918
 21
70.7964
  0
LINE
  8
0
 10
170.918
 20
70.7964
 11
177.034
 21
53.7027
  0
LINE
  8
0
 10
177.034
 20
53.7027
 11
181.445
 21
36.0917
  0
LINE
  8
0
 10
181.445
 20
36.0917
 11
184.109
 21
18.1332
  0
LINE
  8
0
 10
184.109
 20
18.1332
 11
185
 21
0
  0
LINE
  8
0
 10
185
 20
0
 11
184.109
 21
-18.1332
  0
LINE
  8
0
 10
184.109
 20
-18.1332
 11
181.445
 21
-36.0917
  0
LINE
  8
0
 10
181.445
 20
-36.0917
 11
177.034
 21
-53.7027
  0
LINE
  8
0
 10
177.034
 20
-53.7027
 11
170.918
 21
-70.7964
  0
LINE
  8
0
 10
170.918
 20
-70.7964
 11
163.155
 21
-87.2084
  0
LINE
  8
0
 10
163.155
 20
-87.2084
 11
153.822
 21
-102.78
  0
LINE
  8
0
 10
153.822
 20
-102.78
 11
143.007
 21
-117.363
  0
LINE
  8
0
 10
143.007
 20
-117.363
 11
130.815
 21
-130.815
  0
LINE
  8
0
 10
130.815
 20
-130.815
 11
117.363
 21
-143.007
  0
LINE
  8
0
 10
117.363
 20
-143.007
 11
102.78
 21
-153.822
  0
LINE
  8
0
 10
102.78
 20
-153.822
 11
87.2084
 21
-163.155
  0
LINE
  8
0
 10
87.2084
 20
-163.155
 11
70.7964
 21
-170.918
  0
LINE
  8
0
 10
70.7964
 20
-170.918
 11
53.7027
 21
-177.034
  0
LINE
  8
0
 10
53.7027
 20
-177.034
 11
36.0917
 21
-181.445
  0
LINE
  8
0
 10
36.0917
 20
-181.445
 11
18.1332
 21
-184.109
  0
LINE
  8
0
 10
18.1332
 20
-184.109
 11
0
 21
-185
  0
LINE
  8
0
 10
0
 20
-185
 11
-18.1332
 21
-184.109
  0
LINE
  8
0
 10
-124.189
 20
146.352
 11
-124.335
 21
146.372
  0
LINE
  8
0
 10
-124.335
 20
146.372
 11
-124.478
 21
146.406
  0
LINE
  8
0
 10
-124.478
 20
146.406
 11
-124.617
 21
146.455
  0
LINE
  8
0
 10
-124.617
 20
146.455
 11
-124.751
 21
146.516
  0
LINE
  8
0
 10
-124.751
 20
146.516
 11
-124.878
 21
146.59
  0
LINE
  8
0
 10
-124.878
 20
146.59
 11
-124.997
 21
146.677
  0
LINE
  8
0
 10
-124.997
 20
146.677
 11
-125.107
 21
146.774
  0
LINE
  8
0
 10
-125.107
 20
146.774
 11
-125.207
 21
146.882
  0
LINE
  8
0
 10
-125.207
 20
146.882
 11
-125.296
 21
147
  0
LINE
  8
0
 10
-125.296
 20
147
 11
-125.373
 21
147.125
  0
LINE
  8
0
 10
-125.373
 20
147.125
 11
-125.437
 21
147.257
  0
LINE
  8
0
 10
-125.437
 20
147.257
 11
-125.489
 21
147.396
  0
LINE
  8
0
 10
-125.489
 20
147.396
 11
-125.526
 21
147.538
  0
LINE
  8
0
 10
-125.526
 20
147.538
 11
-125.549
 21
147.683
  0
LINE
  8
0
 10
-125.549
 20
147.683
 11
-125.558
 21
147.83
  0
LINE
  8
0
 10
-125.558
 20
147.83
 11
-125.552
 21
147.977
  0
LINE
  8
0
 10
-125.552
 20
147.977
 11
-125.532
 21
148.123
  0
LINE
  8
0
 10
-125.532
 20
148.123
 11
-125.498
 21
148.266
  0
LINE
  8
0
 10
-125.498
 20
148.266
 11
-125.45
 21
148.405
  0
LINE
  8
0
 10
-125.45
 20
148.405
 11
-125.389
 21
148.539
  0
LINE
  8
0
 10
-125.389
 20
148.539
 11
-125.314
 21
148.666
  0
LINE
  8
0
 10
-125.314
 20
148.666
 11
-125.228
 21
148.785
  0
LINE
  8
0
 10
-125.228
 20
148.785
 11
-125.13
 21
148.896
  0
LINE
  8
0
 10
-125.13
 20
148.896
 11
-125.022
 21
148.996
  0
LINE
  8
0
 10
-125.022
 20
148.996
 11
-124.905
 21
149.085
  0
LINE
  8
0
 10
-124.905
 20
149.085
 11
-124.779
 21
149.162
  0
LINE
  8
0
 10
-124.779
 20
149.162
 11
-124.647
 21
149.226
  0
LINE
  8
0
 10
-124.647
 20
149.226
 11
-124.509
 21
149.277
  0
LINE
  8
0
 10
-124.509
 20
149.277
 11
-124.367
 21
149.314
  0
LINE
  8
0
 10
-124.367
 20
149.314
 11
-124.221
 21
149.338
  0
LINE
  8
0
 10
-124.221
 20
149.338
 11
-124.074
 21
149.346
  0
LINE
  8
0
 10
-124.074
 20
149.346
 11
-123.927
 21
149.341
  0
LINE
  8
0
 10
-123.927
 20
149.341
 11
-123.781
 21
149.321
  0
LINE
  8
0
 10
-123.781
 20
149.321
 11
-123.638
 21
149.287
  0
LINE
  8
0
 10
-123.638
 20
149.287
 11
-123.499
 21
149.239
  0
LINE
  8
0
 10
-123.499
 20
149.239
 11
-123.365
 21
149.177
  0
LINE
  8
0
 10
-123.365
 20
149.177
 11
-123.238
 21
149.103
  0
LINE
  8
0
 10
-123.238
 20
149.103
 11
-123.119
 21
149.016
  0
LINE
  8
0
 10
-123.119
 20
149.016
 11
-123.009
 21
148.919
  0
LINE
  8
0
 10
-123.009
 20
148.919
 11
-122.909
 21
148.811
  0
LINE
  8
0
 10
-122.909
 20
148.811
 11
-122.82
 21
148.693
  0
LINE
  8
0
 10
-122.82
 20
148.693
 11
-122.743
 21
148.568
  0
LINE
  8
0
 10
-122.743
 20
148.568
 11
-122.679
 21
148.436
  0
LINE
  8
0
 10
-122.679
 20
148.436
 11
-122.627
 21
148.298
  0
LINE
  8
0
 10
-122.627
 20
148.298
 11
-122.59
 21
148.155
  0
LINE
  8
0
 10
-122.59
 20
148.155
 11
-122.567
 21
148.01
  0
LINE
  8
0
 10
-122.567
 20
148.01
 11
-122.558
 21
147.863
  0
LINE
  8
0
 10
-122.558
 20
147.863
 11
-122.564
 21
147.716
  0
LINE
  8
0
 10
-122.564
 20
147.716
 11
-122.584
 21
147.57
  0
LINE
  8
0
 10
-122.584
 20
147.57
 11
-122.618
 21
147.427
  0
LINE
  8
0
 10
-122.618
 20
147.427
 11
-122.666
 21
147.288
  0
LINE
  8
0
 10
-122.666
 20
147.288
 11
-122.727
 21
147.154
  0
LINE
  8
0
 10
-122.727
 20
147.154
 11
-122.802
 21
147.027
  0
LINE
  8
0
 10
-122.802
 20
147.027
 11
-122.888
 21
146.908
  0
LINE
  8
0
 10
-122.888
 20
146.908
 11
-122.986
 21
146.798
  0
LINE
  8
0
 10
-122.986
 20
146.798
 11
-123.094
 21
146.698
  0
LINE
  8
0
 10
-123.094
 20
146.698
 11
-123.211
 21
146.609
  0
LINE
  8
0
 10
-123.211
 20
146.609
 11
-123.337
 21
146.531
  0
LINE
  8
0
 10
-123.337
 20
146.531
 11
-123.469
 21
146.467
  0
LINE
  8
0
 10
-123.469
 20
146.467
 11
-123.607
 21
146.416
  0
LINE
  8
0
 10
-123.607
 20
146.416
 11
-123.749
 21
146.379
  0
LINE
  8
0
 10
-123.749
 20
146.379
 11
-123.895
 21
146.355
  0
LINE
  8
0
 10
-123.895
 20
146.355
 11
-124.042
 21
146.347
  0
LINE
  8
0
 10
-124.042
 20
146.347
 11
-124.189
 21
146.352
  0
LINE
  8
0
 10
-167.036
 20
93.7714
 11
-167.278
 21
93.8153
  0
LINE
  8
0
 10
-167.278
 20
93.8153
 11
-167.513
 21
93.8827
  0
LINE
  8
0
 10
-167.513
 20
93.8827
 11
-167.742
 21
93.9728
  0
LINE
  8
0
 10
-167.742
 20
93.9728
 11
-167.96
 21
94.0849
  0
LINE
  8
0
 10
-167.96
 20
94.0849
 11
-168.166
 21
94.2179
  0
LINE
  8
0
 10
-168.166
 20
94.2179
 11
-168.358
 21
94.3704
  0
LINE
  8
0
 10
-168.358
 20
94.3704
 11
-168.535
 21
94.541
  0
LINE
  8
0
 10
-168.535
 20
94.541
 11
-168.693
 21
94.7281
  0
LINE
  8
0
 10
-168.693
 20
94.7281
 11
-168.833
 21
94.9298
  0
LINE
  8
0
 10
-168.833
 20
94.9298
 11
-168.952
 21
95.1443
  0
LINE
  8
0
 10
-168.952
 20
95.1443
 11
-169.05
 21
95.3694
  0
LINE
  8
0
 10
-169.05
 20
95.3694
 11
-169.125
 21
95.603
  0
LINE
  8
0
 10
-169.125
 20
95.603
 11
-169.176
 21
95.8428
  0
LINE
  8
0
 10
-169.176
 20
95.8428
 11
-169.205
 21
96.0865
  0
LINE
  8
0
 10
-169.205
 20
96.0865
 11
-169.209
 21
96.3318
  0
LINE
  8
0
 10
-169.209
 20
96.3318
 11
-169.188
 21
96.5763
  0
LINE
  8
0
 10
-169.188
 20
96.5763
 11
-169.145
 21
96.8177
  0
LINE
  8
0
 10
-169.145
 20
96.8177
 11
-169.077
 21
97.0536
  0
LINE
  8
0
 10
-169.077
 20
97.0536
 11
-168.987
 21
97.2818
  0
LINE
  8
0
 10
-168.987
 20
97.2818
 11
-168.875
 21
97.5
  0
LINE
  8
0
 10
-168.875
 20
97.5
 11
-168.742
 21
97.7062
  0
LINE
  8
0
 10
-168.742
 20
97.7062
 11
-168.589
 21
97.8984
  0
LINE
  8
0
 10
-168.589
 20
97.8984
 11
-168.419
 21
98.0746
  0
LINE
  8
0
 10
-168.419
 20
98.0746
 11
-168.232
 21
98.2334
  0
LINE
  8
0
 10
-168.232
 20
98.2334
 11
-168.03
 21
98.373
  0
LINE
  8
0
 10
-168.03
 20
98.373
 11
-167.816
 21
98.4922
  0
LINE
  8
0
 10
-167.816
 20
98.4922
 11
-167.591
 21
98.5898
  0
LINE
  8
0
 10
-167.591
 20
98.5898
 11
-167.357
 21
98.6648
  0
LINE
  8
0
 10
-167.357
 20
98.6648
 11
-167.117
 21
98.7166
  0
LINE
  8
0
 10
-167.117
 20
98.7166
 11
-166.873
 21
98.7446
  0
LINE
  8
0
 10
-166.873
 20
98.7446
 11
-166.628
 21
98.7487
  0
LINE
  8
0
 10
-166.628
 20
98.7487
 11
-166.384
 21
98.7286
  0
LINE
  8
0
 10
-166.384
 20
98.7286
 11
-166.142
 21
98.6847
  0
LINE
  8
0
 10
-166.142
 20
98.6847
 11
-165.906
 21
98.6173
  0
LINE
  8
0
 10
-165.906
 20
98.6173
 11
-165.678
 21
98.5271
  0
LINE
  8
0
 10
-165.678
 20
98.5271
 11
-165.46
 21
98.4151
  0
LINE
  8
0
 10
-165.46
 20
98.4151
 11
-165.254
 21
98.2821
  0
LINE
  8
0
 10
-165.254
 20
98.2821
 11
-165.062
 21
98.1296
  0
LINE
  8
0
 10
-165.062
 20
98.1296
 11
-164.885
 21
97.959
  0
LINE
  8
0
 10
-164.885
 20
97.959
 11
-164.727
 21
97.7719
  0
LINE
  8
0
 10
-164.727
 20
97.7719
 11
-164.587
 21
97.5702
  0
LINE
  8
0
 10
-164.587
 20
97.5702
 11
-164.468
 21
97.3557
  0
LINE
  8
0
 10
-164.468
 20
97.3557
 11
-164.37
 21
97.1306
  0
LINE
  8
0
 10
-164.37
 20
97.1306
 11
-164.295
 21
96.897
  0
LINE
  8
0
 10
-164.295
 20
96.897
 11
-164.243
 21
96.6572
  0
LINE
  8
0
 10
-164.243
 20
96.6572
 11
-164.215
 21
96.4135
  0
LINE
  8
0
 10
-164.215
 20
96.4135
 11
-164.211
 21
96.1682
  0
LINE
  8
0
 10
-164.211
 20
96.1682
 11
-164.231
 21
95.9237
  0
LINE
  8
0
 10
-164.231
 20
95.9237
 11
-164.275
 21
95.6823
  0
LINE
  8
0
 10
-164.275
 20
95.6823
 11
-164.343
 21
95.4464
  0
LINE
  8
0
 10
-164.343
 20
95.4464
 11
-164.433
 21
95.2182
  0
LINE
  8
0
 10
-164.433
 20
95.2182
 11
-164.545
 21
95
  0
LINE
  8
0
 10
-164.545
 20
95
 11
-164.678
 21
94.7938
  0
LINE
  8
0
 10
-164.678
 20
94.7938
 11
-164.83
 21
94.6016
  0
LINE
  8
0
 10
-164.83
 20
94.6016
 11
-165.001
 21
94.4253
  0
LINE
  8
0
 10
-165.001
 20
94.4253
 11
-165.188
 21
94.2666
  0
LINE
  8
0
 10
-165.188
 20
94.2666
 11
-165.39
 21
94.127
  0
LINE
  8
0
 10
-165.39
 20
94.127
 11
-165.604
 21
94.0078
  0
LINE
  8
0
 10
-165.604
 20
94.0078
 11
-165.829
 21
93.9102
  0
LINE
  8
0
 10
-165.829
 20
93.9102
 11
-166.063
 21
93.8352
  0
LINE
  8
0
 10
-166.063
 20
93.8352
 11
-166.303
 21
93.7834
  0
LINE
  8
0
 10
-166.303
 20
93.7834
 11
-166.546
 21
93.7553
  0
LINE
  8
0
 10
-166.546
 20
93.7553
 11
-166.792
 21
93.7513
  0
LINE
  8
0
 10
-166.792
 20
93.7513
 11
-167.036
 21
93.7714
  0
LINE
  8
0
 10
166.546
 20
93.7553
 11
166.303
 21
93.7834
  0
LINE
  8
0
 10
166.303
 20
93.7834
 11
166.063
 21
93.8352
  0
LINE
  8
0
 10
166.063
 20
93.8352
 11
165.829
 21
93.9102
  0
LINE
  8
0
 10
165.829
 20
93.9102
 11
165.604
 21
94.0078
  0
LINE
  8
0
 10
165.604
 20
94.0078
 11
165.39
 21
94.127
  0
LINE
  8
0
 10
165.39
 20
94.127
 11
165.188
 21
94.2666
  0
LINE
  8
0
 10
165.188
 20
94.2666
 11
165.001
 21
94.4253
  0
LINE
  8
0
 10
165.001
 20
94.4253
 11
164.83
 21
94.6016
  0
LINE
  8
0
 10
164.83
 20
94.6016
 11
164.678
 21
94.7938
  0
LINE
  8
0
 10
164.678
 20
94.7938
 11
164.545
 21
95
  0
LINE
  8
0
 10
164.545
 20
95
 11
164.433
 21
95.2182
  0
LINE
  8
0
 10
164.433
 20
95.2182
 11
164.343
 21
95.4464
  0
LINE
  8
0
 10
164.343
 20
95.4464
 11
164.275
 21
95.6823
  0
LINE
  8
0
 10
164.275
 20
95.6823
 11
164.231
 21
95.9237
  0
LINE
  8
0
 10
164.231
 20
95.9237
 11
164.211
 21
96.1682
  0
LINE
  8
0
 10
164.211
 20
96.1682
 11
164.215
 21
96.4135
  0
LINE
  8
0
 10
164.215
 20
96.4135
 11
164.243
 21
96.6572
  0
LINE
  8
0
 10
164.243
 20
96.6572
 11
164.295
 21
96.897
  0
LINE
  8
0
 10
164.295
 20
96.897
 11
164.37
 21
97.1306
  0
LINE
  8
0
 10
164.37
 20
97.1306
 11
164.468
 21
97.3557
  0
LINE
  8
0
 10
164.468
 20
97.3557
 11
164.587
 21
97.5702
  0
LINE
  8
0
 10
164.587
 20
97.5702
 11
164.727
 21
97.7719
  0
LINE
  8
0
 10
164.727
 20
97.7719
 11
164.885
 21
97.959
  0
LINE
  8
0
 10
164.885
 20
97.959
 11
165.062
 21
98.1296
  0
LINE
  8
0
 10
165.062
 20
98.1296
 11
165.254
 21
98.2821
  0
LINE
  8
0
 10
165.254
 20
98.2821
 11
165.46
 21
98.4151
  0
LINE
  8
0
 10
165.46
 20
98.4151
 11
165.678
 21
98.5271
  0
LINE
  8
0
 10
165.678
 20
98.5271
 11
165.906
 21
98.6173
  0
LINE
  8
0
 10
165.906
 20
98.6173
 11
166.142
 21
98.6847
  0
LINE
  8
0
 10
166.142
 20
98.6847
 11
166.384
 21
98.7286
  0
LINE
  8
0
 10
166.384
 20
98.7286
 11
166.628
 21
98.7487
  0
LINE
  8
0
 10
166.628
 20
98.7487
 11
166.873
 21
98.7446
  0
LINE
  8
0
 10
166.873
 20
98.7446
 11
167.117
 21
98.7166
  0
LINE
  8
0
 10
167.117
 20
98.7166
 11
167.357
 21
98.6648
  0
LINE
  8
0
 10
167.357
 20
98.6648
 11
167.591
 21
98.5898
  0
LINE
  8
0
 10
167.591
 20
98.5898
 11
167.816
 21
98.4922
  0
LINE
  8
0
 10
167.816
 20
98.4922
 11
168.03
 21
98.373
  0
LINE
  8
0
 10
168.03
 20
98.373
 11
168.232
 21
98.2334
  0
LINE
  8
0
 10
168.232
 20
98.2334
 11
168.419
 21
98.0746
  0
LINE
  8
0
 10
168.419
 20
98.0746
 11
168.589
 21
97.8984
  0
LINE
  8
0
 10
168.589
 20
97.8984
 11
168.742
 21
97.7062
  0
LINE
  8
0
 10
168.742
 20
97.7062
 11
168.875
 21
97.5
  0
LINE
  8
0
 10
168.875
 20
97.5
 11
168.987
 21
97.2818
  0
LINE
  8
0
 10
168.987
 20
97.2818
 11
169.077
 21
97.0536
  0
LINE
  8
0
 10
169.077
 20
97.0536
 11
169.145
 21
96.8177
  0
LINE
  8
0
 10
169.145
 20
96.8177
 11
169.188
 21
96.5763
  0
LINE
  8
0
 10
169.188
 20
96.5763
 11
169.209
 21
96.3318
  0
LINE
  8
0
 10
169.209
 20
96.3318
 11
169.205
 21
96.0865
  0
LINE
  8
0
 10
169.205
 20
96.0865
 11
169.176
 21
95.8428
  0
LINE
  8
0
 10
169.176
 20
95.8428
 11
169.125
 21
95.603
  0
LINE
  8
0
 10
169.125
 20
95.603
 11
169.05
 21
95.3694
  0
LINE
  8
0
 10
169.05
 20
95.3694
 11
168.952
 21
95.1443
  0
LINE
  8
0
 10
168.952
 20
95.1443
 11
168.833
 21
94.9298
  0
LINE
  8
0
 10
168.833
 20
94.9298
 11
168.693
 21
94.7281
  0
LINE
  8
0
 10
168.693
 20
94.7281
 11
168.535
 21
94.541
  0
LINE
  8
0
 10
168.535
 20
94.541
 11
168.358
 21
94.3704
  0
LINE
  8
0
 10
168.358
 20
94.3704
 11
168.166
 21
94.2179
  0
LINE
  8
0
 10
168.166
 20
94.2179
 11
167.96
 21
94.0849
  0
LINE
  8
0
 10
167.96
 20
94.0849
 11
167.742
 21
93.9728
  0
LINE
  8
0
 10
167.742
 20
93.9728
 11
167.513
 21
93.8827
  0
LINE
  8
0
 10
167.513
 20
93.8827
 11
167.278
 21
93.8153
  0
LINE
  8
0
 10
167.278
 20
93.8153
 11
167.036
 21
93.7714
  0
LINE
  8
0
 10
167.036
 20
93.7714
 11
166.792
 21
93.7513
  0
LINE
  8
0
 10
166.792
 20
93.7513
 11
166.546
 21
93.7553
  0
LINE
  8
0
 10
-186.522
 20
48.4553
 11
-186.668
 21
48.4721
  0
LINE
  8
0
 10
-186.668
 20
48.4721
 11
-186.812
 21
48.5032
  0
LINE
  8
0
 10
-186.812
 20
48.5032
 11
-186.952
 21
48.5482
  0
LINE
  8
0
 10
-186.952
 20
48.5482
 11
-187.087
 21
48.6068
  0
LINE
  8
0
 10
-187.087
 20
48.6068
 11
-187.216
 21
48.6783
  0
LINE
  8
0
 10
-187.216
 20
48.6783
 11
-187.337
 21
48.762
  0
LINE
  8
0
 10
-187.337
 20
48.762
 11
-187.449
 21
48.8573
  0
LINE
  8
0
 10
-187.449
 20
48.8573
 11
-187.551
 21
48.963
  0
LINE
  8
0
 10
-187.551
 20
48.963
 11
-187.643
 21
49.0784
  0
LINE
  8
0
 10
-187.643
 20
49.0784
 11
-187.723
 21
49.2021
  0
LINE
  8
0
 10
-187.723
 20
49.2021
 11
-187.79
 21
49.333
  0
LINE
  8
0
 10
-187.79
 20
49.333
 11
-187.844
 21
49.4699
  0
LINE
  8
0
 10
-187.844
 20
49.4699
 11
-187.884
 21
49.6115
  0
LINE
  8
0
 10
-187.884
 20
49.6115
 11
-187.911
 21
49.7563
  0
LINE
  8
0
 10
-187.911
 20
49.7563
 11
-187.923
 21
49.903
  0
LINE
  8
0
 10
-187.923
 20
49.903
 11
-187.92
 21
50.0502
  0
LINE
  8
0
 10
-187.92
 20
50.0502
 11
-187.904
 21
50.1964
  0
LINE
  8
0
 10
-187.904
 20
50.1964
 11
-187.873
 21
50.3403
  0
LINE
  8
0
 10
-187.873
 20
50.3403
 11
-187.828
 21
50.4804
  0
LINE
  8
0
 10
-187.828
 20
50.4804
 11
-187.769
 21
50.6155
  0
LINE
  8
0
 10
-187.769
 20
50.6155
 11
-187.697
 21
50.7442
  0
LINE
  8
0
 10
-187.697
 20
50.7442
 11
-187.614
 21
50.8652
  0
LINE
  8
0
 10
-187.614
 20
50.8652
 11
-187.518
 21
50.9775
  0
LINE
  8
0
 10
-187.518
 20
50.9775
 11
-187.413
 21
51.0798
  0
LINE
  8
0
 10
-187.413
 20
51.0798
 11
-187.297
 21
51.1713
  0
LINE
  8
0
 10
-187.297
 20
51.1713
 11
-187.174
 21
51.2511
  0
LINE
  8
0
 10
-187.174
 20
51.2511
 11
-187.043
 21
51.3184
  0
LINE
  8
0
 10
-187.043
 20
51.3184
 11
-186.906
 21
51.3725
  0
LINE
  8
0
 10
-186.906
 20
51.3725
 11
-186.764
 21
51.4129
  0
LINE
  8
0
 10
-186.764
 20
51.4129
 11
-186.619
 21
51.4392
  0
LINE
  8
0
 10
-186.619
 20
51.4392
 11
-186.473
 21
51.4513
  0
LINE
  8
0
 10
-186.473
 20
51.4513
 11
-186.326
 21
51.4489
  0
LINE
  8
0
 10
-186.326
 20
51.4489
 11
-186.179
 21
51.432
  0
LINE
  8
0
 10
-186.179
 20
51.432
 11
-186.035
 21
51.401
  0
LINE
  8
0
 10
-186.035
 20
51.401
 11
-185.895
 21
51.3559
  0
LINE
  8
0
 10
-185.895
 20
51.3559
 11
-185.76
 21
51.2974
  0
LINE
  8
0
 10
-185.76
 20
51.2974
 11
-185.632
 21
51.2259
  0
LINE
  8
0
 10
-185.632
 20
51.2259
 11
-185.511
 21
51.1421
  0
LINE
  8
0
 10
-185.511
 20
51.1421
 11
-185.398
 21
51.0469
  0
LINE
  8
0
 10
-185.398
 20
51.0469
 11
-185.296
 21
50.9411
  0
LINE
  8
0
 10
-185.296
 20
50.9411
 11
-185.204
 21
50.8258
  0
LINE
  8
0
 10
-185.204
 20
50.8258
 11
-185.125
 21
50.7021
  0
LINE
  8
0
 10
-185.125
 20
50.7021
 11
-185.057
 21
50.5711
  0
LINE
  8
0
 10
-185.057
 20
50.5711
 11
-185.003
 21
50.4342
  0
LINE
  8
0
 10
-185.003
 20
50.4342
 11
-184.963
 21
50.2927
  0
LINE
  8
0
 10
-184.963
 20
50.2927
 11
-184.937
 21
50.1479
  0
LINE
  8
0
 10
-184.937
 20
50.1479
 11
-184.924
 21
50.0011
  0
LINE
  8
0
 10
-184.924
 20
50.0011
 11
-184.927
 21
49.854
  0
LINE
  8
0
 10
-184.927
 20
49.854
 11
-184.944
 21
49.7077
  0
LINE
  8
0
 10
-184.944
 20
49.7077
 11
-184.975
 21
49.5638
  0
LINE
  8
0
 10
-184.975
 20
49.5638
 11
-185.02
 21
49.4237
  0
LINE
  8
0
 10
-185.02
 20
49.4237
 11
-185.078
 21
49.2886
  0
LINE
  8
0
 10
-185.078
 20
49.2886
 11
-185.15
 21
49.16
  0
LINE
  8
0
 10
-185.15
 20
49.16
 11
-185.234
 21
49.0389
  0
LINE
  8
0
 10
-185.234
 20
49.0389
 11
-185.329
 21
48.9267
  0
LINE
  8
0
 10
-185.329
 20
48.9267
 11
-185.435
 21
48.8243
  0
LINE
  8
0
 10
-185.435
 20
48.8243
 11
-185.55
 21
48.7328
  0
LINE
  8
0
 10
-185.55
 20
48.7328
 11
-185.674
 21
48.653
  0
LINE
  8
0
 10
-185.674
 20
48.653
 11
-185.805
 21
48.5858
  0
LINE
  8
0
 10
-185.805
 20
48.5858
 11
-185.942
 21
48.5317
  0
LINE
  8
0
 10
-185.942
 20
48.5317
 11
-186.083
 21
48.4913
  0
LINE
  8
0
 10
-186.083
 20
48.4913
 11
-186.228
 21
48.4649
  0
LINE
  8
0
 10
-186.228
 20
48.4649
 11
-186.375
 21
48.4529
  0
LINE
  8
0
 10
-186.375
 20
48.4529
 11
-186.522
 21
48.4553
  0
LINE
  8
0
 10
-193.147
 20
-1.49277
 11
-193.293
 21
-1.47118
  0
LINE
  8
0
 10
-193.293
 20
-1.47118
 11
-193.435
 21
-1.43541
  0
LINE
  8
0
 10
-193.435
 20
-1.43541
 11
-193.574
 21
-1.38582
  0
LINE
  8
0
 10
-193.574
 20
-1.38582
 11
-193.707
 21
-1.32288
  0
LINE
  8
0
 10
-193.707
 20
-1.32288
 11
-193.833
 21
-1.24719
  0
LINE
  8
0
 10
-193.833
 20
-1.24719
 11
-193.952
 21
-1.15952
  0
LINE
  8
0
 10
-193.952
 20
-1.15952
 11
-194.061
 21
-1.06065
  0
LINE
  8
0
 10
-194.061
 20
-1.06065
 11
-194.16
 21
-0.951584
  0
LINE
  8
0
 10
-194.16
 20
-0.951584
 11
-194.247
 21
-0.833344
  0
LINE
  8
0
 10
-194.247
 20
-0.833344
 11
-194.323
 21
-0.707092
  0
LINE
  8
0
 10
-194.323
 20
-0.707092
 11
-194.386
 21
-0.57402
  0
LINE
  8
0
 10
-194.386
 20
-0.57402
 11
-194.435
 21
-0.435425
  0
LINE
  8
0
 10
-194.435
 20
-0.435425
 11
-194.471
 21
-0.292633
  0
LINE
  8
0
 10
-194.471
 20
-0.292633
 11
-194.493
 21
-0.147018
  0
LINE
  8
0
 10
-194.493
 20
-0.147018
 11
-194.5
 21
0
  0
LINE
  8
0
 10
-194.5
 20
0
 11
-194.493
 21
0.147018
  0
LINE
  8
0
 10
-194.493
 20
0.147018
 11
-194.471
 21
0.292633
  0
LINE
  8
0
 10
-194.471
 20
0.292633
 11
-194.435
 21
0.435425
  0
LINE
  8
0
 10
-194.435
 20
0.435425
 11
-194.386
 21
0.57402
  0
LINE
  8
0
 10
-194.386
 20
0.57402
 11
-194.323
 21
0.707092
  0
LINE
  8
0
 10
-194.323
 20
0.707092
 11
-194.247
 21
0.833344
  0
LINE
  8
0
 10
-194.247
 20
0.833344
 11
-194.16
 21
0.951584
  0
LINE
  8
0
 10
-194.16
 20
0.951584
 11
-194.061
 21
1.06065
  0
LINE
  8
0
 10
-194.061
 20
1.06065
 11
-193.952
 21
1.15952
  0
LINE
  8
0
 10
-193.952
 20
1.15952
 11
-193.833
 21
1.24719
  0
LINE
  8
0
 10
-193.833
 20
1.24719
 11
-193.707
 21
1.32288
  0
LINE
  8
0
 10
-193.707
 20
1.32288
 11
-193.574
 21
1.38582
  0
LINE
  8
0
 10
-193.574
 20
1.38582
 11
-193.435
 21
1.43541
  0
LINE
  8
0
 10
-193.435
 20
1.43541
 11
-193.293
 21
1.47118
  0
LINE
  8
0
 10
-193.293
 20
1.47118
 11
-193.147
 21
1.49277
  0
LINE
  8
0
 10
-193.147
 20
1.49277
 11
-193
 21
1.5
  0
LINE
  8
0
 10
-193
 20
1.5
 11
-192.853
 21
1.49277
  0
LINE
  8
0
 10
-192.853
 20
1.49277
 11
-192.707
 21
1.47118
  0
LINE
  8
0
 10
-192.707
 20
1.47118
 11
-192.565
 21
1.43541
  0
LINE
  8
0
 10
-192.565
 20
1.43541
 11
-192.426
 21
1.38582
  0
LINE
  8
0
 10
-192.426
 20
1.38582
 11
-192.293
 21
1.32288
  0
LINE
  8
0
 10
-192.293
 20
1.32288
 11
-192.167
 21
1.24719
  0
LINE
  8
0
 10
-192.167
 20
1.24719
 11
-192.048
 21
1.15952
  0
LINE
  8
0
 10
-192.048
 20
1.15952
 11
-191.939
 21
1.06065
  0
LINE
  8
0
 10
-191.939
 20
1.06065
 11
-191.84
 21
0.951584
  0
LINE
  8
0
 10
-191.84
 20
0.951584
 11
-191.753
 21
0.833344
  0
LINE
  8
0
 10
-191.753
 20
0.833344
 11
-191.677
 21
0.707092
  0
LINE
  8
0
 10
-191.677
 20
0.707092
 11
-191.614
 21
0.57402
  0
LINE
  8
0
 10
-191.614
 20
0.57402
 11
-191.565
 21
0.435425
  0
LINE
  8
0
 10
-191.565
 20
0.435425
 11
-191.529
 21
0.292633
  0
LINE
  8
0
 10
-191.529
 20
0.292633
 11
-191.507
 21
0.147018
  0
LINE
  8
0
 10
-191.507
 20
0.147018
 11
-191.5
 21
0
  0
LINE
  8
0
 10
-191.5
 20
0
 11
-191.507
 21
-0.147018
  0
LINE
  8
0
 10
-191.507
 20
-0.147018
 11
-191.529
 21
-0.292633
  0
LINE
  8
0
 10
-191.529
 20
-0.292633
 11
-191.565
 21
-0.435425
  0
LINE
  8
0
 10
-191.565
 20
-0.435425
 11
-191.614
 21
-0.57402
  0
LINE
  8
0
 10
-191.614
 20
-0.57402
 11
-191.677
 21
-0.707092
  0
LINE
  8
0
 10
-191.677
 20
-0.707092
 11
-191.753
 21
-0.833344
  0
LINE
  8
0
 10
-191.753
 20
-0.833344
 11
-191.84
 21
-0.951584
  0
LINE
  8
0
 10
-191.84
 20
-0.951584
 11
-191.939
 21
-1.06065
  0
LINE
  8
0
 10
-191.939
 20
-1.06065
 11
-192.048
 21
-1.15952
  0
LINE
  8
0
 10
-192.048
 20
-1.15952
 11
-192.167
 21
-1.24719
  0
LINE
  8
0
 10
-192.167
 20
-1.24719
 11
-192.293
 21
-1.32288
  0
LINE
  8
0
 10
-192.293
 20
-1.32288
 11
-192.426
 21
-1.38582
  0
LINE
  8
0
 10
-192.426
 20
-1.38582
 11
-192.565
 21
-1.43541
  0
LINE
  8
0
 10
-192.565
 20
-1.43541
 11
-192.707
 21
-1.47118
  0
LINE
  8
0
 10
-192.707
 20
-1.47118
 11
-192.853
 21
-1.49277
  0
LINE
  8
0
 10
-192.853
 20
-1.49277
 11
-193
 21
-1.5
  0
LINE
  8
0
 10
-193
 20
-1.5
 11
-193.147
 21
-1.49277
  0
LINE
  8
0
 10
-186.619
 20
-51.4392
 11
-186.764
 21
-51.4129
  0
LINE
  8
0
 10
-186.764
 20
-51.4129
 11
-186.906
 21
-51.3725
  0
LINE
  8
0
 10
-186.906
 20
-51.3725
 11
-187.043
 21
-51.3184
  0
LINE
  8
0
 10
-187.043
 20
-51.3184
 11
-187.174
 21
-51.2511
  0
LINE
  8
0
 10
-187.174
 20
-51.2511
 11
-187.297
 21
-51.1713
  0
LINE
  8
0
 10
-187.297
 20
-51.1713
 11
-187.413
 21
-51.0798
  0
LINE
  8
0
 10
-187.413
 20
-51.0798
 11
-187.518
 21
-50.9775
  0
LINE
  8
0
 10
-187.518
 20
-50.9775
 11
-187.614
 21
-50.8652
  0
LINE
  8
0
 10
-187.614
 20
-50.8652
 11
-187.697
 21
-50.7442
  0
LINE
  8
0
 10
-187.697
 20
-50.7442
 11
-187.769
 21
-50.6155
  0
LINE
  8
0
 10
-187.769
 20
-50.6155
 11
-187.828
 21
-50.4804
  0
LINE
  8
0
 10
-187.828
 20
-50.4804
 11
-187.873
 21
-50.3403
  0
LINE
  8
0
 10
-187.873
 20
-50.3403
 11
-187.904
 21
-50.1964
  0
LINE
  8
0
 10
-187.904
 20
-50.1964
 11
-187.92
 21
-50.0502
  0
LINE
  8
0
 10
-187.92
 20
-50.0502
 11
-187.923
 21
-49.903
  0
LINE
  8
0
 10
-187.923
 20
-49.903
 11
-187.911
 21
-49.7563
  0
LINE
  8
0
 10
-187.911
 20
-49.7563
 11
-187.884
 21
-49.6115
  0
LINE
  8
0
 10
-187.884
 20
-49.6115
 11
-187.844
 21
-49.4699
  0
LINE
  8
0
 10
-187.844
 20
-49.4699
 11
-187.79
 21
-49.333
  0
LINE
  8
0
 10
-187.79
 20
-49.333
 11
-187.723
 21
-49.2021
  0
LINE
  8
0
 10
-187.723
 20
-49.2021
 11
-187.643
 21
-49.0784
  0
LINE
  8
0
 10
-187.643
 20
-49.0784
 11
-187.551
 21
-48.963
  0
LINE
  8
0
 10
-187.551
 20
-48.963
 11
-187.449
 21
-48.8573
  0
LINE
  8
0
 10
-187.449
 20
-48.8573
 11
-187.337
 21
-48.762
  0
LINE
  8
0
 10
-187.337
 20
-48.762
 11
-187.216
 21
-48.6783
  0
LINE
  8
0
 10
-187.216
 20
-48.6783
 11
-187.087
 21
-48.6068
  0
LINE
  8
0
 10
-187.087
 20
-48.6068
 11
-186.952
 21
-48.5482
  0
LINE
  8
0
 10
-186.952
 20
-48.5482
 11
-186.812
 21
-48.5032
  0
LINE
  8
0
 10
-186.812
 20
-48.5032
 11
-186.668
 21
-48.4721
  0
LINE
  8
0
 10
-186.668
 20
-48.4721
 11
-186.522
 21
-48.4553
  0
LINE
  8
0
 10
-186.522
 20
-48.4553
 11
-186.375
 21
-48.4529
  0
LINE
  8
0
 10
-186.375
 20
-48.4529
 11
-186.228
 21
-48.4649
  0
LINE
  8
0
 10
-186.228
 20
-48.4649
 11
-186.083
 21
-48.4913
  0
LINE
  8
0
 10
-186.083
 20
-48.4913
 11
-185.942
 21
-48.5317
  0
LINE
  8
0
 10
-185.942
 20
-48.5317
 11
-185.805
 21
-48.5858
  0
LINE
  8
0
 10
-185.805
 20
-48.5858
 11
-185.674
 21
-48.653
  0
LINE
  8
0
 10
-185.674
 20
-48.653
 11
-185.55
 21
-48.7328
  0
LINE
  8
0
 10
-185.55
 20
-48.7328
 11
-185.435
 21
-48.8243
  0
LINE
  8
0
 10
-185.435
 20
-48.8243
 11
-185.329
 21
-48.9267
  0
LINE
  8
0
 10
-185.329
 20
-48.9267
 11
-185.234
 21
-49.0389
  0
LINE
  8
0
 10
-185.234
 20
-49.0389
 11
-185.15
 21
-49.16
  0
LINE
  8
0
 10
-185.15
 20
-49.16
 11
-185.078
 21
-49.2886
  0
LINE
  8
0
 10
-185.078
 20
-49.2886
 11
-185.02
 21
-49.4237
  0
LINE
  8
0
 10
-185.02
 20
-49.4237
 11
-184.975
 21
-49.5638
  0
LINE
  8
0
 10
-184.975
 20
-49.5638
 11
-184.944
 21
-49.7077
  0
LINE
  8
0
 10
-184.944
 20
-49.7077
 11
-184.927
 21
-49.854
  0
LINE
  8
0
 10
-184.927
 20
-49.854
 11
-184.924
 21
-50.0011
  0
LINE
  8
0
 10
-184.924
 20
-50.0011
 11
-184.937
 21
-50.1479
  0
LINE
  8
0
 10
-184.937
 20
-50.1479
 11
-184.963
 21
-50.2927
  0
LINE
  8
0
 10
-184.963
 20
-50.2927
 11
-185.003
 21
-50.4342
  0
LINE
  8
0
 10
-185.003
 20
-50.4342
 11
-185.057
 21
-50.5711
  0
LINE
  8
0
 10
-185.057
 20
-50.5711
 11
-185.125
 21
-50.7021
  0
LINE
  8
0
 10
-185.125
 20
-50.7021
 11
-185.204
 21
-50.8258
  0
LINE
  8
0
 10
-185.204
 20
-50.8258
 11
-185.296
 21
-50.9411
  0
LINE
  8
0
 10
-185.296
 20
-50.9411
 11
-185.398
 21
-51.0469
  0
LINE
  8
0
 10
-185.398
 20
-51.0469
 11
-185.511
 21
-51.1421
  0
LINE
  8
0
 10
-185.511
 20
-51.1421
 11
-185.632
 21
-51.2259
  0
LINE
  8
0
 10
-185.632
 20
-51.2259
 11
-185.76
 21
-51.2974
  0
LINE
  8
0
 10
-185.76
 20
-51.2974
 11
-185.895
 21
-51.3559
  0
LINE
  8
0
 10
-185.895
 20
-51.3559
 11
-186.035
 21
-51.401
  0
LINE
  8
0
 10
-186.035
 20
-51.401
 11
-186.179
 21
-51.432
  0
LINE
  8
0
 10
-186.179
 20
-51.432
 11
-186.326
 21
-51.4489
  0
LINE
  8
0
 10
-186.326
 20
-51.4489
 11
-186.473
 21
-51.4513
  0
LINE
  8
0
 10
-186.473
 20
-51.4513
 11
-186.619
 21
-51.4392
  0
LINE
  8
0
 10
-166.873
 20
-98.7446
 11
-167.117
 21
-98.7166
  0
LINE
  8
0
 10
-167.117
 20
-98.7166
 11
-167.357
 21
-98.6648
  0
LINE
  8
0
 10
-167.357
 20
-98.6648
 11
-167.591
 21
-98.5898
  0
LINE
  8
0
 10
-167.591
 20
-98.5898
 11
-167.816
 21
-98.4922
  0
LINE
  8
0
 10
-167.816
 20
-98.4922
 11
-168.03
 21
-98.373
  0
LINE
  8
0
 10
-168.03
 20
-98.373
 11
-168.232
 21
-98.2334
  0
LINE
  8
0
 10
-168.232
 20
-98.2334
 11
-168.419
 21
-98.0746
  0
LINE
  8
0
 10
-168.419
 20
-98.0746
 11
-168.589
 21
-97.8984
  0
LINE
  8
0
 10
-168.589
 20
-97.8984
 11
-168.742
 21
-97.7062
  0
LINE
  8
0
 10
-168.742
 20
-97.7062
 11
-168.875
 21
-97.5
  0
LINE
  8
0
 10
-168.875
 20
-97.5
 11
-168.987
 21
-97.2818
  0
LINE
  8
0
 10
-168.987
 20
-97.2818
 11
-169.077
 21
-97.0536
  0
LINE
  8
0
 10
-169.077
 20
-97.0536
 11
-169.145
 21
-96.8177
  0
LINE
  8
0
 10
-169.145
 20
-96.8177
 11
-169.188
 21
-96.5763
  0
LINE
  8
0
 10
-169.188
 20
-96.5763
 11
-169.209
 21
-96.3318
  0
LINE
  8
0
 10
-169.209
 20
-96.3318
 11
-169.205
 21
-96.0865
  0
LINE
  8
0
 10
-169.205
 20
-96.0865
 11
-169.176
 21
-95.8428
  0
LINE
  8
0
 10
-169.176
 20
-95.8428
 11
-169.125
 21
-95.603
  0
LINE
  8
0
 10
-169.125
 20
-95.603
 11
-169.05
 21
-95.3694
  0
LINE
  8
0
 10
-169.05
 20
-95.3694
 11
-168.952
 21
-95.1443
  0
LINE
  8
0
 10
-168.952
 20
-95.1443
 11
-168.833
 21
-94.9298
  0
LINE
  8
0
 10
-168.833
 20
-94.9298
 11
-168.693
 21
-94.7281
  0
LINE
  8
0
 10
-168.693
 20
-94.7281
 11
-168.535
 21
-94.541
  0
LINE
  8
0
 10
-168.535
 20
-94.541
 11
-168.358
 21
-94.3704
  0
LINE
  8
0
 10
-168.358
 20
-94.3704
 11
-168.166
 21
-94.2179
  0
LINE
  8
0
 10
-168.166
 20
-94.2179
 11
-167.96
 21
-94.0849
  0
LINE
  8
0
 10
-167.96
 20
-94.0849
 11
-167.742
 21
-93.9728
  0
LINE
  8
0
 10
-167.742
 20
-93.9728
 11
-167.513
 21
-93.8827
  0
LINE
  8
0
 10
-167.513
 20
-93.8827
 11
-167.278
 21
-93.8153
  0
LINE
  8
0
 10
-167.278
 20
-93.8153
 11
-167.036
 21
-93.7714
  0
LINE
  8
0
 10
-167.036
 20
-93.7714
 11
-166.792
 21
-93.7513
  0
LINE
  8
0
 10
-166.792
 20
-93.7513
 11
-166.546
 21
-93.7553
  0
LINE
  8
0
 10
-166.546
 20
-93.7553
 11
-166.303
 21
-93.7834
  0
LINE
  8
0
 10
-166.303
 20
-93.7834
 11
-166.063
 21
-93.8352
  0
LINE
  8
0
 10
-166.063
 20
-93.8352
 11
-165.829
 21
-93.9102
  0
LINE
  8
0
 10
-165.829
 20
-93.9102
 11
-165.604
 21
-94.0078
  0
LINE
  8
0
 10
-165.604
 20
-94.0078
 11
-165.39
 21
-94.127
  0
LINE
  8
0
 10
-165.39
 20
-94.127
 11
-165.188
 21
-94.2666
  0
LINE
  8
0
 10
-165.188
 20
-94.2666
 11
-165.001
 21
-94.4253
  0
LINE
  8
0
 10
-165.001
 20
-94.4253
 11
-164.83
 21
-94.6016
  0
LINE
  8
0
 10
-164.83
 20
-94.6016
 11
-164.678
 21
-94.7938
  0
LINE
  8
0
 10
-164.678
 20
-94.7938
 11
-164.545
 21
-95
  0
LINE
  8
0
 10
-164.545
 20
-95
 11
-164.433
 21
-95.2182
  0
LINE
  8
0
 10
-164.433
 20
-95.2182
 11
-164.343
 21
-95.4464
  0
LINE
  8
0
 10
-164.343
 20
-95.4464
 11
-164.275
 21
-95.6823
  0
LINE
  8
0
 10
-164.275
 20
-95.6823
 11
-164.231
 21
-95.9237
  0
LINE
  8
0
 10
-164.231
 20
-95.9237
 11
-164.211
 21
-96.1682
  0
LINE
  8
0
 10
-164.211
 20
-96.1682
 11
-164.215
 21
-96.4135
  0
LINE
  8
0
 10
-164.215
 20
-96.4135
 11
-164.243
 21
-96.6572
  0
LINE
  8
0
 10
-164.243
 20
-96.6572
 11
-164.295
 21
-96.897
  0
LINE
  8
0
 10
-164.295
 20
-96.897
 11
-164.37
 21
-97.1306
  0
LINE
  8
0
 10
-164.37
 20
-97.1306
 11
-164.468
 21
-97.3557
  0
LINE
  8
0
 10
-164.468
 20
-97.3557
 11
-164.587
 21
-97.5702
  0
LINE
  8
0
 10
-164.587
 20
-97.5702
 11
-164.727
 21
-97.7719
  0
LINE
  8
0
 10
-164.727
 20
-97.7719
 11
-164.885
 21
-97.959
  0
LINE
  8
0
 10
-164.885
 20
-97.959
 11
-165.062
 21
-98.1296
  0
LINE
  8
0
 10
-165.062
 20
-98.1296
 11
-165.254
 21
-98.2821
  0
LINE
  8
0
 10
-165.254
 20
-98.2821
 11
-165.46
 21
-98.4151
  0
LINE
  8
0
 10
-165.46
 20
-98.4151
 11
-165.678
 21
-98.5271
  0
LINE
  8
0
 10
-165.678
 20
-98.5271
 11
-165.906
 21
-98.6173
  0
LINE
  8
0
 10
-165.906
 20
-98.6173
 11
-166.142
 21
-98.6847
  0
LINE
  8
0
 10
-166.142
 20
-98.6847
 11
-166.384
 21
-98.7286
  0
LINE
  8
0
 10
-166.384
 20
-98.7286
 11
-166.628
 21
-98.7487
  0
LINE
  8
0
 10
-166.628
 20
-98.7487
 11
-166.873
 21
-98.7446
  0
LINE
  8
0
 10
166.384
 20
-98.7286
 11
166.142
 21
-98.6847
  0
LINE
  8
0
 10
166.142
 20
-98.6847
 11
165.906
 21
-98.6173
  0
LINE
  8
0
 10
165.906
 20
-98.6173
 11
165.678
 21
-98.5271
  0
LINE
  8
0
 10
165.678
 20
-98.5271
 11
165.46
 21
-98.4151
  0
LINE
  8
0
 10
165.46
 20
-98.4151
 11
165.254
 21
-98.2821
  0
LINE
  8
0
 10
165.254
 20
-98.2821
 11
165.062
 21
-98.1296
  0
LINE
  8
0
 10
165.062
 20
-98.1296
 11
164.885
 21
-97.959
  0
LINE
  8
0
 10
164.885
 20
-97.959
 11
164.727
 21
-97.7719
  0
LINE
  8
0
 10
164.727
 20
-97.7719
 11
164.587
 21
-97.5702
  0
LINE
  8
0
 10
164.587
 20
-97.5702
 11
164.468
 21
-97.3557
  0
LINE
  8
0
 10
164.468
 20
-97.3557
 11
164.37
 21
-97.1306
  0
LINE
  8
0
 10
164.37
 20
-97.1306
 11
164.295
 21
-96.897
  0
LINE
  8
0
 10
164.295
 20
-96.897
 11
164.243
 21
-96.6572
  0
LINE
  8
0
 10
164.243
 20
-96.6572
 11
164.215
 21
-96.4135
  0
LINE
  8
0
 10
164.215
 20
-96.4135
 11
164.211
 21
-96.1682
  0
LINE
  8
0
 10
164.211
 20
-96.1682
 11
164.231
 21
-95.9237
  0
LINE
  8
0
 10
164.231
 20
-95.9237
 11
164.275
 21
-95.6823
  0
LINE
  8
0
 10
164.275
 20
-95.6823
 11
164.343
 21
-95.4464
  0
LINE
  8
0
 10
164.343
 20
-95.4464
 11
164.433
 21
-95.2182
  0
LINE
  8
0
 10
164.433
 20
-95.2182
 11
164.545
 21
-95
  0
LINE
  8
0
 10
164.545
 20
-95
 11
164.678
 21
-94.7938
  0
LINE
  8
0
 10
164.678
 20
-94.7938
 11
164.83
 21
-94.6016
  0
LINE
  8
0
 10
164.83
 20
-94.6016
 11
165.001
 21
-94.4253
  0
LINE
  8
0
 10
165.001
 20
-94.4253
 11
165.188
 21
-94.2666
  0
LINE
  8
0
 10
165.188
 20
-94.2666
 11
165.39
 21
-94.127
  0
LINE
  8
0
 10
165.39
 20
-94.127
 11
165.604
 21
-94.0078
  0
LINE
  8
0
 10
165.604
 20
-94.0078
 11
165.829
 21
-93.9102
  0
LINE
  8
0
 10
165.829
 20
-93.9102
 11
166.063
 21
-93.8352
  0
LINE
  8
0
 10
166.063
 20
-93.8352
 11
166.303
 21
-93.7834
  0
LINE
  8
0
 10
166.303
 20
-93.7834
 11
166.546
 21
-93.7553
  0
LINE
  8
0
 10
166.546
 20
-93.7553
 11
166.792
 21
-93.7513
  0
LINE
  8
0
 10
166.792
 20
-93.7513
 11
167.036
 21
-93.7714
  0
LINE
  8
0
 10
167.036
 20
-93.7714
 11
167.278
 21
-93.8153
  0
LINE
  8
0
 10
167.278
 20
-93.8153
 11
167.513
 21
-93.8827
  0
LINE
  8
0
 10
167.513
 20
-93.8827
 11
167.742
 21
-93.9728
  0
LINE
  8
0
 10
167.742
 20
-93.9728
 11
167.96
 21
-94.0849
  0
LINE
  8
0
 10
167.96
 20
-94.0849
 11
168.166
 21
-94.2179
  0
LINE
  8
0
 10
168.166
 20
-94.2179
 11
168.358
 21
-94.3704
  0
LINE
  8
0
 10
168.358
 20
-94.3704
 11
168.535
 21
-94.541
  0
LINE
  8
0
 10
168.535
 20
-94.541
 11
168.693
 21
-94.7281
  0
LINE
  8
0
 10
168.693
 20
-94.7281
 11
168.833
 21
-94.9298
  0
LINE
  8
0
 10
168.833
 20
-94.9298
 11
168.952
 21
-95.1443
  0
LINE
  8
0
 10
168.952
 20
-95.1443
 11
169.05
 21
-95.3694
  0
LINE
  8
0
 10
169.05
 20
-95.3694
 11
169.125
 21
-95.603
  0
LINE
  8
0
 10
169.125
 20
-95.603
 11
169.176
 21
-95.8428
  0
LINE
  8
0
 10
169.176
 20
-95.8428
 11
169.205
 21
-96.0865
  0
LINE
  8
0
 10
169.205
 20
-96.0865
 11
169.209
 21
-96.3318
  0
LINE
  8
0
 10
169.209
 20
-96.3318
 11
169.188
 21
-96.5763
  0
LINE
  8
0
 10
169.188
 20
-96.5763
 11
169.145
 21
-96.8177
  0
LINE
  8
0
 10
169.145
 20
-96.8177
 11
169.077
 21
-97.0536
  0
LINE
  8
0
 10
169.077
 20
-97.0536
 11
168.987
 21
-97.2818
  0
LINE
  8
0
 10
168.987
 20
-97.2818
 11
168.875
 21
-97.5
  0
LINE
  8
0
 10
168.875
 20
-97.5
 11
168.742
 21
-97.7062
  0
LINE
  8
0
 10
168.742
 20
-97.7062
 11
168.589
 21
-97.8984
  0
LINE
  8
0
 10
168.589
 20
-97.8984
 11
168.419
 21
-98.0746
  0
LINE
  8
0
 10
168.419
 20
-98.0746
 11
168.232
 21
-98.2334
  0
LINE
  8
0
 10
168.232
 20
-98.2334
 11
168.03
 21
-98.373
  0
LINE
  8
0
 10
168.03
 20
-98.373
 11
167.816
 21
-98.4922
  0
LINE
  8
0
 10
167.816
 20
-98.4922
 11
167.591
 21
-98.5898
  0
LINE
  8
0
 10
167.591
 20
-98.5898
 11
167.357
 21
-98.6648
  0
LINE
  8
0
 10
167.357
 20
-98.6648
 11
167.117
 21
-98.7166
  0
LINE
  8
0
 10
167.117
 20
-98.7166
 11
166.873
 21
-98.7446
  0
LINE
  8
0
 10
166.873
 20
-98.7446
 11
166.628
 21
-98.7487
  0
LINE
  8
0
 10
166.628
 20
-98.7487
 11
166.384
 21
-98.7286
  0
LINE
  8
0
 10
-124.221
 20
-149.338
 11
-124.367
 21
-149.314
  0
LINE
  8
0
 10
-124.367
 20
-149.314
 11
-124.509
 21
-149.277
  0
LINE
  8
0
 10
-124.509
 20
-149.277
 11
-124.647
 21
-149.226
  0
LINE
  8
0
 10
-124.647
 20
-149.226
 11
-124.779
 21
-149.162
  0
LINE
  8
0
 10
-124.779
 20
-149.162
 11
-124.905
 21
-149.085
  0
LINE
  8
0
 10
-124.905
 20
-149.085
 11
-125.022
 21
-148.996
  0
LINE
  8
0
 10
-125.022
 20
-148.996
 11
-125.13
 21
-148.896
  0
LINE
  8
0
 10
-125.13
 20
-148.896
 11
-125.228
 21
-148.785
  0
LINE
  8
0
 10
-125.228
 20
-148.785
 11
-125.314
 21
-148.666
  0
LINE
  8
0
 10
-125.314
 20
-148.666
 11
-125.389
 21
-148.539
  0
LINE
  8
0
 10
-125.389
 20
-148.539
 11
-125.45
 21
-148.405
  0
LINE
  8
0
 10
-125.45
 20
-148.405
 11
-125.498
 21
-148.266
  0
LINE
  8
0
 10
-125.498
 20
-148.266
 11
-125.532
 21
-148.123
  0
LINE
  8
0
 10
-125.532
 20
-148.123
 11
-125.552
 21
-147.977
  0
LINE
  8
0
 10
-125.552
 20
-147.977
 11
-125.558
 21
-147.83
  0
LINE
  8
0
 10
-125.558
 20
-147.83
 11
-125.549
 21
-147.683
  0
LINE
  8
0
 10
-125.549
 20
-147.683
 11
-125.526
 21
-147.538
  0
LINE
  8
0
 10
-125.526
 20
-147.538
 11
-125.489
 21
-147.396
  0
LINE
  8
0
 10
-125.489
 20
-147.396
 11
-125.437
 21
-147.257
  0
LINE
  8
0
 10
-125.437
 20
-147.257
 11
-125.373
 21
-147.125
  0
LINE
  8
0
 10
-125.373
 20
-147.125
 11
-125.296
 21
-147
  0
LINE
  8
0
 10
-125.296
 20
-147
 11
-125.207
 21
-146.882
  0
LINE
  8
0
 10
-125.207
 20
-146.882
 11
-125.107
 21
-146.774
  0
LINE
  8
0
 10
-125.107
 20
-146.774
 11
-124.997
 21
-146.677
  0
LINE
  8
0
 10
-124.997
 20
-146.677
 11
-124.878
 21
-146.59
  0
LINE
  8
0
 10
-124.878
 20
-146.59
 11
-124.751
 21
-146.516
  0
LINE
  8
0
 10
-124.751
 20
-146.516
 11
-124.617
 21
-146.455
  0
LINE
  8
0
 10
-124.617
 20
-146.455
 11
-124.478
 21
-146.406
  0
LINE
  8
0
 10
-124.478
 20
-146.406
 11
-124.335
 21
-146.372
  0
LINE
  8
0
 10
-124.335
 20
-146.372
 11
-124.189
 21
-146.352
  0
LINE
  8
0
 10
-124.189
 20
-146.352
 11
-124.042
 21
-146.347
  0
LINE
  8
0
 10
-124.042
 20
-146.347
 11
-123.895
 21
-146.355
  0
LINE
  8
0
 10
-123.895
 20
-146.355
 11
-123.749
 21
-146.379
  0
LINE
  8
0
 10
-123.749
 20
-146.379
 11
-123.607
 21
-146.416
  0
LINE
  8
0
 10
-123.607
 20
-146.416
 11
-123.469
 21
-146.467
  0
LINE
  8
0
 10
-123.469
 20
-146.467
 11
-123.337
 21
-146.531
  0
LINE
  8
0
 10
-123.337
 20
-146.531
 11
-123.211
 21
-146.609
  0
LINE
  8
0
 10
-123.211
 20
-146.609
 11
-123.094
 21
-146.698
  0
LINE
  8
0
 10
-123.094
 20
-146.698
 11
-122.986
 21
-146.798
  0
LINE
  8
0
 10
-122.986
 20
-146.798
 11
-122.888
 21
-146.908
  0
LINE
  8
0
 10
-122.888
 20
-146.908
 11
-122.802
 21
-147.027
  0
LINE
  8
0
 10
-122.802
 20
-147.027
 11
-122.727
 21
-147.154
  0
LINE
  8
0
 10
-122.727
 20
-147.154
 11
-122.666
 21
-147.288
  0
LINE
  8
0
 10
-122.666
 20
-147.288
 11
-122.618
 21
-147.427
  0
LINE
  8
0
 10
-122.618
 20
-147.427
 11
-122.584
 21
-147.57
  0
LINE
  8
0
 10
-122.584
 20
-147.57
 11
-122.564
 21
-147.716
  0
LINE
  8
0
 10
-122.564
 20
-147.716
 11
-122.558
 21
-147.863
  0
LINE
  8
0
 10
-122.558
 20
-147.863
 11
-122.567
 21
-148.01
  0
LINE
  8
0
 10
-122.567
 20
-148.01
 11
-122.59
 21
-148.155
  0
LINE
  8
0
 10
-122.59
 20
-148.155
 11
-122.627
 21
-148.298
  0
LINE
  8
0
 10
-122.627
 20
-148.298
 11
-122.679
 21
-148.436
  0
LINE
  8
0
 10
-122.679
 20
-148.436
 11
-122.743
 21
-148.568
  0
LINE
  8
0
 10
-122.743
 20
-148.568
 11
-122.82
 21
-148.693
  0
LINE
  8
0
 10
-122.82
 20
-148.693
 11
-122.909
 21
-148.811
  0
LINE
  8
0
 10
-122.909
 20
-148.811
 11
-123.009
 21
-148.919
  0
LINE
  8
0
 10
-123.009
 20
-148.919
 11
-123.119
 21
-149.016
  0
LINE
  8
0
 10
-123.119
 20
-149.016
 11
-123.238
 21
-149.103
  0
LINE
  8
0
 10
-123.238
 20
-149.103
 11
-123.365
 21
-149.177
  0
LINE
  8
0
 10
-123.365
 20
-149.177
 11
-123.499
 21
-149.239
  0
LINE
  8
0
 10
-123.499
 20
-149.239
 11
-123.638
 21
-149.287
  0
LINE
  8
0
 10
-123.638
 20
-149.287
 11
-123.781
 21
-149.321
  0
LINE
  8
0
 10
-123.781
 20
-149.321
 11
-123.927
 21
-149.341
  0
LINE
  8
0
 10
-123.927
 20
-149.341
 11
-124.074
 21
-149.346
  0
LINE
  8
0
 10
-124.074
 20
-149.346
 11
-124.221
 21
-149.338
  0
LINE
  8
0
 10
-50.0502
 20
-187.92
 11
-50.1964
 21
-187.904
  0
LINE
  8
0
 10
-50.1964
 20
-187.904
 11
-50.3403
 21
-187.873
  0
LINE
  8
0
 10
-50.3403
 20
-187.873
 11
-50.4804
 21
-187.828
  0
LINE
  8
0
 10
-50.4804
 20
-187.828
 11
-50.6155
 21
-187.769
  0
LINE
  8
0
 10
-50.6155
 20
-187.769
 11
-50.7442
 21
-187.697
  0
LINE
  8
0
 10
-50.7442
 20
-187.697
 11
-50.8652
 21
-187.614
  0
LINE
  8
0
 10
-50.8652
 20
-187.614
 11
-50.9775
 21
-187.518
  0
LINE
  8
0
 10
-50.9775
 20
-187.518
 11
-51.0798
 21
-187.413
  0
LINE
  8
0
 10
-51.0798
 20
-187.413
 11
-51.1713
 21
-187.297
  0
LINE
  8
0
 10
-51.1713
 20
-187.297
 11
-51.2511
 21
-187.174
  0
LINE
  8
0
 10
-51.2511
 20
-187.174
 11
-51.3184
 21
-187.043
  0
LINE
  8
0
 10
-51.3184
 20
-187.043
 11
-51.3725
 21
-186.906
  0
LINE
  8
0
 10
-51.3725
 20
-186.906
 11
-51.4129
 21
-186.764
  0
LINE
  8
0
 10
-51.4129
 20
-186.764
 11
-51.4392
 21
-186.619
  0
LINE
  8
0
 10
-51.4392
 20
-186.619
 11
-51.4513
 21
-186.473
  0
LINE
  8
0
 10
-51.4513
 20
-186.473
 11
-51.4489
 21
-186.326
  0
LINE
  8
0
 10
-51.4489
 20
-186.326
 11
-51.432
 21
-186.179
  0
LINE
  8
0
 10
-51.432
 20
-186.179
 11
-51.401
 21
-186.035
  0
LINE
  8
0
 10
-51.401
 20
-186.035
 11
-51.3559
 21
-185.895
  0
LINE
  8
0
 10
-51.3559
 20
-185.895
 11
-51.2974
 21
-185.76
  0
LINE
  8
0
 10
-51.2974
 20
-185.76
 11
-51.2259
 21
-185.632
  0
LINE
  8
0
 10
-51.2259
 20
-185.632
 11
-51.1421
 21
-185.511
  0
LINE
  8
0
 10
-51.1421
 20
-185.511
 11
-51.0469
 21
-185.398
  0
LINE
  8
0
 10
-51.0469
 20
-185.398
 11
-50.9411
 21
-185.296
  0
LINE
  8
0
 10
-50.9411
 20
-185.296
 11
-50.8258
 21
-185.204
  0
LINE
  8
0
 10
-50.8258
 20
-185.204
 11
-50.7021
 21
-185.125
  0
LINE
  8
0
 10
-50.7021
 20
-185.125
 11
-50.5711
 21
-185.057
  0
LINE
  8
0
 10
-50.5711
 20
-185.057
 11
-50.4342
 21
-185.003
  0
LINE
  8
0
 10
-50.4342
 20
-185.003
 11
-50.2927
 21
-184.963
  0
LINE
  8
0
 10
-50.2927
 20
-184.963
 11
-50.1479
 21
-184.937
  0
LINE
  8
0
 10
-50.1479
 20
-184.937
 11
-50.0011
 21
-184.924
  0
LINE
  8
0
 10
-50.0011
 20
-184.924
 11
-49.854
 21
-184.927
  0
LINE
  8
0
 10
-49.854
 20
-184.927
 11
-49.7077
 21
-184.944
  0
LINE
  8
0
 10
-49.7077
 20
-184.944
 11
-49.5638
 21
-184.975
  0
LINE
  8
0
 10
-49.5638
 20
-184.975
 11
-49.4237
 21
-185.02
  0
LINE
  8
0
 10
-49.4237
 20
-185.02
 11
-49.2886
 21
-185.078
  0
LINE
  8
0
 10
-49.2886
 20
-185.078
 11
-49.16
 21
-185.15
  0
LINE
  8
0
 10
-49.16
 20
-185.15
 11
-49.0389
 21
-185.234
  0
LINE
  8
0
 10
-49.0389
 20
-185.234
 11
-48.9267
 21
-185.329
  0
LINE
  8
0
 10
-48.9267
 20
-185.329
 11
-48.8243
 21
-185.435
  0
LINE
  8
0
 10
-48.8243
 20
-185.435
 11
-48.7328
 21
-185.55
  0
LINE
  8
0
 10
-48.7328
 20
-185.55
 11
-48.653
 21
-185.674
  0
LINE
  8
0
 10
-48.653
 20
-185.674
 11
-48.5858
 21
-185.805
  0
LINE
  8
0
 10
-48.5858
 20
-185.805
 11
-48.5317
 21
-185.942
  0
LINE
  8
0
 10
-48.5317
 20
-185.942
 11
-48.4913
 21
-186.083
  0
LINE
  8
0
 10
-48.4913
 20
-186.083
 11
-48.4649
 21
-186.228
  0
LINE
  8
0
 10
-48.4649
 20
-186.228
 11
-48.4529
 21
-186.375
  0
LINE
  8
0
 10
-48.4529
 20
-186.375
 11
-48.4553
 21
-186.522
  0
LINE
  8
0
 10
-48.4553
 20
-186.522
 11
-48.4721
 21
-186.668
  0
LINE
  8
0
 10
-48.4721
 20
-186.668
 11
-48.5032
 21
-186.812
  0
LINE
  8
0
 10
-48.5032
 20
-186.812
 11
-48.5482
 21
-186.952
  0
LINE
  8
0
 10
-48.5482
 20
-186.952
 11
-48.6068
 21
-187.087
  0
LINE
  8
0
 10
-48.6068
 20
-187.087
 11
-48.6783
 21
-187.216
  0
LINE
  8
0
 10
-48.6783
 20
-187.216
 11
-48.762
 21
-187.337
  0
LINE
  8
0
 10
-48.762
 20
-187.337
 11
-48.8573
 21
-187.449
  0
LINE
  8
0
 10
-48.8573
 20
-187.449
 11
-48.963
 21
-187.551
  0
LINE
  8
0
 10
-48.963
 20
-187.551
 11
-49.0784
 21
-187.643
  0
LINE
  8
0
 10
-49.0784
 20
-187.643
 11
-49.2021
 21
-187.723
  0
LINE
  8
0
 10
-49.2021
 20
-187.723
 11
-49.333
 21
-187.79
  0
LINE
  8
0
 10
-49.333
 20
-187.79
 11
-49.4699
 21
-187.844
  0
LINE
  8
0
 10
-49.4699
 20
-187.844
 11
-49.6115
 21
-187.884
  0
LINE
  8
0
 10
-49.6115
 20
-187.884
 11
-49.7563
 21
-187.911
  0
LINE
  8
0
 10
-49.7563
 20
-187.911
 11
-49.903
 21
-187.923
  0
LINE
  8
0
 10
-49.903
 20
-187.923
 11
-50.0502
 21
-187.92
  0
LINE
  8
0
 10
33.3345
 20
-191.557
 11
33.1894
 21
-191.532
  0
LINE
  8
0
 10
33.1894
 20
-191.532
 11
33.0475
 21
-191.493
  0
LINE
  8
0
 10
33.0475
 20
-191.493
 11
32.91
 21
-191.441
  0
LINE
  8
0
 10
32.91
 20
-191.441
 11
32.7783
 21
-191.375
  0
LINE
  8
0
 10
32.7783
 20
-191.375
 11
32.6537
 21
-191.297
  0
LINE
  8
0
 10
32.6537
 20
-191.297
 11
32.5374
 21
-191.206
  0
LINE
  8
0
 10
32.5374
 20
-191.206
 11
32.4305
 21
-191.105
  0
LINE
  8
0
 10
32.4305
 20
-191.105
 11
32.3341
 21
-190.994
  0
LINE
  8
0
 10
32.3341
 20
-190.994
 11
32.249
 21
-190.874
  0
LINE
  8
0
 10
32.249
 20
-190.874
 11
32.1761
 21
-190.746
  0
LINE
  8
0
 10
32.1761
 20
-190.746
 11
32.1161
 21
-190.612
  0
LINE
  8
0
 10
32.1161
 20
-190.612
 11
32.0695
 21
-190.472
  0
LINE
  8
0
 10
32.0695
 20
-190.472
 11
32.0369
 21
-190.328
  0
LINE
  8
0
 10
32.0369
 20
-190.328
 11
32.0185
 21
-190.182
  0
LINE
  8
0
 10
32.0185
 20
-190.182
 11
32.0145
 21
-190.035
  0
LINE
  8
0
 10
32.0145
 20
-190.035
 11
32.0249
 21
-189.888
  0
LINE
  8
0
 10
32.0249
 20
-189.888
 11
32.0497
 21
-189.743
  0
LINE
  8
0
 10
32.0497
 20
-189.743
 11
32.0885
 21
-189.601
  0
LINE
  8
0
 10
32.0885
 20
-189.601
 11
32.1411
 21
-189.464
  0
LINE
  8
0
 10
32.1411
 20
-189.464
 11
32.207
 21
-189.332
  0
LINE
  8
0
 10
32.207
 20
-189.332
 11
32.2854
 21
-189.208
  0
LINE
  8
0
 10
32.2854
 20
-189.208
 11
32.3756
 21
-189.091
  0
LINE
  8
0
 10
32.3756
 20
-189.091
 11
32.4768
 21
-188.984
  0
LINE
  8
0
 10
32.4768
 20
-188.984
 11
32.588
 21
-188.888
  0
LINE
  8
0
 10
32.588
 20
-188.888
 11
32.7081
 21
-188.803
  0
LINE
  8
0
 10
32.7081
 20
-188.803
 11
32.836
 21
-188.73
  0
LINE
  8
0
 10
32.836
 20
-188.73
 11
32.9704
 21
-188.67
  0
LINE
  8
0
 10
32.9704
 20
-188.67
 11
33.1101
 21
-188.623
  0
LINE
  8
0
 10
33.1101
 20
-188.623
 11
33.2536
 21
-188.591
  0
LINE
  8
0
 10
33.2536
 20
-188.591
 11
33.3997
 21
-188.572
  0
LINE
  8
0
 10
33.3997
 20
-188.572
 11
33.5468
 21
-188.568
  0
LINE
  8
0
 10
33.5468
 20
-188.568
 11
33.6936
 21
-188.579
  0
LINE
  8
0
 10
33.6936
 20
-188.579
 11
33.8387
 21
-188.603
  0
LINE
  8
0
 10
33.8387
 20
-188.603
 11
33.9807
 21
-188.642
  0
LINE
  8
0
 10
33.9807
 20
-188.642
 11
34.1182
 21
-188.695
  0
LINE
  8
0
 10
34.1182
 20
-188.695
 11
34.2499
 21
-188.761
  0
LINE
  8
0
 10
34.2499
 20
-188.761
 11
34.3745
 21
-188.839
  0
LINE
  8
0
 10
34.3745
 20
-188.839
 11
34.4908
 21
-188.929
  0
LINE
  8
0
 10
34.4908
 20
-188.929
 11
34.5976
 21
-189.031
  0
LINE
  8
0
 10
34.5976
 20
-189.031
 11
34.6941
 21
-189.142
  0
LINE
  8
0
 10
34.6941
 20
-189.142
 11
34.7792
 21
-189.262
  0
LINE
  8
0
 10
34.7792
 20
-189.262
 11
34.8521
 21
-189.39
  0
LINE
  8
0
 10
34.8521
 20
-189.39
 11
34.9121
 21
-189.524
  0
LINE
  8
0
 10
34.9121
 20
-189.524
 11
34.9587
 21
-189.664
  0
LINE
  8
0
 10
34.9587
 20
-189.664
 11
34.9913
 21
-189.807
  0
LINE
  8
0
 10
34.9913
 20
-189.807
 11
35.0097
 21
-189.953
  0
LINE
  8
0
 10
35.0097
 20
-189.953
 11
35.0137
 21
-190.101
  0
LINE
  8
0
 10
35.0137
 20
-190.101
 11
35.0033
 21
-190.247
  0
LINE
  8
0
 10
35.0033
 20
-190.247
 11
34.9785
 21
-190.393
  0
LINE
  8
0
 10
34.9785
 20
-190.393
 11
34.9397
 21
-190.535
  0
LINE
  8
0
 10
34.9397
 20
-190.535
 11
34.8871
 21
-190.672
  0
LINE
  8
0
 10
34.8871
 20
-190.672
 11
34.8212
 21
-190.804
  0
LINE
  8
0
 10
34.8212
 20
-190.804
 11
34.7428
 21
-190.928
  0
LINE
  8
0
 10
34.7428
 20
-190.928
 11
34.6526
 21
-191.045
  0
LINE
  8
0
 10
34.6526
 20
-191.045
 11
34.5514
 21
-191.151
  0
LINE
  8
0
 10
34.5514
 20
-191.151
 11
34.4402
 21
-191.248
  0
LINE
  8
0
 10
34.4402
 20
-191.248
 11
34.32
 21
-191.333
  0
LINE
  8
0
 10
34.32
 20
-191.333
 11
34.1922
 21
-191.406
  0
LINE
  8
0
 10
34.1922
 20
-191.406
 11
34.0578
 21
-191.466
  0
LINE
  8
0
 10
34.0578
 20
-191.466
 11
33.9181
 21
-191.512
  0
LINE
  8
0
 10
33.9181
 20
-191.512
 11
33.7746
 21
-191.545
  0
LINE
  8
0
 10
33.7746
 20
-191.545
 11
33.6285
 21
-191.564
  0
LINE
  8
0
 10
33.6285
 20
-191.564
 11
33.4814
 21
-191.568
  0
LINE
  8
0
 10
33.4814
 20
-191.568
 11
33.3345
 21
-191.557
  0
LINE
  8
0
 10
-0.245041
 20
-194.988
 11
-0.487717
 21
-194.952
  0
LINE
  8
0
 10
-0.487717
 20
-194.952
 11
-0.725708
 21
-194.892
  0
LINE
  8
0
 10
-0.725708
 20
-194.892
 11
-0.956696
 21
-194.81
  0
LINE
  8
0
 10
-0.956696
 20
-194.81
 11
-1.17848
 21
-194.705
  0
LINE
  8
0
 10
-1.17848
 20
-194.705
 11
-1.38892
 21
-194.579
  0
LINE
  8
0
 10
-1.38892
 20
-194.579
 11
-1.58597
 21
-194.433
  0
LINE
  8
0
 10
-1.58597
 20
-194.433
 11
-1.76776
 21
-194.268
  0
LINE
  8
0
 10
-1.76776
 20
-194.268
 11
-1.93253
 21
-194.086
  0
LINE
  8
0
 10
-1.93253
 20
-194.086
 11
-2.07866
 21
-193.889
  0
LINE
  8
0
 10
-2.07866
 20
-193.889
 11
-2.20479
 21
-193.678
  0
LINE
  8
0
 10
-2.20479
 20
-193.678
 11
-2.30969
 21
-193.457
  0
LINE
  8
0
 10
-2.30969
 20
-193.457
 11
-2.39235
 21
-193.226
  0
LINE
  8
0
 10
-2.39235
 20
-193.226
 11
-2.45195
 21
-192.988
  0
LINE
  8
0
 10
-2.45195
 20
-192.988
 11
-2.48796
 21
-192.745
  0
LINE
  8
0
 10
-2.48796
 20
-192.745
 11
-2.5
 21
-192.5
  0
LINE
  8
0
 10
-2.5
 20
-192.5
 11
-2.48796
 21
-192.255
  0
LINE
  8
0
 10
-2.48796
 20
-192.255
 11
-2.45195
 21
-192.012
  0
LINE
  8
0
 10
-2.45195
 20
-192.012
 11
-2.39235
 21
-191.774
  0
LINE
  8
0
 10
-2.39235
 20
-191.774
 11
-2.30969
 21
-191.543
  0
LINE
  8
0
 10
-2.30969
 20
-191.543
 11
-2.20479
 21
-191.322
  0
LINE
  8
0
 10
-2.20479
 20
-191.322
 11
-2.07866
 21
-191.111
  0
LINE
  8
0
 10
-2.07866
 20
-191.111
 11
-1.93253
 21
-190.914
  0
LINE
  8
0
 10
-1.93253
 20
-190.914
 11
-1.76776
 21
-190.732
  0
LINE
  8
0
 10
-1.76776
 20
-190.732
 11
-1.58597
 21
-190.567
  0
LINE
  8
0
 10
-1.58597
 20
-190.567
 11
-1.38892
 21
-190.421
  0
LINE
  8
0
 10
-1.38892
 20
-190.421
 11
-1.17848
 21
-190.295
  0
LINE
  8
0
 10
-1.17848
 20
-190.295
 11
-0.956696
 21
-190.19
  0
LINE
  8
0
 10
-0.956696
 20
-190.19
 11
-0.725708
 21
-190.108
  0
LINE
  8
0
 10
-0.725708
 20
-190.108
 11
-0.487717
 21
-190.048
  0
LINE
  8
0
 10
-0.487717
 20
-190.048
 11
-0.245041
 21
-190.012
  0
LINE
  8
0
 10
-0.245041
 20
-190.012
 11
0
 21
-190
  0
LINE
  8
0
 10
0
 20
-190
 11
0.245041
 21
-190.012
  0
LINE
  8
0
 10
0.245041
 20
-190.012
 11
0.487717
 21
-190.048
  0
LINE
  8
0
 10
0.487717
 20
-190.048
 11
0.725708
 21
-190.108
  0
LINE
  8
0
 10
0.725708
 20
-190.108
 11
0.956696
 21
-190.19
  0
LINE
  8
0
 10
0.956696
 20
-190.19
 11
1.17848
 21
-190.295
  0
LINE
  8
0
 10
1.17848
 20
-190.295
 11
1.38892
 21
-190.421
  0
LINE
  8
0
 10
1.38892
 20
-190.421
 11
1.58597
 21
-190.567
  0
LINE
  8
0
 10
1.58597
 20
-190.567
 11
1.76776
 21
-190.732
  0
LINE
  8
0
 10
1.76776
 20
-190.732
 11
1.93253
 21
-190.914
  0
LINE
  8
0
 10
1.93253
 20
-190.914
 11
2.07866
 21
-191.111
  0
LINE
  8
0
 10
2.07866
 20
-191.111
 11
2.20479
 21
-191.322
  0
LINE
  8
0
 10
2.20479
 20
-191.322
 11
2.30969
 21
-191.543
  0
LINE
  8
0
 10
2.30969
 20
-191.543
 11
2.39235
 21
-191.774
  0
LINE
  8
0
 10
2.39235
 20
-191.774
 11
2.45195
 21
-192.012
  0
LINE
  8
0
 10
2.45195
 20
-192.012
 11
2.48796
 21
-192.255
  0
LINE
  8
0
 10
2.48796
 20
-192.255
 11
2.5
 21
-192.5
  0
LINE
  8
0
 10
2.5
 20
-192.5
 11
2.48796
 21
-192.745
  0
LINE
  8
0
 10
2.48796
 20
-192.745
 11
2.45195
 21
-192.988
  0
LINE
  8
0
 10
2.45195
 20
-192.988
 11
2.39235
 21
-193.226
  0
LINE
  8
0
 10
2.39235
 20
-193.226
 11
2.30969
 21
-193.457
  0
LINE
  8
0
 10
2.30969
 20
-193.457
 11
2.20479
 21
-193.678
  0
LINE
  8
0
 10
2.20479
 20
-193.678
 11
2.07866
 21
-193.889
  0
LINE
  8
0
 10
2.07866
 20
-193.889
 11
1.93253
 21
-194.086
  0
LINE
  8
0
 10
1.93253
 20
-194.086
 11
1.76776
 21
-194.268
  0
LINE
  8
0
 10
1.76776
 20
-194.268
 11
1.58597
 21
-194.433
  0
LINE
  8
0
 10
1.58597
 20
-194.433
 11
1.38892
 21
-194.579
  0
LINE
  8
0
 10
1.38892
 20
-194.579
 11
1.17848
 21
-194.705
  0
LINE
  8
0
 10
1.17848
 20
-194.705
 11
0.956696
 21
-194.81
  0
LINE
  8
0
 10
0.956696
 20
-194.81
 11
0.725708
 21
-194.892
  0
LINE
  8
0
 10
0.725708
 20
-194.892
 11
0.487717
 21
-194.952
  0
LINE
  8
0
 10
0.487717
 20
-194.952
 11
0.245041
 21
-194.988
  0
LINE
  8
0
 10
0.245041
 20
-194.988
 11
0
 21
-195
  0
LINE
  8
0
 10
0
 20
-195
 11
-0.245041
 21
-194.988
  0
ENDSEC
  0
SECTION
  2
OBJECTS
  0
DICTIONARY
  0
ENDSEC
  0
EOF
